<?xml version="1.0" encoding="utf-8"?>
<!-- Generator: Adobe Illustrator 16.0.0, SVG Export Plug-In . SVG Version: 6.00 Build 0)  -->
<!DOCTYPE svg PUBLIC "-//W3C//DTD SVG 1.1//EN" "http://www.w3.org/Graphics/SVG/1.1/DTD/svg11.dtd">
<svg version="1.1" xmlns="http://www.w3.org/2000/svg" xmlns:xlink="http://www.w3.org/1999/xlink" x="0px" y="0px" width="480px"
	 height="960px" viewBox="0 0 480 960" enable-background="new 0 0 480 960" xml:space="preserve">
<g id="gotas">
</g>
<g id="guías" display="none">
</g>
<g id="Capa_1">
	<g>
		<g>
			<rect x="84" y="769" fill="#F0976B" width="8" height="192"/>
			<rect x="100" y="769" fill="#F0976B" width="8" height="192"/>
		</g>
		<path fill="#FEC629" d="M96,944.413c-17.673,0-32,14.327-32,32v111c0-17.673,14.327-32,32-32s32,14.327,32,32v-111
			C128,958.74,113.673,944.413,96,944.413z"/>
	</g>
</g>
<g id="txt">
	<rect x="-1" y="605" fill="none" width="480.266" height="121.739"/>
	<text transform="matrix(1 0 0 1 82.1523 639.0796)" opacity="0.5"><tspan x="0" y="0" fill="#FFFFFF" font-family="'MyriadPro-Bold'" font-size="48">III ESCUELA DE </tspan><tspan x="-45.84" y="57.6" fill="#FFFFFF" font-family="'MyriadPro-Bold'" font-size="48">VERANO ARTEDIEZ</tspan></text>
	<rect x="-1" y="731.739" fill="none" width="478" height="77"/>
	
		<text transform="matrix(1 0 0 1 95.5752 748.7793)" opacity="0.5" fill="#FFFFFF" font-family="'MyriadPro-Regular'" font-size="24">del 20 al 26 de junio de 2016</text>
</g>
</svg>
