<?xml version="1.0" encoding="utf-8"?>
<!-- Generator: Adobe Illustrator 16.0.0, SVG Export Plug-In . SVG Version: 6.00 Build 0)  -->
<!DOCTYPE svg PUBLIC "-//W3C//DTD SVG 1.1//EN" "http://www.w3.org/Graphics/SVG/1.1/DTD/svg11.dtd">
<svg version="1.1" id="Capa_1" xmlns="http://www.w3.org/2000/svg" xmlns:xlink="http://www.w3.org/1999/xlink" x="0px" y="0px"
	 width="480px" height="960px" viewBox="0 0 480 960" enable-background="new 0 0 480 960" xml:space="preserve">
<g id="gotas_copia_2">
	<g id="_x31__copia_2">
	</g>
	<g id="_x32__copia_2">
		<rect x="156" y="945" fill="#FFFFFF" width="6" height="6"/>
		<rect x="166" y="935" fill="#FFFFFF" width="6" height="6"/>
		<rect x="32" y="941" fill="#FFFFFF" width="6" height="6"/>
	</g>
	<g id="_x33__copia_2">
	</g>
	<g id="_x34__copia_2">
	</g>
	<g id="_x35__copia_2">
	</g>
</g>
<g id="guías" display="none">
</g>
<g id="Capa_1_1_">
	<g>
		<g>
			<rect x="84" y="769" fill="#F0976B" width="8" height="192"/>
			<rect x="100" y="769" fill="#F0976B" width="8" height="192"/>
		</g>
		<path fill="#FEC629" d="M96,944.413c-17.673,0-32,14.327-32,32v111c0-17.673,14.327-32,32-32s32,14.327,32,32v-111
			C128,958.74,113.673,944.413,96,944.413z"/>
	</g>
</g>
<g id="txt_1_" opacity="0.5">
	<g>
		<path fill="#FFFFFF" d="M68.585,640.625v-33.609h5.672v33.609H68.585z"/>
		<path fill="#FFFFFF" d="M81.922,640.625v-33.609h5.672v33.609H81.922z"/>
		<path fill="#FFFFFF" d="M95.26,640.625v-33.609h5.672v33.609H95.26z"/>
		<path fill="#FFFFFF" d="M127.791,612.102v9.095h16.405v5.086h-16.405v9.258h18.914v5.086h-24.586v-33.609h24v5.086
			L127.791,612.102L127.791,612.102z"/>
		<path fill="#FFFFFF" d="M170.238,607.719c2.048,0.625,3.867,1.47,5.462,2.531l-2.345,4.992c-1.733-1.062-3.465-1.853-5.19-2.367
			c-1.727-0.515-3.277-0.773-4.652-0.773c-1.703,0-3.039,0.306-4.008,0.914c-0.969,0.609-1.453,1.478-1.453,2.603
			c0,0.983,0.316,1.812,0.949,2.483c0.633,0.673,1.43,1.212,2.391,1.617c0.961,0.406,2.31,0.859,4.043,1.359
			c2.267,0.672,4.113,1.336,5.543,1.992c1.431,0.655,2.648,1.633,3.656,2.93s1.512,2.984,1.512,5.062
			c0,1.953-0.539,3.669-1.617,5.146c-1.077,1.477-2.573,2.613-4.487,3.41s-4.105,1.194-6.574,1.194c-2.562,0-5.043-0.479-7.441-1.44
			c-2.397-0.961-4.496-2.254-6.293-3.879l2.461-4.898c1.703,1.562,3.566,2.771,5.591,3.621c2.023,0.851,3.948,1.277,5.776,1.277
			c1.984,0,3.527-0.359,4.629-1.078c1.103-0.719,1.652-1.719,1.652-3c0-1.031-0.328-1.883-0.984-2.555
			c-0.655-0.673-1.473-1.199-2.448-1.582c-0.977-0.384-2.324-0.832-4.043-1.349c-2.298-0.672-4.146-1.328-5.544-1.969
			c-1.397-0.641-2.602-1.582-3.608-2.824s-1.512-2.901-1.512-4.979c0-1.892,0.512-3.543,1.534-4.957
			c1.023-1.414,2.457-2.504,4.302-3.271c1.844-0.766,3.977-1.147,6.397-1.147C166.09,606.781,168.191,607.094,170.238,607.719z"/>
		<path fill="#FFFFFF" d="M203.631,608.246c2.258,0.914,4.199,2.184,5.824,3.809l-3.306,4.148c-1.219-1.312-2.659-2.355-4.323-3.129
			c-1.664-0.774-3.349-1.16-5.052-1.16c-2.203,0-4.223,0.52-6.059,1.559s-3.285,2.466-4.348,4.277
			c-1.063,1.812-1.595,3.805-1.595,5.977c0,2.173,0.531,4.164,1.595,5.978c1.062,1.812,2.512,3.246,4.348,4.301
			s3.854,1.582,6.059,1.582c1.656,0,3.312-0.352,4.97-1.055c1.656-0.703,3.125-1.681,4.405-2.931l3.353,3.75
			c-1.734,1.703-3.75,3.048-6.047,4.031c-2.297,0.984-4.617,1.478-6.961,1.478c-3.234,0-6.188-0.75-8.859-2.25
			s-4.773-3.556-6.305-6.164c-1.532-2.609-2.297-5.5-2.297-8.672c0-3.142,0.772-5.996,2.319-8.566s3.672-4.602,6.375-6.094
			s5.688-2.238,8.953-2.238C199.057,606.875,201.373,607.332,203.631,608.246z"/>
		<path fill="#FFFFFF" d="M240.592,634.262c-1.171,2.134-2.851,3.767-5.038,4.898c-2.187,1.132-4.789,1.699-7.805,1.699
			c-3.017,0-5.617-0.566-7.806-1.699c-2.188-1.133-3.87-2.767-5.051-4.898c-1.18-2.132-1.77-4.651-1.77-7.559v-19.688h5.647v19.688
			c0,2.812,0.81,5.026,2.426,6.645c1.617,1.618,3.816,2.427,6.599,2.427c2.75,0,4.918-0.802,6.504-2.402s2.379-3.824,2.379-6.668
			v-19.688h5.672v19.688C242.35,629.609,241.764,632.129,240.592,634.262z"/>
		<path fill="#FFFFFF" d="M255.258,612.102v9.095h16.406v5.086h-16.406v9.258h18.914v5.086h-24.586v-33.609h24v5.086
			L255.258,612.102L255.258,612.102z"/>
		<path fill="#FFFFFF" d="M300.076,635.492v5.133h-20.229v-33.609h5.672v28.478L300.076,635.492L300.076,635.492z"/>
		<path fill="#FFFFFF" d="M310.949,633.031l-3.213,7.594h-5.904l14.836-33.609h5.811l14.672,33.609h-6.047l-3.211-7.594H310.949z
			 M319.41,613.062l-6.354,14.931h12.68L319.41,613.062z"/>
		<path fill="#FFFFFF" d="M376.715,609.184c2.641,1.445,4.707,3.445,6.199,6c1.49,2.556,2.236,5.435,2.236,8.638
			s-0.754,6.078-2.262,8.625s-3.59,4.547-6.246,6s-5.664,2.18-9.021,2.18h-13.643v-33.609h13.781
			C371.09,607.016,374.074,607.738,376.715,609.184z M359.651,635.539h8.25c2.143,0,4.096-0.496,5.859-1.488
			c1.766-0.992,3.152-2.375,4.16-4.147c1.008-1.773,1.512-3.785,1.512-6.035c0-2.234-0.52-4.246-1.559-6.035
			s-2.457-3.191-4.254-4.207s-3.781-1.522-5.953-1.522h-8.016V635.539L359.651,635.539z"/>
		<path fill="#FFFFFF" d="M396.088,612.102v9.095h16.406v5.086h-16.406v9.258h18.914v5.086h-24.586v-33.609h24v5.086
			L396.088,612.102L396.088,612.102z"/>
		<path fill="#FFFFFF" d="M26.248,698.225l-13.406-33.608h6.094l10.383,27.328l10.453-27.328h5.906l-13.594,33.608H26.248z"/>
		<path fill="#FFFFFF" d="M54.759,669.702v9.094h16.406v5.086H54.759v9.258h18.914v5.086H49.087v-33.608h24v5.086L54.759,669.702
			L54.759,669.702z"/>
		<path fill="#FFFFFF" d="M94.537,688.053c-0.312,0.032-0.828,0.047-1.547,0.047h-7.97v10.125h-5.672v-33.608H92.99
			c4.28,0,7.608,1,9.983,3s3.562,4.828,3.562,8.483c0,2.688-0.603,4.957-1.806,6.81c-1.203,1.852-2.922,3.215-5.155,4.09
			l7.522,11.227h-6.422L94.537,688.053z M99.037,681.303c1.405-1.14,2.108-2.828,2.108-5.062c0-2.171-0.703-3.806-2.108-4.898
			c-1.406-1.093-3.422-1.641-6.047-1.641h-7.97v13.312h7.97C95.615,683.014,97.631,682.444,99.037,681.303z"/>
		<path fill="#FFFFFF" d="M118.685,690.631l-3.211,7.594h-5.906l14.836-33.608h5.812l14.672,33.608h-6.047l-3.211-7.594H118.685z
			 M127.145,670.663l-6.352,14.93h12.68L127.145,670.663z"/>
		<path fill="#FFFFFF" d="M171.81,698.225l-17.906-24.094v24.094h-5.672v-33.608h5.578l18,24.164v-24.164h5.578v33.608H171.81z"/>
		<path fill="#FFFFFF" d="M209.494,666.713c2.727,1.492,4.871,3.531,6.434,6.117s2.344,5.449,2.344,8.59
			c0,3.172-0.78,6.055-2.344,8.648c-1.562,2.594-3.707,4.641-6.434,6.141c-2.728,1.5-5.738,2.25-9.035,2.25s-6.306-0.75-9.023-2.25
			s-4.858-3.547-6.422-6.141c-1.562-2.594-2.344-5.477-2.344-8.648s0.781-6.043,2.344-8.613c1.562-2.569,3.703-4.602,6.422-6.094
			s5.728-2.237,9.023-2.237S206.768,665.222,209.494,666.713z M194.471,671.155c-1.852,1.062-3.324,2.496-4.418,4.301
			s-1.641,3.793-1.641,5.965s0.555,4.172,1.664,6c1.108,1.828,2.582,3.278,4.418,4.349c1.836,1.069,3.84,1.604,6.012,1.604
			s4.172-0.527,6-1.582s3.277-2.504,4.348-4.348s1.605-3.853,1.605-6.023s-0.535-4.16-1.605-5.965
			c-1.069-1.805-2.516-3.238-4.336-4.301s-3.824-1.594-6.012-1.594C198.334,669.561,196.322,670.092,194.471,671.155z"/>
		<path fill="#FFFFFF" d="M241.428,690.631l-3.211,7.594h-5.906l14.836-33.608h5.812l14.672,33.608h-6.047l-3.211-7.594H241.428z
			 M249.889,670.663l-6.352,14.93h12.68L249.889,670.663z"/>
		<path fill="#FFFFFF" d="M286.162,688.053c-0.312,0.032-0.828,0.047-1.547,0.047h-7.969v10.125h-5.672v-33.608h13.641
			c4.281,0,7.609,1,9.984,3s3.562,4.828,3.562,8.483c0,2.688-0.604,4.957-1.807,6.81c-1.203,1.852-2.922,3.215-5.154,4.09
			l7.521,11.227h-6.422L286.162,688.053z M290.662,681.303c1.406-1.14,2.109-2.828,2.109-5.062c0-2.171-0.703-3.806-2.109-4.898
			s-3.422-1.641-6.047-1.641h-7.969v13.312h7.969C287.24,683.014,289.256,682.444,290.662,681.303z"/>
		<path fill="#FFFFFF" d="M316.686,669.702v28.522h-5.672v-28.522h-10.617v-5.086h26.932v5.086H316.686z"/>
		<path fill="#FFFFFF" d="M336.516,669.702v9.094h16.406v5.086h-16.406v9.258h18.914v5.086h-24.586v-33.608h24v5.086
			L336.516,669.702L336.516,669.702z"/>
		<path fill="#FFFFFF" d="M383.84,666.784c2.641,1.445,4.707,3.445,6.199,6s2.238,5.434,2.238,8.637s-0.754,6.079-2.262,8.625
			c-1.508,2.547-3.59,4.547-6.246,6s-5.664,2.18-9.023,2.18h-13.641v-33.608h13.781C378.215,664.616,381.199,665.339,383.84,666.784
			z M366.778,693.139h8.25c2.141,0,4.094-0.496,5.859-1.487c1.766-0.992,3.152-2.375,4.16-4.148s1.512-3.785,1.512-6.035
			c0-2.233-0.52-4.246-1.559-6.035s-2.457-3.19-4.254-4.207c-1.797-1.016-3.781-1.522-5.953-1.522h-8.018v23.436H366.778z"/>
		<path fill="#FFFFFF" d="M397.619,698.225v-33.608h5.672v33.608H397.619z"/>
		<path fill="#FFFFFF" d="M416.629,669.702v9.094h16.406v5.086h-16.406v9.258h18.914v5.086h-24.586v-33.608h24v5.086
			L416.629,669.702L416.629,669.702z"/>
		<path fill="#FFFFFF" d="M446.465,693.139h20.693v5.086h-28.357v-4.077l20.482-24.445h-19.875v-5.086h27.518v4.078L446.465,693.139
			z"/>
	</g>
	<g>
		<path fill="#FFFFFF" d="M77.855,734.206c1.375,0.753,2.452,1.795,3.229,3.125c0.777,1.331,1.166,2.83,1.166,4.499
			c0,1.668-0.393,3.165-1.178,4.492c-0.785,1.326-1.87,2.367-3.253,3.125c-1.384,0.756-2.95,1.135-4.7,1.135h-7.104v-17.505h7.178
			C74.925,733.077,76.48,733.454,77.855,734.206z M68.968,747.934h4.297c1.115,0,2.132-0.259,3.052-0.775s1.642-1.237,2.167-2.161
			c0.524-0.923,0.787-1.972,0.787-3.144c0-1.163-0.271-2.211-0.812-3.143s-1.28-1.662-2.216-2.191s-1.97-0.793-3.101-0.793h-4.175
			V747.934z"/>
		<path fill="#FFFFFF" d="M95.408,738.955c1.042,1.184,1.562,2.85,1.562,4.998c0,0.221-0.017,0.578-0.049,1.074H86.864
			c0.236,1.034,0.721,1.848,1.453,2.441c0.732,0.595,1.623,0.892,2.673,0.892c0.716,0,1.399-0.134,2.051-0.403
			c0.651-0.268,1.217-0.65,1.697-1.146l1.525,1.623c-0.667,0.716-1.467,1.27-2.398,1.66s-1.964,0.586-3.095,0.586
			c-1.351,0-2.539-0.282-3.564-0.849c-1.025-0.565-1.82-1.356-2.386-2.374c-0.566-1.018-0.849-2.186-0.849-3.504
			s0.282-2.487,0.849-3.509c0.565-1.021,1.36-1.821,2.386-2.399c1.025-0.577,2.189-0.866,3.491-0.866
			C92.796,737.179,94.366,737.771,95.408,738.955z M93.346,740.407c-0.668-0.614-1.543-0.921-2.625-0.921
			c-1.05,0-1.921,0.307-2.612,0.921c-0.691,0.615-1.123,1.455-1.294,2.521h7.605C94.371,741.862,94.013,741.022,93.346,740.407z"/>
		<path fill="#FFFFFF" d="M100.035,750.582v-18.555h2.881v18.555H100.035z"/>
		<path fill="#FFFFFF" d="M121.721,733.492c0.843,0.358,1.497,0.871,1.966,1.538c0.468,0.667,0.701,1.444,0.701,2.331
			c0,0.83-0.28,1.72-0.842,2.668s-1.352,1.976-2.368,3.082l-4.541,4.822h8.545v2.648h-12.451v-2.148l6.457-6.922
			c0.651-0.667,1.168-1.33,1.551-1.989c0.382-0.659,0.573-1.241,0.573-1.745c0-0.7-0.258-1.25-0.774-1.648
			c-0.518-0.398-1.235-0.598-2.155-0.598c-0.749,0-1.544,0.195-2.386,0.586c-0.843,0.391-1.639,0.928-2.387,1.611l-1.172-2.271
			c0.968-0.797,1.997-1.413,3.088-1.849s2.186-0.653,3.284-0.653S120.879,733.134,121.721,733.492z"/>
		<path fill="#FFFFFF" d="M130.052,750.582v-14.881h-3.418v-2.624h6.372v17.505H130.052z"/>
		<path fill="#FFFFFF" d="M152.513,748.959c-0.952,1.163-2.417,1.745-4.395,1.745c-0.936,0-1.758-0.179-2.466-0.537
			s-1.253-0.849-1.636-1.471c-0.383-0.623-0.573-1.329-0.573-2.118c0-1.221,0.441-2.187,1.324-2.899
			c0.883-0.712,2.118-1.076,3.705-1.093h4.016v-0.402c0-0.847-0.271-1.503-0.812-1.972c-0.541-0.468-1.329-0.702-2.362-0.702
			c-1.286,0-2.592,0.448-3.918,1.344l-1.185-2.002c1.018-0.603,1.931-1.032,2.741-1.288c0.81-0.257,1.804-0.385,2.984-0.385
			c1.7,0,3.019,0.413,3.955,1.239c0.936,0.826,1.411,1.971,1.428,3.436l0.024,8.729h-2.832V748.959z M151.305,747.72
			c0.708-0.477,1.103-1.081,1.184-1.813v-1.221h-3.601c-0.952,0-1.648,0.137-2.088,0.409c-0.439,0.273-0.659,0.727-0.659,1.361
			c0,0.603,0.23,1.082,0.69,1.44c0.459,0.358,1.088,0.537,1.886,0.537C149.734,748.434,150.597,748.195,151.305,747.72z"/>
		<path fill="#FFFFFF" d="M159.313,750.582v-18.555h2.881v18.555H159.313z"/>
		<path fill="#FFFFFF" d="M180.998,733.492c0.843,0.358,1.497,0.871,1.966,1.538c0.468,0.667,0.701,1.444,0.701,2.331
			c0,0.83-0.28,1.72-0.842,2.668s-1.352,1.976-2.368,3.082l-4.541,4.822h8.545v2.648h-12.451v-2.148l6.457-6.922
			c0.651-0.667,1.168-1.33,1.551-1.989c0.382-0.659,0.573-1.241,0.573-1.745c0-0.7-0.258-1.25-0.774-1.648
			c-0.518-0.398-1.235-0.598-2.155-0.598c-0.749,0-1.544,0.195-2.386,0.586c-0.843,0.391-1.639,0.928-2.387,1.611l-1.172-2.271
			c0.968-0.797,1.997-1.413,3.088-1.849s2.186-0.653,3.284-0.653S180.156,733.134,180.998,733.492z"/>
		<path fill="#FFFFFF" d="M194.676,743.66v-4.15h2.759v4.15h2.552v2.625h-2.552v4.297h-2.759v-4.297h-8.35v-2.197l5.981-11.011
			h2.845l-5.677,10.583H194.676z"/>
		<path fill="#FFFFFF" d="M221.788,750.582h-2.869v-2.271c-0.48,0.781-1.116,1.375-1.91,1.782c-0.793,0.407-1.715,0.61-2.765,0.61
			c-1.27,0-2.383-0.287-3.339-0.86c-0.956-0.574-1.701-1.378-2.233-2.411c-0.533-1.033-0.8-2.218-0.8-3.552
			c0-1.318,0.267-2.486,0.8-3.504c0.532-1.018,1.277-1.809,2.233-2.374s2.053-0.849,3.29-0.849c1.065,0,1.993,0.21,2.783,0.629
			c0.789,0.419,1.436,1.02,1.94,1.801v-7.557h2.869V750.582z M217.784,747.097c0.757-0.81,1.135-1.849,1.135-3.118
			c0-1.286-0.378-2.336-1.135-3.15c-0.757-0.813-1.738-1.221-2.942-1.221c-1.196,0-2.175,0.409-2.936,1.228
			c-0.761,0.817-1.149,1.865-1.166,3.144c0.017,1.27,0.405,2.309,1.166,3.118c0.761,0.811,1.739,1.215,2.936,1.215
			C216.046,748.312,217.028,747.907,217.784,747.097z"/>
		<path fill="#FFFFFF" d="M236.351,738.955c1.042,1.184,1.562,2.85,1.562,4.998c0,0.221-0.017,0.578-0.049,1.074h-10.059
			c0.236,1.034,0.721,1.848,1.453,2.441c0.732,0.595,1.623,0.892,2.673,0.892c0.716,0,1.399-0.134,2.051-0.403
			c0.651-0.268,1.217-0.65,1.697-1.146l1.525,1.623c-0.667,0.716-1.467,1.27-2.398,1.66s-1.964,0.586-3.095,0.586
			c-1.351,0-2.539-0.282-3.564-0.849c-1.025-0.565-1.82-1.356-2.386-2.374c-0.566-1.018-0.849-2.186-0.849-3.504
			s0.282-2.487,0.849-3.509c0.565-1.021,1.36-1.821,2.386-2.399c1.025-0.577,2.189-0.866,3.491-0.866
			C233.739,737.179,235.309,737.771,236.351,738.955z M234.288,740.407c-0.668-0.614-1.543-0.921-2.625-0.921
			c-1.05,0-1.921,0.307-2.612,0.921c-0.691,0.615-1.123,1.455-1.294,2.521h7.605C235.314,741.862,234.955,741.022,234.288,740.407z"
			/>
		<path fill="#FFFFFF" d="M254.278,749.258c-0.965,0.964-2.297,1.446-3.998,1.446c-1.033,0-1.984-0.216-2.852-0.647
			c-0.865-0.431-1.633-1.058-2.301-1.879l1.404-2.246c0.57,0.618,1.178,1.094,1.824,1.428c0.648,0.334,1.281,0.5,1.898,0.5
			c0.799,0,1.414-0.237,1.85-0.714c0.436-0.476,0.652-1.165,0.652-2.069v-9.35h-6.055v-2.649h9.021v12.109
			C255.723,746.937,255.24,748.293,254.278,749.258z"/>
		<path fill="#FFFFFF" d="M271.836,750.582h-2.869v-2.6c-0.861,1.766-2.445,2.665-4.748,2.697c-1.514,0-2.705-0.458-3.576-1.373
			c-0.871-0.916-1.307-2.167-1.307-3.754v-8.276h2.881v7.483c0,1,0.275,1.788,0.824,2.361c0.549,0.574,1.309,0.861,2.275,0.861
			c1.115-0.017,2.002-0.413,2.662-1.19c0.658-0.777,0.988-1.765,0.988-2.96v-6.556h2.869V750.582z"/>
		<path fill="#FFFFFF" d="M287.496,738.546c0.879,0.911,1.318,2.165,1.318,3.76v8.276h-2.881v-7.471c0-1.001-0.281-1.79-0.848-2.368
			s-1.35-0.866-2.35-0.866c-1.066,0.016-1.938,0.357-2.613,1.025c-0.674,0.667-1.061,1.533-1.158,2.6v7.08h-2.881v-13.306h2.881
			v2.552c0.902-1.767,2.535-2.649,4.895-2.649C285.406,737.179,286.617,737.635,287.496,738.546z"/>
		<path fill="#FFFFFF" d="M295.272,732.223c0.318,0.325,0.477,0.744,0.477,1.258c0,0.496-0.158,0.907-0.477,1.232
			c-0.316,0.325-0.719,0.488-1.207,0.488c-0.48,0-0.879-0.16-1.197-0.482c-0.316-0.321-0.477-0.734-0.477-1.238
			c0-0.514,0.16-0.933,0.477-1.258c0.318-0.325,0.717-0.488,1.197-0.488C294.553,731.734,294.955,731.897,295.272,732.223z
			 M292.649,750.582v-13.306h2.855v13.306H292.649z"/>
		<path fill="#FFFFFF" d="M309.041,738.033c1.051,0.569,1.865,1.361,2.447,2.374c0.582,1.014,0.873,2.188,0.873,3.522
			c0,1.318-0.291,2.49-0.873,3.516s-1.396,1.82-2.447,2.386c-1.049,0.566-2.25,0.849-3.602,0.849c-1.367,0-2.574-0.282-3.625-0.849
			c-1.049-0.565-1.865-1.36-2.447-2.386s-0.873-2.197-0.873-3.516c0-1.335,0.291-2.509,0.873-3.522
			c0.582-1.013,1.398-1.805,2.447-2.374c1.051-0.569,2.258-0.854,3.625-0.854C306.791,737.179,307.992,737.464,309.041,738.033z
			 M302.504,740.859c-0.76,0.802-1.141,1.833-1.141,3.094c0,1.286,0.381,2.33,1.141,3.132c0.762,0.802,1.74,1.202,2.936,1.202
			c1.197,0,2.172-0.4,2.924-1.202c0.754-0.802,1.129-1.846,1.129-3.132c0-1.27-0.379-2.303-1.141-3.1
			c-0.762-0.798-1.73-1.197-2.912-1.197C304.244,739.656,303.266,740.058,302.504,740.859z"/>
		<path fill="#FFFFFF" d="M334.481,750.582h-2.869v-2.271c-0.479,0.781-1.115,1.375-1.91,1.782c-0.793,0.407-1.715,0.61-2.764,0.61
			c-1.27,0-2.383-0.287-3.34-0.86c-0.955-0.574-1.701-1.378-2.232-2.411c-0.533-1.033-0.801-2.218-0.801-3.552
			c0-1.318,0.268-2.486,0.801-3.504c0.531-1.018,1.277-1.809,2.232-2.374c0.957-0.565,2.053-0.849,3.291-0.849
			c1.066,0,1.994,0.21,2.783,0.629s1.436,1.02,1.939,1.801v-7.557h2.869V750.582z M330.477,747.097
			c0.758-0.81,1.135-1.849,1.135-3.118c0-1.286-0.377-2.336-1.135-3.15c-0.756-0.813-1.736-1.221-2.941-1.221
			c-1.197,0-2.176,0.409-2.936,1.228c-0.762,0.817-1.15,1.865-1.166,3.144c0.016,1.27,0.404,2.309,1.166,3.118
			c0.76,0.811,1.738,1.215,2.936,1.215C328.74,748.312,329.721,747.907,330.477,747.097z"/>
		<path fill="#FFFFFF" d="M349.043,738.955c1.043,1.184,1.562,2.85,1.562,4.998c0,0.221-0.016,0.578-0.049,1.074h-10.059
			c0.236,1.034,0.721,1.848,1.453,2.441c0.732,0.595,1.623,0.892,2.674,0.892c0.717,0,1.4-0.134,2.051-0.403
			c0.65-0.268,1.217-0.65,1.697-1.146l1.525,1.623c-0.668,0.716-1.467,1.27-2.398,1.66s-1.963,0.586-3.096,0.586
			c-1.35,0-2.539-0.282-3.564-0.849c-1.025-0.565-1.82-1.356-2.385-2.374c-0.566-1.018-0.85-2.186-0.85-3.504
			s0.283-2.487,0.85-3.509c0.564-1.021,1.359-1.821,2.385-2.399c1.025-0.577,2.189-0.866,3.492-0.866
			C346.432,737.179,348.002,737.771,349.043,738.955z M346.981,740.407c-0.666-0.614-1.541-0.921-2.625-0.921
			c-1.049,0-1.92,0.307-2.611,0.921c-0.691,0.615-1.123,1.455-1.295,2.521h7.605C348.006,741.862,347.649,741.022,346.981,740.407z"
			/>
		<path fill="#FFFFFF" d="M367.983,733.492c0.844,0.358,1.498,0.871,1.967,1.538c0.467,0.667,0.701,1.444,0.701,2.331
			c0,0.83-0.281,1.72-0.842,2.668c-0.562,0.948-1.352,1.976-2.369,3.082l-4.541,4.822h8.545v2.648h-12.451v-2.148l6.457-6.922
			c0.652-0.667,1.168-1.33,1.551-1.989s0.574-1.241,0.574-1.745c0-0.7-0.258-1.25-0.775-1.648s-1.234-0.598-2.154-0.598
			c-0.748,0-1.545,0.195-2.387,0.586s-1.637,0.928-2.387,1.611l-1.172-2.271c0.969-0.797,1.998-1.413,3.088-1.849
			c1.092-0.436,2.186-0.653,3.285-0.653C366.17,732.955,367.141,733.134,367.983,733.492z"/>
		<path fill="#FFFFFF" d="M386.715,735.293c1.285,1.525,1.928,3.705,1.928,6.537s-0.643,5.011-1.928,6.536
			c-1.285,1.526-3.117,2.289-5.494,2.289c-2.4,0-4.242-0.763-5.529-2.289c-1.285-1.525-1.928-3.704-1.928-6.536
			s0.643-5.012,1.928-6.537c1.287-1.526,3.129-2.289,5.529-2.289C383.598,733.004,385.43,733.767,386.715,735.293z M377.889,736.922
			c-0.732,1.059-1.098,2.694-1.098,4.908c0,2.197,0.365,3.831,1.098,4.9c0.732,1.07,1.844,1.605,3.332,1.605
			c1.465,0,2.564-0.533,3.297-1.6c0.732-1.065,1.098-2.701,1.098-4.906c0-2.214-0.365-3.85-1.098-4.908
			c-0.732-1.058-1.832-1.586-3.297-1.586C379.733,735.336,378.621,735.864,377.889,736.922z"/>
		<path fill="#FFFFFF" d="M393.588,750.582v-14.881h-3.418v-2.624h6.371v17.505H393.588z"/>
		<path fill="#FFFFFF" d="M410.983,733.321c0.953,0.244,1.787,0.565,2.502,0.964l-1.146,2.223c-0.537-0.351-1.152-0.621-1.844-0.812
			c-0.691-0.19-1.371-0.287-2.039-0.287c-1.65,0-2.889,0.566-3.711,1.697c-0.82,1.131-1.207,2.674-1.158,4.627
			c0.463-0.814,1.1-1.431,1.91-1.85c0.809-0.419,1.764-0.629,2.861-0.629c1.75,0,3.125,0.5,4.127,1.502c1,1,1.502,2.359,1.502,4.076
			c0,1.197-0.256,2.238-0.764,3.125c-0.508,0.888-1.225,1.567-2.148,2.039s-2.004,0.708-3.24,0.708c-1.465,0-2.73-0.338-3.797-1.013
			c-1.066-0.676-1.889-1.65-2.467-2.924c-0.576-1.273-0.865-2.802-0.865-4.584c0-1.848,0.309-3.467,0.928-4.858
			c0.617-1.392,1.496-2.468,2.637-3.229c1.139-0.761,2.469-1.142,3.99-1.142C409.123,732.955,410.031,733.077,410.983,733.321z
			 M405.795,742.031c-0.578,0.297-1.016,0.7-1.312,1.208c-0.297,0.509-0.438,1.064-0.422,1.667
			c-0.016,0.537,0.109,1.056,0.373,1.556c0.264,0.501,0.672,0.908,1.221,1.221c0.549,0.313,1.227,0.47,2.033,0.47
			c1.082,0,1.945-0.294,2.588-0.885c0.643-0.59,0.963-1.41,0.963-2.459c0-1.002-0.305-1.789-0.914-2.362
			c-0.611-0.574-1.449-0.86-2.516-0.86C407.045,741.586,406.373,741.734,405.795,742.031z"/>
	</g>
</g>
</svg>
