<?xml version="1.0" encoding="utf-8"?>
<!-- Generator: Adobe Illustrator 16.0.0, SVG Export Plug-In . SVG Version: 6.00 Build 0)  -->
<!DOCTYPE svg PUBLIC "-//W3C//DTD SVG 1.1//EN" "http://www.w3.org/Graphics/SVG/1.1/DTD/svg11.dtd">
<svg version="1.1" id="Capa_1" xmlns="http://www.w3.org/2000/svg" xmlns:xlink="http://www.w3.org/1999/xlink" x="0px" y="0px"
	 width="480px" height="960px" viewBox="0 0 480 960" enable-background="new 0 0 480 960" xml:space="preserve">
<pattern  x="-510" y="5632" width="114" height="20" patternUnits="userSpaceOnUse" id="Nueva_muestra_de_motivo_4" viewBox="0 -20 114 20" overflow="visible">
	<g>
		<polygon fill="none" points="0,0 114,0 114,-20 0,-20 		"/>
		<polygon fill="#FFFFFF" points="114,0 0,0 0,-10 114,-10 		"/>
		<polygon fill="#2FA1BE" points="114,-10 0,-10 0,-20 114,-20 		"/>
	</g>
</pattern>
<g>
	<g>
		<rect x="64" y="313" fill="#F0976B" width="64" height="46"/>
		<path fill="#FEC629" d="M96,256.353c-17.673,0-32,14.327-32,32v62c0-17.673,14.327-32,32-32s32,14.327,32,32v-62
			C128,270.68,113.673,256.353,96,256.353z"/>
		<path d="M96,416.353c17.673,0,32-14.326,32-32V352H64v32.353C64,402.026,78.327,416.353,96,416.353z"/>
		<polygon fill="#F0976B" points="130,352 130,499 126,499 126,501 130,501 130,508 138,508 138,352 		"/>
		<polygon fill="#F0976B" points="62,499 62,352 54,352 54,508 62,508 62,501 66,501 66,499 		"/>
	</g>
	<g>
		<g>
			<rect x="228" y="576" fill="#F0976B" width="8" height="192"/>
			<rect x="244" y="576" fill="#F0976B" width="8" height="192"/>
		</g>
		<rect x="208" y="854" fill="#F0976B" width="64" height="54"/>
		<path fill="#A4CB57" d="M240,751.353c-17.673,0-32,14.327-32,32v111c0-17.673,14.327-32,32-32s32,14.327,32,32v-111
			C272,765.68,257.673,751.353,240,751.353z"/>
		<path fill="#FEC629" d="M240,960.353c17.673,0,32-14.326,32-32V896h-64v32.353C208,946.026,222.327,960.353,240,960.353z"/>
		<polygon fill="#F0976B" points="274,896 274,1043 270,1043 270,1045 274,1045 274,1052 282,1052 282,896 		"/>
		<polygon fill="#F0976B" points="206,1043 206,896 198,896 198,1052 206,1052 206,1045 210,1045 210,1043 		"/>
	</g>
	<g>
		<g>
			<rect x="372" y="768" fill="#F0976B" width="8" height="192"/>
			<rect x="388" y="768" fill="#F0976B" width="8" height="192"/>
		</g>
		
			<pattern  id="SVGID_1_" xlink:href="#Nueva_muestra_de_motivo_4" patternTransform="matrix(1.5791 0 0 1.5791 983.0215 7191.1992)">
		</pattern>
		<path fill="url(#SVGID_1_)" d="M384,943.353c-17.673,0-32,14.327-32,32v111c0-17.673,14.327-32,32-32s32,14.327,32,32v-111
			C416,957.68,401.673,943.353,384,943.353z"/>
		<g>
			<path fill="#EC4346" d="M416,975.351c0-17.674-14.326-32-32-32c-17.672,0-32,14.326-32,32V983h64V975.351z"/>
		</g>
	</g>
</g>
</svg>
