<?xml version="1.0" encoding="utf-8"?>
<!-- Generator: Adobe Illustrator 16.0.0, SVG Export Plug-In . SVG Version: 6.00 Build 0)  -->
<!DOCTYPE svg PUBLIC "-//W3C//DTD SVG 1.1//EN" "http://www.w3.org/Graphics/SVG/1.1/DTD/svg11.dtd">
<svg version="1.1" id="Capa_1" xmlns="http://www.w3.org/2000/svg" xmlns:xlink="http://www.w3.org/1999/xlink" x="0px" y="0px"
	 width="480px" height="960px" viewBox="0 0 480 960" enable-background="new 0 0 480 960" xml:space="preserve">
<g id="gotas_copia_2">
	<g id="_x31__copia_2">
	</g>
	<g id="_x32__copia_2">
	</g>
	<g id="_x33__copia_2">
	</g>
	<g id="_x34__copia_2">
	</g>
	<g id="_x35__copia_2">
	</g>
</g>
<g id="guías" display="none">
</g>
<g>
	<g>
		<g>
			<g>
				<defs>
					<rect id="SVGID_1_" x="319.5" y="192" width="137" height="40.5"/>
				</defs>
				<clipPath id="SVGID_2_">
					<use xlink:href="#SVGID_1_"  overflow="visible"/>
				</clipPath>
				<g clip-path="url(#SVGID_2_)">
					<defs>
						<path id="SVGID_3_" d="M385,272.197c17.673,0,32-14.615,32-32.642V126.328c0,18.028-14.327,32.643-32,32.643
							s-32-14.614-32-32.643v113.228C353,257.583,367.327,272.197,385,272.197z"/>
					</defs>
					<clipPath id="SVGID_4_">
						<use xlink:href="#SVGID_3_"  overflow="visible"/>
					</clipPath>
					<rect x="303.5" y="193.097" clip-path="url(#SVGID_4_)" fill="#FFFFFF" width="161.5" height="93.336"/>
					<rect x="346.5" y="208.909" clip-path="url(#SVGID_4_)" fill="#2FA1BE" width="74.5" height="16.321"/>
					<rect x="346.5" y="176.776" clip-path="url(#SVGID_4_)" fill="#2FA1BE" width="74.5" height="16.321"/>
					<rect x="346.5" y="144.134" clip-path="url(#SVGID_4_)" fill="#2FA1BE" width="74.5" height="16.321"/>
				</g>
			</g>
			<g>
				<rect x="373" y="224" fill="#F0976B" width="8" height="192"/>
				<rect x="389" y="224" fill="#F0976B" width="8" height="192"/>
			</g>
			<polygon fill="#F0976B" points="419,192 419,339 415,339 415,341 419,341 419,348 427,348 427,192 			"/>
			<polygon fill="#F0976B" points="351,339 351,192 343,192 343,348 351,348 351,341 355,341 355,339 			"/>
			<path fill="#EC4346" d="M353,240.197c0,17.672,14.327,32,32,32s32-14.328,32-32V232h-64V240.197z"/>
			<path d="M385,239.197c17.673,0,32-14.327,32-32V192h-64v15.197C353,224.87,367.327,239.197,385,239.197z"/>
			<g>
				<path fill="#F0976B" d="M97,32.197c-17.673,0-32,14.326-32,32v144c0,17.672,14.327,32,32,32s32-14.328,32-32v-144
					C129,46.522,114.673,32.197,97,32.197z"/>
				<g>
					<rect x="85" y="224" fill="#F0976B" width="8" height="192"/>
					<rect x="101" y="224" fill="#F0976B" width="8" height="192"/>
				</g>
				<polygon fill="#F0976B" points="131,96 131,243 127,243 127,245 131,245 131,252 139,252 139,96 				"/>
				<polygon fill="#F0976B" points="63,243 63,96 55,96 55,252 63,252 63,245 67,245 67,243 				"/>
				<polygon fill="#EC4346" points="98.169,94 94.105,94 96.138,84.34 98.169,74.629 100.2,84.314 102.229,94 				"/>
				<path d="M110.169,50.788"/>
				<path fill="#FEC629" d="M97,127.197c-17.673,0-32-14.328-32-32v113c0,17.672,14.327,32,32,32s32-14.328,32-32v-113
					C129,112.869,114.673,127.197,97,127.197z"/>
				<path d="M98.077,32c-17.675,0-32,15-32,32h40.027l2.03-5.87l2.027-5.923l2.025,5.895L114.216,64h15.86
					C130.077,47,115.75,32,98.077,32z"/>
				<circle cx="98.077" cy="24.197" r="8"/>
			</g>
			<g>
				<g>
					<path fill="#F0976B" d="M241,32.197c-17.673,0-32,14.326-32,32v144c0,17.672,14.327,32,32,32s32-14.328,32-32v-144
						C273,46.522,258.673,32.197,241,32.197z"/>
					<g>
						<rect x="229" y="224" fill="#F0976B" width="8" height="192"/>
						<rect x="245" y="224" fill="#F0976B" width="8" height="192"/>
					</g>
					<polygon fill="#F0976B" points="275,96 275,243 271,243 271,245 275,245 275,252 283,252 283,96 					"/>
					<polygon fill="#F0976B" points="207,243 207,96 199,96 199,252 207,252 207,245 211,245 211,243 					"/>
					<polygon fill="#EC4346" points="242.002,94 237.938,94 239.971,84.34 242.002,74.629 244.033,84.314 246.062,94 					"/>
					<polygon fill="#FEC629" points="241.906,16 249.972,16 245.938,24.147 241.906,32.173 237.876,24.087 233.847,16 					"/>
					<path fill="#A4CB57" d="M241,127.197c-17.673,0-32-14.328-32-32v113c0,17.672,14.327,32,32,32s32-14.328,32-32v-113
						C273,112.869,258.673,127.197,241,127.197z"/>
					<path fill="#FEC629" d="M209.91,64h7.668c-2.671,0-5.236-0.443-7.639-1.248C209.925,63.166,209.91,64,209.91,64z"/>
					<path fill="#FEC629" d="M273.91,64c0,0-0.017-0.984-0.037-1.473c-2.585,0.951-5.379,1.473-8.295,1.473H273.91z"/>
					<g>
						<path fill="#FEC629" d="M242.94,32.222c-0.343-0.01-0.685-0.025-1.028-0.025c-0.566,0-1.131,0.015-1.688,0.044
							c0.874,2.49,1.355,5.166,1.355,7.956C241.578,37.399,242.061,34.718,242.94,32.222z"/>
						<path fill="#FEC629" d="M241.578,40.197c0-2.79-0.481-5.465-1.355-7.956c-16.476,0.856-29.646,14.173-30.281,30.707
							c2.4,0.805,4.968,1.249,7.639,1.249C230.833,64.197,241.578,53.451,241.578,40.197z"/>
						<path fill="#FEC629" d="M242.94,32.222c-0.879,2.496-1.36,5.178-1.36,7.975c0,13.254,10.744,24,24,24
							c2.916,0,5.71-0.522,8.295-1.473C273.118,46.075,259.644,32.752,242.94,32.222z"/>
					</g>
				</g>
			</g>
		</g>
		<g id="txt">
		</g>
	</g>
</g>
</svg>
