<?xml version="1.0" encoding="utf-8"?>
<!-- Generator: Adobe Illustrator 16.0.0, SVG Export Plug-In . SVG Version: 6.00 Build 0)  -->
<!DOCTYPE svg PUBLIC "-//W3C//DTD SVG 1.1//EN" "http://www.w3.org/Graphics/SVG/1.1/DTD/svg11.dtd">
<svg version="1.1" xmlns="http://www.w3.org/2000/svg" xmlns:xlink="http://www.w3.org/1999/xlink" x="0px" y="0px" width="480px"
	 height="960px" viewBox="0 0 480 960" enable-background="new 0 0 480 960" xml:space="preserve">
<g id="gotas" display="none">
	<g id="_x31_" display="inline">
	</g>
	<g id="_x32_" display="inline">
	</g>
	<g id="_x33_" display="inline">
	</g>
	<g id="_x34_" display="inline">
	</g>
	<g id="_x35_" display="inline">
	</g>
</g>
<g id="gotas_copia" display="none">
	<g id="_x31__copia" display="inline">
	</g>
	<g id="_x32__copia" display="inline">
	</g>
	<g id="_x33__copia" display="inline">
	</g>
	<g id="_x34__copia" display="inline">
		<rect x="151" y="935" fill="#FFFFFF" width="6" height="6"/>
		<rect x="293" y="947" fill="#FFFFFF" width="6" height="6"/>
		<rect x="306" y="953" fill="#FFFFFF" width="6" height="6"/>
		<rect x="327" y="941" fill="#FFFFFF" width="6" height="6"/>
		<rect x="185" y="944" fill="#FFFFFF" width="6" height="6"/>
		<rect x="161" y="953" fill="#FFFFFF" width="6" height="6"/>
	</g>
	<g id="_x35__copia" display="inline">
	</g>
</g>
<g id="gotas_copia_2">
	<g id="_x31__copia_2">
	</g>
	<g id="_x32__copia_2">
	</g>
	<g id="_x33__copia_2">
	</g>
	<g id="_x34__copia_2">
	</g>
	<g id="_x35__copia_2">
	</g>
</g>
<g id="guías" display="none">
</g>
<g id="Capa_1">
	<g>
		<g>
			<g>
				<rect x="84" y="641" fill="#F0976B" width="8" height="192"/>
				<rect x="100" y="641" fill="#F0976B" width="8" height="192"/>
			</g>
			<rect x="64" y="919" fill="#F0976B" width="64" height="54"/>
			<path fill="#FEC629" d="M96,816.216c-17.673,0-32,14.327-32,32v111c0-17.673,14.327-32,32-32s32,14.327,32,32v-111
				C128,830.543,113.673,816.216,96,816.216z"/>
		</g>
		<g>
			<g>
				<rect x="228" y="833" fill="#F0976B" width="8" height="192"/>
				<rect x="244" y="833" fill="#F0976B" width="8" height="192"/>
			</g>
		</g>
	</g>
</g>
<g id="txt">
</g>
</svg>
