<?xml version="1.0" encoding="utf-8"?>
<!-- Generator: Adobe Illustrator 16.0.0, SVG Export Plug-In . SVG Version: 6.00 Build 0)  -->
<!DOCTYPE svg PUBLIC "-//W3C//DTD SVG 1.1//EN" "http://www.w3.org/Graphics/SVG/1.1/DTD/svg11.dtd">
<svg version="1.1" id="Capa_1" xmlns="http://www.w3.org/2000/svg" xmlns:xlink="http://www.w3.org/1999/xlink" x="0px" y="0px"
	 width="480px" height="960px" viewBox="0 0 480 960" enable-background="new 0 0 480 960" xml:space="preserve">
<g id="gotas_copia_2">
	<g id="_x31__copia_2">
	</g>
	<g id="_x32__copia_2">
	</g>
	<g id="_x33__copia_2">
	</g>
	<g id="_x34__copia_2">
	</g>
	<g id="_x35__copia_2">
	</g>
</g>
<g id="guías" display="none">
</g>
<g id="Capa_1_1_">
	<g>
		<g>
			<g>
				<rect x="84" y="224" fill="#F0976B" width="8" height="192"/>
				<rect x="100" y="224" fill="#F0976B" width="8" height="192"/>
			</g>
			<path fill="#FEC629" d="M64,200v40.458c0,17.674,14.327,32,32,32s32-14.326,32-32V201"/>
			<polygon fill="#F0976B" points="130,192 130,339 126,339 126,341 130,341 130,348 138,348 138,192 			"/>
			<polygon fill="#F0976B" points="62,339 62,192 54,192 54,348 62,348 62,341 66,341 66,339 			"/>
			<path d="M96,239.458c17.673,0,32-14.325,32-32V192H64v15.458C64,225.133,78.327,239.458,96,239.458z"/>
		</g>
		<g>
			<rect x="208" y="313" fill="#F0976B" width="64" height="46"/>
			<path fill="#A4CB57" d="M240,256.458c-17.673,0-32,14.328-32,32v62c0-17.672,14.327-32,32-32s32,14.328,32,32v-62
				C272,270.786,257.673,256.458,240,256.458z"/>
			<path fill="#FEC629" d="M240,416.458c17.673,0,32-14.325,32-32V352h-64v32.458C208,402.133,222.327,416.458,240,416.458z"/>
			<polygon fill="#F0976B" points="274,352 274,499 270,499 270,501 274,501 274,508 282,508 282,352 			"/>
			<polygon fill="#F0976B" points="206,499 206,352 198,352 198,508 206,508 206,501 210,501 210,499 			"/>
		</g>
		<g>
			<g>
				<rect x="372" y="576" fill="#F0976B" width="8" height="192"/>
				<rect x="388" y="576" fill="#F0976B" width="8" height="192"/>
			</g>
			<polygon fill="#F0976B" points="418,896 418,1043 414,1043 414,1045 418,1045 418,1052 426,1052 426,896 			"/>
			<polygon fill="#F0976B" points="350,1043 350,896 342,896 342,1052 350,1052 350,1045 354,1045 354,1043 			"/>
		</g>
	</g>
</g>
<g id="txt">
</g>
<rect x="352" y="853.544" fill="#F0976B" width="64" height="54"/>
<path d="M384,960c17.673,0,32-14.326,32-32v-32.456h-64V928C352,945.674,366.327,960,384,960z"/>
<g>
	<defs>
		<path id="SVGID_1_" d="M384,751c-17.673,0-32,14.327-32,32v111c0-17.673,14.327-32,32-32s32,14.327,32,32V783
			C416,765.327,401.673,751,384,751z"/>
	</defs>
	<clipPath id="SVGID_2_">
		<use xlink:href="#SVGID_1_"  overflow="visible"/>
	</clipPath>
	<rect x="304" y="737.044" clip-path="url(#SVGID_2_)" fill="#FFFFFF" width="161.5" height="197"/>
	<rect x="348" y="797.044" clip-path="url(#SVGID_2_)" fill="#2FA1BE" width="74.5" height="16"/>
	<rect x="348" y="828.544" clip-path="url(#SVGID_2_)" fill="#2FA1BE" width="74.5" height="16"/>
	<rect x="348" y="860.544" clip-path="url(#SVGID_2_)" fill="#2FA1BE" width="74.5" height="16"/>
</g>
<g>
	<path fill="#EC4346" d="M416,782.998c0-17.673-14.326-32-32-32c-17.672,0-32,14.327-32,32v7.546h64V782.998z"/>
</g>
</svg>
