<?xml version="1.0" encoding="utf-8"?>
<!-- Generator: Adobe Illustrator 16.0.0, SVG Export Plug-In . SVG Version: 6.00 Build 0)  -->
<!DOCTYPE svg PUBLIC "-//W3C//DTD SVG 1.1//EN" "http://www.w3.org/Graphics/SVG/1.1/DTD/svg11.dtd">
<svg version="1.1" xmlns="http://www.w3.org/2000/svg" xmlns:xlink="http://www.w3.org/1999/xlink" x="0px" y="0px" width="480px"
	 height="960px" viewBox="0 0 480 960" enable-background="new 0 0 480 960" xml:space="preserve">
<pattern  x="1793" y="5632" width="114" height="20" patternUnits="userSpaceOnUse" id="Nueva_muestra_de_motivo_4" viewBox="0 -20 114 20" overflow="visible">
	<g>
		<polygon fill="none" points="0,0 114,0 114,-20 0,-20 		"/>
		<polygon fill="#FFFFFF" points="114,0 0,0 0,-10 114,-10 		"/>
		<polygon fill="#2FA1BE" points="114,-10 0,-10 0,-20 114,-20 		"/>
	</g>
</pattern>
<g id="gotas_copia_2">
	<g id="_x31__copia_2">
	</g>
	<g id="_x32__copia_2">
	</g>
	<g id="_x33__copia_2">
	</g>
	<g id="_x34__copia_2">
	</g>
	<g id="_x35__copia_2">
	</g>
</g>
<g id="guías" display="none">
</g>
<g id="Capa_1">
	<g>
		<g>
			<g>
				<rect x="84" y="224" fill="#F0976B" width="8" height="192"/>
				<rect x="100" y="224" fill="#F0976B" width="8" height="192"/>
			</g>
			<path fill="#FEC629" d="M64,200v40.458c0,17.674,14.327,32,32,32s32-14.326,32-32V201"/>
			<polygon fill="#F0976B" points="130,192 130,339 126,339 126,341 130,341 130,348 138,348 138,192 			"/>
			<polygon fill="#F0976B" points="62,339 62,192 54,192 54,348 62,348 62,341 66,341 66,339 			"/>
			<path d="M96,239.458c17.673,0,32-14.325,32-32V192H64v15.458C64,225.133,78.327,239.458,96,239.458z"/>
		</g>
		<g>
			<rect x="208" y="313" fill="#F0976B" width="64" height="46"/>
			<path fill="#A4CB57" d="M240,256.458c-17.673,0-32,14.328-32,32v62c0-17.672,14.327-32,32-32s32,14.328,32,32v-62
				C272,270.786,257.673,256.458,240,256.458z"/>
			<path fill="#FEC629" d="M240,416.458c17.673,0,32-14.325,32-32V352h-64v32.458C208,402.133,222.327,416.458,240,416.458z"/>
			<polygon fill="#F0976B" points="274,352 274,499 270,499 270,501 274,501 274,508 282,508 282,352 			"/>
			<polygon fill="#F0976B" points="206,499 206,352 198,352 198,508 206,508 206,501 210,501 210,499 			"/>
		</g>
		<g>
			<g>
				<rect x="372" y="576" fill="#F0976B" width="8" height="192"/>
				<rect x="388" y="576" fill="#F0976B" width="8" height="192"/>
			</g>
			<rect x="352" y="854" fill="#F0976B" width="64" height="54"/>
			
				<pattern  id="SVGID_1_" xlink:href="#Nueva_muestra_de_motivo_4" patternTransform="matrix(1.5791 0 0 1.5791 2714.166 6999.3047)">
			</pattern>
			<path fill="url(#SVGID_1_)" d="M384,751.458c-17.673,0-32,14.328-32,32v111c0-17.672,14.327-32,32-32s32,14.328,32,32v-111
				C416,765.786,401.673,751.458,384,751.458z"/>
			<path d="M384,960.458c17.673,0,32-14.325,32-32V896h-64v32.458C352,946.133,366.327,960.458,384,960.458z"/>
			<polygon fill="#F0976B" points="418,896 418,1043 414,1043 414,1045 418,1045 418,1052 426,1052 426,896 			"/>
			<polygon fill="#F0976B" points="350,1043 350,896 342,896 342,1052 350,1052 350,1045 354,1045 354,1043 			"/>
			<g>
				<path fill="#EC4346" d="M416,783.457c0-17.673-14.326-32-32-32c-17.672,0-32,14.327-32,32V791h64V783.457z"/>
			</g>
		</g>
	</g>
</g>
<g id="txt">
</g>
</svg>
