<?xml version="1.0" encoding="utf-8"?>
<!-- Generator: Adobe Illustrator 16.0.0, SVG Export Plug-In . SVG Version: 6.00 Build 0)  -->
<!DOCTYPE svg PUBLIC "-//W3C//DTD SVG 1.1//EN" "http://www.w3.org/Graphics/SVG/1.1/DTD/svg11.dtd">
<svg version="1.1" id="Capa_1" xmlns="http://www.w3.org/2000/svg" xmlns:xlink="http://www.w3.org/1999/xlink" x="0px" y="0px"
	 width="480px" height="960px" viewBox="0 0 480 960" enable-background="new 0 0 480 960" xml:space="preserve">
<g>
	<g>
		<g>
			<rect x="84" y="512" fill="#F0976B" width="8" height="192"/>
			<rect x="100" y="512" fill="#F0976B" width="8" height="192"/>
		</g>
		<rect x="64" y="790" fill="#F0976B" width="64" height="54"/>
		<path fill="#FEC629" d="M96,686.813c-17.673,0-32,14.327-32,32v111c0-17.673,14.327-32,32-32s32,14.327,32,32v-111
			C128,701.141,113.673,686.813,96,686.813z"/>
		<path d="M96,895.813c17.673,0,32-14.326,32-32V832H64v31.813C64,881.487,78.327,895.813,96,895.813z"/>
		<polygon fill="#F0976B" points="130,832 130,979 126,979 126,981 130,981 130,988 138,988 138,832 		"/>
		<polygon fill="#F0976B" points="62,979 62,832 54,832 54,988 62,988 62,981 66,981 66,979 		"/>
	</g>
	<g>
		<g>
			<rect x="228" y="704" fill="#F0976B" width="8" height="192"/>
			<rect x="244" y="704" fill="#F0976B" width="8" height="192"/>
		</g>
		<path fill="#A4CB57" d="M240,878.813c-17.673,0-32,14.327-32,32v111c0-17.673,14.327-32,32-32s32,14.327,32,32v-111
			C272,893.141,257.673,878.813,240,878.813z"/>
	</g>
	<g>
		<g>
			<rect x="372" y="896" fill="#F0976B" width="8" height="192"/>
			<rect x="388" y="896" fill="#F0976B" width="8" height="192"/>
		</g>
	</g>
</g>
</svg>
