<?xml version="1.0" encoding="utf-8"?>
<!-- Generator: Adobe Illustrator 16.0.0, SVG Export Plug-In . SVG Version: 6.00 Build 0)  -->
<!DOCTYPE svg PUBLIC "-//W3C//DTD SVG 1.1//EN" "http://www.w3.org/Graphics/SVG/1.1/DTD/svg11.dtd">
<svg version="1.1" xmlns="http://www.w3.org/2000/svg" xmlns:xlink="http://www.w3.org/1999/xlink" x="0px" y="0px" width="480px"
	 height="960px" viewBox="0 0 480 960" enable-background="new 0 0 480 960" xml:space="preserve">
<pattern  x="7169" y="5632" width="114" height="20" patternUnits="userSpaceOnUse" id="Nueva_muestra_de_motivo_4" viewBox="0 -20 114 20" overflow="visible">
	<g>
		<polygon fill="none" points="0,0 114,0 114,-20 0,-20 		"/>
		<polygon fill="#FFFFFF" points="114,0 0,0 0,-10 114,-10 		"/>
		<polygon fill="#2FA1BE" points="114,-10 0,-10 0,-20 114,-20 		"/>
	</g>
</pattern>
<g id="gotas_copia_2">
	<g id="_x31__copia_2">
	</g>
	<g id="_x32__copia_2">
	</g>
	<g id="_x33__copia_2">
	</g>
	<g id="_x34__copia_2">
	</g>
	<g id="_x35__copia_2">
	</g>
</g>
<g id="guías" display="none">
</g>
<g id="Capa_1">
	<g>
		<g>
			<path fill="#F0976B" d="M96,31.981c-17.673,0-32,14.326-32,32v144c0,17.672,14.327,32,32,32s32-14.328,32-32v-144
				C128,46.307,113.673,31.981,96,31.981z"/>
			<g>
				<rect x="84" y="224" fill="#F0976B" width="8" height="192"/>
				<rect x="100" y="224" fill="#F0976B" width="8" height="192"/>
			</g>
			<polygon fill="#F0976B" points="130,96 130,243 126,243 126,245 130,245 130,252 138,252 138,96 			"/>
			<polygon fill="#F0976B" points="62,243 62,96 54,96 54,252 62,252 62,245 66,245 66,243 			"/>
			<polygon fill="#EC4346" points="96.611,94 92.548,94 94.58,84.232 96.611,74.469 98.642,84.234 100.672,94 			"/>
			<path d="M108.611,50.573"/>
			<path fill="#FEC629" d="M96,126.981c-17.673,0-32-14.327-32-32v113c0,17.672,14.327,32,32,32s32-14.328,32-32v-113
				C128,112.654,113.673,126.981,96,126.981z"/>
			<path d="M96.519,32c-17.673,0-32,14-32,32h40.029l2.029-5.978l2.027-5.976l2.027,5.976L112.658,64h15.86
				C128.519,46,114.191,32,96.519,32z"/>
			<circle cx="96.519" cy="23.981" r="8"/>
		</g>
		<g>
			<g>
				<path fill="#F0976B" d="M240,31.981c-17.673,0-32,14.326-32,32v144c0,17.672,14.327,32,32,32s32-14.328,32-32v-144
					C272,46.307,257.673,31.981,240,31.981z"/>
				<g>
					<rect x="228" y="224" fill="#F0976B" width="8" height="192"/>
					<rect x="244" y="224" fill="#F0976B" width="8" height="192"/>
				</g>
				<polygon fill="#F0976B" points="274,96 274,243 270,243 270,245 274,245 274,252 282,252 282,96 				"/>
				<polygon fill="#F0976B" points="206,243 206,96 198,96 198,252 206,252 206,245 210,245 210,243 				"/>
				<polygon fill="#EC4346" points="240.444,94 236.381,94 238.413,84.232 240.444,74.469 242.475,84.234 244.505,94 				"/>
				<polygon fill="#FEC629" points="240.348,16 248.414,16 244.381,24.04 240.348,32.011 236.318,24.006 232.289,16 				"/>
				<path fill="#A4CB57" d="M240,126.981c-17.673,0-32-14.327-32-32v113c0,17.672,14.327,32,32,32s32-14.328,32-32v-113
					C272,112.654,257.673,126.981,240,126.981z"/>
				<path fill="#FEC629" d="M208.352,64h7.668c-2.671,0-5.236-0.443-7.637-1.248C208.367,63.166,208.352,64,208.352,64z"/>
				<path fill="#FEC629" d="M272.352,64c0-1-0.015-0.984-0.037-1.473C269.729,63.479,266.936,64,264.02,64H272.352z"/>
				<g>
					<path fill="#FEC629" d="M241.382,32.006c-0.343-0.009-0.685-0.025-1.03-0.025c-0.566,0-1.129,0.017-1.688,0.045
						c0.874,2.49,1.355,5.165,1.355,7.955C240.02,37.184,240.503,34.502,241.382,32.006z"/>
					<path fill="#FEC629" d="M240.02,39.981c0-2.79-0.481-5.465-1.355-7.955c-16.476,0.854-29.646,14.173-30.281,30.707
						c2.4,0.804,4.966,1.248,7.637,1.248C229.274,63.981,240.02,53.235,240.02,39.981z"/>
					<path fill="#FEC629" d="M241.382,32.006c-0.879,2.496-1.362,5.178-1.362,7.975c0,13.254,10.745,24,24,24
						c2.916,0,5.71-0.522,8.295-1.473C271.56,45.859,258.086,32.536,241.382,32.006z"/>
				</g>
			</g>
			<g>
				<path fill="#F0976B" d="M384,31.981c-17.673,0-32,14.326-32,32v144c0,17.672,14.327,32,32,32s32-14.328,32-32v-144
					C416,46.307,401.673,31.981,384,31.981z"/>
				<g>
					<rect x="372" y="224" fill="#F0976B" width="8" height="192"/>
					<rect x="388" y="224" fill="#F0976B" width="8" height="192"/>
				</g>
				<polygon fill="#F0976B" points="418,96 418,243 414,243 414,245 418,245 418,252 426,252 426,96 				"/>
				<polygon fill="#F0976B" points="350,243 350,96 342,96 342,252 350,252 350,245 354,245 354,243 				"/>
				<polygon fill="#EC4346" points="384.444,94 380.381,94 382.413,84.232 384.444,74.469 386.475,84.234 388.505,94 				"/>
				<path fill="#F0976B" d="M384.469,52.026c9.129,0,17.366-3.815,23.212-9.938c-4.145-4.415-9.523-7.653-15.59-9.161
					c-1.839-0.135-3.635-0.419-5.374-0.852c-0.782-0.057-1.568-0.095-2.365-0.095c-9.14,0-17.378,3.837-23.209,9.982
					C366.997,48.156,375.278,52.026,384.469,52.026z"/>
				<path d="M394.469,33.026c-0.801,0-1.592-0.04-2.378-0.099c-1.739-0.43-3.535-0.717-5.374-0.852
					c-0.782-0.057-1.568-0.095-2.365-0.095c-9.14,0-17.378,3.837-23.209,9.982c5.854,6.193,14.136,10.063,23.326,10.063
					c9.129,0,17.366-3.815,23.212-9.938c4.509-4.722,7.596-10.815,8.57-17.594C410.526,29.79,402.876,33.026,394.469,33.026z"/>
				<g>
					<path d="M364.919,95.414c0,0,12.926,7.567,18.334,2.62c1.065-0.975,1.065-2.1,1.065-2.1s0.024-1.063-1.14-1.625
						c-1.326-0.642-3.617-0.545-6.325,2.174c-0.926,0.931-2.216,1.729-5.139,1.051C369.98,97.131,364.919,95.414,364.919,95.414z"/>
					<path d="M403.717,95.414c0,0-12.926,7.567-18.334,2.62c-1.065-0.975-1.065-2.1-1.065-2.1s-0.025-1.063,1.139-1.625
						c1.327-0.642,3.618-0.545,6.326,2.174c0.925,0.931,2.215,1.729,5.139,1.051C398.655,97.131,403.717,95.414,403.717,95.414z"/>
				</g>
				
					<pattern  id="SVGID_1_" xlink:href="#Nueva_muestra_de_motivo_4" patternTransform="matrix(1.5791 0 0 1.5791 4308.0215 7028.7383)">
				</pattern>
				<path fill="url(#SVGID_1_)" d="M384,126.981c-17.673,0-32-14.327-32-32v113c0,17.672,14.327,32,32,32s32-14.328,32-32v-113
					C416,112.654,401.673,126.981,384,126.981z"/>
				<path fill="#EC4346" d="M352,207.981c0,17.672,14.327,32,32,32s32-14.328,32-32V200h-64V207.981z"/>
			</g>
		</g>
	</g>
</g>
<g id="txt">
</g>
</svg>
