<?xml version="1.0" encoding="utf-8"?>
<!-- Generator: Adobe Illustrator 16.0.0, SVG Export Plug-In . SVG Version: 6.00 Build 0)  -->
<!DOCTYPE svg PUBLIC "-//W3C//DTD SVG 1.1//EN" "http://www.w3.org/Graphics/SVG/1.1/DTD/svg11.dtd">
<svg version="1.1" xmlns="http://www.w3.org/2000/svg" xmlns:xlink="http://www.w3.org/1999/xlink" x="0px" y="0px" width="480px"
	 height="960px" viewBox="0 0 480 960" enable-background="new 0 0 480 960" xml:space="preserve">
<g id="gotas_copia_2">
	<g id="_x31__copia_2">
	</g>
	<g id="_x32__copia_2">
	</g>
	<g id="_x33__copia_2">
	</g>
	<g id="_x34__copia_2">
	</g>
	<g id="_x35__copia_2">
	</g>
</g>
<g id="guías" display="none">
</g>
<g id="Capa_1">
	<g>
		<g>
			<g>
				<rect x="372" y="264" fill="#F0976B" width="8" height="152"/>
				<rect x="388" y="264" fill="#F0976B" width="8" height="152"/>
			</g>
			<polygon fill="#F0976B" points="418,256 418,403 414,403 414,405 418,405 418,412 426,412 426,256 			"/>
			<polygon fill="#F0976B" points="350,403 350,256 342,256 342,412 350,412 350,405 354,405 354,403 			"/>
			<g>
				<path fill="#EC4346" d="M416,256.199c0-17.674-14.326-32-32-32c-17.672,0-32,14.326-32,32V264h64V256.199z"/>
			</g>
			<path d="M384,320.2c17.674,0,32-14.327,32-32V256h-64v32.2C352,305.874,366.328,320.2,384,320.2z"/>
		</g>
		<g>
			<path fill="#F0976B" d="M96,32.2c-17.673,0-32,14.326-32,32v144c0,17.672,14.327,32,32,32s32-14.328,32-32v-144
				C128,46.526,113.673,32.2,96,32.2z"/>
			<g>
				<rect x="84" y="224" fill="#F0976B" width="8" height="192"/>
				<rect x="100" y="224" fill="#F0976B" width="8" height="192"/>
			</g>
			<polygon fill="#F0976B" points="130,96 130,243 126,243 126,245 130,245 130,252 138,252 138,96 			"/>
			<polygon fill="#F0976B" points="62,243 62,96 54,96 54,252 62,252 62,245 66,245 66,243 			"/>
			<polygon fill="#EC4346" points="96.665,94 92.601,94 94.633,84.343 96.665,74.632 98.695,84.315 100.725,94 			"/>
			<path d="M108.665,50.792"/>
			<path fill="#FEC629" d="M96,127.2c-17.673,0-32-14.328-32-32v113c0,17.672,14.327,32,32,32s32-14.328,32-32v-113
				C128,112.873,113.673,127.2,96,127.2z"/>
			<path d="M96.572,32c-17.673,0-32,15-32,32h40.029l2.029-5.869l2.027-5.92l2.027,5.894L112.711,64h15.86
				C128.572,47,114.245,32,96.572,32z"/>
			<circle cx="96.572" cy="24.2" r="8"/>
		</g>
		<g>
			<g>
				<path fill="#F0976B" d="M240,32.2c-17.673,0-32,14.326-32,32v144c0,17.672,14.327,32,32,32s32-14.328,32-32v-144
					C272,46.526,257.673,32.2,240,32.2z"/>
				<g>
					<rect x="228" y="224" fill="#F0976B" width="8" height="192"/>
					<rect x="244" y="224" fill="#F0976B" width="8" height="192"/>
				</g>
				<polygon fill="#F0976B" points="274,96 274,243 270,243 270,245 274,245 274,252 282,252 282,96 				"/>
				<polygon fill="#F0976B" points="206,243 206,96 198,96 198,252 206,252 206,245 210,245 210,243 				"/>
				<polygon fill="#EC4346" points="240.498,94 236.434,94 238.466,84.343 240.498,74.632 242.528,84.315 244.558,94 				"/>
				<polygon fill="#FEC629" points="240.401,16 248.467,16 244.434,24.149 240.401,32.177 236.372,24.089 232.342,16 				"/>
				<path fill="#A4CB57" d="M240,127.2c-17.673,0-32-14.328-32-32v113c0,17.672,14.327,32,32,32s32-14.328,32-32v-113
					C272,112.873,257.673,127.2,240,127.2z"/>
				<path fill="#FEC629" d="M208.405,64h7.668c-2.671,0-5.236-0.443-7.637-1.248C208.42,63.166,208.405,64,208.405,64z"/>
				<path fill="#FEC629" d="M272.405,64c0,0-0.015-0.984-0.037-1.473c-2.585,0.951-5.379,1.473-8.295,1.473H272.405z"/>
				<g>
					<path fill="#FEC629" d="M241.435,32.226c-0.343-0.009-0.685-0.025-1.03-0.025c-0.566,0-1.129,0.016-1.688,0.045
						c0.874,2.49,1.355,5.166,1.355,7.955C240.073,37.403,240.556,34.722,241.435,32.226z"/>
					<path fill="#FEC629" d="M240.073,40.2c0-2.789-0.481-5.465-1.355-7.955c-16.476,0.856-29.646,14.174-30.282,30.707
						c2.401,0.805,4.966,1.248,7.637,1.248C229.328,64.2,240.073,53.456,240.073,40.2z"/>
					<path fill="#FEC629" d="M241.435,32.226c-0.879,2.496-1.362,5.178-1.362,7.975c0,13.255,10.745,24,24,24
						c2.916,0,5.71-0.521,8.295-1.473C271.613,46.079,258.139,32.756,241.435,32.226z"/>
				</g>
			</g>
		</g>
	</g>
</g>
<g id="txt">
</g>
</svg>
