<?xml version="1.0" encoding="utf-8"?>
<!-- Generator: Adobe Illustrator 16.0.0, SVG Export Plug-In . SVG Version: 6.00 Build 0)  -->
<!DOCTYPE svg PUBLIC "-//W3C//DTD SVG 1.1//EN" "http://www.w3.org/Graphics/SVG/1.1/DTD/svg11.dtd">
<svg version="1.1" xmlns="http://www.w3.org/2000/svg" xmlns:xlink="http://www.w3.org/1999/xlink" x="0px" y="0px" width="480px"
	 height="960px" viewBox="0 0 480 960" enable-background="new 0 0 480 960" xml:space="preserve">
<pattern  x="4098" y="5632" width="114" height="20" patternUnits="userSpaceOnUse" id="Nueva_muestra_de_motivo_4" viewBox="0 -20 114 20" overflow="visible">
	<g>
		<polygon fill="none" points="0,0 114,0 114,-20 0,-20 		"/>
		<polygon fill="#FFFFFF" points="114,0 0,0 0,-10 114,-10 		"/>
		<polygon fill="#2FA1BE" points="114,-10 0,-10 0,-20 114,-20 		"/>
	</g>
</pattern>
<g id="gotas">
</g>
<g id="guías" display="none">
</g>
<g id="Capa_1">
	<g>
		<g>
			<g>
				<rect x="228" y="224" fill="#F0976B" width="8" height="192"/>
				<rect x="244" y="224" fill="#F0976B" width="8" height="192"/>
			</g>
			<path fill="#A4CB57" d="M208,200v40.309c0,17.673,14.327,32,32,32s32-14.327,32-32V201"/>
			<polygon fill="#F0976B" points="274,192 274,339 270,339 270,341 274,341 274,348 282,348 282,192 			"/>
			<polygon fill="#F0976B" points="206,339 206,192 198,192 198,348 206,348 206,341 210,341 210,339 			"/>
			<path fill="#FEC629" d="M240,239.309c17.673,0,32-14.327,32-32V192h-64v15.309C208,224.982,222.327,239.309,240,239.309z"/>
		</g>
		<rect x="352" y="313" fill="#F0976B" width="64" height="46"/>
		
			<pattern  id="SVGID_1_" xlink:href="#Nueva_muestra_de_motivo_4" patternTransform="matrix(1.5791 0 0 1.5791 2191.4639 7060.6504)">
		</pattern>
		<path fill="url(#SVGID_1_)" d="M384,256.309c-17.673,0-32,14.327-32,32v62c0-17.673,14.327-32,32-32s32,14.327,32,32v-62
			C416,270.636,401.673,256.309,384,256.309z"/>
		<path d="M384,416.309c17.673,0,32-14.327,32-32V352h-64v32.309C352,401.982,366.327,416.309,384,416.309z"/>
		<polygon fill="#F0976B" points="418,352 418,499 414,499 414,501 418,501 418,508 426,508 426,352 		"/>
		<polygon fill="#F0976B" points="350,499 350,352 342,352 342,508 350,508 350,501 354,501 354,499 		"/>
		<g>
			<path fill="#F0976B" d="M96,32.309c-17.673,0-32,14.326-32,32v144c0,17.673,14.327,32,32,32s32-14.327,32-32v-144
				C128,46.635,113.673,32.309,96,32.309z"/>
			<g>
				<rect x="84" y="224" fill="#F0976B" width="8" height="192"/>
				<rect x="100" y="224" fill="#F0976B" width="8" height="192"/>
			</g>
			<polygon fill="#F0976B" points="130,96 130,243 126,243 126,245 130,245 130,252 138,252 138,96 			"/>
			<polygon fill="#F0976B" points="62,243 62,96 54,96 54,252 62,252 62,245 66,245 66,243 			"/>
			<polygon fill="#EC4346" points="96.628,94 92.565,94 94.597,84.396 96.628,74.713 98.659,84.356 100.689,94 			"/>
			<path d="M108.628,50.9"/>
			<path fill="#FEC629" d="M96,127.309c-17.673,0-32-14.327-32-32v113c0,17.673,14.327,32,32,32s32-14.327,32-32v-113
				C128,112.982,113.673,127.309,96,127.309z"/>
			<path d="M96.536,32c-17.673,0-32,14-32,32h40.029l2.029-5.814l2.027-5.894l2.027,5.853L112.675,64h15.86
				C128.536,46,114.208,32,96.536,32z"/>
			<circle cx="96.536" cy="24.309" r="8"/>
		</g>
		<g>
			<path fill="#EC4346" d="M416,288.307c0-17.674-14.326-32-32-32c-17.672,0-32,14.326-32,32V296h64V288.307z"/>
		</g>
	</g>
</g>
<g id="txt">
</g>
</svg>
