<?xml version="1.0" encoding="utf-8"?>
<!-- Generator: Adobe Illustrator 16.0.0, SVG Export Plug-In . SVG Version: 6.00 Build 0)  -->
<!DOCTYPE svg PUBLIC "-//W3C//DTD SVG 1.1//EN" "http://www.w3.org/Graphics/SVG/1.1/DTD/svg11.dtd">
<svg version="1.1" id="Capa_1" xmlns="http://www.w3.org/2000/svg" xmlns:xlink="http://www.w3.org/1999/xlink" x="0px" y="0px"
	 width="480px" height="960px" viewBox="0 0 480 960" enable-background="new 0 0 480 960" xml:space="preserve">
<g>
	<g>
		<rect x="84" y="769" fill="#F0976B" width="8" height="192"/>
		<rect x="100" y="769" fill="#F0976B" width="8" height="192"/>
	</g>
	<path fill="#FEC629" d="M96,944.413c-17.673,0-32,14.327-32,32v111c0-17.673,14.327-32,32-32s32,14.327,32,32v-111
		C128,958.74,113.673,944.413,96,944.413z"/>
</g>
<g opacity="0.5">
	<path fill="#FFFFFF" d="M67.752,640.625v-33.609h5.672v33.609H67.752z"/>
	<path fill="#FFFFFF" d="M81.089,640.625v-33.609h5.672v33.609H81.089z"/>
	<path fill="#FFFFFF" d="M94.427,640.625v-33.609h5.672v33.609H94.427z"/>
	<path fill="#FFFFFF" d="M126.958,612.102v9.094h16.406v5.086h-16.406v9.258h18.914v5.086h-24.586v-33.609h24v5.086H126.958z"/>
	<path fill="#FFFFFF" d="M169.405,607.719c2.047,0.625,3.867,1.469,5.461,2.531l-2.344,4.992c-1.734-1.062-3.465-1.852-5.191-2.367
		s-3.277-0.773-4.652-0.773c-1.703,0-3.039,0.305-4.008,0.914s-1.453,1.477-1.453,2.602c0,0.984,0.316,1.812,0.949,2.484
		s1.43,1.211,2.391,1.617s2.309,0.859,4.043,1.359c2.266,0.672,4.113,1.336,5.543,1.992s2.648,1.633,3.656,2.93
		s1.512,2.984,1.512,5.062c0,1.953-0.539,3.668-1.617,5.145s-2.574,2.613-4.488,3.41s-4.105,1.195-6.574,1.195
		c-2.562,0-5.043-0.48-7.441-1.441s-4.496-2.254-6.293-3.879l2.461-4.898c1.703,1.562,3.566,2.77,5.59,3.621
		s3.949,1.277,5.777,1.277c1.984,0,3.527-0.359,4.629-1.078s1.652-1.719,1.652-3c0-1.031-0.328-1.883-0.984-2.555
		s-1.473-1.199-2.449-1.582s-2.324-0.832-4.043-1.348c-2.297-0.672-4.145-1.328-5.543-1.969s-2.602-1.582-3.609-2.824
		s-1.512-2.902-1.512-4.98c0-1.891,0.512-3.543,1.535-4.957s2.457-2.504,4.301-3.27s3.977-1.148,6.398-1.148
		C165.257,606.781,167.358,607.094,169.405,607.719z"/>
	<path fill="#FFFFFF" d="M202.798,608.246c2.258,0.914,4.199,2.184,5.824,3.809l-3.305,4.148c-1.219-1.312-2.66-2.355-4.324-3.129
		s-3.348-1.16-5.051-1.16c-2.203,0-4.223,0.52-6.059,1.559s-3.285,2.465-4.348,4.277s-1.594,3.805-1.594,5.977
		s0.531,4.164,1.594,5.977s2.512,3.246,4.348,4.301s3.855,1.582,6.059,1.582c1.656,0,3.312-0.352,4.969-1.055s3.125-1.68,4.406-2.93
		l3.352,3.75c-1.734,1.703-3.75,3.047-6.047,4.031s-4.617,1.477-6.961,1.477c-3.234,0-6.188-0.75-8.859-2.25
		s-4.773-3.555-6.305-6.164s-2.297-5.5-2.297-8.672c0-3.141,0.773-5.996,2.32-8.566s3.672-4.602,6.375-6.094
		s5.688-2.238,8.953-2.238C198.224,606.875,200.54,607.332,202.798,608.246z"/>
	<path fill="#FFFFFF" d="M239.76,634.262c-1.172,2.133-2.852,3.766-5.039,4.898s-4.789,1.699-7.805,1.699s-5.617-0.566-7.805-1.699
		s-3.871-2.766-5.051-4.898s-1.77-4.652-1.77-7.559v-19.688h5.648v19.688c0,2.812,0.809,5.027,2.426,6.645s3.816,2.426,6.598,2.426
		c2.75,0,4.918-0.801,6.504-2.402s2.379-3.824,2.379-6.668v-19.688h5.672v19.688C241.518,629.609,240.932,632.129,239.76,634.262z"
		/>
	<path fill="#FFFFFF" d="M254.426,612.102v9.094h16.406v5.086h-16.406v9.258h18.914v5.086h-24.586v-33.609h24v5.086H254.426z"/>
	<path fill="#FFFFFF" d="M299.243,635.492v5.133h-20.227v-33.609h5.672v28.477H299.243z"/>
	<path fill="#FFFFFF" d="M310.116,633.031l-3.211,7.594h-5.906l14.836-33.609h5.812l14.672,33.609h-6.047l-3.211-7.594H310.116z
		 M318.577,613.062l-6.352,14.93h12.68L318.577,613.062z"/>
	<path fill="#FFFFFF" d="M375.882,609.184c2.641,1.445,4.707,3.445,6.199,6s2.238,5.434,2.238,8.637s-0.754,6.078-2.262,8.625
		s-3.59,4.547-6.246,6s-5.664,2.18-9.023,2.18h-13.641v-33.609h13.781C370.257,607.016,373.241,607.738,375.882,609.184z
		 M358.819,635.539h8.25c2.141,0,4.094-0.496,5.859-1.488s3.152-2.375,4.16-4.148s1.512-3.785,1.512-6.035
		c0-2.234-0.52-4.246-1.559-6.035s-2.457-3.191-4.254-4.207s-3.781-1.523-5.953-1.523h-8.016V635.539z"/>
	<path fill="#FFFFFF" d="M395.256,612.102v9.094h16.406v5.086h-16.406v9.258h18.914v5.086h-24.586v-33.609h24v5.086H395.256z"/>
	<path fill="#FFFFFF" d="M25.415,698.225l-13.406-33.609h6.094l10.383,27.328l10.453-27.328h5.906l-13.594,33.609H25.415z"/>
	<path fill="#FFFFFF" d="M53.926,669.702v9.094h16.406v5.086H53.926v9.258H72.84v5.086H48.254v-33.609h24v5.086H53.926z"/>
	<path fill="#FFFFFF" d="M93.704,688.053c-0.312,0.032-0.828,0.047-1.547,0.047h-7.969v10.125h-5.672v-33.609h13.641
		c4.281,0,7.609,1,9.984,3c2.375,2,3.562,4.828,3.562,8.484c0,2.688-0.602,4.957-1.805,6.809s-2.922,3.215-5.156,4.09l7.523,11.227
		h-6.422L93.704,688.053z M98.204,681.303c1.406-1.14,2.109-2.828,2.109-5.062c0-2.171-0.703-3.805-2.109-4.898
		c-1.406-1.093-3.422-1.641-6.047-1.641h-7.969v13.312h7.969C94.782,683.014,96.798,682.444,98.204,681.303z"/>
	<path fill="#FFFFFF" d="M117.852,690.631l-3.211,7.594h-5.906l14.836-33.609h5.812l14.672,33.609h-6.047l-3.211-7.594H117.852z
		 M126.312,670.663l-6.352,14.93h12.68L126.312,670.663z"/>
	<path fill="#FFFFFF" d="M170.977,698.225l-17.906-24.094v24.094h-5.672v-33.609h5.578l18,24.164v-24.164h5.578v33.609H170.977z"/>
	<path fill="#FFFFFF" d="M208.661,666.713c2.727,1.492,4.871,3.531,6.434,6.117c1.562,2.586,2.344,5.449,2.344,8.59
		c0,3.172-0.781,6.055-2.344,8.648c-1.562,2.594-3.707,4.641-6.434,6.141s-5.738,2.25-9.035,2.25s-6.305-0.75-9.023-2.25
		s-4.859-3.547-6.422-6.141c-1.562-2.593-2.344-5.476-2.344-8.648c0-3.172,0.781-6.043,2.344-8.613
		c1.562-2.57,3.703-4.602,6.422-6.094c2.719-1.492,5.727-2.238,9.023-2.238S205.935,665.222,208.661,666.713z M193.638,671.155
		c-1.852,1.063-3.324,2.496-4.418,4.301s-1.641,3.793-1.641,5.965c0,2.172,0.555,4.172,1.664,6s2.582,3.278,4.418,4.348
		c1.836,1.07,3.84,1.605,6.012,1.605s4.172-0.527,6-1.582s3.277-2.504,4.348-4.348c1.07-1.843,1.605-3.852,1.605-6.023
		c0-2.171-0.535-4.16-1.605-5.965s-2.516-3.238-4.336-4.301c-1.82-1.062-3.824-1.594-6.012-1.594
		C197.501,669.561,195.489,670.092,193.638,671.155z"/>
	<path fill="#FFFFFF" d="M240.595,690.631l-3.211,7.594h-5.906l14.836-33.609h5.812l14.672,33.609h-6.047l-3.211-7.594H240.595z
		 M249.056,670.663l-6.352,14.93h12.68L249.056,670.663z"/>
	<path fill="#FFFFFF" d="M285.33,688.053c-0.312,0.032-0.828,0.047-1.547,0.047h-7.969v10.125h-5.672v-33.609h13.641
		c4.281,0,7.609,1,9.984,3c2.375,2,3.562,4.828,3.562,8.484c0,2.688-0.602,4.957-1.805,6.809s-2.922,3.215-5.156,4.09l7.523,11.227
		h-6.422L285.33,688.053z M289.83,681.303c1.406-1.14,2.109-2.828,2.109-5.062c0-2.171-0.703-3.805-2.109-4.898
		c-1.406-1.093-3.422-1.641-6.047-1.641h-7.969v13.312h7.969C286.408,683.014,288.424,682.444,289.83,681.303z"/>
	<path fill="#FFFFFF" d="M315.854,669.702v28.523h-5.672v-28.523h-10.617v-5.086h26.93v5.086H315.854z"/>
	<path fill="#FFFFFF" d="M335.684,669.702v9.094h16.406v5.086h-16.406v9.258h18.914v5.086h-24.586v-33.609h24v5.086H335.684z"/>
	<path fill="#FFFFFF" d="M383.008,666.784c2.641,1.445,4.707,3.445,6.199,6s2.238,5.434,2.238,8.637
		c0,3.203-0.754,6.079-2.262,8.625c-1.508,2.547-3.59,4.547-6.246,6s-5.664,2.18-9.023,2.18h-13.641v-33.609h13.781
		C377.383,664.616,380.367,665.339,383.008,666.784z M365.945,693.139h8.25c2.141,0,4.094-0.496,5.859-1.488
		c1.766-0.992,3.152-2.375,4.16-4.148c1.008-1.773,1.512-3.785,1.512-6.035c0-2.234-0.52-4.246-1.559-6.035
		c-1.039-1.789-2.457-3.191-4.254-4.207c-1.797-1.016-3.781-1.523-5.953-1.523h-8.016V693.139z"/>
	<path fill="#FFFFFF" d="M396.787,698.225v-33.609h5.672v33.609H396.787z"/>
	<path fill="#FFFFFF" d="M415.797,669.702v9.094h16.406v5.086h-16.406v9.258h18.914v5.086h-24.586v-33.609h24v5.086H415.797z"/>
	<path fill="#FFFFFF" d="M445.632,693.139h20.695v5.086h-28.359v-4.078l20.484-24.445h-19.875v-5.086h27.516v4.078L445.632,693.139z
		"/>
</g>
<g opacity="0.5">
	<path fill="#FFFFFF" d="M76.941,733.831c1.32,0.723,2.354,1.723,3.1,3s1.119,2.717,1.119,4.318s-0.377,3.039-1.131,4.312
		s-1.795,2.273-3.123,3s-2.832,1.09-4.512,1.09h-6.82v-16.805h6.891C74.129,732.747,75.621,733.108,76.941,733.831z M68.41,747.009
		h4.125c1.07,0,2.047-0.248,2.93-0.744s1.576-1.188,2.08-2.074s0.756-1.893,0.756-3.018c0-1.117-0.26-2.123-0.779-3.018
		s-1.229-1.596-2.127-2.104s-1.891-0.762-2.977-0.762H68.41V747.009z"/>
	<path fill="#FFFFFF" d="M94.393,738.39c1,1.137,1.5,2.736,1.5,4.799c0,0.211-0.016,0.555-0.047,1.031h-9.656
		c0.227,0.992,0.691,1.773,1.395,2.344s1.559,0.855,2.566,0.855c0.688,0,1.344-0.129,1.969-0.387s1.168-0.625,1.629-1.102
		l1.465,1.559c-0.641,0.688-1.408,1.219-2.303,1.594s-1.885,0.562-2.971,0.562c-1.297,0-2.438-0.271-3.422-0.814
		s-1.748-1.303-2.291-2.279s-0.814-2.098-0.814-3.363s0.271-2.389,0.814-3.369s1.307-1.748,2.291-2.303s2.102-0.832,3.352-0.832
		C91.885,736.685,93.393,737.253,94.393,738.39z M92.412,739.784c-0.641-0.59-1.48-0.885-2.52-0.885
		c-1.008,0-1.844,0.295-2.508,0.885s-1.078,1.396-1.242,2.42h7.301C93.396,741.181,93.053,740.374,92.412,739.784z"/>
	<path fill="#FFFFFF" d="M99.105,749.552v-17.812h2.766v17.812H99.105z"/>
	<path fill="#FFFFFF" d="M121.124,733.146c0.809,0.344,1.438,0.836,1.887,1.477s0.674,1.387,0.674,2.238
		c0,0.797-0.27,1.65-0.809,2.561s-1.297,1.896-2.273,2.959l-4.359,4.629h8.203v2.543h-11.953v-2.062l6.199-6.645
		c0.625-0.641,1.121-1.277,1.488-1.91s0.551-1.191,0.551-1.676c0-0.672-0.248-1.199-0.744-1.582s-1.186-0.574-2.068-0.574
		c-0.719,0-1.482,0.188-2.291,0.562s-1.572,0.891-2.291,1.547l-1.125-2.18c0.93-0.766,1.918-1.357,2.965-1.775
		s2.098-0.627,3.152-0.627S120.315,732.802,121.124,733.146z"/>
	<path fill="#FFFFFF" d="M131.896,749.552h-3l6.527-14.262h-6.527l-0.023,2.355h-2.496v-4.898h12.211v2.168L131.896,749.552z"/>
	<path fill="#FFFFFF" d="M156.24,747.993c-0.914,1.117-2.32,1.676-4.219,1.676c-0.898,0-1.688-0.172-2.367-0.516
		s-1.203-0.814-1.57-1.412s-0.551-1.275-0.551-2.033c0-1.172,0.424-2.1,1.271-2.783s2.033-1.033,3.557-1.049h3.855v-0.387
		c0-0.812-0.26-1.443-0.779-1.893s-1.275-0.674-2.268-0.674c-1.234,0-2.488,0.43-3.762,1.289l-1.137-1.922
		c0.977-0.578,1.854-0.99,2.631-1.236s1.732-0.369,2.865-0.369c1.633,0,2.898,0.396,3.797,1.189s1.355,1.893,1.371,3.299
		l0.023,8.379h-2.719V747.993z M155.08,746.804c0.68-0.457,1.059-1.037,1.137-1.74v-1.172h-3.457c-0.914,0-1.582,0.131-2.004,0.393
		s-0.633,0.697-0.633,1.307c0,0.578,0.221,1.039,0.662,1.383s1.045,0.516,1.811,0.516C153.572,747.489,154.4,747.261,155.08,746.804
		z"/>
	<path fill="#FFFFFF" d="M162.893,749.552v-17.812h2.766v17.812H162.893z"/>
	<path fill="#FFFFFF" d="M185.802,741.214c0.855,0.793,1.283,1.838,1.283,3.135c0,1.039-0.252,1.963-0.756,2.771
		s-1.217,1.436-2.139,1.881s-1.996,0.668-3.223,0.668c-1.023,0-2.045-0.164-3.064-0.492s-1.889-0.77-2.607-1.324l1.184-2.309
		c0.594,0.562,1.266,0.994,2.016,1.295s1.508,0.451,2.273,0.451c1.102,0,1.965-0.26,2.59-0.779s0.938-1.217,0.938-2.092
		c0-0.898-0.309-1.584-0.926-2.057s-1.492-0.709-2.625-0.709h-2.332v-1.652l4.371-4.711h-6.715v-2.52h10.219v1.781l-4.793,5.18
		l0.855,0.105C183.796,739.962,184.946,740.421,185.802,741.214z"/>
	<path fill="#FFFFFF" d="M201.957,734.874c1.234,1.465,1.852,3.557,1.852,6.275s-0.617,4.811-1.852,6.275s-2.992,2.197-5.273,2.197
		c-2.305,0-4.074-0.732-5.309-2.197s-1.852-3.557-1.852-6.275s0.617-4.811,1.852-6.275s3.004-2.197,5.309-2.197
		C198.965,732.677,200.723,733.409,201.957,734.874z M193.484,736.438c-0.703,1.016-1.055,2.586-1.055,4.711
		c0,2.109,0.352,3.678,1.055,4.705s1.77,1.541,3.199,1.541c1.406,0,2.461-0.512,3.164-1.535s1.055-2.594,1.055-4.711
		c0-2.125-0.352-3.695-1.055-4.711s-1.758-1.523-3.164-1.523C195.254,734.915,194.188,735.423,193.484,736.438z"/>
	<path fill="#FFFFFF" d="M226.548,749.552h-2.754v-2.18c-0.461,0.75-1.072,1.32-1.834,1.711s-1.646,0.586-2.654,0.586
		c-1.219,0-2.287-0.275-3.205-0.826s-1.633-1.322-2.145-2.314s-0.768-2.129-0.768-3.41c0-1.266,0.256-2.387,0.768-3.363
		s1.227-1.736,2.145-2.279s1.971-0.814,3.158-0.814c1.023,0,1.914,0.201,2.672,0.604s1.379,0.979,1.863,1.729v-7.254h2.754V749.552z
		 M222.704,746.206c0.727-0.777,1.09-1.775,1.09-2.994c0-1.234-0.363-2.242-1.09-3.023s-1.668-1.172-2.824-1.172
		c-1.148,0-2.088,0.393-2.818,1.178s-1.104,1.791-1.119,3.018c0.016,1.219,0.389,2.217,1.119,2.994s1.67,1.166,2.818,1.166
		C221.036,747.372,221.978,746.983,222.704,746.206z"/>
	<path fill="#FFFFFF" d="M240.725,738.39c1,1.137,1.5,2.736,1.5,4.799c0,0.211-0.016,0.555-0.047,1.031h-9.656
		c0.227,0.992,0.691,1.773,1.395,2.344s1.559,0.855,2.566,0.855c0.688,0,1.344-0.129,1.969-0.387s1.168-0.625,1.629-1.102
		l1.465,1.559c-0.641,0.688-1.408,1.219-2.303,1.594s-1.885,0.562-2.971,0.562c-1.297,0-2.438-0.271-3.422-0.814
		s-1.748-1.303-2.291-2.279s-0.814-2.098-0.814-3.363s0.271-2.389,0.814-3.369s1.307-1.748,2.291-2.303s2.102-0.832,3.352-0.832
		C238.217,736.685,239.725,737.253,240.725,738.39z M238.744,739.784c-0.641-0.59-1.48-0.885-2.52-0.885
		c-1.008,0-1.844,0.295-2.508,0.885s-1.078,1.396-1.242,2.42h7.301C239.729,741.181,239.385,740.374,238.744,739.784z"/>
	<path fill="#FFFFFF" d="M259.134,748.28c-0.926,0.926-2.205,1.389-3.838,1.389c-0.992,0-1.904-0.207-2.736-0.621
		s-1.568-1.016-2.209-1.805l1.348-2.156c0.547,0.594,1.131,1.051,1.752,1.371s1.229,0.48,1.822,0.48
		c0.766,0,1.357-0.229,1.775-0.686s0.627-1.119,0.627-1.986v-8.977h-5.812v-2.543h8.66v11.625
		C260.522,746.052,260.06,747.354,259.134,748.28z"/>
	<path fill="#FFFFFF" d="M276.416,749.552h-2.754v-2.496c-0.828,1.695-2.348,2.559-4.559,2.59c-1.453,0-2.598-0.439-3.434-1.318
		s-1.254-2.08-1.254-3.604v-7.945h2.766v7.184c0,0.961,0.264,1.717,0.791,2.268s1.256,0.826,2.186,0.826
		c1.07-0.016,1.922-0.396,2.555-1.143s0.949-1.693,0.949-2.842v-6.293h2.754V749.552z"/>
	<path fill="#FFFFFF" d="M291.461,737.997c0.844,0.875,1.266,2.078,1.266,3.609v7.945h-2.766v-7.172
		c0-0.961-0.271-1.719-0.814-2.273s-1.295-0.832-2.256-0.832c-1.023,0.016-1.859,0.344-2.508,0.984s-1.02,1.473-1.113,2.496v6.797
		h-2.766v-12.773h2.766v2.449c0.867-1.695,2.434-2.543,4.699-2.543C289.453,736.685,290.617,737.122,291.461,737.997z"/>
	<path fill="#FFFFFF" d="M299.062,731.927c0.305,0.312,0.457,0.715,0.457,1.207c0,0.477-0.152,0.871-0.457,1.184
		s-0.691,0.469-1.16,0.469c-0.461,0-0.844-0.154-1.148-0.463s-0.457-0.705-0.457-1.189c0-0.492,0.152-0.895,0.457-1.207
		s0.688-0.469,1.148-0.469C298.371,731.458,298.758,731.614,299.062,731.927z M296.543,749.552v-12.773h2.742v12.773H296.543z"/>
	<path fill="#FFFFFF" d="M312.476,737.505c1.008,0.547,1.791,1.307,2.35,2.279s0.838,2.1,0.838,3.381
		c0,1.266-0.279,2.391-0.838,3.375s-1.342,1.748-2.35,2.291s-2.16,0.814-3.457,0.814c-1.312,0-2.473-0.271-3.48-0.814
		s-1.791-1.307-2.35-2.291s-0.838-2.109-0.838-3.375c0-1.281,0.279-2.408,0.838-3.381s1.342-1.732,2.35-2.279s2.168-0.82,3.48-0.82
		C310.315,736.685,311.468,736.958,312.476,737.505z M306.2,740.218c-0.73,0.77-1.096,1.76-1.096,2.971
		c0,1.234,0.365,2.236,1.096,3.006s1.67,1.154,2.818,1.154s2.084-0.385,2.807-1.154s1.084-1.771,1.084-3.006
		c0-1.219-0.365-2.211-1.096-2.977s-1.662-1.148-2.795-1.148C307.87,739.063,306.931,739.448,306.2,740.218z"/>
	<path fill="#FFFFFF" d="M338.098,749.552h-2.754v-2.18c-0.461,0.75-1.072,1.32-1.834,1.711s-1.646,0.586-2.654,0.586
		c-1.219,0-2.287-0.275-3.205-0.826s-1.633-1.322-2.145-2.314s-0.768-2.129-0.768-3.41c0-1.266,0.256-2.387,0.768-3.363
		s1.227-1.736,2.145-2.279s1.971-0.814,3.158-0.814c1.023,0,1.914,0.201,2.672,0.604s1.379,0.979,1.863,1.729v-7.254h2.754V749.552z
		 M334.254,746.206c0.727-0.777,1.09-1.775,1.09-2.994c0-1.234-0.363-2.242-1.09-3.023s-1.668-1.172-2.824-1.172
		c-1.148,0-2.088,0.393-2.818,1.178s-1.104,1.791-1.119,3.018c0.016,1.219,0.389,2.217,1.119,2.994s1.67,1.166,2.818,1.166
		C332.586,747.372,333.527,746.983,334.254,746.206z"/>
	<path fill="#FFFFFF" d="M352.275,738.39c1,1.137,1.5,2.736,1.5,4.799c0,0.211-0.016,0.555-0.047,1.031h-9.656
		c0.227,0.992,0.691,1.773,1.395,2.344s1.559,0.855,2.566,0.855c0.688,0,1.344-0.129,1.969-0.387s1.168-0.625,1.629-1.102
		l1.465,1.559c-0.641,0.688-1.408,1.219-2.303,1.594s-1.885,0.562-2.971,0.562c-1.297,0-2.438-0.271-3.422-0.814
		s-1.748-1.303-2.291-2.279s-0.814-2.098-0.814-3.363s0.271-2.389,0.814-3.369s1.307-1.748,2.291-2.303s2.102-0.832,3.352-0.832
		C349.768,736.685,351.275,737.253,352.275,738.39z M350.295,739.784c-0.641-0.59-1.48-0.885-2.52-0.885
		c-1.008,0-1.844,0.295-2.508,0.885s-1.078,1.396-1.242,2.42h7.301C351.279,741.181,350.936,740.374,350.295,739.784z"/>
	<path fill="#FFFFFF" d="M371.656,733.146c0.809,0.344,1.438,0.836,1.887,1.477s0.674,1.387,0.674,2.238
		c0,0.797-0.27,1.65-0.809,2.561s-1.297,1.896-2.273,2.959l-4.359,4.629h8.203v2.543h-11.953v-2.062l6.199-6.645
		c0.625-0.641,1.121-1.277,1.488-1.91s0.551-1.191,0.551-1.676c0-0.672-0.248-1.199-0.744-1.582s-1.186-0.574-2.068-0.574
		c-0.719,0-1.482,0.188-2.291,0.562s-1.572,0.891-2.291,1.547l-1.125-2.18c0.93-0.766,1.918-1.357,2.965-1.775
		s2.098-0.627,3.152-0.627S370.848,732.802,371.656,733.146z"/>
	<path fill="#FFFFFF" d="M389.625,734.874c1.234,1.465,1.852,3.557,1.852,6.275s-0.617,4.811-1.852,6.275s-2.992,2.197-5.273,2.197
		c-2.305,0-4.074-0.732-5.309-2.197s-1.852-3.557-1.852-6.275s0.617-4.811,1.852-6.275s3.004-2.197,5.309-2.197
		C386.633,732.677,388.391,733.409,389.625,734.874z M381.152,736.438c-0.703,1.016-1.055,2.586-1.055,4.711
		c0,2.109,0.352,3.678,1.055,4.705s1.77,1.541,3.199,1.541c1.406,0,2.461-0.512,3.164-1.535s1.055-2.594,1.055-4.711
		c0-2.125-0.352-3.695-1.055-4.711s-1.758-1.523-3.164-1.523C382.922,734.915,381.855,735.423,381.152,736.438z"/>
	<path fill="#FFFFFF" d="M396.16,749.552v-14.285h-3.281v-2.52h6.117v16.805H396.16z"/>
	<path fill="#FFFFFF" d="M412.891,732.981c0.914,0.234,1.715,0.543,2.402,0.926l-1.102,2.133c-0.516-0.336-1.105-0.596-1.77-0.779
		s-1.316-0.275-1.957-0.275c-1.586,0-2.773,0.543-3.562,1.629s-1.16,2.566-1.113,4.441c0.445-0.781,1.057-1.373,1.834-1.775
		s1.693-0.604,2.748-0.604c1.68,0,3,0.48,3.961,1.441s1.441,2.266,1.441,3.914c0,1.148-0.244,2.148-0.732,3
		s-1.176,1.504-2.062,1.957s-1.924,0.68-3.111,0.68c-1.406,0-2.621-0.324-3.645-0.973s-1.812-1.584-2.367-2.807
		s-0.832-2.689-0.832-4.4c0-1.773,0.297-3.328,0.891-4.664s1.438-2.369,2.531-3.1s2.371-1.096,3.832-1.096
		C411.105,732.63,411.977,732.747,412.891,732.981z M407.91,741.343c-0.555,0.285-0.975,0.672-1.26,1.16s-0.42,1.021-0.404,1.6
		c-0.016,0.516,0.104,1.014,0.357,1.494s0.645,0.871,1.172,1.172s1.178,0.451,1.951,0.451c1.039,0,1.867-0.283,2.484-0.85
		s0.926-1.354,0.926-2.361c0-0.961-0.293-1.717-0.879-2.268s-1.391-0.826-2.414-0.826
		C409.109,740.915,408.465,741.058,407.91,741.343z"/>
</g>
</svg>
