<?xml version="1.0" encoding="utf-8"?>
<!-- Generator: Adobe Illustrator 16.0.0, SVG Export Plug-In . SVG Version: 6.00 Build 0)  -->
<!DOCTYPE svg PUBLIC "-//W3C//DTD SVG 1.1//EN" "http://www.w3.org/Graphics/SVG/1.1/DTD/svg11.dtd">
<svg version="1.1" id="Capa_1" xmlns="http://www.w3.org/2000/svg" xmlns:xlink="http://www.w3.org/1999/xlink" x="0px" y="0px"
	 width="480px" height="960px" viewBox="0 0 480 960" enable-background="new 0 0 480 960" xml:space="preserve">
<g id="gotas_copia_2">
	<g id="_x31__copia_2">
	</g>
	<g id="_x32__copia_2">
	</g>
	<g id="_x33__copia_2">
	</g>
	<g id="_x34__copia_2">
	</g>
	<g id="_x35__copia_2">
	</g>
</g>
<g id="guías" display="none">
</g>
<g id="Capa_1_1_">
	<g>
		<path d="M305.389,95.048"/>
		<g>
			<g>
				<rect x="84" y="264" fill="#F0976B" width="8" height="152"/>
				<rect x="100" y="264" fill="#F0976B" width="8" height="152"/>
			</g>
			<path d="M96,288.456c17.672,0,32-14.326,32-32V224H64v32.456C64,274.13,78.326,288.456,96,288.456z"/>
			<polygon fill="#F0976B" points="130,224 130,371 126,371 126,373 130,373 130,380 138,380 138,224 			"/>
			<polygon fill="#F0976B" points="62,371 62,224 54,224 54,380 62,380 62,373 66,373 66,371 			"/>
		</g>
		<g>
			<g>
				<rect x="228" y="448" fill="#F0976B" width="8" height="192"/>
				<rect x="244" y="448" fill="#F0976B" width="8" height="192"/>
			</g>
			<rect x="208" y="726" fill="#F0976B" width="64" height="54"/>
			<path fill="#A4CB57" d="M240,623.456c-17.673,0-32,14.327-32,32v111c0-17.673,14.327-32,32-32s32,14.327,32,32v-111
				C272,637.783,257.673,623.456,240,623.456z"/>
			<path fill="#FEC629" d="M240,832.456c17.673,0,32-14.326,32-32V768h-64v32.456C208,818.13,222.327,832.456,240,832.456z"/>
			<polygon fill="#F0976B" points="274,768 274,915 270,915 270,917 274,917 274,924 282,924 282,768 			"/>
			<polygon fill="#F0976B" points="206,915 206,768 198,768 198,924 206,924 206,917 210,917 210,915 			"/>
		</g>
		<g>
			<rect x="352" y="918" fill="#F0976B" width="64" height="54"/>
			<path d="M384,1024.456c17.673,0,32-14.326,32-32V960h-64v32.456C352,1010.13,366.327,1024.456,384,1024.456z"/>
			<g>
				<defs>
					<path id="SVGID_1_" d="M384,815.456c-17.673,0-32,14.327-32,32v111c0-17.673,14.327-32,32-32s32,14.327,32,32v-111
						C416,829.783,401.673,815.456,384,815.456z"/>
				</defs>
				<clipPath id="SVGID_2_">
					<use xlink:href="#SVGID_1_"  overflow="visible"/>
				</clipPath>
				<rect x="304" y="801.5" clip-path="url(#SVGID_2_)" fill="#FFFFFF" width="161.5" height="197"/>
				<rect x="348" y="861.5" clip-path="url(#SVGID_2_)" fill="#2FA1BE" width="74.5" height="16"/>
				<rect x="348" y="893" clip-path="url(#SVGID_2_)" fill="#2FA1BE" width="74.5" height="16"/>
				<rect x="348" y="925" clip-path="url(#SVGID_2_)" fill="#2FA1BE" width="74.5" height="16"/>
			</g>
			<g>
				<rect x="372" y="640" fill="#F0976B" width="8" height="192"/>
				<rect x="388" y="640" fill="#F0976B" width="8" height="192"/>
			</g>
			<polygon fill="#F0976B" points="418,960 418,1107 414,1107 414,1109 418,1109 418,1116 426,1116 426,960 			"/>
			<polygon fill="#F0976B" points="350,1107 350,960 342,960 342,1116 350,1116 350,1109 354,1109 354,1107 			"/>
			<g>
				<path fill="#EC4346" d="M416,847.454c0-17.673-14.326-32-32-32c-17.672,0-32,14.327-32,32V855h64V847.454z"/>
			</g>
		</g>
	</g>
</g>
<g id="txt">
</g>
<g>
	<rect x="554.5" y="492.5" fill="none" width="114" height="20"/>
	<g>
		<polygon fill="none" points="554.5,512.5 668.5,512.5 668.5,492.5 554.5,492.5 		"/>
		<polygon fill="#FFFFFF" points="668.5,502.5 554.5,502.5 554.5,492.5 668.5,492.5 		"/>
		<polygon fill="#2FA1BE" points="668.5,512.5 554.5,512.5 554.5,502.5 668.5,502.5 		"/>
	</g>
</g>
</svg>
