<?xml version="1.0" encoding="utf-8"?>
<!-- Generator: Adobe Illustrator 16.0.0, SVG Export Plug-In . SVG Version: 6.00 Build 0)  -->
<!DOCTYPE svg PUBLIC "-//W3C//DTD SVG 1.1//EN" "http://www.w3.org/Graphics/SVG/1.1/DTD/svg11.dtd">
<svg version="1.1" id="Capa_1" xmlns="http://www.w3.org/2000/svg" xmlns:xlink="http://www.w3.org/1999/xlink" x="0px" y="0px"
	 width="480px" height="960px" viewBox="0 0 480 960" enable-background="new 0 0 480 960" xml:space="preserve">
<g>
	<g>
		<g>
			<rect x="84" y="705" fill="#F0976B" width="8" height="192"/>
			<rect x="100" y="705" fill="#F0976B" width="8" height="192"/>
		</g>
		<path fill="#FEC629" d="M96,880.252c-17.673,0-32,14.327-32,32v111c0-17.673,14.327-32,32-32s32,14.327,32,32v-111
			C128,894.58,113.673,880.252,96,880.252z"/>
	</g>
	<g>
		<g>
			<rect x="228" y="897" fill="#F0976B" width="8" height="192"/>
			<rect x="244" y="897" fill="#F0976B" width="8" height="192"/>
		</g>
	</g>
</g>
<rect x="-1" y="605" fill="none" width="480.267" height="121.739"/>
<text transform="matrix(1 0 0 1 82.1523 639.0796)" opacity="0.2"><tspan x="0" y="0" fill="#FFFFFF" font-family="'MyriadPro-Bold'" font-size="48">III ESCUELA DE </tspan><tspan x="-45.84" y="57.6" fill="#FFFFFF" font-family="'MyriadPro-Bold'" font-size="48">VERANO ARTEDIEZ</tspan></text>
<rect x="-1" y="731.739" fill="none" width="478" height="77"/>
<text transform="matrix(1 0 0 1 95.5752 748.7793)" opacity="0.2" fill="#FFFFFF" font-family="'MyriadPro-Regular'" font-size="24">del 20 al 26 de junio de 2016</text>
</svg>
