<?xml version="1.0" encoding="utf-8"?>
<!-- Generator: Adobe Illustrator 16.0.0, SVG Export Plug-In . SVG Version: 6.00 Build 0)  -->
<!DOCTYPE svg PUBLIC "-//W3C//DTD SVG 1.1//EN" "http://www.w3.org/Graphics/SVG/1.1/DTD/svg11.dtd">
<svg version="1.1" xmlns="http://www.w3.org/2000/svg" xmlns:xlink="http://www.w3.org/1999/xlink" x="0px" y="0px" width="480px"
	 height="960px" viewBox="0 0 480 960" enable-background="new 0 0 480 960" xml:space="preserve">
<pattern  x="258" y="5632" width="114" height="20" patternUnits="userSpaceOnUse" id="Nueva_muestra_de_motivo_4" viewBox="0 -20 114 20" overflow="visible">
	<g>
		<polygon fill="none" points="0,0 114,0 114,-20 0,-20 		"/>
		<polygon fill="#FFFFFF" points="114,0 0,0 0,-10 114,-10 		"/>
		<polygon fill="#2FA1BE" points="114,-10 0,-10 0,-20 114,-20 		"/>
	</g>
</pattern>
<g id="gotas" display="none">
	<g id="_x31_" display="inline">
	</g>
	<g id="_x32_" display="inline">
		<rect x="440" y="948" fill="#FFFFFF" width="6" height="6"/>
		<rect x="450" y="938" fill="#FFFFFF" width="6" height="6"/>
		<rect x="316" y="944" fill="#FFFFFF" width="6" height="6"/>
	</g>
	<g id="_x33_" display="inline">
	</g>
	<g id="_x34_" display="inline">
	</g>
	<g id="_x35_" display="inline">
	</g>
</g>
<g id="gotas_copia" display="none">
	<g id="_x31__copia" display="inline">
	</g>
	<g id="_x32__copia" display="inline">
	</g>
	<g id="_x33__copia" display="inline">
	</g>
	<g id="_x34__copia" display="inline">
	</g>
	<g id="_x35__copia" display="inline">
	</g>
</g>
<g id="gotas_copia_2">
	<g id="_x31__copia_2">
	</g>
	<g id="_x32__copia_2">
	</g>
	<g id="_x33__copia_2">
	</g>
	<g id="_x34__copia_2">
	</g>
	<g id="_x35__copia_2">
	</g>
</g>
<g id="guías" display="none">
</g>
<g id="Capa_1">
	<g>
		<g>
			<g>
				<rect x="84" y="264" fill="#F0976B" width="8" height="152"/>
				<rect x="100" y="264" fill="#F0976B" width="8" height="152"/>
			</g>
			<polygon fill="#F0976B" points="130,256 130,403 126,403 126,405 130,405 130,412 138,412 138,256 			"/>
			<polygon fill="#F0976B" points="62,403 62,256 54,256 54,412 62,412 62,405 66,405 66,403 			"/>
			<g>
				<path fill="#FEC629" d="M128,255.998c0-17.673-14.326-32-32-32c-17.672,0-32,14.327-32,32V264h64V255.998z"/>
			</g>
			<path d="M96,320c17.674,0,32-14.326,32-32v-32H64v32C64,305.674,78.328,320,96,320z"/>
		</g>
		<g>
			<g>
				<rect x="228" y="511" fill="#F0976B" width="8" height="192"/>
				<rect x="244" y="511" fill="#F0976B" width="8" height="192"/>
			</g>
			<rect x="208" y="789" fill="#F0976B" width="64" height="54"/>
			<path fill="#A4CB57" d="M240,686c-17.673,0-32,14.327-32,32v111c0-17.673,14.327-32,32-32s32,14.327,32,32V718
				C272,700.327,257.673,686,240,686z"/>
			<path fill="#FEC629" d="M240,895c17.673,0,32-14.326,32-32v-32h-64v32C208,880.674,222.327,895,240,895z"/>
			<polygon fill="#F0976B" points="274,831 274,978 270,978 270,980 274,980 274,987 282,987 282,831 			"/>
			<polygon fill="#F0976B" points="206,978 206,831 198,831 198,987 206,987 206,980 210,980 210,978 			"/>
		</g>
		<g>
			<g>
				<rect x="372" y="704" fill="#F0976B" width="8" height="192"/>
				<rect x="388" y="704" fill="#F0976B" width="8" height="192"/>
			</g>
			
				<pattern  id="SVGID_1_" xlink:href="#Nueva_muestra_de_motivo_4" patternTransform="matrix(1.5791 0 0 1.5791 -60.4141 7284.7578)">
			</pattern>
			<path fill="url(#SVGID_1_)" d="M384,879c-17.673,0-32,14.327-32,32v111c0-17.673,14.327-32,32-32s32,14.327,32,32V911
				C416,893.327,401.673,879,384,879z"/>
			<g>
				<path fill="#EC4346" d="M416,910.998c0-17.673-14.326-32-32-32c-17.672,0-32,14.327-32,32V919h64V910.998z"/>
			</g>
		</g>
	</g>
</g>
<g id="txt">
</g>
</svg>
