<?xml version="1.0" encoding="utf-8"?>
<!-- Generator: Adobe Illustrator 16.0.0, SVG Export Plug-In . SVG Version: 6.00 Build 0)  -->
<!DOCTYPE svg PUBLIC "-//W3C//DTD SVG 1.1//EN" "http://www.w3.org/Graphics/SVG/1.1/DTD/svg11.dtd">
<svg version="1.1" id="Capa_1" xmlns="http://www.w3.org/2000/svg" xmlns:xlink="http://www.w3.org/1999/xlink" x="0px" y="0px"
	 width="480px" height="960px" viewBox="0 0 480 960" enable-background="new 0 0 480 960" xml:space="preserve">
<pattern  x="2562" y="5635" width="114" height="20" patternUnits="userSpaceOnUse" id="Nueva_muestra_de_motivo_4" viewBox="0 -20 114 20" overflow="visible">
	<g>
		<polygon fill="none" points="0,0 114,0 114,-20 0,-20 		"/>
		<polygon fill="#FFFFFF" points="114,0 0,0 0,-10 114,-10 		"/>
		<polygon fill="#2FA1BE" points="114,-10 0,-10 0,-20 114,-20 		"/>
	</g>
</pattern>
<g>
	<g>
		<g>
			<rect x="228" y="267" fill="#F0976B" width="8" height="152"/>
			<rect x="244" y="267" fill="#F0976B" width="8" height="152"/>
		</g>
		<polygon fill="#F0976B" points="274,259 274,406 270,406 270,408 274,408 274,415 282,415 282,259 		"/>
		<polygon fill="#F0976B" points="206,406 206,259 198,259 198,415 206,415 206,408 210,408 210,406 		"/>
		<g>
			<path fill="#A4CB57" d="M272,259.444c0-17.674-14.326-32-32-32c-17.672,0-32,14.326-32,32V267h64V259.444z"/>
		</g>
		<path fill="#FEC629" d="M240,323.447c17.674,0,32-14.327,32-32V259h-64v32.447C208,309.12,222.328,323.447,240,323.447z"/>
	</g>
	<g>
		<path fill="#F0976B" d="M96,35.447c-17.673,0-32,14.326-32,32v144c0,17.672,14.327,32,32,32s32-14.328,32-32v-144
			C128,49.772,113.673,35.447,96,35.447z"/>
		<g>
			<rect x="84" y="227" fill="#F0976B" width="8" height="192"/>
			<rect x="100" y="227" fill="#F0976B" width="8" height="192"/>
		</g>
		<polygon fill="#F0976B" points="130,99 130,246 126,246 126,248 130,248 130,255 138,255 138,99 		"/>
		<polygon fill="#F0976B" points="62,246 62,99 54,99 54,255 62,255 62,248 66,248 66,246 		"/>
		<polygon fill="#EC4346" points="96.419,97 92.355,97 94.388,87.465 96.419,77.816 98.449,87.408 100.479,97 		"/>
		<path d="M108.419,54.038"/>
		<path fill="#FEC629" d="M96,130.447c-17.673,0-32-14.328-32-32v113c0,17.672,14.327,32,32,32s32-14.328,32-32v-113
			C128,116.119,113.673,130.447,96,130.447z"/>
		<path d="M96.326,35c-17.673,0-32,15-32,32h40.029l2.029-5.746l2.027-5.859l2.027,5.801L112.466,67h15.86
			C128.326,50,113.999,35,96.326,35z"/>
		<circle cx="96.326" cy="27.447" r="8"/>
	</g>
	<g>
		<g>
			<rect x="372" y="515" fill="#F0976B" width="8" height="192"/>
			<rect x="388" y="515" fill="#F0976B" width="8" height="192"/>
		</g>
		<rect x="352" y="793" fill="#F0976B" width="64" height="54"/>
		
			<pattern  id="SVGID_1_" xlink:href="#Nueva_muestra_de_motivo_4" patternTransform="matrix(1.5791 0 0 1.5791 2210.7266 7094.9434)">
		</pattern>
		<path fill="url(#SVGID_1_)" d="M384,690.446c-17.673,0-32,14.328-32,32v111c0-17.672,14.327-32,32-32s32,14.328,32,32v-111
			C416,704.774,401.673,690.446,384,690.446z"/>
		<path d="M384,899.446c17.673,0,32-14.326,32-32V835h-64v32.446C352,885.12,366.327,899.446,384,899.446z"/>
		<polygon fill="#F0976B" points="418,835 418,982 414,982 414,984 418,984 418,991 426,991 426,835 		"/>
		<polygon fill="#F0976B" points="350,982 350,835 342,835 342,991 350,991 350,984 354,984 354,982 		"/>
		<g>
			<path fill="#EC4346" d="M416,722.444c0-17.674-14.326-32-32-32c-17.672,0-32,14.326-32,32V730h64V722.444z"/>
		</g>
	</g>
</g>
</svg>
