<?xml version="1.0" encoding="utf-8"?>
<!-- Generator: Adobe Illustrator 16.0.0, SVG Export Plug-In . SVG Version: 6.00 Build 0)  -->
<!DOCTYPE svg PUBLIC "-//W3C//DTD SVG 1.1//EN" "http://www.w3.org/Graphics/SVG/1.1/DTD/svg11.dtd">
<svg version="1.1" xmlns="http://www.w3.org/2000/svg" xmlns:xlink="http://www.w3.org/1999/xlink" x="0px" y="0px" width="480px"
	 height="960px" viewBox="0 0 480 960" enable-background="new 0 0 480 960" xml:space="preserve">
<g id="gotas">
</g>
<g id="guías" display="none">
</g>
<g id="Capa_1">
	<g>
		<g>
			<g>
				<rect x="372" y="264" fill="#F0976B" width="8" height="152"/>
				<rect x="388" y="264" fill="#F0976B" width="8" height="152"/>
			</g>
			<path d="M384,288.16c17.672,0,32-14.326,32-32V224h-64v32.16C352,273.834,366.326,288.16,384,288.16z"/>
			<polygon fill="#F0976B" points="418,224 418,371 414,371 414,373 418,373 418,380 426,380 426,224 			"/>
			<polygon fill="#F0976B" points="350,371 350,224 342,224 342,380 350,380 350,373 354,373 354,371 			"/>
		</g>
		<g>
			<path fill="#F0976B" d="M96,32.16c-17.673,0-32,14.326-32,32v144c0,17.672,14.327,32,32,32s32-14.328,32-32v-144
				C128,46.486,113.673,32.16,96,32.16z"/>
			<g>
				<rect x="84" y="224" fill="#F0976B" width="8" height="192"/>
				<rect x="100" y="224" fill="#F0976B" width="8" height="192"/>
			</g>
			<polygon fill="#F0976B" points="130,96 130,243 126,243 126,245 130,245 130,252 138,252 138,96 			"/>
			<polygon fill="#F0976B" points="62,243 62,96 54,96 54,252 62,252 62,245 66,245 66,243 			"/>
			<polygon fill="#EC4346" points="96.333,94 92.27,94 94.302,84.323 96.333,74.602 98.363,84.301 100.394,94 			"/>
			<path d="M108.333,50.752"/>
			<path fill="#FEC629" d="M96,127.16c-17.673,0-32-14.328-32-32v113c0,17.672,14.327,32,32,32s32-14.328,32-32v-113
				C128,112.833,113.673,127.16,96,127.16z"/>
			<path d="M96.24,32c-17.673,0-32,14-32,32h40.029l2.029-5.889l2.027-5.93l2.027,5.909L112.38,64h15.86
				C128.24,46,113.913,32,96.24,32z"/>
			<circle cx="96.24" cy="24.16" r="8"/>
		</g>
		<g>
			<g>
				<path fill="#F0976B" d="M240,32.16c-17.673,0-32,14.326-32,32v144c0,17.672,14.327,32,32,32s32-14.328,32-32v-144
					C272,46.486,257.673,32.16,240,32.16z"/>
				<g>
					<rect x="228" y="224" fill="#F0976B" width="8" height="192"/>
					<rect x="244" y="224" fill="#F0976B" width="8" height="192"/>
				</g>
				<polygon fill="#F0976B" points="274,96 274,243 270,243 270,245 274,245 274,252 282,252 282,96 				"/>
				<polygon fill="#F0976B" points="206,243 206,96 198,96 198,252 206,252 206,245 210,245 210,243 				"/>
				<polygon fill="#EC4346" points="240.166,94 236.103,94 238.135,84.323 240.166,74.602 242.196,84.301 244.227,94 				"/>
				<polygon fill="#FEC629" points="240.069,16 248.136,16 244.103,24.129 240.069,32.146 236.04,24.074 232.011,16 				"/>
				<path fill="#A4CB57" d="M240,127.16c-17.673,0-32-14.328-32-32v113c0,17.672,14.327,32,32,32s32-14.328,32-32v-113
					C272,112.833,257.673,127.16,240,127.16z"/>
				<path fill="#FEC629" d="M208.073,64h7.668c-2.671,0-5.236-0.443-7.637-1.248C208.089,63.166,208.073,64,208.073,64z"/>
				<path fill="#FEC629" d="M272.073,64c0,0-0.015-0.984-0.037-1.473c-2.585,0.951-5.379,1.473-8.295,1.473H272.073z"/>
				<g>
					<path fill="#FEC629" d="M241.104,32.186c-0.343-0.009-0.685-0.025-1.03-0.025c-0.566,0-1.129,0.017-1.688,0.045
						c0.874,2.49,1.355,5.166,1.355,7.955C239.741,37.363,240.225,34.682,241.104,32.186z"/>
					<path fill="#FEC629" d="M239.741,40.16c0-2.789-0.481-5.465-1.355-7.955c-16.476,0.855-29.646,14.173-30.281,30.707
						c2.4,0.805,4.966,1.248,7.637,1.248C228.996,64.16,239.741,53.415,239.741,40.16z"/>
					<path fill="#FEC629" d="M241.104,32.186c-0.879,2.496-1.362,5.178-1.362,7.975c0,13.254,10.745,24,24,24
						c2.916,0,5.71-0.521,8.295-1.473C271.281,46.04,257.808,32.716,241.104,32.186z"/>
				</g>
			</g>
		</g>
	</g>
</g>
<g id="txt">
</g>
</svg>
