<?xml version="1.0" encoding="utf-8"?>
<!-- Generator: Adobe Illustrator 16.0.0, SVG Export Plug-In . SVG Version: 6.00 Build 0)  -->
<!DOCTYPE svg PUBLIC "-//W3C//DTD SVG 1.1//EN" "http://www.w3.org/Graphics/SVG/1.1/DTD/svg11.dtd">
<svg version="1.1" id="Capa_1" xmlns="http://www.w3.org/2000/svg" xmlns:xlink="http://www.w3.org/1999/xlink" x="0px" y="0px"
	 width="1184.887px" height="243.76px" viewBox="0 0 1184.887 243.76" enable-background="new 0 0 1184.887 243.76"
	 xml:space="preserve">
<path d="M996.09,245.633c-0.801,0-1.592-0.039-2.378-0.098c-1.739-0.432-3.535-0.717-5.374-0.852
	c-0.783-0.057-1.568-0.096-2.365-0.096c-9.14,0-17.377,3.838-23.209,9.982c5.854,6.193,14.136,10.062,23.326,10.062
	c9.129,0,17.366-3.814,23.213-9.937c4.508-4.722,7.594-10.815,8.569-17.594C1012.147,242.396,1004.498,245.633,996.09,245.633z"/>
<polygon fill="#FEC629" points="591.969,228.38 600.035,228.38 596.002,236.532 591.969,244.561 587.939,236.472 583.91,228.38 "/>
<g>
	<g>
		<circle cx="197.695" cy="236.678" r="8"/>
	</g>
</g>
</svg>
