<?xml version="1.0" encoding="utf-8"?>
<!-- Generator: Adobe Illustrator 16.0.0, SVG Export Plug-In . SVG Version: 6.00 Build 0)  -->
<!DOCTYPE svg PUBLIC "-//W3C//DTD SVG 1.1//EN" "http://www.w3.org/Graphics/SVG/1.1/DTD/svg11.dtd">
<svg version="1.1" id="Capa_1" xmlns="http://www.w3.org/2000/svg" xmlns:xlink="http://www.w3.org/1999/xlink" x="0px" y="0px"
	 width="1183.887px" height="243.76px" viewBox="0 0 1183.887 243.76" enable-background="new 0 0 1183.887 243.76"
	 xml:space="preserve">
<g>
	<g>
		<path fill="#F0976B" d="M198,116.1c-17.674,0-32,14.326-32,32v144c0,17.673,14.326,31.999,32,31.999c17.672,0,32-14.326,32-31.999
			v-144C230,130.426,215.672,116.1,198,116.1z"/>
		<polygon fill="#F0976B" points="232,179.67 232,326.67 228,326.67 228,328.67 232,328.67 232,335.67 240,335.67 240,179.67 		"/>
		<polygon fill="#F0976B" points="164,326.67 164,179.67 156,179.67 156,335.67 164,335.67 164,328.67 168,328.67 168,326.67 		"/>
		<polygon fill="#EC4346" points="198.074,177.67 194.012,177.67 196.043,168.127 198.074,158.476 200.105,168.071 202.135,177.67 
					"/>
		<path d="M210.074,134.69"/>
		<path fill="#FEC629" d="M198,211.101c-17.674,0-32-14.328-32-32v113c0,17.673,14.326,31.999,32,31.999
			c17.672,0,32-14.326,32-31.999v-113C230,196.772,215.672,211.101,198,211.101z"/>
		<path d="M197.982,115.67c-17.674,0-32,14-32,32h40.029l2.029-5.754l2.026-5.862l2.027,5.807l2.025,5.811h15.86
			C229.982,129.67,215.654,115.67,197.982,115.67z"/>
		<circle cx="197.982" cy="108.1" r="8"/>
	</g>
</g>
<path fill="#F0976B" d="M592,116.1c-17.675,0-32,14.326-32,32v144c0,17.673,14.325,31.999,32,31.999c17.672,0,32-14.326,32-31.999
	v-144C624,130.426,609.672,116.1,592,116.1z"/>
<polygon fill="#F0976B" points="626,179.67 626,326.67 622,326.67 622,328.67 626,328.67 626,335.67 634,335.67 634,179.67 "/>
<polygon fill="#F0976B" points="558,326.67 558,179.67 550,179.67 550,335.67 558,335.67 558,328.67 562,328.67 562,326.67 "/>
<polygon fill="#EC4346" points="592.073,177.67 588.012,177.67 590.043,168.127 592.073,158.476 594.105,168.071 596.135,177.67 "/>
<path d="M604.073,134.69"/>
<path fill="#A4CB57" d="M592,211.101c-17.675,0-32-14.328-32-32v113c0,17.673,14.325,31.999,32,31.999c17.672,0,32-14.326,32-31.999
	v-113C624,196.772,609.672,211.101,592,211.101z"/>
<polygon fill="#FEC629" points="591.883,99.67 599.948,99.67 595.916,107.929 591.883,116.01 587.854,107.841 583.823,99.67 "/>
<g>
	<path fill="#FEC629" d="M592.916,116.115c-0.343-0.01-0.685-0.025-1.029-0.025c-0.566,0-1.129,0.016-1.688,0.045
		c0.874,2.49,1.355,5.166,1.355,7.955C591.555,121.293,592.037,118.611,592.916,116.115z"/>
	<path fill="#FEC629" d="M591.555,124.09c0-2.789-0.481-5.465-1.355-7.955c-16.476,0.855-29.646,14.175-30.28,30.707
		c2.399,0.806,4.966,1.248,7.637,1.248C580.81,148.09,591.555,137.345,591.555,124.09z"/>
	<path fill="#FEC629" d="M592.916,116.115c-0.879,2.496-1.361,5.178-1.361,7.975c0,13.255,10.745,24,24,24
		c2.916,0,5.71-0.521,8.295-1.473C623.095,129.969,609.62,116.646,592.916,116.115z"/>
</g>
<path d="M603.7,134.771"/>
<path d="M603.961,134.69"/>
<path fill="#F0976B" d="M986,116.09c-17.674,0-32,14.326-32,32v144c0,17.673,14.326,32,32,32c17.673,0,32-14.327,32-32v-144
	C1018,130.416,1003.673,116.09,986,116.09z"/>
<polygon fill="#F0976B" points="1020,179.67 1020,326.67 1016,326.67 1016,328.67 1020,328.67 1020,335.67 1028,335.67 1028,179.67 
	"/>
<polygon fill="#F0976B" points="952,326.67 952,179.67 944,179.67 944,335.67 952,335.67 952,328.67 956,328.67 956,326.67 "/>
<polygon fill="#EC4346" points="985.979,177.67 981.916,177.67 983.948,168.122 985.979,158.467 988.01,168.067 990.039,177.67 "/>
<path fill="#F0976B" d="M986.004,136.135c9.129,0,17.365-3.813,23.212-9.937c-4.146-4.415-9.523-7.653-15.591-9.161
	c-1.839-0.135-3.635-0.42-5.373-0.852c-0.782-0.057-1.568-0.096-2.365-0.096c-9.141,0-17.378,3.838-23.209,9.982
	C968.531,132.267,976.813,136.135,986.004,136.135z"/>
<path d="M996.004,117.135c-0.802,0-1.593-0.039-2.378-0.098c-1.739-0.432-3.535-0.717-5.374-0.852
	c-0.782-0.057-1.568-0.096-2.365-0.096c-9.141,0-17.378,3.838-23.209,9.982c5.854,6.193,14.136,10.062,23.326,10.062
	c9.129,0,17.365-3.813,23.212-9.937c4.509-4.722,7.596-10.815,8.569-17.594C1012.062,113.897,1004.411,117.135,996.004,117.135z"/>
<g>
	<path d="M966.453,179.522c0,0,12.927,7.566,18.334,2.619c1.065-0.975,1.065-2.1,1.065-2.1s0.024-1.062-1.14-1.626
		c-1.326-0.642-3.617-0.545-6.325,2.175c-0.927,0.93-2.216,1.729-5.14,1.051C971.516,181.24,966.453,179.522,966.453,179.522z"/>
	<path d="M1005.252,179.522c0,0-12.927,7.566-18.334,2.619c-1.065-0.975-1.065-2.1-1.065-2.1s-0.024-1.062,1.14-1.626
		c1.326-0.642,3.617-0.545,6.325,2.175c0.926,0.93,2.216,1.729,5.14,1.051C1000.19,181.24,1005.252,179.522,1005.252,179.522z"/>
</g>
<g>
	<g>
		<g>
			<defs>
				<path id="SVGID_1_" d="M985.853,324.563c17.673,0,32-14.615,32-32.642V178.694c0,18.027-14.327,32.643-32,32.643
					s-32-14.613-32-32.643v113.228C953.853,309.948,968.18,324.563,985.853,324.563z"/>
			</defs>
			<clipPath id="SVGID_2_">
				<use xlink:href="#SVGID_1_"  overflow="visible"/>
			</clipPath>
			<rect x="904.353" y="137.847" clip-path="url(#SVGID_2_)" fill="#FFFFFF" width="161.5" height="200.952"/>
		</g>
	</g>
	<g>
		<g>
			<defs>
				<path id="SVGID_3_" d="M985.853,324.563c17.673,0,32-14.615,32-32.642V178.694c0,18.027-14.327,32.643-32,32.643
					s-32-14.613-32-32.643v113.228C953.853,309.948,968.18,324.563,985.853,324.563z"/>
			</defs>
			<clipPath id="SVGID_4_">
				<use xlink:href="#SVGID_3_"  overflow="visible"/>
			</clipPath>
			<rect x="947.353" y="261.275" clip-path="url(#SVGID_4_)" fill="#2FA1BE" width="74.5" height="16.32"/>
		</g>
	</g>
	<g>
		<g>
			<defs>
				<path id="SVGID_5_" d="M985.853,324.563c17.673,0,32-14.615,32-32.642V178.694c0,18.027-14.327,32.643-32,32.643
					s-32-14.613-32-32.643v113.228C953.853,309.948,968.18,324.563,985.853,324.563z"/>
			</defs>
			<clipPath id="SVGID_6_">
				<use xlink:href="#SVGID_5_"  overflow="visible"/>
			</clipPath>
			<rect x="947.353" y="229.142" clip-path="url(#SVGID_6_)" fill="#2FA1BE" width="74.5" height="16.321"/>
		</g>
	</g>
	<g>
		<g>
			<defs>
				<path id="SVGID_7_" d="M985.853,324.563c17.673,0,32-14.615,32-32.642V178.694c0,18.027-14.327,32.643-32,32.643
					s-32-14.613-32-32.643v113.228C953.853,309.948,968.18,324.563,985.853,324.563z"/>
			</defs>
			<clipPath id="SVGID_8_">
				<use xlink:href="#SVGID_7_"  overflow="visible"/>
			</clipPath>
			<rect x="947.353" y="196.5" clip-path="url(#SVGID_8_)" fill="#2FA1BE" width="74.5" height="16.321"/>
		</g>
	</g>
</g>
</svg>
