<?xml version="1.0" encoding="utf-8"?>
<!-- Generator: Adobe Illustrator 16.0.0, SVG Export Plug-In . SVG Version: 6.00 Build 0)  -->
<!DOCTYPE svg PUBLIC "-//W3C//DTD SVG 1.1//EN" "http://www.w3.org/Graphics/SVG/1.1/DTD/svg11.dtd">
<svg version="1.1" id="Capa_1" xmlns="http://www.w3.org/2000/svg" xmlns:xlink="http://www.w3.org/1999/xlink" x="0px" y="0px"
	 width="1183.887px" height="243.76px" viewBox="0 0 1183.887 243.76" enable-background="new 0 0 1183.887 243.76"
	 xml:space="preserve">
<g>
	<path fill="#F0976B" d="M320.633,131.38c0.809-2,1.643-3.662,2.531-5.309l-7.039-3.98c-21.463,39.746-20.336,80.957-15.611,108.607
		c5.104,29.865,15.129,50.097,15.553,50.945l7.157-3.598c-0.1-0.199-9.988-19.902-14.866-48.662
		c-4.193-24.727-5.381-61.004,11.303-96.004h3.227v-2H320.633z"/>
	<path fill="#F0976B" d="M356.887,214.649c-17.674,0-32,14.326-32,32v144c0,17.673,14.326,32,32,32c17.672,0,32-14.327,32-32v-144
		C388.887,228.976,374.559,214.649,356.887,214.649z"/>
	<path d="M369.979,233.241"/>
	<path d="M356.887,214.38c-17.674,0-32,14-32,32h40.029l2.029-5.834l2.027-5.904L371,240.51l2.025,5.87h15.861
		C388.887,228.38,374.559,214.38,356.887,214.38z"/>
	<circle cx="356.887" cy="206.649" r="8"/>
</g>
<path fill="#F0976B" d="M556.633,131.38c0.809-2,1.643-3.662,2.531-5.309l-7.039-3.98c-21.463,39.746-20.336,80.957-15.611,108.607
	c5.104,29.865,15.129,50.097,15.553,50.945l7.157-3.598c-0.1-0.199-9.988-19.902-14.866-48.662
	c-4.193-24.727-5.381-61.004,11.303-96.004h3.227v-2H556.633z"/>
<path fill="#F0976B" d="M592.887,214.649c-17.674,0-32,14.326-32,32v144c0,17.673,14.326,32,32,32c17.672,0,32-14.327,32-32v-144
	C624.887,228.976,610.559,214.649,592.887,214.649z"/>
<path d="M605.979,233.241"/>
<path fill="#F0976B" d="M792.633,131.38c0.809-2,1.643-3.662,2.531-5.309l-7.039-3.98c-21.463,39.746-20.336,80.957-15.611,108.607
	c5.104,29.865,15.129,50.097,15.553,50.945l7.157-3.598c-0.1-0.199-9.988-19.902-14.866-48.662
	c-4.193-24.727-5.381-61.004,11.303-96.004h3.227v-2H792.633z"/>
<polygon fill="#FEC629" points="592.881,198.38 600.947,198.38 596.914,206.389 592.881,214.345 588.852,206.363 584.822,198.38 "/>
<g>
	<path fill="#FEC629" d="M593.915,214.325c-0.343-0.01-0.685-0.025-1.03-0.025c-0.566,0-1.129,0.016-1.688,0.045
		c0.874,2.49,1.355,5.166,1.355,7.955C592.553,219.503,593.036,216.821,593.915,214.325z"/>
	<path fill="#FEC629" d="M592.553,222.3c0-2.789-0.481-5.465-1.355-7.955c-16.476,0.855-29.646,14.174-30.281,30.707
		c2.4,0.805,4.966,1.248,7.637,1.248C581.808,246.3,592.553,235.555,592.553,222.3z"/>
	<path fill="#FEC629" d="M593.915,214.325c-0.879,2.496-1.362,5.178-1.362,7.975c0,13.255,10.745,24,24,24
		c2.916,0,5.71-0.521,8.295-1.473C624.093,228.179,610.619,214.855,593.915,214.325z"/>
</g>
<path d="M604.699,231.981"/>
<path d="M604.959,231.901"/>
<path fill="#F0976B" d="M828.887,214.3c-17.673,0-32,14.326-32,32v144c0,17.673,14.327,32,32,32s32-14.327,32-32v-144
	C860.887,228.626,846.56,214.3,828.887,214.3z"/>
<path d="M839.002,215.345c-0.801,0-1.592-0.039-2.378-0.098c-1.739-0.432-3.535-0.717-5.374-0.852
	c-0.782-0.057-1.568-0.096-2.365-0.096c-9.14,0-17.378,3.838-23.209,9.982c5.854,6.193,14.136,10.062,23.326,10.062
	c9.129,0,17.366-3.814,23.212-9.937c4.509-4.722,7.596-10.815,8.57-17.594C855.06,212.107,847.41,215.345,839.002,215.345z"/>
</svg>
