<?xml version="1.0" encoding="utf-8"?>
<!-- Generator: Adobe Illustrator 16.0.0, SVG Export Plug-In . SVG Version: 6.00 Build 0)  -->
<!DOCTYPE svg PUBLIC "-//W3C//DTD SVG 1.1//EN" "http://www.w3.org/Graphics/SVG/1.1/DTD/svg11.dtd">
<svg version="1.1" id="Capa_1" xmlns="http://www.w3.org/2000/svg" xmlns:xlink="http://www.w3.org/1999/xlink" x="0px" y="0px"
	 width="1183.887px" height="243.76px" viewBox="0 0 1183.887 243.76" enable-background="new 0 0 1183.887 243.76"
	 xml:space="preserve">
<g>
	<path fill="#F0976B" d="M320.711,162.67c0.809-2,1.643-3.074,2.531-4.721l-7.039-3.687
		c-21.463,39.746-20.336,81.104-15.611,108.755c5.104,29.865,15.129,50.17,15.553,51.02l7.156-3.562
		c-0.1-0.199-9.987-20.472-14.865-49.231c-4.193-24.727-5.381-61.574,11.303-96.574H323v-2H320.711z"/>
	<circle cx="356.965" cy="239.116" r="8"/>
</g>
<path fill="#F0976B" d="M556.711,162.67c0.809-2,1.643-3.074,2.531-4.721l-7.039-3.687c-21.463,39.746-20.336,81.104-15.611,108.755
	c5.104,29.865,15.129,50.17,15.553,51.02l7.156-3.562c-0.1-0.199-9.987-20.472-14.865-49.231
	c-4.193-24.727-5.381-61.574,11.303-96.574H559v-2H556.711z"/>
<path fill="#F0976B" d="M792.711,162.67c0.809-2,1.643-3.074,2.531-4.721l-7.039-3.687c-21.463,39.746-20.336,81.104-15.611,108.755
	c5.104,29.865,15.129,50.17,15.553,51.02l7.156-3.562c-0.1-0.199-9.987-20.472-14.865-49.231
	c-4.193-24.727-5.381-61.574,11.303-96.574H795v-2H792.711z"/>
<polygon fill="#FEC629" points="592.959,229.67 601.025,229.67 596.992,238.268 592.959,246.517 588.93,238.095 584.9,229.67 "/>
<path d="M839.08,247.812c-0.801,0-1.592-0.039-2.379-0.098c-1.738-0.432-3.534-0.717-5.373-0.852
	c-0.782-0.057-1.568-0.096-2.365-0.096c-9.14,0-17.377,3.838-23.209,9.982c5.854,6.193,14.136,10.062,23.326,10.062
	c9.129,0,17.366-3.814,23.212-9.937c4.509-4.722,7.596-10.815,8.57-17.594C855.138,244.574,847.488,247.812,839.08,247.812z"/>
</svg>
