<?xml version="1.0" encoding="utf-8"?>
<!-- Generator: Adobe Illustrator 16.0.0, SVG Export Plug-In . SVG Version: 6.00 Build 0)  -->
<!DOCTYPE svg PUBLIC "-//W3C//DTD SVG 1.1//EN" "http://www.w3.org/Graphics/SVG/1.1/DTD/svg11.dtd">
<svg version="1.1" id="Capa_1" xmlns="http://www.w3.org/2000/svg" xmlns:xlink="http://www.w3.org/1999/xlink" x="0px" y="0px"
	 width="1181.887px" height="243.76px" viewBox="0 0 1181.887 243.76" enable-background="new 0 0 1181.887 243.76"
	 xml:space="preserve">
<pattern  x="-5114.113" y="-1151.12" width="114" height="20" patternUnits="userSpaceOnUse" id="Nueva_muestra_de_motivo_4" viewBox="0 -20 114 20" overflow="visible">
	<g>
		<polygon fill="none" points="0,0 114,0 114,-20 0,-20 		"/>
		<polygon fill="#FFFFFF" points="114,0 0,0 0,-10 114,-10 		"/>
		<polygon fill="#2FA1BE" points="114,-10 0,-10 0,-20 114,-20 		"/>
	</g>
</pattern>
<path fill="#F0976B" d="M827.887,115.909c-17.673,0-32,14.326-32,32v144c0,17.673,14.327,32,32,32s32-14.327,32-32v-144
	C859.887,130.235,845.56,115.909,827.887,115.909z"/>
<g>
	<path fill="#F0976B" d="M319.364,32.88c0.808-2,1.642-3.652,2.531-5.299l-7.04-3.977c-21.462,39.746-20.336,80.961-15.61,108.611
		c5.104,29.865,15.129,50.098,15.553,50.946l7.157-3.599c-0.1-0.199-9.988-19.91-14.867-48.671
		c-4.192-24.727-5.38-61.013,11.304-96.013h3.495v-2H319.364z"/>
	<path fill="#F0976B" d="M355.887,116.169c-17.674,0-32,14.326-32,32v144c0,17.673,14.326,32,32,32c17.672,0,32-14.327,32-32v-144
		C387.887,130.495,373.559,116.169,355.887,116.169z"/>
	<path d="M368.71,134.761"/>
	<path fill="#FEC629" d="M355.887,211.169c-17.674,0-32-14.327-32-32v113c0,17.673,14.326,32,32,32c17.672,0,32-14.327,32-32v-113
		C387.887,196.842,373.559,211.169,355.887,211.169z"/>
	<circle cx="355.117" cy="108.169" r="8"/>
	<path d="M355.887,115.909c-17.673,0-32,14.326-32,32v31.971h64v-31.971C387.887,130.235,373.56,115.909,355.887,115.909z"/>
	<path fill="#F0976B" d="M392.011,32.88c-0.81-2-1.643-3.652-2.531-5.299l7.039-3.977c21.463,39.746,20.336,80.961,15.611,108.611
		c-5.104,29.865-15.129,50.098-15.553,50.946l-7.157-3.599c0.1-0.199,9.988-19.91,14.865-48.671
		c4.194-24.727,5.382-61.013-11.302-96.013h-3.097v-2H392.011z"/>
</g>
<path fill="#F0976B" d="M555.364,32.88c0.808-2,1.642-3.652,2.531-5.299l-7.04-3.977c-21.462,39.746-20.336,80.961-15.61,108.611
	c5.104,29.865,15.128,50.098,15.553,50.946l7.157-3.599c-0.1-0.199-9.988-19.91-14.867-48.671
	c-4.192-24.727-5.38-61.013,11.304-96.013h3.495v-2H555.364z"/>
<path fill="#F0976B" d="M591.887,116.169c-17.674,0-32,14.326-32,32v144c0,17.673,14.326,32,32,32c17.672,0,32-14.327,32-32v-144
	C623.887,130.495,609.559,116.169,591.887,116.169z"/>
<path d="M604.71,134.761"/>
<path fill="#A4CB57" d="M591.887,211.169c-17.674,0-32-14.327-32-32v113c0,17.673,14.326,32,32,32c17.672,0,32-14.327,32-32v-113
	C623.887,196.842,609.559,211.169,591.887,211.169z"/>
<path fill="#FEC629" d="M591.887,115.909c-17.673,0-32,14.326-32,32v31.971h64v-31.971
	C623.887,130.235,609.56,115.909,591.887,115.909z"/>
<path fill="#F0976B" d="M791.364,32.88c0.808-2,1.642-3.652,2.531-5.299l-7.04-3.977c-21.462,39.746-20.336,80.961-15.61,108.611
	c5.104,29.865,15.128,50.098,15.553,50.946l7.157-3.599c-0.1-0.199-9.988-19.91-14.867-48.671
	c-4.192-24.727-5.38-61.013,11.304-96.013h3.495v-2H791.364z"/>
<path d="M840.71,134.761"/>
<path d="M827.887,115.909c-17.673,0-32,14.326-32,32v31.971h64v-31.971C859.887,130.235,845.56,115.909,827.887,115.909z"/>
<polygon fill="#FEC629" points="591.612,99.88 599.68,99.88 595.646,107.943 591.612,115.927 587.583,107.904 583.555,99.88 "/>
<path d="M603.431,134.591"/>
<path d="M603.689,134.511"/>
<path fill="#F0976B" d="M827.733,135.954c9.129,0,17.366-3.814,23.212-9.937c-4.145-4.415-9.523-7.653-15.59-9.161
	c-1.839-0.135-3.635-0.42-5.374-0.852c-0.782-0.057-1.568-0.096-2.365-0.096c-9.14,0-17.378,3.838-23.21,9.982
	C810.262,132.085,818.543,135.954,827.733,135.954z"/>
<path d="M837.733,116.954c-0.801,0-1.592-0.039-2.378-0.098c-1.739-0.432-3.535-0.717-5.374-0.852
	c-0.782-0.057-1.568-0.096-2.365-0.096c-9.14,0-17.378,3.838-23.21,9.982c5.855,6.193,14.137,10.062,23.327,10.062
	c9.129,0,17.366-3.814,23.212-9.937c4.508-4.722,7.596-10.815,8.57-17.594C853.791,113.717,846.142,116.954,837.733,116.954z"/>
<pattern  id="SVGID_1_" xlink:href="#Nueva_muestra_de_motivo_4" patternTransform="matrix(1.5791 0 0 1.5791 -160.0972 3623.7051)">
</pattern>
<path fill="url(#SVGID_1_)" d="M827.887,210.909c-17.673,0-32-14.327-32-32v113c0,17.673,14.327,32,32,32s32-14.327,32-32v-113
	C859.887,196.582,845.56,210.909,827.887,210.909z"/>
<path fill="#F0976B" d="M628.012,32.88c-0.811-2-1.644-3.652-2.532-5.299l7.039-3.977c21.463,39.746,20.336,80.961,15.611,108.611
	c-5.104,29.865-15.129,50.098-15.553,50.946l-7.157-3.599c0.1-0.199,9.988-19.91,14.865-48.671
	c4.194-24.727,5.382-61.013-11.302-96.013h-3.097v-2H628.012z"/>
<path fill="#F0976B" d="M864.012,32.88c-0.811-2-1.644-3.652-2.532-5.299l7.039-3.977c21.463,39.746,20.336,80.961,15.611,108.611
	c-5.104,29.865-15.129,50.098-15.553,50.946l-7.157-3.599c0.1-0.199,9.988-19.91,14.865-48.671
	c4.194-24.727,5.382-61.013-11.302-96.013h-3.097v-2H864.012z"/>
</svg>
