<?xml version="1.0" encoding="utf-8"?>
<!-- Generator: Adobe Illustrator 16.0.0, SVG Export Plug-In . SVG Version: 6.00 Build 0)  -->
<!DOCTYPE svg PUBLIC "-//W3C//DTD SVG 1.1//EN" "http://www.w3.org/Graphics/SVG/1.1/DTD/svg11.dtd">
<svg version="1.1" id="Capa_1" xmlns="http://www.w3.org/2000/svg" xmlns:xlink="http://www.w3.org/1999/xlink" x="0px" y="0px"
	 width="1183.887px" height="243.761px" viewBox="0 0 1183.887 243.761" enable-background="new 0 0 1183.887 243.761"
	 xml:space="preserve">
<pattern  x="-318" y="-2655.42" width="114" height="20" patternUnits="userSpaceOnUse" id="Nueva_muestra_de_motivo_4" viewBox="0 -20 114 20" overflow="visible">
	<g>
		<polygon fill="none" points="0,0 114,0 114,-20 0,-20 		"/>
		<polygon fill="#FFFFFF" points="114,0 0,0 0,-10 114,-10 		"/>
		<polygon fill="#2FA1BE" points="114,-10 0,-10 0,-20 114,-20 		"/>
	</g>
</pattern>
<g>
	<path fill="#F0976B" d="M320.247,65.58c0.809-2,1.643-3.452,2.531-5.099l-7.039-3.876c-21.463,39.746-20.336,81.01-15.611,108.66
		c5.104,29.865,15.129,50.123,15.553,50.972l7.157-3.585c-0.1-0.199-9.988-20.105-14.866-48.865
		c-4.193-24.727-5.381-61.207,11.303-96.207H322v-2H320.247z"/>
	<g>
		<polygon fill="#F0976B" points="390,212.58 537,212.58 537,208.58 539,208.58 539,212.58 546,212.58 546,220.58 390,220.58 		"/>
	</g>
	<path fill="#F0976B" d="M356,149.27c-17.674,0-32,14.326-32,32v144c0,17.673,14.326,32,32,32c17.672,0,32-14.327,32-32v-144
		C388,163.596,373.672,149.27,356,149.27z"/>
	<polygon fill="#EC4346" points="357.593,210.58 353.53,210.58 355.562,201.167 357.593,191.578 359.624,201.078 361.653,210.58 	
		"/>
	<path d="M369.593,167.861"/>
	<path fill="#FEC629" d="M356,244.27c-17.674,0-32-14.327-32-32v113c0,17.673,14.326,32,32,32c17.672,0,32-14.327,32-32v-113
		C388,229.942,373.672,244.27,356,244.27z"/>
	<path d="M356.501,148.58c-17.674,0-32,14-32,32h40.029l2.029-5.624l2.027-5.8l2.027,5.711l2.025,5.713h15.861
		C388.501,162.58,374.173,148.58,356.501,148.58z"/>
	<circle cx="356.501" cy="141.27" r="8"/>
</g>
<path fill="#F0976B" d="M556.247,65.58c0.809-2,1.643-3.452,2.531-5.099l-7.039-3.876c-21.463,39.746-20.336,81.01-15.611,108.66
	c5.104,29.865,15.129,50.123,15.553,50.972l7.157-3.585c-0.1-0.199-9.988-20.105-14.866-48.865
	c-4.193-24.727-5.381-61.207,11.303-96.207H558v-2H556.247z"/>
<g>
	<polygon fill="#F0976B" points="626,212.58 773,212.58 773,208.58 775,208.58 775,212.58 782,212.58 782,220.58 626,220.58 	"/>
</g>
<path fill="#F0976B" d="M592,149.27c-17.674,0-32,14.326-32,32v144c0,17.673,14.326,32,32,32c17.672,0,32-14.327,32-32v-144
	C624,163.596,609.672,149.27,592,149.27z"/>
<polygon fill="#EC4346" points="593.593,210.58 589.53,210.58 591.562,201.167 593.593,191.578 595.624,201.078 597.653,210.58 "/>
<path d="M605.593,167.861"/>
<path fill="#A4CB57" d="M592,244.27c-17.674,0-32-14.327-32-32v113c0,17.673,14.326,32,32,32c17.672,0,32-14.327,32-32v-113
	C624,229.942,609.672,244.27,592,244.27z"/>
<path fill="#F0976B" d="M792.247,65.58c0.809-2,1.643-3.452,2.531-5.099l-7.039-3.876c-21.463,39.746-20.336,81.01-15.611,108.66
	c5.104,29.865,15.129,50.123,15.553,50.972l7.157-3.585c-0.1-0.199-9.988-20.105-14.866-48.865
	c-4.193-24.727-5.381-61.207,11.303-96.207H794v-2H792.247z"/>
<g>
	<polygon fill="#F0976B" points="862,212.58 1009,212.58 1009,208.58 1011,208.58 1011,212.58 1018,212.58 1018,220.58 862,220.58 	
		"/>
</g>
<polygon fill="#FEC629" points="592.495,132.58 600.562,132.58 596.528,140.799 592.495,148.859 588.466,140.721 584.437,132.58 "/>
<g>
	<path fill="#FEC629" d="M593.529,148.945c-0.343-0.01-0.685-0.025-1.03-0.025c-0.566,0-1.129,0.016-1.688,0.045
		c0.874,2.49,1.355,5.166,1.355,7.955C592.167,154.123,592.65,151.441,593.529,148.945z"/>
	<path fill="#FEC629" d="M592.167,156.92c0-2.789-0.481-5.465-1.355-7.955c-16.476,0.855-29.646,14.174-30.281,30.707
		c2.4,0.805,4.966,1.248,7.637,1.248C581.422,180.92,592.167,170.175,592.167,156.92z"/>
	<path fill="#FEC629" d="M593.529,148.945c-0.879,2.496-1.362,5.178-1.362,7.975c0,13.255,10.745,24,24,24
		c2.916,0,5.71-0.521,8.295-1.473C623.707,162.799,610.233,149.476,593.529,148.945z"/>
</g>
<path d="M604.313,166.602"/>
<path d="M604.573,166.521"/>
<path fill="#F0976B" d="M828,148.92c-17.673,0-32,14.326-32,32v144c0,17.673,14.327,32,32,32s32-14.327,32-32v-144
	C860,163.246,845.673,148.92,828,148.92z"/>
<polygon fill="#EC4346" points="828.592,210.58 824.528,210.58 826.561,200.992 828.592,191.316 830.622,200.947 832.652,210.58 "/>
<path d="M838.616,149.965c-0.801,0-1.592-0.039-2.378-0.098c-1.739-0.432-3.535-0.717-5.374-0.852
	c-0.782-0.057-1.568-0.096-2.365-0.096c-9.14,0-17.378,3.838-23.209,9.982c5.854,6.193,14.136,10.062,23.326,10.062
	c9.129,0,17.366-3.814,23.212-9.937c4.509-4.722,7.596-10.815,8.57-17.594C854.674,146.728,847.024,149.965,838.616,149.965z"/>
<g>
	<path d="M809.066,212.354c0,0,12.926,7.566,18.334,2.619c1.065-0.975,1.065-2.1,1.065-2.1s0.024-1.063-1.14-1.626
		c-1.326-0.641-3.617-0.545-6.325,2.175c-0.926,0.93-2.216,1.729-5.139,1.051C814.128,214.07,809.066,212.354,809.066,212.354z"/>
	<path d="M847.864,212.354c0,0-12.926,7.566-18.334,2.619c-1.065-0.975-1.065-2.1-1.065-2.1s-0.024-1.063,1.14-1.626
		c1.326-0.641,3.617-0.545,6.325,2.175c0.926,0.93,2.216,1.729,5.139,1.051C842.803,214.07,847.864,212.354,847.864,212.354z"/>
</g>
<pattern  id="SVGID_1_" xlink:href="#Nueva_muestra_de_motivo_4" patternTransform="matrix(1.5791 0 0 1.5791 162.4541 3058.1309)">
</pattern>
<path fill="url(#SVGID_1_)" d="M828,243.92c-17.673,0-32-14.327-32-32v113c0,17.673,14.327,32,32,32s32-14.327,32-32v-113
	C860,229.593,845.673,243.92,828,243.92z"/>
</svg>
