<?xml version="1.0" encoding="utf-8"?>
<!-- Generator: Adobe Illustrator 16.0.0, SVG Export Plug-In . SVG Version: 6.00 Build 0)  -->
<!DOCTYPE svg PUBLIC "-//W3C//DTD SVG 1.1//EN" "http://www.w3.org/Graphics/SVG/1.1/DTD/svg11.dtd">
<svg version="1.1" id="Capa_1" xmlns="http://www.w3.org/2000/svg" xmlns:xlink="http://www.w3.org/1999/xlink" x="0px" y="0px"
	 width="1184.887px" height="243.76px" viewBox="0 0 1184.887 243.76" enable-background="new 0 0 1184.887 243.76"
	 xml:space="preserve">
<pattern  x="-2750" y="-3262.33" width="114" height="20" patternUnits="userSpaceOnUse" id="Nueva_muestra_de_motivo_4" viewBox="0 -20 114 20" overflow="visible">
	<g>
		<polygon fill="none" points="0,0 114,0 114,-20 0,-20 		"/>
		<polygon fill="#FFFFFF" points="114,0 0,0 0,-10 114,-10 		"/>
		<polygon fill="#2FA1BE" points="114,-10 0,-10 0,-20 114,-20 		"/>
	</g>
</pattern>
<g>
	<g>
		<path fill="#F0976B" d="M198,149.493c-17.674,0-32,14.326-32,32v144c0,17.673,14.326,32,32,32c17.672,0,32-14.327,32-32v-144
			C230,163.819,215.672,149.493,198,149.493z"/>
		<polygon fill="#F0976B" points="232,213.67 232,360.67 228,360.67 228,362.67 232,362.67 232,369.67 240,369.67 240,213.67 		"/>
		<polygon fill="#F0976B" points="164,360.67 164,213.67 156,213.67 156,369.67 164,369.67 164,362.67 168,362.67 168,360.67 		"/>
		<polygon fill="#EC4346" points="197.908,211.67 193.846,211.67 195.877,201.824 197.908,192.02 199.939,201.844 201.969,211.67 		
			"/>
		<path d="M209.908,168.085"/>
		<path fill="#FEC629" d="M198,244.493c-17.674,0-32-14.327-32-32v113c0,17.673,14.326,32,32,32c17.672,0,32-14.327,32-32v-113
			C230,230.166,215.672,244.493,198,244.493z"/>
		<path d="M197.816,149.67c-17.674,0-32,14-32,32h40.029l2.029-6.057l2.027-6.016l2.027,6.035l2.025,6.037h15.861
			C229.816,163.67,215.488,149.67,197.816,149.67z"/>
		<circle cx="197.816" cy="141.493" r="8"/>
	</g>
</g>
<path fill="#F0976B" d="M592,149.573c-17.674,0-32,14.326-32,32v144c0,17.673,14.326,32,32,32c17.672,0,32-14.327,32-32v-144
	C624,163.899,609.672,149.573,592,149.573z"/>
<polygon fill="#FEC629" points="591.83,133.67 599.896,133.67 595.863,141.625 591.83,149.556 587.801,141.613 583.771,133.67 "/>
<g>
	<path fill="#FEC629" d="M592.864,149.509c-0.343-0.01-0.685-0.025-1.03-0.025c-0.566,0-1.129,0.016-1.688,0.045
		c0.874,2.49,1.355,5.166,1.355,7.955C591.502,154.687,591.985,152.005,592.864,149.509z"/>
	<path fill="#FEC629" d="M591.502,157.483c0-2.789-0.481-5.465-1.355-7.955c-16.476,0.855-29.646,14.174-30.281,30.707
		c2.4,0.805,4.966,1.248,7.637,1.248C580.757,181.483,591.502,170.738,591.502,157.483z"/>
	<path fill="#FEC629" d="M592.864,149.509c-0.879,2.496-1.362,5.178-1.362,7.975c0,13.255,10.745,24,24,24
		c2.916,0,5.71-0.521,8.295-1.473C623.042,163.362,609.568,150.039,592.864,149.509z"/>
</g>
<path d="M603.648,168.165"/>
<polygon fill="#F0976B" points="626,213.67 626,360.67 622,360.67 622,362.67 626,362.67 626,369.67 634,369.67 634,213.67 "/>
<polygon fill="#F0976B" points="558,360.67 558,213.67 550,213.67 550,369.67 558,369.67 558,362.67 562,362.67 562,360.67 "/>
<polygon fill="#EC4346" points="591.908,211.67 587.846,211.67 589.877,201.824 591.908,192.02 593.939,201.844 595.969,211.67 "/>
<path d="M603.908,168.085"/>
<path fill="#A4CB57" d="M592,244.493c-17.674,0-32-14.327-32-32v113c0,17.673,14.326,32,32,32c17.672,0,32-14.327,32-32v-113
	C624,230.166,609.672,244.493,592,244.493z"/>
<path fill="#F0976B" d="M986,149.483c-17.673,0-32,14.326-32,32v144c0,17.673,14.327,32,32,32s32-14.327,32-32v-144
	C1018,163.81,1003.673,149.483,986,149.483z"/>
<polygon fill="#F0976B" points="1020,213.67 1020,360.67 1016,360.67 1016,362.67 1020,362.67 1020,369.67 1028,369.67 1028,213.67 
	"/>
<polygon fill="#F0976B" points="952,360.67 952,213.67 944,213.67 944,369.67 952,369.67 952,362.67 956,362.67 956,360.67 "/>
<polygon fill="#EC4346" points="985.927,211.67 981.863,211.67 983.896,201.818 985.927,192.012 987.957,201.84 989.987,211.67 "/>
<path fill="#F0976B" d="M985.951,169.528c9.129,0,17.366-3.814,23.212-9.937c-4.145-4.415-9.523-7.653-15.59-9.161
	c-1.839-0.135-3.635-0.42-5.374-0.852c-0.782-0.057-1.568-0.096-2.365-0.096c-9.14,0-17.378,3.838-23.209,9.982
	C968.479,165.659,976.761,169.528,985.951,169.528z"/>
<path d="M995.951,150.528c-0.801,0-1.592-0.039-2.378-0.098c-1.739-0.432-3.535-0.717-5.374-0.852
	c-0.782-0.057-1.568-0.096-2.365-0.096c-9.14,0-17.378,3.838-23.209,9.982c5.854,6.193,14.136,10.062,23.326,10.062
	c9.129,0,17.366-3.814,23.212-9.937c4.509-4.722,7.596-10.815,8.57-17.594C1012.009,147.291,1004.359,150.528,995.951,150.528z"/>
<g>
	<path d="M966.401,212.917c0,0,12.926,7.566,18.334,2.619c1.065-0.975,1.065-2.1,1.065-2.1s0.024-1.063-1.14-1.626
		c-1.326-0.641-3.617-0.545-6.325,2.175c-0.926,0.93-2.216,1.729-5.139,1.051C971.463,214.634,966.401,212.917,966.401,212.917z"/>
	<path d="M1005.199,212.917c0,0-12.926,7.566-18.334,2.619c-1.065-0.975-1.065-2.1-1.065-2.1s-0.024-1.063,1.14-1.626
		c1.326-0.641,3.617-0.545,6.325,2.175c0.926,0.93,2.216,1.729,5.139,1.051C1000.138,214.634,1005.199,212.917,1005.199,212.917z"/>
</g>
<pattern  id="SVGID_1_" xlink:href="#Nueva_muestra_de_motivo_4" patternTransform="matrix(1.5791 0 0 1.5791 1883.4282 2587.7358)">
</pattern>
<path fill="url(#SVGID_1_)" d="M986,244.483c-17.673,0-32-14.327-32-32v113c0,17.673,14.327,32,32,32s32-14.327,32-32v-113
	C1018,230.156,1003.673,244.483,986,244.483z"/>
</svg>
