<?xml version="1.0" encoding="utf-8"?>
<!-- Generator: Adobe Illustrator 16.0.0, SVG Export Plug-In . SVG Version: 6.00 Build 0)  -->
<!DOCTYPE svg PUBLIC "-//W3C//DTD SVG 1.1//EN" "http://www.w3.org/Graphics/SVG/1.1/DTD/svg11.dtd">
<svg version="1.1" id="Capa_1" xmlns="http://www.w3.org/2000/svg" xmlns:xlink="http://www.w3.org/1999/xlink" x="0px" y="0px"
	 width="1184.887px" height="243.76px" viewBox="0 0 1184.887 243.76" enable-background="new 0 0 1184.887 243.76"
	 xml:space="preserve">
<pattern  x="-2558" y="-1151.33" width="114" height="20" patternUnits="userSpaceOnUse" id="Nueva_muestra_de_motivo_4" viewBox="0 -20 114 20" overflow="visible">
	<g>
		<polygon fill="none" points="0,0 114,0 114,-20 0,-20 		"/>
		<polygon fill="#FFFFFF" points="114,0 0,0 0,-10 114,-10 		"/>
		<polygon fill="#2FA1BE" points="114,-10 0,-10 0,-20 114,-20 		"/>
	</g>
</pattern>
<g>
	<g>
		<polygon fill="#F0976B" points="232,179.67 379,179.67 379,175.67 381,175.67 381,179.67 388,179.67 388,187.67 232,187.67 		"/>
		<polygon fill="#F0976B" points="164,179.67 17,179.67 17,175.67 15,175.67 15,179.67 8,179.67 8,187.67 164,187.67 		"/>
	</g>
	<g>
		<path fill="#F0976B" d="M198,116.43c-17.674,0-32,14.326-32,32v144c0,17.673,14.326,32,32,32c17.672,0,32-14.327,32-32v-144
			C230,130.756,215.672,116.43,198,116.43z"/>
		<polygon fill="#EC4346" points="198.428,177.67 194.365,177.67 196.396,168.292 198.428,158.721 200.459,168.194 202.488,177.67 
					"/>
		<path d="M210.428,135.021"/>
		<path fill="#FEC629" d="M198,211.43c-17.674,0-32-14.327-32-32v113c0,17.673,14.326,32,32,32c17.672,0,32-14.327,32-32v-113
			C230,197.103,215.672,211.43,198,211.43z"/>
		<path d="M198.336,115.67c-17.674,0-32,14-32,32h40.029l2.029-5.589l2.027-5.782l2.027,5.685l2.025,5.687h15.861
			C230.336,129.67,216.008,115.67,198.336,115.67z"/>
		<circle cx="198.336" cy="108.43" r="8"/>
	</g>
</g>
<g>
	<polygon fill="#F0976B" points="626,179.67 773,179.67 773,175.67 775,175.67 775,179.67 782,179.67 782,187.67 626,187.67 	"/>
	<polygon fill="#F0976B" points="558,179.67 411,179.67 411,175.67 409,175.67 409,179.67 402,179.67 402,187.67 558,187.67 	"/>
</g>
<path fill="#F0976B" d="M592,116.43c-17.674,0-32,14.326-32,32v144c0,17.673,14.326,32,32,32c17.672,0,32-14.327,32-32v-144
	C624,130.756,609.672,116.43,592,116.43z"/>
<polygon fill="#EC4346" points="592.428,177.67 588.365,177.67 590.396,168.292 592.428,158.721 594.459,168.194 596.488,177.67 "/>
<path d="M604.428,135.021"/>
<path fill="#A4CB57" d="M592,211.43c-17.674,0-32-14.327-32-32v113c0,17.673,14.326,32,32,32c17.672,0,32-14.327,32-32v-113
	C624,197.103,609.672,211.43,592,211.43z"/>
<g>
	<polygon fill="#F0976B" points="1020,179.67 1167,179.67 1167,175.67 1169,175.67 1169,179.67 1176,179.67 1176,187.67 
		1020,187.67 	"/>
	<polygon fill="#F0976B" points="952,179.67 805,179.67 805,175.67 803,175.67 803,179.67 796,179.67 796,187.67 952,187.67 	"/>
</g>
<polygon fill="#FEC629" points="592.09,99.67 600.156,99.67 596.123,107.929 592.09,116.01 588.061,107.841 584.031,99.67 "/>
<g>
	<path fill="#FEC629" d="M593.124,116.115c-0.343-0.01-0.685-0.025-1.03-0.025c-0.566,0-1.129,0.016-1.688,0.045
		c0.874,2.49,1.355,5.166,1.355,7.955C591.762,121.293,592.245,118.611,593.124,116.115z"/>
	<path fill="#FEC629" d="M591.762,124.09c0-2.789-0.481-5.465-1.355-7.955c-16.476,0.855-29.646,14.174-30.281,30.707
		c2.4,0.805,4.966,1.248,7.637,1.248C581.017,148.09,591.762,137.345,591.762,124.09z"/>
	<path fill="#FEC629" d="M593.124,116.115c-0.879,2.496-1.362,5.178-1.362,7.975c0,13.255,10.745,24,24,24
		c2.916,0,5.71-0.521,8.295-1.473C623.302,129.969,609.828,116.646,593.124,116.115z"/>
</g>
<path d="M603.908,134.771"/>
<path d="M604.168,134.691"/>
<path fill="#F0976B" d="M986,116.09c-17.673,0-32,14.326-32,32v144c0,17.673,14.327,32,32,32s32-14.327,32-32v-144
	C1018,130.416,1003.673,116.09,986,116.09z"/>
<polygon fill="#EC4346" points="986.187,177.67 982.123,177.67 984.155,168.122 986.187,158.467 988.217,168.067 990.247,177.67 "/>
<path fill="#F0976B" d="M986.211,136.135c9.129,0,17.366-3.814,23.212-9.937c-4.145-4.415-9.523-7.653-15.59-9.161
	c-1.839-0.135-3.635-0.42-5.374-0.852c-0.782-0.057-1.568-0.096-2.365-0.096c-9.14,0-17.378,3.838-23.209,9.982
	C968.739,132.266,977.021,136.135,986.211,136.135z"/>
<path d="M996.211,117.135c-0.801,0-1.592-0.039-2.378-0.098c-1.739-0.432-3.535-0.717-5.374-0.852
	c-0.782-0.057-1.568-0.096-2.365-0.096c-9.14,0-17.378,3.838-23.209,9.982c5.854,6.193,14.136,10.062,23.326,10.062
	c9.129,0,17.366-3.814,23.212-9.937c4.509-4.722,7.596-10.815,8.57-17.594C1012.269,113.897,1004.619,117.135,996.211,117.135z"/>
<g>
	<path d="M966.661,179.523c0,0,12.926,7.566,18.334,2.619c1.065-0.975,1.065-2.1,1.065-2.1s0.024-1.063-1.14-1.626
		c-1.326-0.641-3.617-0.545-6.325,2.175c-0.926,0.93-2.216,1.729-5.139,1.051C971.723,181.24,966.661,179.523,966.661,179.523z"/>
	<path d="M1005.459,179.523c0,0-12.926,7.566-18.334,2.619c-1.065-0.975-1.065-2.1-1.065-2.1s-0.024-1.063,1.14-1.626
		c1.326-0.641,3.617-0.545,6.325,2.175c0.926,0.93,2.216,1.729,5.139,1.051C1000.397,181.24,1005.459,179.523,1005.459,179.523z"/>
</g>
<pattern  id="SVGID_1_" xlink:href="#Nueva_muestra_de_motivo_4" patternTransform="matrix(1.5791 0 0 1.5791 902.7803 3623.9736)">
</pattern>
<path fill="url(#SVGID_1_)" d="M986,211.09c-17.673,0-32-14.327-32-32v113c0,17.673,14.327,32,32,32s32-14.327,32-32v-113
	C1018,196.763,1003.673,211.09,986,211.09z"/>
</svg>
