<?xml version="1.0" encoding="utf-8"?>
<!-- Generator: Adobe Illustrator 16.0.0, SVG Export Plug-In . SVG Version: 6.00 Build 0)  -->
<!DOCTYPE svg PUBLIC "-//W3C//DTD SVG 1.1//EN" "http://www.w3.org/Graphics/SVG/1.1/DTD/svg11.dtd">
<svg version="1.1" id="Capa_1" xmlns="http://www.w3.org/2000/svg" xmlns:xlink="http://www.w3.org/1999/xlink" x="0px" y="0px"
	 width="1183.887px" height="243.762px" viewBox="0 0 1183.887 243.762" enable-background="new 0 0 1183.887 243.762"
	 xml:space="preserve">
<g>
	<path fill="#F0976B" d="M320.247,65.58c0.809-2,1.643-3.452,2.53-5.099l-7.039-3.876c-21.463,39.746-20.336,81.01-15.61,108.66
		c5.104,29.864,15.129,50.123,15.553,50.972l7.157-3.585c-0.101-0.199-9.988-20.105-14.866-48.865
		c-4.193-24.727-5.381-61.207,11.303-96.207H322v-2H320.247z"/>
	<g>
		<polygon fill="#F0976B" points="390,212.58 537,212.58 537,208.58 539,208.58 539,212.58 546,212.58 546,220.58 390,220.58 		"/>
	</g>
	<path fill="#F0976B" d="M356,149.27c-17.674,0-32,14.326-32,32v144c0,17.673,14.326,32,32,32c17.672,0,32-14.327,32-32v-144
		C388,163.596,373.672,149.27,356,149.27z"/>
	<polygon fill="#EC4346" points="357.593,210.58 353.53,210.58 355.562,201.167 357.593,191.578 359.624,201.078 361.653,210.58 	
		"/>
	<path d="M369.593,167.861"/>
	<path fill="#FEC629" d="M356,244.27c-17.674,0-32-14.327-32-32v113c0,17.673,14.326,32,32,32c17.672,0,32-14.327,32-32v-113
		C388,229.942,373.672,244.27,356,244.27z"/>
	<path d="M356.501,148.58c-17.674,0-32,14-32,32h40.028l2.029-5.624l2.027-5.8l2.026,5.711l2.025,5.713h15.861
		C388.501,162.58,374.173,148.58,356.501,148.58z"/>
	<circle cx="356.501" cy="141.27" r="8"/>
</g>
<path fill="#F0976B" d="M556.246,65.58c0.81-2,1.644-3.452,2.531-5.099l-7.039-3.876c-21.463,39.746-20.336,81.01-15.61,108.66
	c5.104,29.864,15.129,50.123,15.553,50.972l7.157-3.585c-0.101-0.199-9.988-20.105-14.866-48.865
	c-4.193-24.727-5.381-61.207,11.303-96.207H558v-2H556.246z"/>
<g>
	<polygon fill="#F0976B" points="626,212.58 773,212.58 773,208.58 775,208.58 775,212.58 782,212.58 782,220.58 626,220.58 	"/>
</g>
<path fill="#F0976B" d="M592,149.27c-17.675,0-32,14.326-32,32v144c0,17.673,14.325,32,32,32c17.672,0,32-14.327,32-32v-144
	C624,163.596,609.672,149.27,592,149.27z"/>
<polygon fill="#EC4346" points="593.593,210.58 589.53,210.58 591.562,201.167 593.593,191.578 595.623,201.078 597.653,210.58 "/>
<path d="M605.593,167.861"/>
<path fill="#A4CB57" d="M592,244.27c-17.675,0-32-14.327-32-32v113c0,17.673,14.325,32,32,32c17.672,0,32-14.327,32-32v-113
	C624,229.942,609.672,244.27,592,244.27z"/>
<path fill="#F0976B" d="M792.246,65.58c0.81-2,1.644-3.452,2.531-5.099l-7.039-3.876c-21.463,39.746-20.336,81.01-15.61,108.66
	c5.104,29.864,15.129,50.123,15.553,50.972l7.157-3.585c-0.101-0.199-9.988-20.105-14.866-48.865
	c-4.193-24.727-5.381-61.207,11.303-96.207H794v-2H792.246z"/>
<g>
	<polygon fill="#F0976B" points="862,212.58 1009,212.58 1009,208.58 1011,208.58 1011,212.58 1018,212.58 1018,220.58 862,220.58 	
		"/>
</g>
<polygon fill="#FEC629" points="592.494,132.58 600.562,132.58 596.528,140.799 592.494,148.859 588.466,140.721 584.437,132.58 "/>
<g>
	<path fill="#FEC629" d="M593.529,148.945c-0.343-0.01-0.685-0.025-1.03-0.025c-0.565,0-1.129,0.017-1.688,0.045
		c0.874,2.49,1.354,5.166,1.354,7.955C592.166,154.123,592.65,151.441,593.529,148.945z"/>
	<path fill="#FEC629" d="M592.166,156.92c0-2.789-0.48-5.465-1.354-7.955c-16.476,0.855-29.646,14.175-30.281,30.707
		c2.4,0.806,4.966,1.248,7.638,1.248C581.422,180.92,592.166,170.175,592.166,156.92z"/>
	<path fill="#FEC629" d="M593.529,148.945c-0.879,2.496-1.362,5.178-1.362,7.975c0,13.255,10.745,24,24,24
		c2.916,0,5.711-0.521,8.296-1.473C623.706,162.799,610.233,149.476,593.529,148.945z"/>
</g>
<path d="M604.313,166.602"/>
<path d="M604.573,166.521"/>
<path fill="#F0976B" d="M828,148.92c-17.674,0-32,14.326-32,32v144c0,17.673,14.326,32,32,32c17.673,0,32-14.327,32-32v-144
	C860,163.246,845.673,148.92,828,148.92z"/>
<polygon fill="#EC4346" points="828.592,210.58 824.528,210.58 826.561,200.992 828.592,191.316 830.621,200.947 832.652,210.58 "/>
<path d="M838.615,149.965c-0.801,0-1.592-0.039-2.378-0.098c-1.739-0.432-3.535-0.717-5.374-0.852
	c-0.781-0.058-1.567-0.097-2.365-0.097c-9.14,0-17.378,3.838-23.209,9.982c5.854,6.192,14.137,10.062,23.326,10.062
	c9.129,0,17.366-3.813,23.212-9.937c4.51-4.722,7.597-10.815,8.57-17.594C854.674,146.728,847.024,149.965,838.615,149.965z"/>
<g>
	<path d="M809.066,212.354c0,0,12.926,7.565,18.334,2.619c1.065-0.976,1.065-2.101,1.065-2.101s0.023-1.062-1.141-1.626
		c-1.326-0.641-3.617-0.545-6.325,2.175c-0.926,0.931-2.216,1.729-5.139,1.052C814.128,214.07,809.066,212.354,809.066,212.354z"/>
	<path d="M847.864,212.354c0,0-12.926,7.565-18.334,2.619c-1.064-0.976-1.064-2.101-1.064-2.101s-0.024-1.062,1.14-1.626
		c1.326-0.641,3.617-0.545,6.325,2.175c0.926,0.931,2.216,1.729,5.139,1.052C842.803,214.07,847.864,212.354,847.864,212.354z"/>
</g>
<g>
	<g>
		<g>
			<defs>
				<path id="SVGID_1_" d="M828,357.705c17.673,0,32-14.615,32-32.642V211.836c0,18.027-14.327,32.643-32,32.643
					s-32-14.613-32-32.643v113.228C796,343.09,810.327,357.705,828,357.705z"/>
			</defs>
			<clipPath id="SVGID_2_">
				<use xlink:href="#SVGID_1_"  overflow="visible"/>
			</clipPath>
			<rect x="746.5" y="170.988" clip-path="url(#SVGID_2_)" fill="#FFFFFF" width="161.5" height="200.952"/>
		</g>
	</g>
	<g>
		<g>
			<defs>
				<path id="SVGID_3_" d="M828,357.705c17.673,0,32-14.615,32-32.642V211.836c0,18.027-14.327,32.643-32,32.643
					s-32-14.613-32-32.643v113.228C796,343.09,810.327,357.705,828,357.705z"/>
			</defs>
			<clipPath id="SVGID_4_">
				<use xlink:href="#SVGID_3_"  overflow="visible"/>
			</clipPath>
			<rect x="789.5" y="294.417" clip-path="url(#SVGID_4_)" fill="#2FA1BE" width="74.5" height="16.32"/>
		</g>
	</g>
	<g>
		<g>
			<defs>
				<path id="SVGID_5_" d="M828,357.705c17.673,0,32-14.615,32-32.642V211.836c0,18.027-14.327,32.643-32,32.643
					s-32-14.613-32-32.643v113.228C796,343.09,810.327,357.705,828,357.705z"/>
			</defs>
			<clipPath id="SVGID_6_">
				<use xlink:href="#SVGID_5_"  overflow="visible"/>
			</clipPath>
			<rect x="789.5" y="262.283" clip-path="url(#SVGID_6_)" fill="#2FA1BE" width="74.5" height="16.321"/>
		</g>
	</g>
	<g>
		<g>
			<defs>
				<path id="SVGID_7_" d="M828,357.705c17.673,0,32-14.615,32-32.642V211.836c0,18.027-14.327,32.643-32,32.643
					s-32-14.613-32-32.643v113.228C796,343.09,810.327,357.705,828,357.705z"/>
			</defs>
			<clipPath id="SVGID_8_">
				<use xlink:href="#SVGID_7_"  overflow="visible"/>
			</clipPath>
			<rect x="789.5" y="229.641" clip-path="url(#SVGID_8_)" fill="#2FA1BE" width="74.5" height="16.321"/>
		</g>
	</g>
</g>
</svg>
