<?xml version="1.0" encoding="utf-8"?>
<!-- Generator: Adobe Illustrator 16.0.0, SVG Export Plug-In . SVG Version: 6.00 Build 0)  -->
<!DOCTYPE svg PUBLIC "-//W3C//DTD SVG 1.1//EN" "http://www.w3.org/Graphics/SVG/1.1/DTD/svg11.dtd">
<svg version="1.1" id="Capa_1" xmlns="http://www.w3.org/2000/svg" xmlns:xlink="http://www.w3.org/1999/xlink" x="0px" y="0px"
	 width="1181.887px" height="243.76px" viewBox="0 0 1181.887 243.76" enable-background="new 0 0 1181.887 243.76"
	 xml:space="preserve">
<path fill="#F0976B" d="M827.887,115.909c-17.673,0-32,14.326-32,32v144c0,17.673,14.327,32,32,32s32-14.327,32-32v-144
	C859.887,130.235,845.56,115.909,827.887,115.909z"/>
<g>
	<path fill="#F0976B" d="M319.364,32.88c0.809-2,1.643-3.652,2.531-5.299l-7.04-3.977c-21.462,39.746-20.336,80.961-15.609,108.611
		c5.104,29.865,15.129,50.099,15.553,50.946l7.157-3.6c-0.101-0.199-9.988-19.91-14.867-48.67
		c-4.192-24.728-5.38-61.014,11.304-96.014h3.495v-2h-2.523V32.88z"/>
	<path fill="#F0976B" d="M355.887,116.169c-17.674,0-32,14.326-32,32v144c0,17.673,14.326,32,32,32c17.672,0,32-14.327,32-32v-144
		C387.887,130.495,373.559,116.169,355.887,116.169z"/>
	<path d="M368.71,134.761"/>
	<path fill="#FEC629" d="M355.887,211.169c-17.674,0-32-14.327-32-32v113c0,17.673,14.326,32,32,32c17.672,0,32-14.327,32-32v-113
		C387.887,196.842,373.559,211.169,355.887,211.169z"/>
	<circle cx="355.117" cy="108.169" r="8"/>
	<path d="M355.887,115.909c-17.673,0-32,14.326-32,32v31.971h64v-31.971C387.887,130.235,373.56,115.909,355.887,115.909z"/>
	<path fill="#F0976B" d="M392.011,32.88c-0.81-2-1.643-3.652-2.531-5.299l7.039-3.977c21.463,39.746,20.336,80.961,15.611,108.611
		c-5.104,29.865-15.13,50.099-15.554,50.946l-7.156-3.6c0.1-0.199,9.987-19.91,14.864-48.67
		c4.194-24.728,5.382-61.014-11.302-96.014h-3.097v-2h2.125V32.88z"/>
</g>
<path fill="#F0976B" d="M555.364,32.88c0.809-2,1.643-3.652,2.531-5.299l-7.04-3.977c-21.462,39.746-20.336,80.961-15.61,108.611
	c5.104,29.865,15.129,50.099,15.554,50.946l7.156-3.6c-0.1-0.199-9.987-19.91-14.866-48.67
	c-4.192-24.728-5.381-61.014,11.304-96.014h3.495v-2h-2.523V32.88z"/>
<path fill="#F0976B" d="M591.887,116.169c-17.674,0-32,14.326-32,32v144c0,17.673,14.326,32,32,32c17.672,0,32-14.327,32-32v-144
	C623.887,130.495,609.559,116.169,591.887,116.169z"/>
<path d="M604.71,134.761"/>
<path fill="#A4CB57" d="M591.887,211.169c-17.674,0-32-14.327-32-32v113c0,17.673,14.326,32,32,32c17.672,0,32-14.327,32-32v-113
	C623.887,196.842,609.559,211.169,591.887,211.169z"/>
<path fill="#FEC629" d="M591.887,115.909c-17.673,0-32,14.326-32,32v31.971h64v-31.971
	C623.887,130.235,609.56,115.909,591.887,115.909z"/>
<path fill="#F0976B" d="M791.364,32.88c0.809-2,1.643-3.652,2.531-5.299l-7.04-3.977c-21.462,39.746-20.336,80.961-15.61,108.611
	c5.104,29.865,15.129,50.099,15.554,50.946l7.156-3.6c-0.1-0.199-9.987-19.91-14.866-48.67
	c-4.192-24.728-5.381-61.014,11.304-96.014h3.495v-2h-2.523V32.88z"/>
<path d="M840.71,134.761"/>
<path d="M827.887,115.909c-17.673,0-32,14.326-32,32v31.971h64v-31.971C859.887,130.235,845.56,115.909,827.887,115.909z"/>
<polygon fill="#FEC629" points="591.612,99.88 599.68,99.88 595.646,107.943 591.612,115.927 587.582,107.904 583.555,99.88 "/>
<path d="M603.431,134.591"/>
<path d="M603.689,134.511"/>
<path fill="#F0976B" d="M827.733,135.954c9.129,0,17.366-3.814,23.212-9.938c-4.145-4.415-9.522-7.653-15.59-9.161
	c-1.839-0.135-3.635-0.42-5.374-0.852c-0.782-0.057-1.568-0.096-2.365-0.096c-9.14,0-17.378,3.838-23.21,9.981
	C810.262,132.085,818.543,135.954,827.733,135.954z"/>
<path d="M837.733,116.954c-0.801,0-1.592-0.039-2.378-0.098c-1.739-0.432-3.535-0.717-5.374-0.852
	c-0.782-0.057-1.568-0.096-2.365-0.096c-9.14,0-17.378,3.838-23.21,9.981c5.855,6.193,14.138,10.062,23.327,10.062
	c9.129,0,17.366-3.814,23.212-9.938c4.508-4.722,7.596-10.814,8.57-17.594C853.791,113.717,846.142,116.954,837.733,116.954z"/>
<path fill="#F0976B" d="M628.012,32.88c-0.812-2-1.645-3.652-2.532-5.299l7.039-3.977c21.463,39.746,20.336,80.961,15.611,108.611
	c-5.104,29.865-15.129,50.099-15.554,50.946l-7.156-3.6c0.1-0.199,9.987-19.91,14.864-48.67
	c4.194-24.728,5.383-61.014-11.302-96.014h-3.097v-2h2.126V32.88z"/>
<path fill="#F0976B" d="M864.012,32.88c-0.812-2-1.645-3.652-2.532-5.299l7.039-3.977c21.463,39.746,20.336,80.961,15.611,108.611
	c-5.104,29.865-15.129,50.099-15.554,50.946l-7.156-3.6c0.1-0.199,9.987-19.91,14.864-48.67
	c4.194-24.728,5.383-61.014-11.302-96.014h-3.097v-2h2.126V32.88z"/>
<g>
	<g>
		<g>
			<defs>
				<path id="SVGID_1_" d="M828,323.563c17.673,0,32-14.615,32-32.642V177.694c0,18.027-14.327,32.643-32,32.643
					s-32-14.613-32-32.643v113.228C796,308.948,810.327,323.563,828,323.563z"/>
			</defs>
			<clipPath id="SVGID_2_">
				<use xlink:href="#SVGID_1_"  overflow="visible"/>
			</clipPath>
			<rect x="746.5" y="136.847" clip-path="url(#SVGID_2_)" fill="#FFFFFF" width="161.5" height="200.952"/>
		</g>
	</g>
	<g>
		<g>
			<defs>
				<path id="SVGID_3_" d="M828,323.563c17.673,0,32-14.615,32-32.642V177.694c0,18.027-14.327,32.643-32,32.643
					s-32-14.613-32-32.643v113.228C796,308.948,810.327,323.563,828,323.563z"/>
			</defs>
			<clipPath id="SVGID_4_">
				<use xlink:href="#SVGID_3_"  overflow="visible"/>
			</clipPath>
			<rect x="789.5" y="260.275" clip-path="url(#SVGID_4_)" fill="#2FA1BE" width="74.5" height="16.32"/>
		</g>
	</g>
	<g>
		<g>
			<defs>
				<path id="SVGID_5_" d="M828,323.563c17.673,0,32-14.615,32-32.642V177.694c0,18.027-14.327,32.643-32,32.643
					s-32-14.613-32-32.643v113.228C796,308.948,810.327,323.563,828,323.563z"/>
			</defs>
			<clipPath id="SVGID_6_">
				<use xlink:href="#SVGID_5_"  overflow="visible"/>
			</clipPath>
			<rect x="789.5" y="228.142" clip-path="url(#SVGID_6_)" fill="#2FA1BE" width="74.5" height="16.321"/>
		</g>
	</g>
	<g>
		<g>
			<defs>
				<path id="SVGID_7_" d="M828,323.563c17.673,0,32-14.615,32-32.642V177.694c0,18.027-14.327,32.643-32,32.643
					s-32-14.613-32-32.643v113.228C796,308.948,810.327,323.563,828,323.563z"/>
			</defs>
			<clipPath id="SVGID_8_">
				<use xlink:href="#SVGID_7_"  overflow="visible"/>
			</clipPath>
			<rect x="789.5" y="195.5" clip-path="url(#SVGID_8_)" fill="#2FA1BE" width="74.5" height="16.321"/>
		</g>
	</g>
</g>
</svg>
