<?xml version="1.0" encoding="utf-8"?>
<!-- Generator: Adobe Illustrator 16.0.0, SVG Export Plug-In . SVG Version: 6.00 Build 0)  -->
<!DOCTYPE svg PUBLIC "-//W3C//DTD SVG 1.1//EN" "http://www.w3.org/Graphics/SVG/1.1/DTD/svg11.dtd">
<svg version="1.1" id="Capa_1" xmlns="http://www.w3.org/2000/svg" xmlns:xlink="http://www.w3.org/1999/xlink" x="0px" y="0px"
	 width="1184.887px" height="243.76px" viewBox="0 0 1184.887 243.76" enable-background="new 0 0 1184.887 243.76"
	 xml:space="preserve">
<g>
	<g>
		<polygon fill="#F0976B" points="232,179.67 379,179.67 379,175.67 381,175.67 381,179.67 388,179.67 388,187.67 232,187.67 		"/>
		<polygon fill="#F0976B" points="164,179.67 17,179.67 17,175.67 15,175.67 15,179.67 8,179.67 8,187.67 164,187.67 		"/>
	</g>
	<g>
		<path fill="#F0976B" d="M198,116.43c-17.674,0-32,14.326-32,32v144c0,17.672,14.326,31.999,32,31.999
			c17.672,0,32-14.327,32-31.999v-144C230,130.756,215.672,116.43,198,116.43z"/>
		<polygon fill="#EC4346" points="198.428,177.67 194.365,177.67 196.396,168.292 198.428,158.722 200.459,168.194 202.488,177.67 
					"/>
		<path d="M210.428,135.021"/>
		<path fill="#FEC629" d="M198,211.431c-17.674,0-32-14.328-32-32v113c0,17.672,14.326,31.999,32,31.999
			c17.672,0,32-14.327,32-31.999v-113C230,197.103,215.672,211.431,198,211.431z"/>
		<path d="M198.336,115.67c-17.674,0-32,14-32,32h40.028l2.029-5.589l2.027-5.782l2.026,5.685l2.025,5.688h15.861
			C230.336,129.67,216.008,115.67,198.336,115.67z"/>
		<circle cx="198.336" cy="108.43" r="8"/>
	</g>
</g>
<g>
	<polygon fill="#F0976B" points="626,179.67 773,179.67 773,175.67 775,175.67 775,179.67 782,179.67 782,187.67 626,187.67 	"/>
	<polygon fill="#F0976B" points="558,179.67 411,179.67 411,175.67 409,175.67 409,179.67 402,179.67 402,187.67 558,187.67 	"/>
</g>
<path fill="#F0976B" d="M592,116.43c-17.675,0-32,14.326-32,32v144c0,17.672,14.325,31.999,32,31.999c17.672,0,32-14.327,32-31.999
	v-144C624,130.756,609.672,116.43,592,116.43z"/>
<polygon fill="#EC4346" points="592.428,177.67 588.365,177.67 590.396,168.292 592.428,158.722 594.459,168.194 596.488,177.67 "/>
<path d="M604.428,135.021"/>
<path fill="#A4CB57" d="M592,211.431c-17.675,0-32-14.328-32-32v113c0,17.672,14.325,31.999,32,31.999c17.672,0,32-14.327,32-31.999
	v-113C624,197.103,609.672,211.431,592,211.431z"/>
<g>
	<polygon fill="#F0976B" points="1020,179.67 1167,179.67 1167,175.67 1169,175.67 1169,179.67 1176,179.67 1176,187.67 
		1020,187.67 	"/>
	<polygon fill="#F0976B" points="952,179.67 805,179.67 805,175.67 803,175.67 803,179.67 796,179.67 796,187.67 952,187.67 	"/>
</g>
<polygon fill="#FEC629" points="592.09,99.67 600.156,99.67 596.122,107.929 592.09,116.01 588.061,107.841 584.031,99.67 "/>
<g>
	<path fill="#FEC629" d="M593.123,116.115c-0.343-0.01-0.685-0.025-1.029-0.025c-0.566,0-1.129,0.016-1.688,0.045
		c0.874,2.49,1.355,5.166,1.355,7.955C591.762,121.293,592.244,118.611,593.123,116.115z"/>
	<path fill="#FEC629" d="M591.762,124.09c0-2.789-0.481-5.465-1.355-7.955c-16.476,0.855-29.646,14.175-30.28,30.707
		c2.399,0.806,4.966,1.248,7.637,1.248C581.017,148.09,591.762,137.345,591.762,124.09z"/>
	<path fill="#FEC629" d="M593.123,116.115c-0.879,2.496-1.361,5.178-1.361,7.975c0,13.255,10.745,24,24,24
		c2.916,0,5.71-0.521,8.295-1.473C623.302,129.969,609.827,116.646,593.123,116.115z"/>
</g>
<path d="M603.907,134.771"/>
<path d="M604.168,134.69"/>
<path fill="#F0976B" d="M986,116.09c-17.674,0-32,14.326-32,32v144c0,17.673,14.326,32,32,32c17.673,0,32-14.327,32-32v-144
	C1018,130.416,1003.673,116.09,986,116.09z"/>
<polygon fill="#EC4346" points="986.187,177.67 982.122,177.67 984.155,168.122 986.187,158.467 988.217,168.067 990.246,177.67 "/>
<path fill="#F0976B" d="M986.211,136.135c9.129,0,17.365-3.813,23.212-9.937c-4.146-4.415-9.523-7.653-15.591-9.161
	c-1.839-0.135-3.635-0.42-5.374-0.852c-0.781-0.057-1.567-0.096-2.364-0.096c-9.141,0-17.378,3.838-23.209,9.982
	C968.739,132.267,977.021,136.135,986.211,136.135z"/>
<path d="M996.211,117.135c-0.802,0-1.593-0.039-2.379-0.098c-1.738-0.432-3.534-0.717-5.373-0.852
	c-0.782-0.057-1.568-0.096-2.365-0.096c-9.141,0-17.378,3.838-23.209,9.982c5.854,6.193,14.136,10.062,23.326,10.062
	c9.129,0,17.365-3.813,23.212-9.937c4.509-4.722,7.596-10.815,8.569-17.594C1012.269,113.897,1004.618,117.135,996.211,117.135z"/>
<g>
	<path d="M966.66,179.522c0,0,12.927,7.566,18.334,2.619c1.065-0.975,1.065-2.1,1.065-2.1s0.024-1.062-1.14-1.626
		c-1.326-0.642-3.617-0.545-6.325,2.175c-0.927,0.93-2.216,1.729-5.14,1.051C971.723,181.24,966.66,179.522,966.66,179.522z"/>
	<path d="M1005.459,179.522c0,0-12.927,7.566-18.334,2.619c-1.065-0.975-1.065-2.1-1.065-2.1s-0.024-1.062,1.14-1.626
		c1.326-0.642,3.617-0.545,6.325,2.175c0.926,0.93,2.216,1.729,5.139,1.051C1000.397,181.24,1005.459,179.522,1005.459,179.522z"/>
</g>
<g>
	<g>
		<g>
			<defs>
				<path id="SVGID_1_" d="M986,324.563c17.673,0,32-14.615,32-32.642V178.694c0,18.027-14.327,32.643-32,32.643
					s-32-14.613-32-32.643v113.228C954,309.948,968.327,324.563,986,324.563z"/>
			</defs>
			<clipPath id="SVGID_2_">
				<use xlink:href="#SVGID_1_"  overflow="visible"/>
			</clipPath>
			<rect x="904.5" y="137.847" clip-path="url(#SVGID_2_)" fill="#FFFFFF" width="161.5" height="200.952"/>
		</g>
	</g>
	<g>
		<g>
			<defs>
				<path id="SVGID_3_" d="M986,324.563c17.673,0,32-14.615,32-32.642V178.694c0,18.027-14.327,32.643-32,32.643
					s-32-14.613-32-32.643v113.228C954,309.948,968.327,324.563,986,324.563z"/>
			</defs>
			<clipPath id="SVGID_4_">
				<use xlink:href="#SVGID_3_"  overflow="visible"/>
			</clipPath>
			<rect x="947.5" y="261.275" clip-path="url(#SVGID_4_)" fill="#2FA1BE" width="74.5" height="16.32"/>
		</g>
	</g>
	<g>
		<g>
			<defs>
				<path id="SVGID_5_" d="M986,324.563c17.673,0,32-14.615,32-32.642V178.694c0,18.027-14.327,32.643-32,32.643
					s-32-14.613-32-32.643v113.228C954,309.948,968.327,324.563,986,324.563z"/>
			</defs>
			<clipPath id="SVGID_6_">
				<use xlink:href="#SVGID_5_"  overflow="visible"/>
			</clipPath>
			<rect x="947.5" y="229.142" clip-path="url(#SVGID_6_)" fill="#2FA1BE" width="74.5" height="16.321"/>
		</g>
	</g>
	<g>
		<g>
			<defs>
				<path id="SVGID_7_" d="M986,324.563c17.673,0,32-14.615,32-32.642V178.694c0,18.027-14.327,32.643-32,32.643
					s-32-14.613-32-32.643v113.228C954,309.948,968.327,324.563,986,324.563z"/>
			</defs>
			<clipPath id="SVGID_8_">
				<use xlink:href="#SVGID_7_"  overflow="visible"/>
			</clipPath>
			<rect x="947.5" y="196.5" clip-path="url(#SVGID_8_)" fill="#2FA1BE" width="74.5" height="16.321"/>
		</g>
	</g>
</g>
</svg>
