<?xml version="1.0" encoding="utf-8"?>
<!-- Generator: Adobe Illustrator 16.0.0, SVG Export Plug-In . SVG Version: 6.00 Build 0)  -->
<!DOCTYPE svg PUBLIC "-//W3C//DTD SVG 1.1//EN" "http://www.w3.org/Graphics/SVG/1.1/DTD/svg11.dtd">
<svg version="1.1" id="Capa_1" xmlns="http://www.w3.org/2000/svg" xmlns:xlink="http://www.w3.org/1999/xlink" x="0px" y="0px"
	 width="1184.887px" height="243.76px" viewBox="0 0 1184.887 243.76" enable-background="new 0 0 1184.887 243.76"
	 xml:space="preserve">
<pattern  x="-3967" y="-3263.33" width="114" height="20" patternUnits="userSpaceOnUse" id="Nueva_muestra_de_motivo_4" viewBox="0 -20 114 20" overflow="visible">
	<g>
		<polygon fill="none" points="0,0 114,0 114,-20 0,-20 		"/>
		<polygon fill="#FFFFFF" points="114,0 0,0 0,-10 114,-10 		"/>
		<polygon fill="#2FA1BE" points="114,-10 0,-10 0,-20 114,-20 		"/>
	</g>
</pattern>
<path fill="#F0976B" d="M592,180.02c-17.674,0-32,14.326-32,32v144c0,17.673,14.326,32,32,32c17.672,0,32-14.327,32-32v-144
	C624,194.346,609.672,180.02,592,180.02z"/>
<path fill="#F0976B" d="M986,179.93c-17.673,0-32,14.326-32,32v144c0,17.673,14.327,32,32,32s32-14.327,32-32v-144
	C1018,194.256,1003.673,179.93,986,179.93z"/>
<polygon fill="#F0976B" points="1020,243.67 1020,390.67 1016,390.67 1016,392.67 1020,392.67 1020,399.67 1028,399.67 1028,243.67 
	"/>
<polygon fill="#F0976B" points="952,390.67 952,243.67 944,243.67 944,399.67 952,399.67 952,392.67 956,392.67 956,390.67 "/>
<polygon fill="#EC4346" points="986.196,241.67 982.133,241.67 984.165,232.042 986.196,222.347 988.227,232.008 990.257,241.67 "/>
<path fill="#F0976B" d="M986.221,199.975c9.129,0,17.366-3.814,23.212-9.937c-4.145-4.415-9.523-7.653-15.59-9.161
	c-1.839-0.135-3.635-0.42-5.374-0.852c-0.783-0.057-1.568-0.096-2.365-0.096c-9.14,0-17.378,3.838-23.209,9.982
	C968.749,196.105,977.03,199.975,986.221,199.975z"/>
<path d="M996.221,180.975c-0.801,0-1.592-0.039-2.378-0.098c-1.739-0.432-3.535-0.717-5.374-0.852
	c-0.783-0.057-1.568-0.096-2.365-0.096c-9.14,0-17.378,3.838-23.209,9.982c5.854,6.193,14.136,10.062,23.326,10.062
	c9.129,0,17.366-3.814,23.212-9.937c4.509-4.722,7.596-10.815,8.569-17.594C1012.278,177.737,1004.629,180.975,996.221,180.975z"/>
<g>
	<path d="M966.671,243.363c0,0,12.926,7.566,18.334,2.619c1.065-0.975,1.065-2.1,1.065-2.1s0.024-1.063-1.14-1.626
		c-1.326-0.641-3.617-0.545-6.325,2.175c-0.926,0.93-2.216,1.729-5.139,1.051C971.732,245.08,966.671,243.363,966.671,243.363z"/>
	<path d="M1005.469,243.363c0,0-12.926,7.566-18.334,2.619c-1.066-0.975-1.066-2.1-1.066-2.1s-0.023-1.063,1.141-1.626
		c1.326-0.641,3.617-0.545,6.325,2.175c0.926,0.93,2.216,1.729,5.139,1.051C1000.407,245.08,1005.469,243.363,1005.469,243.363z"/>
</g>
<pattern  id="SVGID_1_" xlink:href="#Nueva_muestra_de_motivo_4" patternTransform="matrix(1.5791 0 0 1.5791 1855.8481 2365.9438)">
</pattern>
<path fill="url(#SVGID_1_)" d="M986,274.93c-17.673,0-32-14.327-32-32v113c0,17.673,14.327,32,32,32s32-14.327,32-32v-113
	C1018,260.603,1003.673,274.93,986,274.93z"/>
<polygon fill="#EC4346" points="592.196,241.67 588.133,241.67 590.165,232.042 592.196,222.347 594.227,232.008 596.257,241.67 "/>
<polygon fill="#FEC629" points="592.1,163.67 600.166,163.67 596.133,171.849 592.1,179.89 588.07,171.781 584.041,163.67 "/>
<path fill="#FEC629" d="M560.104,211.67h7.668c-2.671,0-5.236-0.443-7.637-1.248C560.119,210.836,560.104,211.67,560.104,211.67z"/>
<path fill="#FEC629" d="M624.104,211.67c0,0-0.015-0.984-0.037-1.473c-2.585,0.951-5.379,1.473-8.295,1.473H624.104z"/>
<g>
	<path fill="#FEC629" d="M593.133,179.955c-0.342-0.01-0.684-0.025-1.029-0.025c-0.566,0-1.129,0.016-1.688,0.045
		c0.874,2.49,1.355,5.166,1.355,7.955C591.771,185.133,592.255,182.451,593.133,179.955z"/>
	<path fill="#FEC629" d="M591.771,187.93c0-2.789-0.481-5.465-1.355-7.955c-16.476,0.855-29.646,14.174-30.281,30.707
		c2.4,0.805,4.966,1.248,7.637,1.248C581.026,211.93,591.771,201.185,591.771,187.93z"/>
	<path fill="#FEC629" d="M593.133,179.955c-0.878,2.496-1.361,5.178-1.361,7.975c0,13.255,10.745,24,24,24
		c2.916,0,5.71-0.521,8.295-1.473C623.312,193.809,609.838,180.485,593.133,179.955z"/>
</g>
<g>
	<g>
		<path fill="#F0976B" d="M198,180.02c-17.674,0-32,14.326-32,32v144c0,17.673,14.326,32,32,32c17.672,0,32-14.327,32-32v-144
			C230,194.346,215.672,180.02,198,180.02z"/>
		<polygon fill="#F0976B" points="232,243.67 232,390.67 228,390.67 228,392.67 232,392.67 232,399.67 240,399.67 240,243.67 		"/>
		<polygon fill="#F0976B" points="164,390.67 164,243.67 156,243.67 156,399.67 164,399.67 164,392.67 168,392.67 168,390.67 		"/>
		<polygon fill="#EC4346" points="197.918,241.67 193.855,241.67 195.887,232.087 197.918,222.413 199.949,232.041 201.979,241.67 
					"/>
		<path d="M209.918,198.611"/>
		<path fill="#FEC629" d="M198,275.02c-17.674,0-32-14.327-32-32v113c0,17.673,14.326,32,32,32c17.672,0,32-14.327,32-32v-113
			C230,260.692,215.672,275.02,198,275.02z"/>
		<path d="M197.826,179.67c-17.674,0-32,14-32,32h40.029l2.029-5.794l2.027-5.883l2.027,5.837l2.025,5.84h15.861
			C229.826,193.67,215.498,179.67,197.826,179.67z"/>
		<circle cx="197.826" cy="172.02" r="8"/>
	</g>
</g>
<polygon fill="#F0976B" points="626,243.67 626,390.67 622,390.67 622,392.67 626,392.67 626,399.67 634,399.67 634,243.67 "/>
<polygon fill="#F0976B" points="558,390.67 558,243.67 550,243.67 550,399.67 558,399.67 558,392.67 562,392.67 562,390.67 "/>
<path d="M603.918,198.611"/>
<path fill="#A4CB57" d="M592,275.02c-17.674,0-32-14.327-32-32v113c0,17.673,14.326,32,32,32c17.672,0,32-14.327,32-32v-113
	C624,260.692,609.672,275.02,592,275.02z"/>
</svg>
