<?xml version="1.0" encoding="utf-8"?>
<!-- Generator: Adobe Illustrator 16.0.0, SVG Export Plug-In . SVG Version: 6.00 Build 0)  -->
<!DOCTYPE svg PUBLIC "-//W3C//DTD SVG 1.1//EN" "http://www.w3.org/Graphics/SVG/1.1/DTD/svg11.dtd">
<svg version="1.1" id="Capa_1" xmlns="http://www.w3.org/2000/svg" xmlns:xlink="http://www.w3.org/1999/xlink" x="0px" y="0px"
	 width="1183.887px" height="243.76px" viewBox="0 0 1183.887 243.76" enable-background="new 0 0 1183.887 243.76"
	 xml:space="preserve">
<g>
	<path fill="#F0976B" d="M320.521,225.38c0.809-2,1.643-3.242,2.531-4.889l-7.039-3.77c-21.463,39.746-20.336,81.062-15.611,108.713
		c5.104,29.865,15.129,50.149,15.553,50.998l7.157-3.571c-0.099-0.199-9.988-20.31-14.866-49.069
		c-4.193-24.727-5.381-61.412,11.303-96.412h3.338v-2H320.521z"/>
</g>
<path fill="#F0976B" d="M556.521,225.38c0.809-2,1.643-3.242,2.531-4.889l-7.039-3.77c-21.463,39.746-20.336,81.062-15.611,108.713
	c5.104,29.865,15.129,50.149,15.553,50.998l7.157-3.571c-0.099-0.199-9.988-20.31-14.866-49.069
	c-4.193-24.727-5.381-61.412,11.303-96.412h3.338v-2H556.521z"/>
<path fill="#F0976B" d="M792.521,225.38c0.809-2,1.643-3.242,2.531-4.889l-7.039-3.77c-21.463,39.746-20.336,81.062-15.611,108.713
	c5.104,29.865,15.129,50.149,15.553,50.998l7.157-3.571c-0.099-0.199-9.988-20.31-14.866-49.069
	c-4.193-24.727-5.381-61.412,11.303-96.412h3.338v-2H792.521z"/>
</svg>
