<?xml version="1.0" encoding="utf-8"?>
<!-- Generator: Adobe Illustrator 16.0.0, SVG Export Plug-In . SVG Version: 6.00 Build 0)  -->
<!DOCTYPE svg PUBLIC "-//W3C//DTD SVG 1.1//EN" "http://www.w3.org/Graphics/SVG/1.1/DTD/svg11.dtd">
<svg version="1.1" id="Capa_1" xmlns="http://www.w3.org/2000/svg" xmlns:xlink="http://www.w3.org/1999/xlink" x="0px" y="0px"
	 width="1181.887px" height="243.76px" viewBox="0 0 1181.887 243.76" enable-background="new 0 0 1181.887 243.76"
	 xml:space="preserve">
<pattern  x="-6392.113" y="-1151.12" width="114" height="20" patternUnits="userSpaceOnUse" id="Nueva_muestra_de_motivo_4" viewBox="0 -20 114 20" overflow="visible">
	<g>
		<polygon fill="none" points="0,0 114,0 114,-20 0,-20 		"/>
		<polygon fill="#FFFFFF" points="114,0 0,0 0,-10 114,-10 		"/>
		<polygon fill="#2FA1BE" points="114,-10 0,-10 0,-20 114,-20 		"/>
	</g>
</pattern>
<path fill="#F0976B" d="M828.887,117.869c-17.673,0-32,14.326-32,32v144c0,17.673,14.327,32,32,32s32-14.327,32-32v-144
	C860.887,132.195,846.56,117.869,828.887,117.869z"/>
<g>
	<path fill="#F0976B" d="M320.195,33.88c0.809-2,1.643-3.172,2.531-4.818l-7.039-3.737c-21.463,39.746-20.336,81.081-15.611,108.731
		c5.104,29.865,15.129,50.158,15.553,51.006l7.156-3.568c-0.099-0.199-9.987-20.375-14.865-49.136
		c-4.193-24.727-5.381-61.478,11.303-96.478h3.664v-2H320.195z"/>
	<g>
		<polygon fill="#F0976B" points="390.887,180.88 537.887,180.88 537.887,176.88 539.887,176.88 539.887,180.88 546.887,180.88 
			546.887,188.88 390.887,188.88 		"/>
	</g>
	<path fill="#F0976B" d="M356.887,118.129c-17.674,0-32,14.326-32,32v144c0,17.673,14.326,32,32,32c17.672,0,32-14.327,32-32v-144
		C388.887,132.455,374.559,118.129,356.887,118.129z"/>
	<path d="M369.541,136.721"/>
	<path fill="#FEC629" d="M356.887,213.129c-17.674,0-32-14.327-32-32v113c0,17.673,14.326,32,32,32c17.672,0,32-14.327,32-32v-113
		C388.887,198.802,374.559,213.129,356.887,213.129z"/>
	<circle cx="355.948" cy="110.129" r="8"/>
	<path d="M356.887,117.869c-17.673,0-32,14.326-32,32v31.011h64v-31.011C388.887,132.195,374.56,117.869,356.887,117.869z"/>
</g>
<path fill="#F0976B" d="M556.195,33.88c0.809-2,1.643-3.172,2.531-4.818l-7.039-3.737c-21.463,39.746-20.336,81.081-15.611,108.731
	c5.104,29.865,15.129,50.158,15.553,51.006l7.156-3.568c-0.099-0.199-9.987-20.375-14.865-49.136
	c-4.193-24.727-5.381-61.478,11.303-96.478h3.664v-2H556.195z"/>
<g>
	<polygon fill="#F0976B" points="626.887,180.88 773.887,180.88 773.887,176.88 775.887,176.88 775.887,180.88 782.887,180.88 
		782.887,188.88 626.887,188.88 	"/>
</g>
<path fill="#F0976B" d="M592.887,118.129c-17.674,0-32,14.326-32,32v144c0,17.673,14.326,32,32,32c17.672,0,32-14.327,32-32v-144
	C624.887,132.455,610.559,118.129,592.887,118.129z"/>
<path d="M605.541,136.721"/>
<path fill="#A4CB57" d="M592.887,213.129c-17.674,0-32-14.327-32-32v113c0,17.673,14.326,32,32,32c17.672,0,32-14.327,32-32v-113
	C624.887,198.802,610.559,213.129,592.887,213.129z"/>
<path fill="#FEC629" d="M592.887,117.869c-17.673,0-32,14.326-32,32v31.011h64v-31.011
	C624.887,132.195,610.56,117.869,592.887,117.869z"/>
<path fill="#F0976B" d="M792.195,33.88c0.809-2,1.643-3.172,2.531-4.818l-7.039-3.737c-21.463,39.746-20.336,81.081-15.611,108.731
	c5.104,29.865,15.129,50.158,15.553,51.006l7.156-3.568c-0.099-0.199-9.987-20.375-14.865-49.136
	c-4.193-24.727-5.381-61.478,11.303-96.478h3.664v-2H792.195z"/>
<g>
	<polygon fill="#F0976B" points="862.887,180.88 1009.887,180.88 1009.887,176.88 1011.887,176.88 1011.887,180.88 1018.887,180.88 
		1018.887,188.88 862.887,188.88 	"/>
</g>
<path d="M841.541,136.721"/>
<path d="M828.887,117.869c-17.673,0-32,14.326-32,32v31.011h64v-31.011C860.887,132.195,846.56,117.869,828.887,117.869z"/>
<polygon fill="#FEC629" points="592.443,100.88 600.51,100.88 596.477,109.423 592.443,117.646 588.414,109.264 584.385,100.88 "/>
<path d="M604.262,136.551"/>
<path d="M604.521,136.471"/>
<path fill="#F0976B" d="M828.564,137.914c9.129,0,17.366-3.814,23.212-9.937c-4.146-4.415-9.523-7.653-15.59-9.161
	c-1.839-0.135-3.634-0.42-5.374-0.852c-0.781-0.057-1.568-0.096-2.365-0.096c-9.141,0-17.379,3.838-23.209,9.982
	C811.093,134.045,819.373,137.914,828.564,137.914z"/>
<path d="M838.564,118.914c-0.801,0-1.592-0.039-2.378-0.098c-1.739-0.432-3.535-0.717-5.374-0.852
	c-0.781-0.057-1.568-0.096-2.365-0.096c-9.141,0-17.379,3.838-23.209,9.982c5.854,6.193,14.135,10.062,23.326,10.062
	c9.129,0,17.366-3.814,23.212-9.937c4.509-4.722,7.596-10.815,8.57-17.594C854.621,115.677,846.973,118.914,838.564,118.914z"/>
<pattern  id="SVGID_1_" xlink:href="#Nueva_muestra_de_motivo_4" patternTransform="matrix(1.5791 0 0 1.5791 -521.4797 3657.2471)">
</pattern>
<path fill="url(#SVGID_1_)" d="M828.887,212.869c-17.673,0-32-14.327-32-32v113c0,17.673,14.327,32,32,32s32-14.327,32-32v-113
	C860.887,198.542,846.56,212.869,828.887,212.869z"/>
</svg>
