<?xml version="1.0" encoding="utf-8"?>
<!-- Generator: Adobe Illustrator 16.0.0, SVG Export Plug-In . SVG Version: 6.00 Build 0)  -->
<!DOCTYPE svg PUBLIC "-//W3C//DTD SVG 1.1//EN" "http://www.w3.org/Graphics/SVG/1.1/DTD/svg11.dtd">
<svg version="1.1" id="Capa_1" xmlns="http://www.w3.org/2000/svg" xmlns:xlink="http://www.w3.org/1999/xlink" x="0px" y="0px"
	 width="1183.887px" height="243.76px" viewBox="0 0 1183.887 243.76" enable-background="new 0 0 1183.887 243.76"
	 xml:space="preserve">
<g>
	<path fill="#F0976B" d="M320.521,96.6c0.809-2,1.643-3.031,2.531-4.678l-7.039-3.667c-21.463,39.746-20.336,81.115-15.611,108.766
		c5.104,29.865,15.129,50.176,15.553,51.024l7.157-3.559c-0.1-0.199-9.988-20.513-14.866-49.272
		c-4.193-24.727-5.381-61.614,11.303-96.614H323v-2H320.521z"/>
	<g>
		<polygon fill="#F0976B" points="391,243.6 538,243.6 538,239.6 540,239.6 540,243.6 547,243.6 547,251.6 391,251.6 		"/>
	</g>
	<path fill="#F0976B" d="M357,181.13c-17.674,0-32,14.326-32,32v144c0,17.673,14.326,32,32,32c17.672,0,32-14.327,32-32v-144
		C389,195.456,374.672,181.13,357,181.13z"/>
	<polygon fill="#EC4346" points="357.867,241.6 353.805,241.6 355.836,232.607 357.867,223.228 359.898,232.412 361.928,241.6 	"/>
	<path d="M369.867,199.722"/>
	<path d="M356.775,179.6c-17.674,0-32,14-32,32h40.029l2.029-5.203l2.027-5.591l2.027,5.396l2.025,5.398h15.861
		C388.775,193.6,374.447,179.6,356.775,179.6z"/>
	<circle cx="356.775" cy="173.13" r="8"/>
</g>
<path fill="#F0976B" d="M556.521,96.6c0.809-2,1.643-3.031,2.531-4.678l-7.039-3.667c-21.463,39.746-20.336,81.115-15.611,108.766
	c5.104,29.865,15.129,50.176,15.553,51.024l7.157-3.559c-0.1-0.199-9.988-20.513-14.866-49.272
	c-4.193-24.727-5.381-61.614,11.303-96.614H559v-2H556.521z"/>
<g>
	<polygon fill="#F0976B" points="627,243.6 774,243.6 774,239.6 776,239.6 776,243.6 783,243.6 783,251.6 627,251.6 	"/>
</g>
<path fill="#F0976B" d="M593,181.13c-17.674,0-32,14.326-32,32v144c0,17.673,14.326,32,32,32c17.672,0,32-14.327,32-32v-144
	C625,195.456,610.672,181.13,593,181.13z"/>
<polygon fill="#EC4346" points="593.867,241.6 589.805,241.6 591.836,232.607 593.867,223.228 595.898,232.412 597.928,241.6 "/>
<path d="M605.867,199.722"/>
<path fill="#F0976B" d="M792.521,96.6c0.809-2,1.643-3.031,2.531-4.678l-7.039-3.667c-21.463,39.746-20.336,81.115-15.611,108.766
	c5.104,29.865,15.129,50.176,15.553,51.024l7.157-3.559c-0.1-0.199-9.988-20.513-14.866-49.272
	c-4.193-24.727-5.381-61.614,11.303-96.614H795v-2H792.521z"/>
<g>
	<polygon fill="#F0976B" points="863,243.6 1010,243.6 1010,239.6 1012,239.6 1012,243.6 1019,243.6 1019,251.6 863,251.6 	"/>
</g>
<polygon fill="#FEC629" points="592.77,163.6 600.836,163.6 596.803,172.238 592.77,180.509 588.74,172.055 584.711,163.6 "/>
<g>
	<path fill="#FEC629" d="M593.804,180.806c-0.343-0.01-0.685-0.025-1.03-0.025c-0.566,0-1.129,0.016-1.688,0.045
		c0.874,2.49,1.355,5.166,1.355,7.955C592.441,185.983,592.925,183.302,593.804,180.806z"/>
	<path fill="#FEC629" d="M592.441,188.78c0-2.789-0.481-5.465-1.355-7.955c-16.476,0.855-29.646,14.174-30.281,30.707
		c2.4,0.805,4.966,1.248,7.637,1.248C581.696,212.78,592.441,202.035,592.441,188.78z"/>
	<path fill="#FEC629" d="M593.804,180.806c-0.879,2.496-1.362,5.178-1.362,7.975c0,13.255,10.745,24,24,24
		c2.916,0,5.71-0.521,8.295-1.473C623.981,194.659,610.508,181.336,593.804,180.806z"/>
</g>
<path d="M604.588,198.462"/>
<path d="M604.848,198.382"/>
<path fill="#F0976B" d="M829,180.78c-17.673,0-32,14.326-32,32v144c0,17.673,14.327,32,32,32s32-14.327,32-32v-144
	C861,195.106,846.673,180.78,829,180.78z"/>
<polygon fill="#EC4346" points="828.866,241.6 824.803,241.6 826.835,232.432 828.866,222.966 830.896,232.281 832.927,241.6 "/>
<path d="M838.891,181.825c-0.801,0-1.592-0.039-2.378-0.098c-1.739-0.432-3.535-0.717-5.374-0.852
	c-0.782-0.057-1.568-0.096-2.365-0.096c-9.14,0-17.378,3.838-23.209,9.982c5.854,6.193,14.136,10.062,23.326,10.062
	c9.129,0,17.366-3.814,23.212-9.937c4.509-4.722,7.596-10.815,8.57-17.594C854.948,178.588,847.299,181.825,838.891,181.825z"/>
<g>
	<path d="M809.341,244.214c0,0,12.926,7.566,18.334,2.619c1.065-0.975,1.065-2.1,1.065-2.1s0.024-1.063-1.14-1.626
		c-1.326-0.641-3.617-0.545-6.325,2.175c-0.926,0.93-2.216,1.729-5.139,1.051C814.402,245.931,809.341,244.214,809.341,244.214z"/>
	<path d="M848.139,244.214c0,0-12.926,7.566-18.334,2.619c-1.065-0.975-1.065-2.1-1.065-2.1s-0.024-1.063,1.14-1.626
		c1.326-0.641,3.617-0.545,6.325,2.175c0.926,0.93,2.216,1.729,5.139,1.051C843.077,245.931,848.139,244.214,848.139,244.214z"/>
</g>
</svg>
