<?xml version="1.0" encoding="utf-8"?>
<!-- Generator: Adobe Illustrator 16.0.0, SVG Export Plug-In . SVG Version: 6.00 Build 0)  -->
<!DOCTYPE svg PUBLIC "-//W3C//DTD SVG 1.1//EN" "http://www.w3.org/Graphics/SVG/1.1/DTD/svg11.dtd">
<svg version="1.1" id="Capa_1" xmlns="http://www.w3.org/2000/svg" xmlns:xlink="http://www.w3.org/1999/xlink" x="0px" y="0px"
	 width="1184.887px" height="243.76px" viewBox="0 0 1184.887 243.76" enable-background="new 0 0 1184.887 243.76"
	 xml:space="preserve">
<path fill="#F0976B" d="M592,212.638c-17.674,0-32,14.326-32,32v144c0,17.673,14.326,32,32,32c17.672,0,32-14.327,32-32v-144
	C624,226.964,609.672,212.638,592,212.638z"/>
<path fill="#F0976B" d="M986,212.548c-17.673,0-32,14.326-32,32v144c0,17.673,14.327,32,32,32s32-14.327,32-32v-144
	C1018,226.874,1003.673,212.548,986,212.548z"/>
<path fill="#F0976B" d="M986.025,232.593c9.129,0,17.366-3.814,23.211-9.937c-4.144-4.415-9.522-7.653-15.589-9.161
	c-1.839-0.135-3.635-0.42-5.374-0.852c-0.782-0.057-1.568-0.096-2.365-0.096c-9.14,0-17.378,3.838-23.209,9.982
	C968.553,228.724,976.836,232.593,986.025,232.593z"/>
<path d="M996.025,213.593c-0.801,0-1.592-0.039-2.378-0.098c-1.739-0.432-3.535-0.717-5.374-0.852
	c-0.782-0.057-1.568-0.096-2.365-0.096c-9.14,0-17.378,3.838-23.209,9.982c5.854,6.193,14.137,10.062,23.326,10.062
	c9.129,0,17.366-3.814,23.211-9.937c4.51-4.722,7.598-10.815,8.571-17.594C1012.084,210.355,1004.434,213.593,996.025,213.593z"/>
<polygon fill="#FEC629" points="591.904,195.67 599.971,195.67 595.938,204.157 591.904,212.354 587.875,204.013 583.846,195.67 "/>
<path fill="#FEC629" d="M559.908,243.67h7.668c-2.671,0-5.236-0.443-7.637-1.248C559.924,242.836,559.908,243.67,559.908,243.67z"/>
<path fill="#FEC629" d="M623.908,243.67c0,0-0.015-0.984-0.037-1.473c-2.586,0.951-5.379,1.473-8.295,1.473H623.908z"/>
<g>
	<path fill="#FEC629" d="M592.938,212.573c-0.343-0.01-0.685-0.025-1.03-0.025c-0.566,0-1.129,0.016-1.688,0.045
		c0.874,2.49,1.355,5.166,1.355,7.955C591.576,217.751,592.06,215.069,592.938,212.573z"/>
	<path fill="#FEC629" d="M591.576,220.548c0-2.789-0.481-5.465-1.355-7.955c-16.476,0.855-29.646,14.174-30.281,30.707
		c2.4,0.805,4.966,1.248,7.637,1.248C580.831,244.548,591.576,233.803,591.576,220.548z"/>
	<path fill="#FEC629" d="M592.938,212.573c-0.879,2.496-1.362,5.178-1.362,7.975c0,13.255,10.745,24,24,24
		c2.916,0,5.709-0.521,8.295-1.473C623.115,226.427,609.643,213.104,592.938,212.573z"/>
</g>
<g>
	<g>
		<path fill="#F0976B" d="M198,212.638c-17.674,0-32,14.326-32,32v144c0,17.673,14.326,32,32,32c17.672,0,32-14.327,32-32v-144
			C230,226.964,215.672,212.638,198,212.638z"/>
		<path d="M209.723,231.229"/>
		<path d="M197.631,211.67c-17.674,0-32,14-32,32h40.029l2.029-5.485l2.027-5.728l2.027,5.604l2.025,5.608h15.861
			C229.631,225.67,215.303,211.67,197.631,211.67z"/>
		<circle cx="197.631" cy="204.638" r="8"/>
	</g>
</g>
<path d="M603.723,231.229"/>
</svg>
