<?xml version="1.0" encoding="utf-8"?>
<!-- Generator: Adobe Illustrator 16.0.0, SVG Export Plug-In . SVG Version: 6.00 Build 0)  -->
<!DOCTYPE svg PUBLIC "-//W3C//DTD SVG 1.1//EN" "http://www.w3.org/Graphics/SVG/1.1/DTD/svg11.dtd">
<svg version="1.1" id="Capa_1" xmlns="http://www.w3.org/2000/svg" xmlns:xlink="http://www.w3.org/1999/xlink" x="0px" y="0px"
	 width="1183.887px" height="243.76px" viewBox="0 0 1183.887 243.76" enable-background="new 0 0 1183.887 243.76"
	 xml:space="preserve">
<g>
	<path fill="#F0976B" d="M319.752,33.38c0.809-2,1.643-3.662,2.531-5.309l-7.039-3.981c-21.464,39.746-20.336,80.957-15.611,108.606
		c5.104,29.865,15.129,50.098,15.553,50.945l7.157-3.598c-0.1-0.199-9.988-19.9-14.866-48.661
		c-4.192-24.727-5.381-61.004,11.304-96.004H322v-2L319.752,33.38L319.752,33.38z"/>
	<g>
		<polygon fill="#F0976B" points="390,180.38 537,180.38 537,176.38 539,176.38 539,180.38 546,180.38 546,188.38 390,188.38 		"/>
	</g>
	<path fill="#F0976B" d="M356,116.648c-17.674,0-32,14.326-32,32v144c0,17.674,14.326,32.001,32,32.001
		c17.672,0,32-14.327,32-32.001v-144C388,130.976,373.672,116.648,356,116.648z"/>
	<polygon fill="#EC4346" points="357.098,178.38 353.035,178.38 355.066,168.757 357.098,159.062 359.129,168.722 361.158,178.38 	
		"/>
	<path d="M369.098,135.24"/>
	<path fill="#FEC629" d="M356,211.647c-17.674,0-32-14.326-32-32v113c0,17.674,14.326,32.001,32,32.001
		c17.672,0,32-14.327,32-32.001v-113C388,197.321,373.672,211.647,356,211.647z"/>
	<path d="M356.006,116.38c-17.674,0-32,14-32,32h40.029l2.028-5.834l2.027-5.904l2.027,5.868l2.024,5.87h15.861
		C388.006,130.38,373.678,116.38,356.006,116.38z"/>
	<circle cx="356.006" cy="108.648" r="8"/>
</g>
<path fill="#F0976B" d="M555.752,33.38c0.809-2,1.643-3.662,2.53-5.309l-7.039-3.981c-21.463,39.746-20.336,80.957-15.61,108.606
	c5.104,29.865,15.129,50.098,15.553,50.945l7.157-3.598c-0.101-0.199-9.988-19.9-14.866-48.661
	c-4.193-24.727-5.381-61.004,11.303-96.004H558v-2L555.752,33.38L555.752,33.38z"/>
<g>
	<polygon fill="#F0976B" points="626,180.38 773,180.38 773,176.38 775,176.38 775,180.38 782,180.38 782,188.38 626,188.38 	"/>
</g>
<path fill="#F0976B" d="M592,116.648c-17.675,0-32,14.326-32,32v144c0,17.674,14.325,32.001,32,32.001c17.672,0,32-14.327,32-32.001
	v-144C624,130.976,609.672,116.648,592,116.648z"/>
<polygon fill="#EC4346" points="593.098,178.38 589.034,178.38 591.066,168.757 593.098,159.062 595.129,168.722 597.157,178.38 "/>
<path d="M605.098,135.24"/>
<path fill="#A4CB57" d="M592,211.647c-17.675,0-32-14.326-32-32v113c0,17.674,14.325,32.001,32,32.001c17.672,0,32-14.327,32-32.001
	v-113C624,197.321,609.672,211.647,592,211.647z"/>
<path fill="#F0976B" d="M791.752,33.38c0.809-2,1.643-3.662,2.53-5.309l-7.039-3.981c-21.463,39.746-20.336,80.957-15.61,108.606
	c5.104,29.865,15.129,50.098,15.553,50.945l7.157-3.598c-0.101-0.199-9.988-19.9-14.866-48.661
	c-4.193-24.727-5.381-61.004,11.303-96.004H794v-2L791.752,33.38L791.752,33.38z"/>
<g>
	<polygon fill="#F0976B" points="862,180.38 1009,180.38 1009,176.38 1011,176.38 1011,180.38 1018,180.38 1018,188.38 862,188.38 	
		"/>
</g>
<polygon fill="#FEC629" points="592,100.38 600.066,100.38 596.032,108.388 592,116.344 587.971,108.363 583.941,100.38 "/>
<g>
	<path fill="#FEC629" d="M593.033,116.324c-0.343-0.01-0.685-0.025-1.029-0.025c-0.566,0-1.13,0.016-1.688,0.045
		c0.874,2.49,1.355,5.166,1.355,7.955C591.672,121.502,592.155,118.82,593.033,116.324z"/>
	<path fill="#FEC629" d="M591.672,124.299c0-2.789-0.481-5.465-1.355-7.955c-16.476,0.855-29.646,14.175-30.281,30.707
		c2.4,0.806,4.967,1.248,7.638,1.248C580.927,148.299,591.672,137.554,591.672,124.299z"/>
	<path fill="#FEC629" d="M593.033,116.324c-0.879,2.496-1.361,5.178-1.361,7.975c0,13.255,10.744,24,24,24
		c2.916,0,5.709-0.521,8.295-1.473C623.212,130.179,609.738,116.854,593.033,116.324z"/>
</g>
<path d="M603.818,133.979"/>
<path d="M604.077,133.899"/>
<path fill="#F0976B" d="M828,116.299c-17.674,0-32,14.326-32,32v144c0,17.673,14.326,32,32,32c17.673,0,32-14.327,32-32v-144
	C860,130.625,845.673,116.299,828,116.299z"/>
<polygon fill="#EC4346" points="828.097,178.38 824.032,178.38 826.065,168.581 828.097,158.801 830.127,168.59 832.156,178.38 "/>
<path d="M838.12,117.344c-0.801,0-1.592-0.039-2.378-0.098c-1.738-0.432-3.535-0.717-5.374-0.852
	c-0.781-0.057-1.567-0.096-2.364-0.096c-9.141,0-17.377,3.838-23.209,9.982c5.854,6.193,14.136,10.062,23.325,10.062
	c9.13,0,17.366-3.813,23.212-9.937c4.51-4.722,7.597-10.815,8.57-17.594C854.179,114.106,846.529,117.344,838.12,117.344z"/>
<g>
	<path d="M808.571,179.731c0,0,12.926,7.566,18.334,2.619c1.065-0.975,1.065-2.1,1.065-2.1s0.023-1.062-1.141-1.626
		c-1.325-0.642-3.616-0.545-6.324,2.175c-0.927,0.93-2.217,1.729-5.14,1.051C813.633,181.449,808.571,179.731,808.571,179.731z"/>
	<path d="M847.368,179.731c0,0-12.926,7.566-18.334,2.619c-1.065-0.975-1.065-2.1-1.065-2.1s-0.023-1.062,1.141-1.626
		c1.326-0.642,3.617-0.545,6.324,2.175c0.927,0.93,2.217,1.729,5.14,1.051C842.308,181.449,847.368,179.731,847.368,179.731z"/>
</g>
<g>
	<g>
		<g>
			<defs>
				<path id="SVGID_1_" d="M828,324.563c17.673,0,32-14.615,32-32.642V178.694c0,18.027-14.327,32.643-32,32.643
					s-32-14.613-32-32.643v113.228C796,309.948,810.327,324.563,828,324.563z"/>
			</defs>
			<clipPath id="SVGID_2_">
				<use xlink:href="#SVGID_1_"  overflow="visible"/>
			</clipPath>
			<rect x="746.5" y="137.847" clip-path="url(#SVGID_2_)" fill="#FFFFFF" width="161.5" height="200.952"/>
		</g>
	</g>
	<g>
		<g>
			<defs>
				<path id="SVGID_3_" d="M828,324.563c17.673,0,32-14.615,32-32.642V178.694c0,18.027-14.327,32.643-32,32.643
					s-32-14.613-32-32.643v113.228C796,309.948,810.327,324.563,828,324.563z"/>
			</defs>
			<clipPath id="SVGID_4_">
				<use xlink:href="#SVGID_3_"  overflow="visible"/>
			</clipPath>
			<rect x="789.5" y="261.275" clip-path="url(#SVGID_4_)" fill="#2FA1BE" width="74.5" height="16.32"/>
		</g>
	</g>
	<g>
		<g>
			<defs>
				<path id="SVGID_5_" d="M828,324.563c17.673,0,32-14.615,32-32.642V178.694c0,18.027-14.327,32.643-32,32.643
					s-32-14.613-32-32.643v113.228C796,309.948,810.327,324.563,828,324.563z"/>
			</defs>
			<clipPath id="SVGID_6_">
				<use xlink:href="#SVGID_5_"  overflow="visible"/>
			</clipPath>
			<rect x="789.5" y="229.142" clip-path="url(#SVGID_6_)" fill="#2FA1BE" width="74.5" height="16.321"/>
		</g>
	</g>
	<g>
		<g>
			<defs>
				<path id="SVGID_7_" d="M828,324.563c17.673,0,32-14.615,32-32.642V178.694c0,18.027-14.327,32.643-32,32.643
					s-32-14.613-32-32.643v113.228C796,309.948,810.327,324.563,828,324.563z"/>
			</defs>
			<clipPath id="SVGID_8_">
				<use xlink:href="#SVGID_7_"  overflow="visible"/>
			</clipPath>
			<rect x="789.5" y="196.5" clip-path="url(#SVGID_8_)" fill="#2FA1BE" width="74.5" height="16.321"/>
		</g>
	</g>
</g>
</svg>
