<?xml version="1.0" encoding="utf-8"?>
<!-- Generator: Adobe Illustrator 16.0.0, SVG Export Plug-In . SVG Version: 6.00 Build 0)  -->
<!DOCTYPE svg PUBLIC "-//W3C//DTD SVG 1.1//EN" "http://www.w3.org/Graphics/SVG/1.1/DTD/svg11.dtd">
<svg version="1.1" id="Capa_1" xmlns="http://www.w3.org/2000/svg" xmlns:xlink="http://www.w3.org/1999/xlink" x="0px" y="0px"
	 width="1183.887px" height="243.76px" viewBox="0 0 1183.887 243.76" enable-background="new 0 0 1183.887 243.76"
	 xml:space="preserve">
<pattern  x="-1275" y="-1151.33" width="114" height="20" patternUnits="userSpaceOnUse" id="Nueva_muestra_de_motivo_4" viewBox="0 -20 114 20" overflow="visible">
	<g>
		<polygon fill="none" points="0,0 114,0 114,-20 0,-20 		"/>
		<polygon fill="#FFFFFF" points="114,0 0,0 0,-10 114,-10 		"/>
		<polygon fill="#2FA1BE" points="114,-10 0,-10 0,-20 114,-20 		"/>
	</g>
</pattern>
<g>
	<g>
		<path fill="#F0976B" d="M198,116.1c-17.674,0-32,14.326-32,32v144c0,17.673,14.326,32,32,32c17.672,0,32-14.327,32-32v-144
			C230,130.426,215.672,116.1,198,116.1z"/>
		<polygon fill="#F0976B" points="232,179.67 232,326.67 228,326.67 228,328.67 232,328.67 232,335.67 240,335.67 240,179.67 		"/>
		<polygon fill="#F0976B" points="164,326.67 164,179.67 156,179.67 156,335.67 164,335.67 164,328.67 168,328.67 168,326.67 		"/>
		<polygon fill="#EC4346" points="198.074,177.67 194.012,177.67 196.043,168.127 198.074,158.475 200.105,168.071 202.135,177.67 
					"/>
		<path d="M210.074,134.691"/>
		<path fill="#FEC629" d="M198,211.1c-17.674,0-32-14.327-32-32v113c0,17.673,14.326,32,32,32c17.672,0,32-14.327,32-32v-113
			C230,196.772,215.672,211.1,198,211.1z"/>
		<path d="M197.982,115.67c-17.674,0-32,14-32,32h40.029l2.029-5.754l2.027-5.863l2.027,5.808l2.025,5.81h15.861
			C229.982,129.67,215.654,115.67,197.982,115.67z"/>
		<circle cx="197.982" cy="108.1" r="8"/>
	</g>
</g>
<path fill="#F0976B" d="M592,116.1c-17.674,0-32,14.326-32,32v144c0,17.673,14.326,32,32,32c17.672,0,32-14.327,32-32v-144
	C624,130.426,609.672,116.1,592,116.1z"/>
<polygon fill="#F0976B" points="626,179.67 626,326.67 622,326.67 622,328.67 626,328.67 626,335.67 634,335.67 634,179.67 "/>
<polygon fill="#F0976B" points="558,326.67 558,179.67 550,179.67 550,335.67 558,335.67 558,328.67 562,328.67 562,326.67 "/>
<polygon fill="#EC4346" points="592.074,177.67 588.012,177.67 590.043,168.127 592.074,158.475 594.105,168.071 596.135,177.67 "/>
<path d="M604.074,134.691"/>
<path fill="#A4CB57" d="M592,211.1c-17.674,0-32-14.327-32-32v113c0,17.673,14.326,32,32,32c17.672,0,32-14.327,32-32v-113
	C624,196.772,609.672,211.1,592,211.1z"/>
<polygon fill="#FEC629" points="591.883,99.67 599.949,99.67 595.916,107.929 591.883,116.01 587.854,107.841 583.824,99.67 "/>
<g>
	<path fill="#FEC629" d="M592.917,116.115c-0.343-0.01-0.685-0.025-1.03-0.025c-0.566,0-1.129,0.016-1.688,0.045
		c0.874,2.49,1.355,5.166,1.355,7.955C591.555,121.293,592.038,118.611,592.917,116.115z"/>
	<path fill="#FEC629" d="M591.555,124.09c0-2.789-0.481-5.465-1.355-7.955c-16.476,0.855-29.646,14.174-30.281,30.707
		c2.4,0.805,4.966,1.248,7.637,1.248C580.81,148.09,591.555,137.345,591.555,124.09z"/>
	<path fill="#FEC629" d="M592.917,116.115c-0.879,2.496-1.362,5.178-1.362,7.975c0,13.255,10.745,24,24,24
		c2.916,0,5.71-0.521,8.295-1.473C623.095,129.969,609.621,116.646,592.917,116.115z"/>
</g>
<path d="M603.701,134.771"/>
<path d="M603.961,134.691"/>
<path fill="#F0976B" d="M986,116.09c-17.673,0-32,14.326-32,32v144c0,17.673,14.327,32,32,32s32-14.327,32-32v-144
	C1018,130.416,1003.673,116.09,986,116.09z"/>
<polygon fill="#F0976B" points="1020,179.67 1020,326.67 1016,326.67 1016,328.67 1020,328.67 1020,335.67 1028,335.67 1028,179.67 
	"/>
<polygon fill="#F0976B" points="952,326.67 952,179.67 944,179.67 944,335.67 952,335.67 952,328.67 956,328.67 956,326.67 "/>
<polygon fill="#EC4346" points="985.979,177.67 981.916,177.67 983.948,168.122 985.979,158.467 988.01,168.067 990.04,177.67 "/>
<path fill="#F0976B" d="M986.004,136.135c9.129,0,17.366-3.814,23.212-9.937c-4.145-4.415-9.523-7.653-15.59-9.161
	c-1.839-0.135-3.635-0.42-5.374-0.852c-0.782-0.057-1.568-0.096-2.365-0.096c-9.14,0-17.378,3.838-23.209,9.982
	C968.532,132.266,976.813,136.135,986.004,136.135z"/>
<path d="M996.004,117.135c-0.801,0-1.592-0.039-2.378-0.098c-1.739-0.432-3.535-0.717-5.374-0.852
	c-0.782-0.057-1.568-0.096-2.365-0.096c-9.14,0-17.378,3.838-23.209,9.982c5.854,6.193,14.136,10.062,23.326,10.062
	c9.129,0,17.366-3.814,23.212-9.937c4.509-4.722,7.596-10.815,8.57-17.594C1012.062,113.897,1004.412,117.135,996.004,117.135z"/>
<g>
	<path d="M966.454,179.523c0,0,12.926,7.566,18.334,2.619c1.065-0.975,1.065-2.1,1.065-2.1s0.024-1.063-1.14-1.626
		c-1.326-0.641-3.617-0.545-6.325,2.175c-0.926,0.93-2.216,1.729-5.139,1.051C971.516,181.24,966.454,179.523,966.454,179.523z"/>
	<path d="M1005.252,179.523c0,0-12.926,7.566-18.334,2.619c-1.065-0.975-1.065-2.1-1.065-2.1s-0.024-1.063,1.14-1.626
		c1.326-0.641,3.617-0.545,6.325,2.175c0.926,0.93,2.216,1.729,5.139,1.051C1000.19,181.24,1005.252,179.523,1005.252,179.523z"/>
</g>
<pattern  id="SVGID_1_" xlink:href="#Nueva_muestra_de_motivo_4" patternTransform="matrix(1.5791 0 0 1.5791 1262.6826 3623.9736)">
</pattern>
<path fill="url(#SVGID_1_)" d="M986,211.09c-17.673,0-32-14.327-32-32v113c0,17.673,14.327,32,32,32s32-14.327,32-32v-113
	C1018,196.763,1003.673,211.09,986,211.09z"/>
</svg>
