<?xml version="1.0" encoding="utf-8"?>
<!-- Generator: Adobe Illustrator 16.0.0, SVG Export Plug-In . SVG Version: 6.00 Build 0)  -->
<!DOCTYPE svg PUBLIC "-//W3C//DTD SVG 1.1//EN" "http://www.w3.org/Graphics/SVG/1.1/DTD/svg11.dtd">
<svg version="1.1" id="Capa_1" xmlns="http://www.w3.org/2000/svg" xmlns:xlink="http://www.w3.org/1999/xlink" x="0px" y="0px"
	 width="1181.887px" height="243.76px" viewBox="0 0 1181.887 243.76" enable-background="new 0 0 1181.887 243.76"
	 xml:space="preserve">
<path fill="#F0976B" d="M828.887,117.869c-17.673,0-32,14.325-32,32v144c0,17.673,14.327,32,32,32s32-14.327,32-32v-144
	C860.887,132.194,846.56,117.869,828.887,117.869z"/>
<g>
	<path fill="#F0976B" d="M320.195,33.88c0.81-2,1.644-3.172,2.531-4.818l-7.039-3.737c-21.463,39.746-20.336,81.081-15.61,108.73
		c5.104,29.865,15.129,50.158,15.553,51.006l7.156-3.567c-0.1-0.199-9.987-20.375-14.865-49.136
		c-4.193-24.728-5.381-61.479,11.303-96.479h3.664v-2H320.195z"/>
	<g>
		<polygon fill="#F0976B" points="390.887,180.88 537.887,180.88 537.887,176.88 539.887,176.88 539.887,180.88 546.887,180.88 
			546.887,188.88 390.887,188.88 		"/>
	</g>
	<path fill="#F0976B" d="M356.887,118.129c-17.674,0-32,14.326-32,32v144c0,17.673,14.326,32,32,32c17.672,0,32-14.327,32-32v-144
		C388.887,132.455,374.559,118.129,356.887,118.129z"/>
	<path d="M369.541,136.722"/>
	<path fill="#FEC629" d="M356.887,213.129c-17.674,0-32-14.327-32-32v113c0,17.673,14.326,32,32,32c17.672,0,32-14.327,32-32v-113
		C388.887,198.802,374.559,213.129,356.887,213.129z"/>
	<circle cx="355.948" cy="110.129" r="8"/>
	<path d="M356.887,117.869c-17.673,0-32,14.325-32,32v31.011h64v-31.011C388.887,132.194,374.56,117.869,356.887,117.869z"/>
</g>
<path fill="#F0976B" d="M556.195,33.88c0.81-2,1.644-3.172,2.531-4.818l-7.039-3.737c-21.463,39.746-20.336,81.081-15.611,108.73
	c5.104,29.865,15.129,50.158,15.554,51.006l7.155-3.567c-0.099-0.199-9.986-20.375-14.864-49.136
	c-4.193-24.728-5.382-61.479,11.303-96.479h3.664v-2H556.195z"/>
<g>
	<polygon fill="#F0976B" points="626.887,180.88 773.887,180.88 773.887,176.88 775.887,176.88 775.887,180.88 782.887,180.88 
		782.887,188.88 626.887,188.88 	"/>
</g>
<path fill="#F0976B" d="M592.887,118.129c-17.674,0-32,14.326-32,32v144c0,17.673,14.326,32,32,32c17.672,0,32-14.327,32-32v-144
	C624.887,132.455,610.559,118.129,592.887,118.129z"/>
<path d="M605.541,136.722"/>
<path fill="#A4CB57" d="M592.887,213.129c-17.674,0-32-14.327-32-32v113c0,17.673,14.326,32,32,32c17.672,0,32-14.327,32-32v-113
	C624.887,198.802,610.559,213.129,592.887,213.129z"/>
<path fill="#FEC629" d="M592.887,117.869c-17.673,0-32,14.325-32,32v31.011h64v-31.011
	C624.887,132.194,610.56,117.869,592.887,117.869z"/>
<path fill="#F0976B" d="M792.195,33.88c0.81-2,1.644-3.172,2.531-4.818l-7.039-3.737c-21.463,39.746-20.336,81.081-15.611,108.73
	c5.104,29.865,15.129,50.158,15.554,51.006l7.155-3.567c-0.099-0.199-9.986-20.375-14.864-49.136
	c-4.193-24.728-5.382-61.479,11.303-96.479h3.664v-2H792.195z"/>
<g>
	<polygon fill="#F0976B" points="862.887,180.88 1009.887,180.88 1009.887,176.88 1011.887,176.88 1011.887,180.88 1018.887,180.88 
		1018.887,188.88 862.887,188.88 	"/>
</g>
<path d="M841.541,136.722"/>
<path d="M828.887,117.869c-17.673,0-32,14.325-32,32v31.011h64v-31.011C860.887,132.194,846.56,117.869,828.887,117.869z"/>
<polygon fill="#FEC629" points="592.443,100.88 600.51,100.88 596.477,109.423 592.443,117.646 588.413,109.264 584.385,100.88 "/>
<path d="M604.262,136.551"/>
<path d="M604.521,136.472"/>
<path fill="#F0976B" d="M828.564,137.914c9.129,0,17.366-3.813,23.212-9.937c-4.146-4.416-9.522-7.653-15.59-9.162
	c-1.839-0.135-3.634-0.42-5.374-0.852c-0.781-0.057-1.568-0.096-2.365-0.096c-9.141,0-17.379,3.838-23.209,9.982
	C811.093,134.045,819.372,137.914,828.564,137.914z"/>
<path d="M838.564,118.914c-0.801,0-1.592-0.039-2.378-0.098c-1.739-0.432-3.535-0.717-5.374-0.852
	c-0.781-0.057-1.568-0.096-2.365-0.096c-9.141,0-17.379,3.838-23.209,9.982c5.854,6.192,14.136,10.062,23.326,10.062
	c9.129,0,17.366-3.813,23.212-9.937c4.509-4.723,7.596-10.815,8.57-17.595C854.62,115.677,846.973,118.914,838.564,118.914z"/>
<g>
	<g>
		<g>
			<defs>
				<path id="SVGID_1_" d="M829,326.563c17.673,0,32-14.615,32-32.642V180.694c0,18.027-14.327,32.643-32,32.643
					s-32-14.613-32-32.643v113.228C797,311.948,811.327,326.563,829,326.563z"/>
			</defs>
			<clipPath id="SVGID_2_">
				<use xlink:href="#SVGID_1_"  overflow="visible"/>
			</clipPath>
			<rect x="747.5" y="139.847" clip-path="url(#SVGID_2_)" fill="#FFFFFF" width="161.5" height="200.952"/>
		</g>
	</g>
	<g>
		<g>
			<defs>
				<path id="SVGID_3_" d="M829,326.563c17.673,0,32-14.615,32-32.642V180.694c0,18.027-14.327,32.643-32,32.643
					s-32-14.613-32-32.643v113.228C797,311.948,811.327,326.563,829,326.563z"/>
			</defs>
			<clipPath id="SVGID_4_">
				<use xlink:href="#SVGID_3_"  overflow="visible"/>
			</clipPath>
			<rect x="790.5" y="263.275" clip-path="url(#SVGID_4_)" fill="#2FA1BE" width="74.5" height="16.32"/>
		</g>
	</g>
	<g>
		<g>
			<defs>
				<path id="SVGID_5_" d="M829,326.563c17.673,0,32-14.615,32-32.642V180.694c0,18.027-14.327,32.643-32,32.643
					s-32-14.613-32-32.643v113.228C797,311.948,811.327,326.563,829,326.563z"/>
			</defs>
			<clipPath id="SVGID_6_">
				<use xlink:href="#SVGID_5_"  overflow="visible"/>
			</clipPath>
			<rect x="790.5" y="231.142" clip-path="url(#SVGID_6_)" fill="#2FA1BE" width="74.5" height="16.321"/>
		</g>
	</g>
	<g>
		<g>
			<defs>
				<path id="SVGID_7_" d="M829,326.563c17.673,0,32-14.615,32-32.642V180.694c0,18.027-14.327,32.643-32,32.643
					s-32-14.613-32-32.643v113.228C797,311.948,811.327,326.563,829,326.563z"/>
			</defs>
			<clipPath id="SVGID_8_">
				<use xlink:href="#SVGID_7_"  overflow="visible"/>
			</clipPath>
			<rect x="790.5" y="198.5" clip-path="url(#SVGID_8_)" fill="#2FA1BE" width="74.5" height="16.321"/>
		</g>
	</g>
</g>
</svg>
