<?xml version="1.0" encoding="utf-8"?>
<!-- Generator: Adobe Illustrator 16.0.0, SVG Export Plug-In . SVG Version: 6.00 Build 0)  -->
<!DOCTYPE svg PUBLIC "-//W3C//DTD SVG 1.1//EN" "http://www.w3.org/Graphics/SVG/1.1/DTD/svg11.dtd">
<svg version="1.1" xmlns="http://www.w3.org/2000/svg" xmlns:xlink="http://www.w3.org/1999/xlink" x="0px" y="0px" width="480px"
	 height="453.565px" viewBox="0 0 480 453.565" enable-background="new 0 0 480 453.565" xml:space="preserve">
<g id="gotas_copia_2">
	<g id="_x31__copia_2">
	</g>
	<g id="_x32__copia_2">
	</g>
	<g id="_x33__copia_2">
	</g>
	<g id="_x34__copia_2">
	</g>
	<g id="_x35__copia_2">
	</g>
</g>
<g id="guías" display="none">
</g>
<g id="Capa_1">
</g>
<g id="txt">
	<g>
		<path fill="#F0976B" d="M203.639,240.565c0.809-2,1.643-3.722,2.531-5.369l-7.039-4.011
			c-21.463,39.746-20.336,80.942-15.611,108.592c5.104,29.865,15.129,50.089,15.553,50.938l7.157-3.602
			c-0.1-0.199-9.988-19.843-14.866-48.603c-4.193-24.727-5.381-60.946,11.303-95.946H206v-2H203.639z"/>
		<g>
			<polygon fill="#F0976B" points="274,387.565 421,387.565 421,383.565 423,383.565 423,387.565 430,387.565 430,395.565 
				274,395.565 			"/>
		</g>
		<path fill="#F0976B" d="M240,323.713c-17.674,0-32,14.326-32,32v144c0,17.673,14.326,32,32,32c17.672,0,32-14.327,32-32v-144
			C272,338.04,257.672,323.713,240,323.713z"/>
		<polygon fill="#EC4346" points="240.984,385.565 236.922,385.565 238.953,375.882 240.984,366.158 243.016,375.861 
			245.045,385.565 		"/>
		<path d="M252.984,342.305"/>
		<path fill="#A4CB57" d="M240,418.713c-17.674,0-32-14.327-32-32v113c0,17.673,14.326,32,32,32c17.672,0,32-14.327,32-32v-113
			C272,404.386,257.672,418.713,240,418.713z"/>
		<polygon fill="#FEC629" points="239.887,307.565 247.953,307.565 243.92,315.513 239.887,323.439 235.857,315.503 
			231.828,307.565 		"/>
		<g>
			<path fill="#FEC629" d="M240.921,323.389c-0.343-0.01-0.685-0.025-1.03-0.025c-0.566,0-1.129,0.016-1.688,0.045
				c0.874,2.49,1.355,5.166,1.355,7.955C239.559,328.567,240.042,325.885,240.921,323.389z"/>
			<path fill="#FEC629" d="M239.559,331.364c0-2.789-0.481-5.465-1.355-7.955c-16.476,0.855-29.646,14.174-30.281,30.707
				c2.4,0.805,4.966,1.248,7.637,1.248C228.813,355.364,239.559,344.619,239.559,331.364z"/>
			<path fill="#FEC629" d="M240.921,323.389c-0.879,2.496-1.362,5.178-1.362,7.975c0,13.255,10.745,24,24,24
				c2.916,0,5.709-0.521,8.295-1.473C271.099,337.243,257.625,323.919,240.921,323.389z"/>
		</g>
		<path d="M251.705,341.045"/>
	</g>
</g>
</svg>
