<?xml version="1.0" encoding="utf-8"?>
<!-- Generator: Adobe Illustrator 16.0.0, SVG Export Plug-In . SVG Version: 6.00 Build 0)  -->
<!DOCTYPE svg PUBLIC "-//W3C//DTD SVG 1.1//EN" "http://www.w3.org/Graphics/SVG/1.1/DTD/svg11.dtd">
<svg version="1.1" xmlns="http://www.w3.org/2000/svg" xmlns:xlink="http://www.w3.org/1999/xlink" x="0px" y="0px" width="480px"
	 height="450.565px" viewBox="0 0 480 450.565" enable-background="new 0 0 480 450.565" xml:space="preserve">
<g id="gotas_copia_2">
	<g id="_x31__copia_2">
	</g>
	<g id="_x32__copia_2">
	</g>
	<g id="_x33__copia_2">
	</g>
	<g id="_x34__copia_2">
	</g>
	<g id="_x35__copia_2">
	</g>
</g>
<g id="guías" display="none">
</g>
<g id="Capa_1">
</g>
<g id="txt">
	<g>
		<g>
			<polygon fill="#F0976B" points="275,387.565 422,387.565 422,383.565 424,383.565 424,387.565 431,387.565 431,395.565 
				275,395.565 			"/>
			<polygon fill="#F0976B" points="207,387.565 60,387.565 60,383.565 58,383.565 58,387.565 51,387.565 51,395.565 207,395.565 			
				"/>
		</g>
		<path fill="#F0976B" d="M241,324.205c-17.674,0-32,14.326-32,32v144c0,17.673,14.326,32,32,32c17.672,0,32-14.327,32-32v-144
			C273,338.531,258.672,324.205,241,324.205z"/>
		<polygon fill="#EC4346" points="241.314,385.565 237.252,385.565 239.283,376.127 241.314,366.526 243.346,376.044 
			245.375,385.565 		"/>
		<path d="M253.314,342.796"/>
		<path fill="#A4CB57" d="M241,419.205c-17.674,0-32-14.327-32-32v113c0,17.673,14.326,32,32,32c17.672,0,32-14.327,32-32v-113
			C273,404.877,258.672,419.205,241,419.205z"/>
		<polygon fill="#FEC629" points="240.977,307.565 249.043,307.565 245.01,315.764 240.977,323.815 236.947,315.691 
			232.918,307.565 		"/>
		<g>
			<path fill="#FEC629" d="M242.011,323.89c-0.343-0.01-0.685-0.025-1.03-0.025c-0.566,0-1.129,0.016-1.688,0.045
				c0.874,2.49,1.355,5.166,1.355,7.955C240.648,329.068,241.132,326.386,242.011,323.89z"/>
			<path fill="#FEC629" d="M240.648,331.865c0-2.789-0.481-5.465-1.355-7.955c-16.476,0.855-29.646,14.174-30.281,30.707
				c2.4,0.805,4.966,1.248,7.637,1.248C229.903,355.865,240.648,345.12,240.648,331.865z"/>
			<path fill="#FEC629" d="M242.011,323.89c-0.879,2.496-1.362,5.178-1.362,7.975c0,13.255,10.745,24,24,24
				c2.916,0,5.71-0.521,8.295-1.473C272.188,337.744,258.715,324.42,242.011,323.89z"/>
		</g>
		<path d="M252.795,342.546"/>
	</g>
</g>
</svg>
