<?xml version="1.0" encoding="utf-8"?>
<!-- Generator: Adobe Illustrator 16.0.0, SVG Export Plug-In . SVG Version: 6.00 Build 0)  -->
<!DOCTYPE svg PUBLIC "-//W3C//DTD SVG 1.1//EN" "http://www.w3.org/Graphics/SVG/1.1/DTD/svg11.dtd">
<svg version="1.1" xmlns="http://www.w3.org/2000/svg" xmlns:xlink="http://www.w3.org/1999/xlink" x="0px" y="0px" width="480px"
	 height="453.565px" viewBox="0 0 480 453.565" enable-background="new 0 0 480 453.565" xml:space="preserve">
<g id="gotas_copia_2">
	<g id="_x31__copia_2">
	</g>
	<g id="_x32__copia_2">
	</g>
	<g id="_x33__copia_2">
	</g>
	<g id="_x34__copia_2">
	</g>
	<g id="_x35__copia_2">
	</g>
</g>
<g id="guías" display="none">
</g>
<g id="Capa_1">
</g>
<g id="txt">
	<g>
		<path fill="#F0976B" d="M240,323.533c-17.674,0-32,14.326-32,32v144c0,17.673,14.326,32,32,32c17.672,0,32-14.327,32-32v-144
			C272,337.859,257.672,323.533,240,323.533z"/>
		<polygon fill="#EC4346" points="240.178,385.565 236.115,385.565 238.146,375.746 240.178,365.955 242.209,375.759 
			244.239,385.565 		"/>
		<polygon fill="#FEC629" points="240.082,307.565 248.148,307.565 244.115,315.552 240.082,323.498 236.053,315.533 
			232.023,307.565 		"/>
		<path fill="#FEC629" d="M208.086,355.565h7.668c-2.67,0-5.236-0.443-7.637-1.248C208.102,354.731,208.086,355.565,208.086,355.565
			z"/>
		<path fill="#FEC629" d="M272.086,355.565c0,0-0.016-0.984-0.037-1.473c-2.585,0.951-5.379,1.473-8.295,1.473H272.086z"/>
		<g>
			<path fill="#FEC629" d="M241.115,323.468c-0.342-0.01-0.684-0.025-1.029-0.025c-0.566,0-1.129,0.016-1.688,0.045
				c0.874,2.49,1.355,5.166,1.355,7.955C239.754,328.646,240.237,325.964,241.115,323.468z"/>
			<path fill="#FEC629" d="M239.754,331.443c0-2.789-0.481-5.465-1.355-7.955c-16.476,0.855-29.646,14.174-30.281,30.707
				c2.4,0.805,4.967,1.248,7.637,1.248C229.009,355.443,239.754,344.698,239.754,331.443z"/>
			<path fill="#FEC629" d="M241.115,323.468c-0.878,2.496-1.361,5.178-1.361,7.975c0,13.255,10.746,24,24,24
				c2.916,0,5.71-0.521,8.295-1.473C271.293,337.322,257.82,323.999,241.115,323.468z"/>
		</g>
		<polygon fill="#F0976B" points="274,387.565 274,534.565 270,534.565 270,536.565 274,536.565 274,543.565 282,543.565 
			282,387.565 		"/>
		<polygon fill="#F0976B" points="206,534.565 206,387.565 198,387.565 198,543.565 206,543.565 206,536.565 210,536.565 
			210,534.565 		"/>
		<path d="M251.9,342.125"/>
		<path fill="#A4CB57" d="M240,418.533c-17.674,0-32-14.327-32-32v113c0,17.673,14.326,32,32,32c17.672,0,32-14.327,32-32v-113
			C272,404.206,257.672,418.533,240,418.533z"/>
	</g>
</g>
</svg>
