<?xml version="1.0" encoding="utf-8"?>
<!-- Generator: Adobe Illustrator 16.0.0, SVG Export Plug-In . SVG Version: 6.00 Build 0)  -->
<!DOCTYPE svg PUBLIC "-//W3C//DTD SVG 1.1//EN" "http://www.w3.org/Graphics/SVG/1.1/DTD/svg11.dtd">
<svg version="1.1" xmlns="http://www.w3.org/2000/svg" xmlns:xlink="http://www.w3.org/1999/xlink" x="0px" y="0px" width="480px"
	 height="453.565px" viewBox="0 0 480 453.565" enable-background="new 0 0 480 453.565" xml:space="preserve">
<g id="gotas_copia_2">
	<g id="_x31__copia_2">
	</g>
	<g id="_x32__copia_2">
	</g>
	<g id="_x33__copia_2">
	</g>
	<g id="_x34__copia_2">
	</g>
	<g id="_x35__copia_2">
	</g>
</g>
<g id="guías" display="none">
</g>
<g id="Capa_1">
</g>
<g id="txt">
	<g>
		<path fill="#F0976B" d="M241,356.533c-17.674,0-32,14.326-32,32v144c0,17.673,14.326,32,32,32c17.672,0,32-14.327,32-32v-144
			C273,370.859,258.672,356.533,241,356.533z"/>
		<polygon fill="#EC4346" points="241.178,418.565 237.115,418.565 239.146,408.746 241.178,398.955 243.209,408.759 
			245.239,418.565 		"/>
		<polygon fill="#FEC629" points="241.082,340.565 249.148,340.565 245.115,348.552 241.082,356.498 237.053,348.533 
			233.023,340.565 		"/>
		<path fill="#FEC629" d="M209.086,388.565h7.668c-2.67,0-5.236-0.443-7.637-1.248C209.102,387.731,209.086,388.565,209.086,388.565
			z"/>
		<path fill="#FEC629" d="M273.086,388.565c0,0-0.016-0.984-0.037-1.473c-2.585,0.951-5.379,1.473-8.295,1.473H273.086z"/>
		<g>
			<path fill="#FEC629" d="M242.115,356.468c-0.342-0.01-0.684-0.025-1.029-0.025c-0.566,0-1.129,0.016-1.688,0.045
				c0.874,2.49,1.355,5.166,1.355,7.955C240.754,361.646,241.237,358.964,242.115,356.468z"/>
			<path fill="#FEC629" d="M240.754,364.443c0-2.789-0.481-5.465-1.355-7.955c-16.476,0.855-29.646,14.174-30.281,30.707
				c2.4,0.805,4.967,1.248,7.637,1.248C230.009,388.443,240.754,377.698,240.754,364.443z"/>
			<path fill="#FEC629" d="M242.115,356.468c-0.878,2.496-1.361,5.178-1.361,7.975c0,13.255,10.746,24,24,24
				c2.916,0,5.71-0.521,8.295-1.473C272.293,370.322,258.82,356.999,242.115,356.468z"/>
		</g>
		<polygon fill="#F0976B" points="275,420.565 275,567.565 271,567.565 271,569.565 275,569.565 275,576.565 283,576.565 
			283,420.565 		"/>
		<polygon fill="#F0976B" points="207,567.565 207,420.565 199,420.565 199,576.565 207,576.565 207,569.565 211,569.565 
			211,567.565 		"/>
		<path d="M252.9,375.125"/>
		<path fill="#A4CB57" d="M241,451.533c-17.674,0-32-14.327-32-32v113c0,17.673,14.326,32,32,32c17.672,0,32-14.327,32-32v-113
			C273,437.206,258.672,451.533,241,451.533z"/>
	</g>
</g>
</svg>
