<?xml version="1.0" encoding="utf-8"?>
<!-- Generator: Adobe Illustrator 16.0.0, SVG Export Plug-In . SVG Version: 6.00 Build 0)  -->
<!DOCTYPE svg PUBLIC "-//W3C//DTD SVG 1.1//EN" "http://www.w3.org/Graphics/SVG/1.1/DTD/svg11.dtd">
<svg version="1.1" xmlns="http://www.w3.org/2000/svg" xmlns:xlink="http://www.w3.org/1999/xlink" x="0px" y="0px" width="480px"
	 height="453.565px" viewBox="0 0 480 453.565" enable-background="new 0 0 480 453.565" xml:space="preserve">
<g id="gotas_copia_2">
	<g id="_x31__copia_2">
	</g>
	<g id="_x32__copia_2">
	</g>
	<g id="_x33__copia_2">
	</g>
	<g id="_x34__copia_2">
	</g>
	<g id="_x35__copia_2">
	</g>
</g>
<g id="guías" display="none">
</g>
<g id="Capa_1">
</g>
<g id="txt">
	<path fill="#F0976B" d="M203.364,239.565c0.808-2,1.642-3.712,2.531-5.359l-7.04-4.006c-21.462,39.746-20.336,80.946-15.61,108.596
		c5.104,29.865,15.128,50.09,15.553,50.939l7.157-3.603c-0.1-0.199-9.988-19.852-14.867-48.613
		c-4.192-24.727-5.38-60.955,11.304-95.955H206v-2H203.364z"/>
	<path fill="#F0976B" d="M240,322.734c-17.674,0-32,14.326-32,32v144c0,17.673,14.326,32,32,32c17.672,0,32-14.327,32-32v-144
		C272,337.06,257.672,322.734,240,322.734z"/>
	<path d="M252.71,341.326"/>
	<path fill="#A4CB57" d="M240,417.734c-17.674,0-32-14.327-32-32v113c0,17.673,14.326,32,32,32c17.672,0,32-14.327,32-32v-113
		C272,403.407,257.672,417.734,240,417.734z"/>
	<path fill="#FEC629" d="M240,322.474c-17.673,0-32,14.326-32,32v32.091h64v-32.091C272,336.8,257.673,322.474,240,322.474z"/>
	<polygon fill="#FEC629" points="239.612,306.565 247.68,306.565 243.646,314.568 239.612,322.522 235.583,314.544 231.555,306.565 
			"/>
	<path d="M251.431,341.156"/>
	<path d="M251.689,341.076"/>
	<path fill="#F0976B" d="M276.012,239.565c-0.811-2-1.644-3.712-2.532-5.359l7.039-4.006
		c21.463,39.746,20.336,80.946,15.611,108.596c-5.104,29.865-15.129,50.09-15.553,50.939l-7.157-3.603
		c0.1-0.199,9.988-19.852,14.865-48.613c4.194-24.727,5.382-60.955-11.302-95.955H274v-2H276.012z"/>
</g>
</svg>
