<?xml version="1.0" encoding="utf-8"?>
<!-- Generator: Adobe Illustrator 16.0.0, SVG Export Plug-In . SVG Version: 6.00 Build 0)  -->
<!DOCTYPE svg PUBLIC "-//W3C//DTD SVG 1.1//EN" "http://www.w3.org/Graphics/SVG/1.1/DTD/svg11.dtd">
<svg version="1.1" xmlns="http://www.w3.org/2000/svg" xmlns:xlink="http://www.w3.org/1999/xlink" x="0px" y="0px" width="480px"
	 height="453.565px" viewBox="0 0 480 453.565" enable-background="new 0 0 480 453.565" xml:space="preserve">
<g id="gotas_copia_2">
	<g id="_x31__copia_2">
	</g>
	<g id="_x32__copia_2">
	</g>
	<g id="_x33__copia_2">
	</g>
	<g id="_x34__copia_2">
	</g>
	<g id="_x35__copia_2">
	</g>
</g>
<g id="guías" display="none">
</g>
<g id="Capa_1">
</g>
<g id="txt">
	<g>
		<path fill="#F0976B" d="M240,452.533c-17.674,0-32,14.326-32,32v144c0,17.673,14.326,32,32,32c17.672,0,32-14.327,32-32v-144
			C272,466.859,257.672,452.533,240,452.533z"/>
		<polygon fill="#FEC629" points="240.082,436.565 248.148,436.565 244.115,444.552 240.082,452.498 236.053,444.533 
			232.023,436.565 		"/>
		<g>
			<path fill="#FEC629" d="M241.115,452.468c-0.342-0.01-0.684-0.025-1.029-0.025c-0.566,0-1.129,0.016-1.688,0.045
				c0.874,2.49,1.355,5.166,1.355,7.955C239.754,457.646,240.237,454.964,241.115,452.468z"/>
			<path fill="#FEC629" d="M239.754,460.443c0-2.789-0.481-5.465-1.355-7.955c-16.476,0.855-29.646,14.174-30.281,30.707
				c2.4,0.805,4.967,1.248,7.637,1.248C229.009,484.443,239.754,473.698,239.754,460.443z"/>
			<path fill="#FEC629" d="M241.115,452.468c-0.878,2.496-1.361,5.178-1.361,7.975c0,13.255,10.746,24,24,24
				c2.916,0,5.71-0.521,8.295-1.473C271.293,466.322,257.82,452.999,241.115,452.468z"/>
		</g>
	</g>
</g>
</svg>
