<?xml version="1.0" encoding="utf-8"?>
<!-- Generator: Adobe Illustrator 16.0.0, SVG Export Plug-In . SVG Version: 6.00 Build 0)  -->
<!DOCTYPE svg PUBLIC "-//W3C//DTD SVG 1.1//EN" "http://www.w3.org/Graphics/SVG/1.1/DTD/svg11.dtd">
<svg version="1.1" xmlns="http://www.w3.org/2000/svg" xmlns:xlink="http://www.w3.org/1999/xlink" x="0px" y="0px" width="480px"
	 height="453.565px" viewBox="0 0 480 453.565" enable-background="new 0 0 480 453.565" xml:space="preserve">
<g id="gotas_copia_2">
	<g id="_x31__copia_2">
	</g>
	<g id="_x32__copia_2">
	</g>
	<g id="_x33__copia_2">
	</g>
	<g id="_x34__copia_2">
	</g>
	<g id="_x35__copia_2">
	</g>
</g>
<g id="guías" display="none">
</g>
<g id="Capa_1">
</g>
<g id="txt">
	<g>
		<path fill="#F0976B" d="M203.195,240.565c0.809-2,1.643-3.232,2.531-4.878l-7.039-3.767
			c-21.463,39.746-20.336,81.066-15.611,108.716c5.104,29.865,15.129,50.151,15.553,50.999l7.156-3.572
			c-0.099-0.199-9.987-20.317-14.865-49.078c-4.193-24.727-5.381-61.419,11.303-96.419H206v-2H203.195z"/>
		<g>
			<polygon fill="#F0976B" points="274,387.565 421,387.565 421,383.565 423,383.565 423,387.565 430,387.565 430,395.565 
				274,395.565 			"/>
		</g>
		<path fill="#F0976B" d="M240,324.694c-17.674,0-32,14.326-32,32v144c0,17.673,14.326,32,32,32c17.672,0,32-14.327,32-32v-144
			C272,339.02,257.672,324.694,240,324.694z"/>
		<path d="M252.541,343.286"/>
		<path fill="#A4CB57" d="M240,419.694c-17.674,0-32-14.327-32-32v113c0,17.673,14.326,32,32,32c17.672,0,32-14.327,32-32v-113
			C272,405.367,257.672,419.694,240,419.694z"/>
		<path fill="#FEC629" d="M240,324.434c-17.673,0-32,14.326-32,32v31.131h64v-31.131C272,338.76,257.673,324.434,240,324.434z"/>
		<polygon fill="#FEC629" points="239.443,307.565 247.51,307.565 243.477,316.048 239.443,324.242 235.414,315.904 
			231.385,307.565 		"/>
		<path d="M251.262,343.116"/>
		<path d="M251.521,343.036"/>
	</g>
</g>
</svg>
