<?xml version="1.0" encoding="utf-8"?>
<!-- Generator: Adobe Illustrator 16.0.0, SVG Export Plug-In . SVG Version: 6.00 Build 0)  -->
<!DOCTYPE svg PUBLIC "-//W3C//DTD SVG 1.1//EN" "http://www.w3.org/Graphics/SVG/1.1/DTD/svg11.dtd">
<svg version="1.1" xmlns="http://www.w3.org/2000/svg" xmlns:xlink="http://www.w3.org/1999/xlink" x="0px" y="0px" width="480px"
	 height="453.565px" viewBox="0 0 480 453.565" enable-background="new 0 0 480 453.565" xml:space="preserve">
<g id="gotas_copia_2">
	<g id="_x31__copia_2">
	</g>
	<g id="_x32__copia_2">
	</g>
	<g id="_x33__copia_2">
	</g>
	<g id="_x34__copia_2">
	</g>
	<g id="_x35__copia_2">
	</g>
</g>
<g id="guías" display="none">
</g>
<g id="Capa_1">
</g>
<g id="txt">
	<g>
		<path fill="#F0976B" d="M240,388.533c-17.674,0-32,14.326-32,32v144c0,17.673,14.326,32,32,32c17.672,0,32-14.327,32-32v-144
			C272,402.859,257.672,388.533,240,388.533z"/>
		<polygon fill="#EC4346" points="240.178,450.565 236.115,450.565 238.146,440.746 240.178,430.955 242.209,440.759 
			244.239,450.565 		"/>
		<polygon fill="#FEC629" points="240.082,372.565 248.148,372.565 244.115,380.552 240.082,388.498 236.053,380.533 
			232.023,372.565 		"/>
		<path fill="#FEC629" d="M208.086,420.565h7.668c-2.67,0-5.236-0.443-7.637-1.248C208.102,419.731,208.086,420.565,208.086,420.565
			z"/>
		<path fill="#FEC629" d="M272.086,420.565c0,0-0.016-0.984-0.037-1.473c-2.585,0.951-5.379,1.473-8.295,1.473H272.086z"/>
		<g>
			<path fill="#FEC629" d="M241.115,388.468c-0.342-0.01-0.684-0.025-1.029-0.025c-0.566,0-1.129,0.016-1.688,0.045
				c0.874,2.49,1.355,5.166,1.355,7.955C239.754,393.646,240.237,390.964,241.115,388.468z"/>
			<path fill="#FEC629" d="M239.754,396.443c0-2.789-0.481-5.465-1.355-7.955c-16.476,0.855-29.646,14.174-30.281,30.707
				c2.4,0.805,4.967,1.248,7.637,1.248C229.009,420.443,239.754,409.698,239.754,396.443z"/>
			<path fill="#FEC629" d="M241.115,388.468c-0.878,2.496-1.361,5.178-1.361,7.975c0,13.255,10.746,24,24,24
				c2.916,0,5.71-0.521,8.295-1.473C271.293,402.322,257.82,388.999,241.115,388.468z"/>
		</g>
		<polygon fill="#F0976B" points="274,452.565 274,599.565 270,599.565 270,601.565 274,601.565 274,608.565 282,608.565 
			282,452.565 		"/>
		<polygon fill="#F0976B" points="206,599.565 206,452.565 198,452.565 198,608.565 206,608.565 206,601.565 210,601.565 
			210,599.565 		"/>
		<path d="M251.9,407.125"/>
		<path fill="#A4CB57" d="M240,483.533c-17.674,0-32-14.327-32-32v113c0,17.673,14.326,32,32,32c17.672,0,32-14.327,32-32v-113
			C272,469.206,257.672,483.533,240,483.533z"/>
	</g>
</g>
</svg>
