<?xml version="1.0" encoding="utf-8"?>
<!-- Generator: Adobe Illustrator 16.0.0, SVG Export Plug-In . SVG Version: 6.00 Build 0)  -->
<!DOCTYPE svg PUBLIC "-//W3C//DTD SVG 1.1//EN" "http://www.w3.org/Graphics/SVG/1.1/DTD/svg11.dtd">
<svg version="1.1" id="Capa_1" xmlns="http://www.w3.org/2000/svg" xmlns:xlink="http://www.w3.org/1999/xlink" x="0px" y="0px"
	 width="480px" height="450px" viewBox="0 0 480 450" enable-background="new 0 0 480 450" xml:space="preserve">
<path fill="#F0976B" d="M240.717,317.104c-0.522-0.026-1.047-0.041-1.576-0.041c-0.004,0-0.009,0.001-0.013,0.001
	s-0.009-0.001-0.013-0.001c-0.504,0-1.005,0.015-1.503,0.038c0.502-0.022,1.007-0.037,1.515-0.037
	C239.661,317.063,240.19,317.077,240.717,317.104z"/>
<path fill="#F0976B" d="M271.128,349.062c0-0.022-0.001-0.044-0.002-0.066C271.127,349.019,271.128,349.041,271.128,349.062
	L271.128,349.062z"/>
<path fill="#F0976B" d="M239.13,412.061c17.669,0.002,31.999-14.324,31.999-31.998v-30.999h-15.862l-2.027-6.493l-2.028-6.493
	l-2.024,6.321l-2.03,6.665h-40.027v30.999C207.129,397.736,221.454,412.062,239.13,412.061z M237.096,370.005l2.032-10.112
	l2.032,10.284l2.029,10.279h-4.061h-4.062L237.096,370.005z"/>
<polygon fill="#EC4346" points="243.19,380.456 241.16,370.177 239.129,359.893 237.096,370.005 235.067,380.456 239.129,380.456 
	"/>
<path fill="#FEC629" d="M239.13,412.061c-17.676,0.002-32.001-14.324-32.001-31.998v52.793c10.752,1.697,21.771,2.589,33,2.589
	c10.534,0,20.882-0.785,31-2.283v-53.099C271.128,397.736,256.799,412.062,239.13,412.061z"/>
<path d="M237.613,317.101c-16.97,0.774-30.486,14.48-30.485,31.963h0.001C207.129,331.896,220.643,317.894,237.613,317.101z"/>
<path d="M271.126,348.996c-0.036-17.402-13.463-31.05-30.345-31.891C257.663,317.966,271.091,331.909,271.126,348.996z"/>
<path d="M249.186,342.398l2.024-6.321l2.028,6.493l2.027,6.493h15.862c0-0.022-0.001-0.045-0.002-0.067
	c-0.035-17.087-13.463-31.03-30.345-31.891c-0.002-0.001-0.004-0.001-0.006-0.001c-0.02-0.001-0.039-0.001-0.059-0.001
	c-0.527-0.026-1.056-0.04-1.589-0.04c-0.508,0-1.013,0.015-1.515,0.037c-16.97,0.793-30.484,14.796-30.484,31.963h40.027
	L249.186,342.398z"/>
<path d="M239.141,317.062c4.413-0.008,7.989-3.586,7.987-8.002c0-4.415-3.582-7.998-7.998-7.997c-4.42-0.001-8.002,3.581-8.002,8
	c0,4.412,3.577,7.992,7.987,7.999c0.004,0,0.009,0,0.013,0S239.137,317.062,239.141,317.062z"/>
<polygon points="239.141,317.062 239.129,317.062 239.116,317.062 239.129,317.063 "/>
<path fill="#F0976B" d="M169.819,317.979c0.001-18.237,6.79-35.649,18.979-48.913l2.332,2.332l1.414-1.414l-2.374-2.374
	c1.399-1.429,2.323-2.339,3.434-3.348l-5.269-6.031c-16.779,15.243-26.351,36.925-26.351,59.58
	c-0.001,28.7,15.483,55.419,40.368,69.78l3.9-6.832C183.842,367.823,169.82,343.827,169.819,317.979z"/>
<path fill="#F0976B" d="M290.976,258.119l-5.404,5.896c1.105,1.008,2.395,2.474,3.088,3.195l-2.773,2.772l1.414,1.414l2.828-2.827
	c12.191,13.265,19.229,30.924,19.229,49.157c0,25.852-13.91,49.959-36.323,62.895l4.006,6.936
	c24.882-14.361,40.343-41.104,40.343-69.805C317.378,295.098,307.755,273.364,290.976,258.119z"/>
<path fill="#F0976B" d="M292.531,254.75c21.512,7.15,45.199,4.889,64.943-6.219c25.014-14.07,40.76-40.653,41.076-69.379
	l-8.039-0.104c-0.281,25.883-14.494,49.821-37.021,62.491c-15.898,8.943-34.791,11.455-52.328,7.326l0.9-3.221l-1.926-0.537
	l-0.918,3.281c-0.969-0.25-2.785-0.771-4.209-1.242L292.531,254.75z"/>
<path fill="#F0976B" d="M251.251,162.882l3.125,0.874l0.539-1.926l-3.064-0.858c5.853-18.095,17.517-31.896,33.408-40.839
	c22.529-12.672,50.357-12.354,72.621,0.838l4.08-6.887c-24.719-14.642-55.605-15.008-80.621-0.935
	c-19.746,11.108-33.971,30.151-39.027,52.25l7.795,1.8C250.441,165.739,250.96,163.838,251.251,162.882z"/>
<path fill="#F0976B" d="M401.249,164.917c4.879-9.411,5.059-20.915-0.557-30.642c-5.617-9.726-15.67-15.322-26.258-15.803
	c-6.073-0.276-12.322,1.126-18.014,4.412l15.422-8.903l14.135-8.161l6.505-3.755l-62.714,35.277
	c-7.476,4.205-12.6,10.965-14.916,18.566c0.09,0.022,0.182,0.036,0.271,0.059c8.203,2.09,15.566,7.401,20.041,15.358
	c4.457,7.922,5.172,16.926,2.742,24.998c7.598,1.847,15.885,0.937,23.238-3.199l31.547-17.745
	C396.323,172.455,399.199,168.871,401.249,164.917z M374.818,147.97c-0.328,1.408-1.309,1.959-1.309,1.959s-0.914,0.543-1.977-0.193
	c-1.209-0.846-2.246-2.889-1.205-6.58c0.357-1.263,0.422-2.778-1.604-4.995c-1.201-1.312-5.178-4.883-5.178-4.883
	S376.48,140.834,374.818,147.97z M364.013,157.458l-9.391,2.953l7.34-6.461l7.346-6.459l1.988,3.539l1.99,3.543L364.013,157.458z
	 M382.568,167.092c0,0-0.984-5.252-1.486-6.964c-0.842-2.879-2.17-3.609-3.434-3.963c-3.697-1.023-4.906-2.975-4.996-4.445
	c-0.082-1.289,0.855-1.789,0.855-1.789s0.982-0.554,2.354-0.104C382.825,152.118,382.568,167.092,382.568,167.092z"/>
<path fill="#F0976B" d="M314.784,174.045c-0.072-0.155-0.15-0.31-0.227-0.465c0.68,2.509,1.676,4.975,3.008,7.344
	c0.039,0.067,0.08,0.131,0.119,0.198c-0.36-0.651-0.696-1.309-1.008-1.975C315.892,177.48,315.259,175.775,314.784,174.045z"/>
<path fill="#F0976B" d="M424.022,157.756l12.411-6.981c-0.02-0.051-0.038-0.101-0.057-0.151l-4.266,2.462L424.022,157.756z"/>
<polygon fill="#EC4346" points="369.308,147.491 361.962,153.95 354.622,160.411 364.013,157.458 373.286,154.573 371.296,151.03 
	"/>
<path d="M314.853,155.91c-6.248-1.539-12.966-1.223-19.264,1.214c7.42,2.394,13.992,7.474,18.115,14.804
	c0.307,0.545,0.586,1.098,0.854,1.653C312.962,167.69,313.13,161.568,314.853,155.91z"/>
<path d="M317.685,181.123c0.023,0.044,0.043,0.09,0.068,0.134c4.48,7.968,11.863,13.265,20.078,15.335
	c0.027-0.088,0.049-0.179,0.076-0.267C329.658,194.32,322.226,189.06,317.685,181.123z"/>
<path d="M335.165,171.327c-4.475-7.957-11.838-13.269-20.041-15.358c-0.09-0.022-0.182-0.036-0.271-0.059
	c-1.723,5.658-1.891,11.78-0.295,17.671c0.076,0.155,0.154,0.31,0.227,0.465c0.475,1.729,1.107,3.435,1.893,5.103
	c0.312,0.666,0.647,1.323,1.008,1.975c4.541,7.938,11.974,13.197,20.223,15.202C340.337,188.252,339.622,179.249,335.165,171.327z"
	/>
<path d="M375.861,149.827c-1.371-0.449-2.354,0.104-2.354,0.104s-0.938,0.5-0.855,1.789c0.09,1.471,1.299,3.422,4.996,4.445
	c1.264,0.354,2.592,1.084,3.434,3.963c0.502,1.712,1.486,6.964,1.486,6.964S382.825,152.118,375.861,149.827z"/>
<path d="M368.724,138.161c2.025,2.217,1.961,3.732,1.604,4.995c-1.041,3.691-0.004,5.734,1.205,6.58
	c1.062,0.736,1.977,0.193,1.977,0.193s0.98-0.551,1.309-1.959c1.662-7.136-11.271-14.692-11.271-14.692
	S367.523,136.848,368.724,138.161z"/>
<path fill="#F0976B" d="M228.249,160.163l-3.029,0.836l0.532,1.929l3.09-0.854c0.554,1.924,0.885,3.169,1.212,4.631l7.847-1.605
	c-4.979-22.12-19.108-41.146-38.813-52.326c-24.958-14.166-55.84-13.887-80.61,0.663l4.018,6.771
	c22.309-13.109,50.101-13.458,72.581-0.697C210.939,128.508,222.733,143.012,228.249,160.163z"/>
<path fill="#F0976B" d="M122.455,247.939c19.701,11.184,43.344,13.545,64.882,6.473l-2.385-7.629
	c-1.423,0.465-3.223,0.973-4.191,1.221l-1.073-3.898l-1.93,0.531l1.059,3.84c-17.552,4.059-36.458,1.482-52.318-7.52
	c-22.479-12.758-36.617-36.746-36.805-62.623l-8.031,0.065C81.872,207.128,97.496,233.775,122.455,247.939z"/>
<path fill="#F0976B" d="M78.08,134.246c-8.712,15.352-3.341,34.856,11.989,43.593l27.013,15.329
	c5.474,3.106,11.475,4.415,17.327,4.129c-5.263,0.19-10.632-0.91-15.619-3.449c0.449-2.718,1.374-5.406,2.813-7.94
	c6.541-11.526,21.19-15.568,32.718-9.027c-11.527-6.541-15.568-21.192-9.03-32.718c1.282-2.252,2.875-4.206,4.688-5.863
	c-0.43-0.271-0.866-0.536-1.312-0.79l-27.036-15.343C106.274,113.502,86.791,118.9,78.08,134.246z M108.592,147.894l7.365,6.518
	l7.427,6.55l-9.401-3l-9.403-3.002l2.006-3.53L108.592,147.894z"/>
<polygon fill="#EC4346" points="113.982,157.961 123.384,160.961 115.957,154.412 108.592,147.894 106.585,151.429 104.579,154.959 
	"/>
<path fill="#A4CB57" d="M90.069,177.838L43.568,151.45v0.001l46.55,26.417C90.101,177.858,90.086,177.847,90.069,177.838z"/>
<path fill="#A4CB57" d="M121.706,122.206L75.011,95.708l-0.001,0.001l46.62,26.457C121.656,122.179,121.681,122.192,121.706,122.206
	z"/>
<path fill="#A4CB57" d="M78.08,134.246c8.711-15.346,28.194-20.743,43.551-12.08L75.01,95.708
	c-13.154,16.718-23.812,35.487-31.442,55.741l46.501,26.389C74.739,169.102,69.368,149.597,78.08,134.246z"/>
<path fill="#FEC629" d="M161.107,181.132l4.9,7.393l4.977,7.461l3.979-7.016l3.978-7.009l-8.933-0.438l-8.88-0.43
	c-0.004,0.007-0.008,0.015-0.012,0.022C161.114,181.122,161.11,181.126,161.107,181.132z"/>
<path fill="#FEC629" d="M160.703,181.132c-0.117,0.206-0.244,0.403-0.364,0.606c0.079,0.089,0.169,0.172,0.247,0.262
	c0.173-0.29,0.352-0.572,0.521-0.868l-0.028-0.042l0.05,0.003c0.273-0.485,0.533-0.974,0.779-1.465
	c-0.122-0.022-0.243-0.058-0.365-0.082C161.278,180.08,161,180.609,160.703,181.132z"/>
<path fill="#FEC629" d="M160.339,181.739c0.12-0.203,0.247-0.4,0.364-0.606c0.297-0.523,0.575-1.053,0.84-1.586
	c-2.469-0.488-4.907-1.356-7.222-2.667C156.643,178.196,158.651,179.855,160.339,181.739z"/>
<path fill="#FEC629" d="M161.107,181.132c0.003-0.006,0.007-0.011,0.01-0.017c0.004-0.008,0.008-0.016,0.012-0.022l-0.05-0.003
	L161.107,181.132z"/>
<path fill="#FEC629" d="M161.543,179.546c0.122,0.024,0.243,0.06,0.365,0.082c7.39-14.753,2.308-32.781-11.761-41.493
	c-0.058,0.052-0.11,0.11-0.168,0.163C163.835,147.047,168.82,164.898,161.543,179.546z"/>
<path fill="#FEC629" d="M145.291,144.162c-6.538,11.525-2.497,26.177,9.03,32.718c2.314,1.311,4.753,2.179,7.222,2.667
	c7.277-14.648,2.292-32.499-11.563-41.248C148.166,139.956,146.573,141.91,145.291,144.162z"/>
<path fill="#FEC629" d="M134.409,197.296c10.406-0.377,20.393-5.82,26.177-15.296c-0.078-0.09-0.168-0.173-0.247-0.262
	C154.66,191.259,144.77,196.79,134.409,197.296z"/>
<path fill="#FEC629" d="M160.339,181.739c-1.688-1.884-3.695-3.543-6.018-4.859c-11.527-6.541-26.177-2.499-32.718,9.027
	c-1.439,2.534-2.364,5.223-2.813,7.94c4.987,2.539,10.356,3.64,15.619,3.449C144.77,196.79,154.66,191.259,160.339,181.739z"/>
<path fill="#FEC629" d="M160.339,181.739c-1.688-1.884-3.695-3.543-6.018-4.859C156.643,178.196,158.65,179.855,160.339,181.739z"/>
<polygon fill="#FFFFFF" points="400.111,97.661 392.483,102.066 400.16,97.747 "/>
<path fill="#FFFFFF" d="M392.693,175.38c-1.326,1.067-2.749,2.051-4.271,2.93l15.42-8.902l-0.13-0.227L392.693,175.38z"/>
<polygon fill="#FFFFFF" points="417.978,161.246 424.022,157.756 417.939,161.178 "/>
<polygon fill="#FFFFFF" points="400.16,97.747 392.483,102.066 385.978,105.821 417.939,161.178 424.022,157.756 432.111,153.085 
	"/>
<path fill="#FFFFFF" d="M401.249,164.917c-2.05,3.953-4.926,7.537-8.557,10.463l11.019-6.199L401.249,164.917z"/>
<path fill="#FFFFFF" d="M356.421,122.885c5.691-3.286,11.94-4.688,18.014-4.412l-2.592-4.491L356.421,122.885z"/>
<path fill="#2FA1BE" d="M400.16,97.747l4.63-2.604c-0.032-0.042-0.066-0.083-0.1-0.125l-4.58,2.644L400.16,97.747z"/>
<path fill="#2FA1BE" d="M432.111,153.085l4.266-2.462c-7.695-20.169-18.403-38.848-31.586-55.481l-4.63,2.604L432.111,153.085z"/>
<polygon fill="#2FA1BE" points="403.711,169.181 403.841,169.408 417.978,161.246 417.939,161.178 "/>
<path fill="#2FA1BE" d="M374.435,118.473c10.588,0.48,20.641,6.077,26.258,15.803c5.615,9.727,5.436,21.23,0.557,30.642l2.462,4.264
	l14.228-8.003l-31.961-55.357l-14.135,8.161L374.435,118.473z"/>
</svg>
