<?xml version="1.0" encoding="utf-8"?>
<!-- Generator: Adobe Illustrator 16.0.0, SVG Export Plug-In . SVG Version: 6.00 Build 0)  -->
<!DOCTYPE svg PUBLIC "-//W3C//DTD SVG 1.1//EN" "http://www.w3.org/Graphics/SVG/1.1/DTD/svg11.dtd">
<svg version="1.1" id="Capa_1" xmlns="http://www.w3.org/2000/svg" xmlns:xlink="http://www.w3.org/1999/xlink" x="0px" y="0px"
	 width="480px" height="450px" viewBox="0 0 480 450" enable-background="new 0 0 480 450" xml:space="preserve">
<g>
	<defs>
		<path id="SVGID_31_" d="M30.011,225.001c0-115.973,94.017-209.99,209.987-209.99c115.975,0,209.99,94.016,209.991,209.99
			c-0.001,115.973-94.017,209.989-209.991,209.988C124.027,434.989,30.011,340.973,30.011,225.001z"/>
	</defs>
	<clipPath id="SVGID_2_">
		<use xlink:href="#SVGID_31_"  overflow="visible"/>
	</clipPath>
	<g clip-path="url(#SVGID_2_)">
		<g>
			<polygon fill="#F0976B" points="275,-102 275,45 271,45 271,47 275,47 275,54 283,54 283,-102 			"/>
			<polygon fill="#F0976B" points="207,45 207,-102 199,-102 199,54 207,54 207,47 211,47 211,45 			"/>
		</g>
		<path fill="#F0976B" d="M8.563,355.532c-8.667-15.403-28.176-20.865-43.581-12.201l-125.503,70.6
			c-15.405,8.664-20.868,28.175-12.201,43.582c8.664,15.402,28.175,20.865,43.578,12.199l125.505-70.599
			C11.768,390.446,17.228,370.937,8.563,355.532z"/>
		<path d="M12.425,364.53c-0.393-0.697-0.746-1.406-1.081-2.119c-0.475-1.729-1.107-3.434-1.892-5.102
			c-0.333-0.712-0.687-1.414-1.076-2.109c-4.48-7.967-11.864-13.264-20.079-15.335c-2.525,8.14-1.84,17.256,2.667,25.265
			c4.474,7.957,11.837,13.268,20.04,15.359c6.325,1.615,13.149,1.316,19.535-1.156C23.119,376.94,16.548,371.86,12.425,364.53z"/>
		<g>
			<path fill="#F0976B" d="M472.426,355.324c-8.727,15.37-3.336,34.901,12.036,43.624l125.239,71.072
				c15.371,8.723,34.902,3.334,43.623-12.037c8.721-15.369,3.334-34.903-12.037-43.625l-125.24-71.07
				C500.676,334.565,481.145,339.954,472.426,355.324z"/>
			<polygon fill="#FEC629" points="458.165,347.487 462.145,340.47 467.121,347.932 472.049,355.366 463.12,354.933 
				454.188,354.495 			"/>
			<g>
				<path fill="#FEC629" d="M472.543,354.456c-0.176,0.296-0.358,0.583-0.531,0.885c-0.277,0.492-0.541,0.988-0.791,1.487
					c2.594,0.472,5.158,1.374,7.587,2.749C476.375,358.198,474.279,356.452,472.543,354.456z"/>
				<path fill="#FEC629" d="M478.808,359.577c-2.429-1.375-4.993-2.277-7.587-2.749c-7.391,14.753-2.308,32.782,11.76,41.493
					c1.885-1.69,3.535-3.703,4.857-6.026C494.376,380.769,490.335,366.118,478.808,359.577z"/>
				<path fill="#FEC629" d="M472.543,354.456c1.736,1.996,3.832,3.742,6.265,5.121c11.527,6.541,26.177,2.499,32.718-9.027
					c1.439-2.535,2.364-5.223,2.813-7.941C499.488,335.048,481.252,340.19,472.543,354.456z"/>
			</g>
			<polygon fill="#F0976B" points="511.058,416.91 382.876,344.952 384.832,341.465 383.089,340.485 381.133,343.974 
				375.026,340.546 371.108,347.523 507.142,423.889 			"/>
			<polygon fill="#F0976B" points="416.162,284.656 544.345,356.617 548.262,349.64 412.229,273.275 408.312,280.251 
				414.419,283.679 412.46,287.166 414.202,288.146 			"/>
		</g>
		<polygon fill="#F0976B" points="-65.372,357.139 62.571,284.757 64.541,288.236 66.281,287.253 64.312,283.771 70.406,280.324 
			66.467,273.359 -69.313,350.175 		"/>
		<polygon fill="#F0976B" points="96.91,344.461 -31.036,416.841 -27.096,423.805 108.683,346.99 104.743,340.027 98.648,343.474 
			96.68,339.992 94.94,340.976 		"/>
	</g>
</g>
</svg>
