<?xml version="1.0" encoding="utf-8"?>
<!-- Generator: Adobe Illustrator 16.0.0, SVG Export Plug-In . SVG Version: 6.00 Build 0)  -->
<!DOCTYPE svg PUBLIC "-//W3C//DTD SVG 1.1//EN" "http://www.w3.org/Graphics/SVG/1.1/DTD/svg11.dtd">
<svg version="1.1" id="Capa_1" xmlns="http://www.w3.org/2000/svg" xmlns:xlink="http://www.w3.org/1999/xlink" x="0px" y="0px"
	 width="480px" height="450px" viewBox="0 0 480 450" enable-background="new 0 0 480 450" xml:space="preserve">
<g>
	<g>
		<defs>
			<circle id="SVGID_1_" cx="239.999" cy="225.001" r="209.989"/>
		</defs>
		<clipPath id="SVGID_2_">
			<use xlink:href="#SVGID_1_"  overflow="visible"/>
		</clipPath>
		<g clip-path="url(#SVGID_2_)">
			<g>
				<path fill="#F0976B" d="M239,316.608c-17.674,0.001-32,14.325-32,32.001l0,143.999c0,17.674,14.326,32.001,32,32
					c17.669,0.001,32-14.326,32-31.999V348.608C270.999,330.937,256.671,316.609,239,316.608z"/>
				<polygon fill="#EC4346" points="238.999,380.003 234.938,380.003 236.967,369.551 239,359.438 241.031,369.723 243.061,380.003 
									"/>
				<path d="M252.805,335.201"/>
				<path fill="#FEC629" d="M239,411.606c-17.676,0.002-32.001-14.324-32.001-31.998l0,113c0,17.674,14.326,32.001,32,32
					c17.669,0.001,32-14.326,32-31.999V379.608C270.999,397.282,256.67,411.608,239,411.606z"/>
				<path d="M238.998,316.609c-17.673,0-32.001,13.999-32,32h40.028l2.03-6.665l2.025-6.321l2.028,6.493l2.027,6.493h15.861
					C270.998,330.609,256.67,316.609,238.998,316.609z"/>
				<path d="M246.999,308.606c0.001,4.42-3.582,8.002-8,8.003c-4.416,0-8-3.583-8-8c0-4.419,3.582-8.002,8.001-8.001
					C243.417,300.607,246.999,304.191,246.999,308.606z"/>
				<path fill="#F0976B" d="M169.69,317.523c0.001-18.235,6.79-35.647,18.98-48.912l2.332,2.332l1.414-1.414l-2.374-2.374
					c1.399-1.429,2.323-2.339,3.433-3.348l-5.268-6.031c-16.78,15.243-26.351,36.926-26.351,59.58
					c-0.001,28.699,15.485,55.419,40.368,69.78l3.901-6.832C183.712,367.37,169.691,343.374,169.69,317.523z"/>
				<path fill="#F0976B" d="M290.846,257.666l-5.405,5.896c1.107,1.008,2.396,2.474,3.089,3.195l-2.773,2.772l1.415,1.414
					l2.827-2.827c12.191,13.265,19.23,30.924,19.228,49.157c0.001,25.851-13.909,49.959-36.322,62.895l4.006,6.936
					c24.882-14.361,40.343-41.104,40.342-69.805C317.249,294.643,307.626,272.91,290.846,257.666z"/>
			</g>
			<path d="M328.409,160.091"/>
			<path fill="#F0976B" d="M353.36,241.085c-15.897,8.943-34.79,11.455-52.328,7.327l0.901-3.222l-1.926-0.539l-0.918,3.282
				c-0.968-0.25-2.785-0.771-4.209-1.242l-2.479,7.604c21.513,7.149,45.2,4.889,64.944-6.22
				c25.014-14.069,40.759-40.652,41.076-69.379l-8.038-0.102C390.101,204.477,375.887,228.415,353.36,241.085z"/>
			<path fill="#F0976B" d="M242.182,164.946l7.795,1.8c0.334-1.461,0.854-3.361,1.145-4.317l3.126,0.874l0.539-1.926l-3.066-0.858
				c5.853-18.095,17.517-31.896,33.41-40.838c22.529-12.672,50.356-12.356,72.621,0.837l4.079-6.887
				c-24.719-14.642-55.605-15.007-80.62-0.935C261.463,123.805,247.239,142.847,242.182,164.946z"/>
			<path fill="#F0976B" d="M317.437,180.47c8.667,15.404,28.176,20.866,43.58,12.202l125.504-70.6
				c15.405-8.664,20.868-28.176,12.201-43.582c-8.664-15.403-28.177-20.865-43.578-12.199l-125.505,70.598
				C314.232,145.557,308.772,165.065,317.437,180.47z"/>
			<polygon fill="#EC4346" points="371.166,150.576 373.157,154.119 363.883,157.004 354.493,159.957 361.833,153.496 
				369.178,147.037 			"/>
			<path d="M313.574,171.473c0.393,0.696,0.746,1.406,1.081,2.118c0.475,1.73,1.107,3.435,1.892,5.103
				c0.333,0.711,0.687,1.415,1.076,2.109c4.48,7.968,11.864,13.265,20.079,15.335c2.525-8.14,1.84-17.256-2.666-25.265
				c-4.475-7.957-11.838-13.269-20.04-15.359c-6.326-1.615-13.149-1.316-19.536,1.157
				C302.88,159.063,309.451,164.143,313.574,171.473z"/>
			<g>
				<path d="M382.438,166.638c0,0,0.258-14.974-6.707-17.266c-1.372-0.449-2.353,0.105-2.353,0.105s-0.938,0.5-0.856,1.789
					c0.091,1.471,1.299,3.422,4.997,4.446c1.263,0.353,2.591,1.083,3.434,3.962C381.455,161.387,382.438,166.638,382.438,166.638z"
					/>
				<path d="M363.416,132.824c0,0,12.934,7.558,11.271,14.693c-0.327,1.409-1.308,1.959-1.308,1.959s-0.914,0.542-1.977-0.193
					c-1.209-0.846-2.246-2.889-1.205-6.58c0.358-1.263,0.422-2.779-1.604-4.996C367.394,136.394,363.416,132.824,363.416,132.824z"
					/>
			</g>
			<g>
				<path d="M138.552,182.606"/>
				<path fill="#F0976B" d="M194.946,119.056c15.864,8.999,27.658,23.503,33.173,40.653l-3.03,0.836l0.533,1.929l3.09-0.854
					c0.553,1.924,0.883,3.169,1.212,4.63l7.846-1.606c-4.978-22.12-19.109-41.144-38.814-52.326
					c-24.958-14.167-55.84-13.886-80.611,0.663l4.018,6.772C144.673,106.644,172.465,106.295,194.946,119.056z"/>
				<path fill="#F0976B" d="M187.207,253.959l-2.385-7.63c-1.423,0.466-3.223,0.974-4.191,1.222l-1.074-3.9l-1.929,0.531
					l1.058,3.841c-17.552,4.059-36.458,1.482-52.318-7.52c-22.479-12.757-36.617-36.746-36.805-62.622l-8.031,0.065
					c0.21,28.73,15.834,55.375,40.793,69.54C142.027,258.67,165.669,261.03,187.207,253.959z"/>
				<path fill="#F0976B" d="M160.573,180.678c8.726-15.369,3.336-34.9-12.036-43.624L23.3,65.982
					c-15.372-8.724-34.903-3.335-43.624,12.036c-8.722,15.369-3.334,34.903,12.037,43.625l125.239,71.071
					C132.323,201.438,151.855,196.049,160.573,180.678z"/>
				<polygon fill="#EC4346" points="106.455,150.976 108.463,147.44 115.827,153.958 123.254,160.508 113.853,157.507 
					104.45,154.506 				"/>
				<path fill="#A4CB57" d="M77.95,133.792c8.725-15.371,28.258-20.763,43.626-12.041L23.3,65.982
					c-15.372-8.724-34.903-3.335-43.624,12.036c-8.722,15.369-3.334,34.903,12.037,43.625l98.275,55.772
					C74.62,168.692,69.229,149.16,77.95,133.792z"/>
				<polygon fill="#FEC629" points="174.834,188.517 170.855,195.532 165.878,188.071 160.949,180.637 169.879,181.069 
					178.812,181.508 				"/>
				<g>
					<path fill="#FEC629" d="M160.456,181.547c0.176-0.296,0.358-0.583,0.531-0.885c0.277-0.492,0.541-0.988,0.792-1.487
						c-2.594-0.472-5.159-1.375-7.587-2.749C156.624,177.804,158.721,179.551,160.456,181.547z"/>
					<path fill="#FEC629" d="M154.192,176.426c2.428,1.375,4.993,2.277,7.587,2.749c7.389-14.753,2.307-32.781-11.761-41.493
						c-1.885,1.69-3.534,3.703-4.856,6.026C138.623,155.233,142.665,169.885,154.192,176.426z"/>
					<path fill="#FEC629" d="M160.456,181.547c-1.735-1.996-3.832-3.743-6.264-5.121c-11.527-6.541-26.177-2.499-32.718,9.027
						c-1.439,2.534-2.364,5.223-2.813,7.94C133.512,200.955,151.747,195.813,160.456,181.547z"/>
				</g>
			</g>
			<g>
				<g>
					<g>
						<defs>
							<path id="SVGID_3_" d="M498.667,76.868c-8.836-15.306-28.658-20.405-44.269-11.393L356.34,122.09
								c15.612-9.015,35.435-3.914,44.27,11.392c8.837,15.304,3.345,35.02-12.269,44.033l98.058-56.613
								C502.009,111.888,507.503,92.172,498.667,76.868z"/>
						</defs>
						<clipPath id="SVGID_4_">
							<use xlink:href="#SVGID_3_"  overflow="visible"/>
						</clipPath>
						
							<rect x="343.606" y="20.162" transform="matrix(0.5 0.866 -0.866 0.5 316.6514 -307.1835)" clip-path="url(#SVGID_4_)" fill="#FFFFFF" width="161.499" height="200.951"/>
					</g>
				</g>
				<g>
					<g>
						<defs>
							<path id="SVGID_5_" d="M498.667,76.868c-8.836-15.306-28.658-20.405-44.269-11.393L356.34,122.09
								c15.612-9.015,35.435-3.914,44.27,11.392c8.837,15.304,3.345,35.02-12.269,44.033l98.058-56.613
								C502.009,111.888,507.503,92.172,498.667,76.868z"/>
						</defs>
						<clipPath id="SVGID_6_">
							<use xlink:href="#SVGID_5_"  overflow="visible"/>
						</clipPath>
						
							<rect x="414.299" y="97.354" transform="matrix(0.5 0.866 -0.866 0.5 317.1556 -338.2976)" clip-path="url(#SVGID_6_)" fill="#2FA1BE" width="74.501" height="16.32"/>
					</g>
				</g>
				<g>
					<g>
						<defs>
							<path id="SVGID_7_" d="M498.667,76.868c-8.836-15.306-28.658-20.405-44.269-11.393L356.34,122.09
								c15.612-9.015,35.435-3.914,44.27,11.392c8.837,15.304,3.345,35.02-12.269,44.033l98.058-56.613
								C502.009,111.888,507.503,92.172,498.667,76.868z"/>
						</defs>
						<clipPath id="SVGID_8_">
							<use xlink:href="#SVGID_7_"  overflow="visible"/>
						</clipPath>
						
							<rect x="386.472" y="113.42" transform="matrix(0.5 0.866 -0.866 0.5 317.1537 -306.1635)" clip-path="url(#SVGID_8_)" fill="#2FA1BE" width="74.5" height="16.321"/>
					</g>
				</g>
				<g>
					<g>
						<defs>
							<path id="SVGID_9_" d="M498.667,76.868c-8.836-15.306-28.658-20.405-44.269-11.393L356.34,122.09
								c15.612-9.015,35.435-3.914,44.27,11.392c8.837,15.304,3.345,35.02-12.269,44.033l98.058-56.613
								C502.009,111.888,507.503,92.172,498.667,76.868z"/>
						</defs>
						<clipPath id="SVGID_10_">
							<use xlink:href="#SVGID_9_"  overflow="visible"/>
						</clipPath>
						
							<rect x="358.203" y="129.74" transform="matrix(0.5 0.866 -0.866 0.5 317.1547 -273.5222)" clip-path="url(#SVGID_10_)" fill="#2FA1BE" width="74.499" height="16.322"/>
					</g>
				</g>
			</g>
		</g>
	</g>
</g>
</svg>
