<?xml version="1.0" encoding="utf-8"?>
<!-- Generator: Adobe Illustrator 16.0.0, SVG Export Plug-In . SVG Version: 6.00 Build 0)  -->
<!DOCTYPE svg PUBLIC "-//W3C//DTD SVG 1.1//EN" "http://www.w3.org/Graphics/SVG/1.1/DTD/svg11.dtd">
<svg version="1.1" id="Capa_1" xmlns="http://www.w3.org/2000/svg" xmlns:xlink="http://www.w3.org/1999/xlink" x="0px" y="0px"
	 width="480px" height="450px" viewBox="0 0 480 450" enable-background="new 0 0 480 450" xml:space="preserve">
<pattern  x="4098" y="5377" width="114" height="20" patternUnits="userSpaceOnUse" id="Nueva_muestra_de_motivo_4" viewBox="0 -20 114 20" overflow="visible">
	<g>
		<polygon fill="none" points="0,0 114,0 114,-20 0,-20 		"/>
		<polygon fill="#FFFFFF" points="114,0 0,0 0,-10 114,-10 		"/>
		<polygon fill="#2FA1BE" points="114,-10 0,-10 0,-20 114,-20 		"/>
	</g>
</pattern>
<g>
	<defs>
		<circle id="SVGID_13_" cx="240" cy="225" r="209.989"/>
	</defs>
	<clipPath id="SVGID_2_">
		<use xlink:href="#SVGID_13_"  overflow="visible"/>
	</clipPath>
	<g clip-path="url(#SVGID_2_)">
		<g>
			<path fill="#F0976B" d="M303.934,290.617c-12.497,12.497-12.497,32.758,0,45.255l101.823,101.823
				c12.498,12.497,32.758,12.497,45.255,0c12.496-12.495,12.497-32.757,0-45.255L349.188,290.617
				C336.691,278.12,316.43,278.121,303.934,290.617z"/>
			<polygon fill="#EC4346" points="349.285,333.148 346.413,336.021 340.899,327.636 335.408,319.271 343.783,324.774 
				352.156,330.277 			"/>
			<path d="M326.976,293.868"/>
			<path fill="#FEC629" d="M371.108,357.792c-12.497,12.498-32.757,12.498-45.254,0l79.902,79.903
				c12.498,12.497,32.758,12.497,45.255,0c12.496-12.495,12.497-32.757,0-45.255l-79.903-79.902
				C383.606,325.035,383.604,345.297,371.108,357.792z"/>
			<path d="M304.673,290.08c-12.498,12.497-12.729,32.527,0,45.255l28.305-28.305l-2.835-5.705l-2.815-5.682l5.693,2.825
				l5.691,2.827l11.216-11.216C337.199,277.353,317.169,277.584,304.673,290.08z"/>
			<circle cx="298.915" cy="284.322" r="8"/>
			<path fill="#F0976B" d="M255.707,339.574C242.812,326.678,235.3,309,234.543,291H239v-2h-4.518c-0.021-2-0.011-2.73,0.061-4.227
				l-7.99-0.26c-1.087,22.646,7.477,44.885,23.497,60.905c20.294,20.294,50.137,28.309,77.887,20.869l-2.071-7.839
				C300.868,365.152,273.985,357.852,255.707,339.574z"/>
			<path fill="#F0976B" d="M299.05,212.143l0.385,7.99c1.496-0.071,2.991-0.275,4.481-0.254L303.914,223H307v-2.867
				c18,0.757,34.883,8.269,47.777,21.164c18.279,18.278,25.198,45.161,18.496,70.156l7.593,2.072
				c7.438-27.749-0.613-57.592-20.908-77.886C343.939,219.619,321.695,211.056,299.05,212.143z"/>
		</g>
		<path d="M256.615,116.586"/>
		<path fill="#F0976B" d="M331.53,156.215c-4.917,17.564-16.502,32.699-31.82,42.183l-1.641-2.916l-1.742,0.98l1.671,2.969
			c-0.86,0.51-2.514,1.426-3.854,2.098l3.625,7.131c20.268-10.155,35.418-28.504,41.525-50.32
			c7.738-27.637,0.075-57.566-20.013-78.104l-5.756,5.612C331.623,104.349,338.499,131.325,331.53,156.215z"/>
		<path fill="#F0976B" d="M199.077,180.993l6.783-4.24c-0.797-1.27-1.772-2.982-2.244-3.863l2.829-1.593l-0.98-1.742l-2.776,1.561
			c-8.656-16.933-10.168-34.94-5.252-52.502c6.971-24.891,26.87-44.346,51.943-50.758l-1.985-7.754
			c-27.832,7.124-49.931,28.708-57.668,56.345C183.619,138.265,187.026,161.788,199.077,180.993z"/>
		<path fill="#F0976B" d="M263.267,138.755c17.02,4.764,34.678-5.169,39.443-22.188L341.533-22.1
			c4.768-17.02-5.168-34.679-22.188-39.443c-17.019-4.766-34.678,5.169-39.441,22.188L241.079,99.312
			C236.313,116.332,246.248,133.989,263.267,138.755z"/>
		<polygon fill="#EC4346" points="280.121,79.623 284.034,80.722 279.517,89.318 274.965,98.047 275.587,88.287 276.212,78.528 		
			"/>
		<path d="M254.174,135.123c0.771,0.216,1.521,0.467,2.263,0.734c1.559,0.886,3.211,1.646,4.945,2.27
			c0.738,0.267,1.484,0.515,2.252,0.73c8.802,2.465,17.77,0.989,25.041-3.354c-3.969-7.542-10.901-13.503-19.75-15.979
			c-8.79-2.462-17.752-1.011-25.03,3.31c-5.615,3.331-10.229,8.367-12.997,14.632C237.837,133.911,246.075,132.855,254.174,135.123z
			"/>
		<g>
			<path d="M299.449,83.011c0,0-10.406-10.771-16.95-7.465c-1.288,0.65-1.591,1.735-1.591,1.735s-0.311,1.018,0.659,1.871
				c1.104,0.976,3.338,1.501,6.678-0.388c1.142-0.646,2.599-1.066,5.231,0.373C295.04,79.993,299.449,83.011,299.449,83.011z"/>
			<path d="M262.089,72.551c0,0,14.487-3.801,18.358,2.421c0.765,1.227,0.461,2.31,0.461,2.31s-0.262,1.03-1.535,1.259
				c-1.452,0.259-3.63-0.452-5.505-3.8c-0.64-1.146-1.666-2.263-4.666-2.397C267.425,72.264,262.089,72.551,262.089,72.551z"/>
		</g>
		
			<pattern  id="SVGID_3_" xlink:href="#Nueva_muestra_de_motivo_4" patternTransform="matrix(-1.5206 -0.4257 0.4257 -1.5206 -21032.9688 -37177.5273)">
		</pattern>
		<path fill="url(#SVGID_3_)" d="M288.882,47.271c17.018,4.765,26.949,22.423,22.186,39.443L341.533-22.1
			c4.768-17.02-5.168-34.679-22.188-39.443c-17.019-4.766-34.678,5.169-39.441,22.188L249.438,69.46
			C254.204,52.441,271.862,42.506,288.882,47.271z"/>
		<g>
			<path d="M138.286,266.755"/>
			<path fill="#F0976B" d="M133.226,181.941c17.581-4.854,36.177-2.938,52.204,5.289l-1.551,2.733l1.74,0.986l1.58-2.787
				c1.751,0.969,2.865,1.614,4.132,2.416l4.411-6.684c-19.161-12.123-42.605-15.581-64.446-9.555
				c-27.665,7.632-49.303,29.667-56.532,57.472l7.629,1.947C88.901,208.712,108.307,188.814,133.226,181.941z"/>
			<path fill="#F0976B" d="M223.146,282.805l-7.082-3.71c-0.677,1.337-1.59,2.969-2.1,3.829l-3.519-1.997l-0.987,1.738l3.463,1.967
				c-9.541,15.281-24.731,26.828-42.312,31.678c-24.916,6.876-51.876-0.089-70.306-18.254l-5.632,5.727
				c20.463,20.164,50.353,27.959,78.017,20.326C194.529,318.083,212.916,303.036,223.146,282.805z"/>
			<path fill="#F0976B" d="M152.495,249.819c-4.698-17.037-22.32-27.036-39.357-22.335l-138.813,38.303
				c-17.036,4.7-27.036,22.321-22.335,39.357c4.701,17.034,22.323,27.036,39.359,22.336l138.812-38.304
				C147.198,284.476,157.198,266.854,152.495,249.819z"/>
			<polygon fill="#EC4346" points="93.224,267.084 92.145,263.167 101.96,262.566 111.844,261.946 103.074,266.474 94.303,270.999 
							"/>
			<path fill="#A4CB57" d="M60.918,275.089c-4.701-17.037,5.3-34.661,22.335-39.36l-108.929,30.059
				c-17.036,4.7-27.036,22.321-22.335,39.357c4.701,17.034,22.323,27.036,39.359,22.336l108.929-30.056
				C83.24,302.123,65.618,292.124,60.918,275.089z"/>
			<polygon fill="#FEC629" points="168.121,245.278 170.269,253.055 161.474,251.296 152.731,249.525 159.353,243.518 
				165.978,237.511 			"/>
			<g>
				<path fill="#FEC629" d="M153.026,250.519c-0.084-0.335-0.159-0.668-0.25-1.002c-0.151-0.545-0.315-1.082-0.492-1.613
					c-2.168,1.503-4.619,2.678-7.309,3.423C147.671,250.58,150.387,250.334,153.026,250.519z"/>
				<path fill="#FEC629" d="M144.976,251.326c2.689-0.745,5.141-1.92,7.309-3.423c-5.207-15.655-21.549-24.811-37.656-21.022
					c-0.137,2.526,0.119,5.118,0.827,7.694C118.982,247.35,132.199,254.852,144.976,251.326z"/>
				<path fill="#FEC629" d="M153.026,250.519c-2.64-0.185-5.355,0.062-8.051,0.808c-12.776,3.525-20.277,16.741-16.752,29.519
					c0.774,2.811,2.021,5.364,3.626,7.604C147.697,283.294,156.956,266.763,153.026,250.519z"/>
			</g>
		</g>
	</g>
</g>
</svg>
