<?xml version="1.0" encoding="utf-8"?>
<!-- Generator: Adobe Illustrator 16.0.0, SVG Export Plug-In . SVG Version: 6.00 Build 0)  -->
<!DOCTYPE svg PUBLIC "-//W3C//DTD SVG 1.1//EN" "http://www.w3.org/Graphics/SVG/1.1/DTD/svg11.dtd">
<svg version="1.1" id="Capa_1" xmlns="http://www.w3.org/2000/svg" xmlns:xlink="http://www.w3.org/1999/xlink" x="0px" y="0px"
	 width="480px" height="450px" viewBox="0 0 480 450" enable-background="new 0 0 480 450" xml:space="preserve">
<path fill="#F0976B" d="M304.364,160.04c0.352,0.388,0.712,0.769,1.086,1.143c0.003,0.002,0.007,0.006,0.009,0.008
	c0.003,0.003,0.006,0.007,0.009,0.009c0.356,0.356,0.721,0.7,1.09,1.036c-0.371-0.339-0.738-0.686-1.098-1.044
	C305.082,160.814,304.718,160.43,304.364,160.04z"/>
<path fill="#F0976B" d="M305.458,115.937c-0.017,0.016-0.03,0.032-0.046,0.048C305.428,115.969,305.443,115.953,305.458,115.937
	L305.458,115.937z"/>
<path fill="#F0976B" d="M372.631,94.017c-12.493-12.496-32.756-12.498-45.253,0l-21.92,21.919l11.217,11.216l-3.158,6.025
	l-3.157,6.026l5.901-3.039l6.149-3.277l28.303,28.304l21.92-21.919C385.13,126.774,385.131,106.515,372.631,94.017z M344.33,125.193
	l-8.587,5.713l5.835-8.709l5.834-8.704l2.872,2.872l2.872,2.872L344.33,125.193z"/>
<polygon fill="#EC4346" points="347.412,113.493 341.578,122.197 335.743,130.906 344.33,125.193 353.156,119.237 350.284,116.365 
	"/>
<path fill="#FEC629" d="M372.631,94.017c12.5,12.498,12.499,32.757,0.002,45.254l37.33-37.331
	c-6.402-8.803-13.563-17.225-21.504-25.165c-7.448-7.448-15.321-14.211-23.534-20.306l-37.547,37.547
	C339.875,81.519,360.138,81.521,372.631,94.017z"/>
<path d="M306.557,162.236c12.547,11.452,31.796,11.318,44.157-1.044l-0.001-0.001C338.575,173.33,319.116,173.675,306.557,162.236z"
	/>
<path d="M305.412,115.985c-12.28,12.331-12.436,31.476-1.094,44.007C292.99,147.447,293.355,128.093,305.412,115.985z"/>
<path d="M316.261,136.165l-5.901,3.039l3.157-6.026l3.158-6.025l-11.217-11.216c-0.016,0.017-0.03,0.033-0.046,0.049
	c-12.058,12.107-12.422,31.462-1.094,44.007c0.001,0.001,0.003,0.003,0.005,0.005c0.013,0.014,0.027,0.028,0.04,0.042
	c0.354,0.39,0.719,0.774,1.096,1.152c0.359,0.359,0.727,0.706,1.098,1.044c12.56,11.439,32.019,11.093,44.156-1.045l-28.303-28.304
	L316.261,136.165z"/>
<path d="M305.449,161.183c-3.126-3.114-8.185-3.112-11.307,0.01c-3.122,3.122-3.122,8.188,0.001,11.311
	c3.124,3.126,8.19,3.126,11.314,0.001c3.12-3.12,3.122-8.181,0.009-11.305c-0.003-0.002-0.006-0.006-0.009-0.008
	C305.455,161.189,305.452,161.185,305.449,161.183z"/>
<polygon points="305.449,161.183 305.458,161.192 305.467,161.2 305.458,161.191 "/>
<path fill="#F0976B" d="M355.115,209.553c-12.896,12.895-30.01,20.406-48.008,21.167v-3.298h-2v3.357
	c-2,0.021-3.296,0.011-4.795-0.061l-0.539,7.989c22.644,1.087,44.742-7.478,60.762-23.497
	c20.295-20.293,28.239-50.135,20.798-77.886l-7.59,2.073C380.446,164.392,373.393,191.274,355.115,209.553z"/>
<path fill="#F0976B" d="M227.118,166.209l7.991-0.348c-0.069-1.494,0.055-3.443,0.075-4.442h3.922l-0.001-2h-3.998
	c0.758-18,8.268-35.463,21.163-48.356c18.279-18.28,45.162-25.491,70.156-18.789l2.072-7.737
	c-27.749-7.439-57.592,0.538-77.886,20.833C234.595,121.392,226.031,143.565,227.118,166.209z"/>
<path fill="#F0976B" d="M223.635,167.493c-10.156-20.268-28.504-35.418-50.32-41.525c-27.636-7.739-57.566-0.075-78.103,20.014
	l5.611,5.757c18.501-18.103,45.478-24.979,70.367-18.009c17.565,4.917,32.7,16.501,42.182,31.821l-2.915,1.64l0.982,1.743
	l2.969-1.671c0.508,0.86,1.423,2.514,2.098,3.854L223.635,167.493z"/>
<path fill="#F0976B" d="M187.865,261.642l-1.592-2.828l-1.743,0.98l1.561,2.774c-16.934,8.657-34.94,10.168-52.501,5.254
	c-24.891-6.971-44.343-26.871-50.758-51.943l-7.754,1.985c7.125,27.832,28.706,49.931,56.346,57.668
	c21.818,6.108,45.342,2.701,64.543-9.35l-4.239-6.784C190.457,260.195,188.746,261.172,187.865,261.642z"/>
<path fill="#F0976B" d="M83.239,154.138c-10.104,3.205-18.366,11.213-21.273,22.061c-2.906,10.848,0.245,21.914,7.392,29.741
	c4.1,4.49,9.51,7.917,15.857,9.618l-17.2-4.609l-15.766-4.224l-7.255-1.945l69.291,19.401c8.259,2.312,16.663,1.156,23.675-2.582
	c-0.047-0.08-0.103-0.154-0.15-0.233c-4.323-7.278-5.773-16.241-3.311-25.031c2.449-8.754,8.312-15.625,15.737-19.615
	c-4.067-6.679-10.57-11.895-18.694-14.17l-34.854-9.758C92.051,152.292,87.483,152.792,83.239,154.138z M89.946,184.812
	c1.227-0.764,2.311-0.459,2.311-0.459s1.03,0.262,1.261,1.534c0.257,1.453-0.454,3.631-3.801,5.505
	c-1.146,0.64-2.263,1.667-2.398,4.666c-0.08,1.777,0.208,7.114,0.208,7.114S83.724,188.682,89.946,184.812z M104.294,185.743
	l8.728,4.551l-9.759-0.621l-9.761-0.626l1.097-3.909l1.097-3.913L104.294,185.743z M97.987,165.811c0,0-3.018,4.409-3.874,5.974
	c-1.44,2.632-1.018,4.087-0.375,5.23c1.892,3.338,1.366,5.572,0.39,6.677c-0.854,0.969-1.87,0.66-1.87,0.66s-1.086-0.303-1.738-1.59
	C87.216,176.217,97.987,165.811,97.987,165.811z"/>
<path fill="#F0976B" d="M150.833,208.823c-0.058,0.161-0.112,0.326-0.168,0.489c1.293-2.255,2.333-4.702,3.066-7.32
	c0.021-0.075,0.036-0.149,0.057-0.224c-0.206,0.715-0.434,1.417-0.684,2.109C152.478,205.611,151.72,207.265,150.833,208.823z"/>
<path fill="#F0976B" d="M62.073,143.099L48.36,139.26c-0.022,0.049-0.044,0.098-0.066,0.147l4.756,1.274L62.073,143.099z"/>
<polygon fill="#EC4346" points="93.502,189.047 103.263,189.673 113.022,190.294 104.294,185.743 95.696,181.225 94.599,185.138 "/>
<path d="M137.96,221.599c3.331,5.507,8.304,10.033,14.48,12.763c-3.554-6.939-4.609-15.178-2.341-23.276
	c0.168-0.602,0.362-1.19,0.565-1.773C147.627,214.605,143.179,218.816,137.96,221.599z"/>
<path d="M153.787,201.769c0.014-0.048,0.032-0.095,0.046-0.143c2.466-8.802,0.99-17.769-3.354-25.042
	c-0.082,0.043-0.161,0.092-0.242,0.135C154.652,183.97,156.188,192.945,153.787,201.769z"/>
<path d="M134.499,196.334c-2.463,8.79-1.012,17.752,3.311,25.031c0.048,0.079,0.103,0.154,0.15,0.233
	c5.219-2.783,9.667-6.993,12.704-12.287c0.057-0.163,0.11-0.328,0.168-0.489c0.887-1.559,1.646-3.212,2.271-4.946
	c0.25-0.691,0.478-1.394,0.684-2.109c2.401-8.824,0.865-17.799-3.551-25.049C142.811,180.709,136.948,187.581,134.499,196.334z"/>
<path d="M90.521,182.762c0.652,1.287,1.738,1.59,1.738,1.59s1.017,0.309,1.87-0.66c0.976-1.104,1.501-3.338-0.39-6.677
	c-0.643-1.143-1.065-2.599,0.375-5.23c0.855-1.565,3.874-5.974,3.874-5.974S87.216,176.217,90.521,182.762z"/>
<path d="M87.318,196.057c0.135-3,1.252-4.026,2.398-4.666c3.347-1.874,4.058-4.052,3.801-5.505c-0.23-1.272-1.261-1.534-1.261-1.534
	s-1.083-0.305-2.311,0.459c-6.222,3.87-2.419,18.359-2.419,18.359S87.239,197.834,87.318,196.057z"/>
<path fill="#F0976B" d="M202.206,279.83l2.733,1.551l0.988-1.74l-2.789-1.581c0.969-1.752,1.615-2.866,2.417-4.132l-6.684-4.413
	c-12.121,19.162-15.583,42.606-9.555,64.445c7.631,27.665,29.665,49.305,57.469,56.531l1.946-7.628
	c-25.044-6.505-44.942-25.91-51.815-50.83C192.063,314.452,193.979,295.857,202.206,279.83z"/>
<path fill="#F0976B" d="M339.081,292.57c-6.022-21.84-21.07-40.227-41.301-50.456l-3.709,7.081c1.335,0.677,2.967,1.591,3.827,2.101
	l-1.998,3.517l1.74,0.988l1.967-3.464c15.28,9.541,26.828,24.731,31.678,42.312c6.874,24.915-0.091,51.875-18.256,70.306
	l5.725,5.633C338.92,350.124,346.714,320.234,339.081,292.57z"/>
<path fill="#F0976B" d="M290.066,404.342c17.016-4.695,27.01-22.285,22.347-39.303l-8.261-29.94
	c-1.674-6.066-4.992-11.235-9.333-15.172c3.855,3.587,6.874,8.162,8.605,13.483c-2.239,1.604-4.794,2.852-7.604,3.626
	c-12.775,3.524-25.992-3.976-29.519-16.752c3.526,12.776-3.977,25.994-16.749,29.521c-2.499,0.686-5.007,0.941-7.462,0.83
	c0.113,0.496,0.234,0.992,0.37,1.487l8.269,29.966C255.461,399.072,273.055,409.033,290.066,404.342z M278.142,373.115l-0.6-9.816
	l-0.62-9.883l4.526,8.77l4.526,8.771l-3.914,1.078L278.142,373.115z"/>
<polygon fill="#EC4346" points="281.448,362.186 276.922,353.416 277.542,363.299 278.142,373.115 282.061,372.035 285.975,370.957 
	"/>
<path fill="#A4CB57" d="M312.412,365.039l14.222,51.541l0.001-0.001l-14.236-51.596
	C312.404,365.002,312.407,365.021,312.412,365.039z"/>
<path fill="#A4CB57" d="M250.703,382.007l14.281,51.755h0.002l-14.258-51.674C250.721,382.061,250.711,382.034,250.703,382.007z"/>
<path fill="#A4CB57" d="M290.066,404.342c-17.011,4.691-34.604-5.27-39.337-22.254l14.258,51.674
	c21.122-2.52,41.931-8.256,61.647-17.182l-14.222-51.541C317.075,382.057,307.081,399.646,290.066,404.342z"/>
<path fill="#FEC629" d="M264.51,312.479l1.763-8.692l1.757-8.795l-7.775,2.146l-7.768,2.144l6.006,6.627l5.975,6.583
	c0.008-0.003,0.017-0.005,0.025-0.008C264.498,312.481,264.504,312.48,264.51,312.479z"/>
<path fill="#FEC629" d="M264.796,312.765c0.229-0.063,0.458-0.113,0.687-0.172c0.007-0.118,0.002-0.241,0.01-0.359
	c-0.326,0.083-0.652,0.156-0.982,0.245l-0.01,0.05l-0.033-0.037c-0.536,0.149-1.064,0.311-1.586,0.484
	c0.07,0.103,0.131,0.213,0.199,0.316C263.645,313.102,264.216,312.925,264.796,312.765z"/>
<path fill="#FEC629" d="M265.483,312.593c-0.229,0.059-0.458,0.108-0.687,0.172c-0.58,0.16-1.151,0.337-1.716,0.527
	c1.4,2.091,2.512,4.429,3.221,6.992C265.59,317.711,265.344,315.118,265.483,312.593z"/>
<path fill="#FEC629" d="M264.51,312.479c-0.006,0.002-0.012,0.003-0.018,0.005c-0.009,0.003-0.018,0.005-0.025,0.008l0.033,0.037
	L264.51,312.479z"/>
<path fill="#FEC629" d="M263.08,313.292c-0.068-0.104-0.129-0.214-0.199-0.316c-15.658,5.207-24.812,21.548-21.024,37.656
	c0.077,0.004,0.156,0,0.233,0.003C238.48,334.651,247.576,318.504,263.08,313.292z"/>
<path fill="#FEC629" d="M249.552,349.805c12.772-3.526,20.275-16.744,16.749-29.521c-0.709-2.563-1.82-4.901-3.221-6.992
	c-15.504,5.212-24.6,21.359-20.99,37.343C244.545,350.746,247.053,350.49,249.552,349.805z"/>
<path fill="#FEC629" d="M294.819,319.927c-7.625-7.092-18.535-10.304-29.326-7.693c-0.008,0.118-0.003,0.241-0.01,0.359
	C276.23,309.876,287.134,312.959,294.819,319.927z"/>
<path fill="#FEC629" d="M265.483,312.593c-0.139,2.526,0.107,5.118,0.818,7.691c3.526,12.776,16.743,20.276,29.519,16.752
	c2.811-0.774,5.365-2.021,7.604-3.626c-1.731-5.321-4.75-9.896-8.605-13.483C287.134,312.959,276.23,309.876,265.483,312.593z"/>
<path fill="#FEC629" d="M265.483,312.593c-0.139,2.525,0.107,5.118,0.818,7.691C265.59,317.711,265.344,315.119,265.483,312.593z"/>
<polygon fill="#FFFFFF" points="36.486,202.5 44.995,204.78 36.511,202.405 "/>
<path fill="#FFFFFF" d="M96.688,152.791c1.692,0.183,3.394,0.493,5.091,0.948l-17.198-4.608l-0.068,0.252L96.688,152.791z"/>
<polygon fill="#FFFFFF" points="68.814,144.906 62.073,143.099 68.794,144.981 "/>
<polygon fill="#FFFFFF" points="36.511,202.405 44.995,204.78 52.25,206.725 68.794,144.981 62.073,143.099 53.05,140.682 "/>
<path fill="#FFFFFF" d="M83.239,154.138c4.245-1.346,8.812-1.846,13.449-1.347l-12.175-3.408L83.239,154.138z"/>
<path fill="#FFFFFF" d="M85.215,215.557c-6.348-1.701-11.758-5.127-15.857-9.618l-1.342,5.009L85.215,215.557z"/>
<path fill="#2FA1BE" d="M36.511,202.405l-5.116-1.433c-0.006,0.053-0.011,0.106-0.018,0.159l5.107,1.369L36.511,202.405z"/>
<path fill="#2FA1BE" d="M53.05,140.682l-4.756-1.274c-8.82,19.703-14.457,40.482-16.897,61.565l5.116,1.433L53.05,140.682z"/>
<polygon fill="#2FA1BE" points="84.512,149.382 84.581,149.13 68.814,144.906 68.794,144.981 "/>
<path fill="#2FA1BE" d="M69.358,205.939c-7.147-7.827-10.298-18.893-7.392-29.741c2.907-10.848,11.168-18.856,21.273-22.061
	l1.274-4.755l-15.719-4.401L52.25,206.725l15.766,4.224L69.358,205.939z"/>
</svg>
