<?xml version="1.0" encoding="utf-8"?>
<!-- Generator: Adobe Illustrator 16.0.0, SVG Export Plug-In . SVG Version: 6.00 Build 0)  -->
<!DOCTYPE svg PUBLIC "-//W3C//DTD SVG 1.1//EN" "http://www.w3.org/Graphics/SVG/1.1/DTD/svg11.dtd">
<svg version="1.1" id="Capa_1" xmlns="http://www.w3.org/2000/svg" xmlns:xlink="http://www.w3.org/1999/xlink" x="0px" y="0px"
	 width="480px" height="450px" viewBox="0 0 480 450" enable-background="new 0 0 480 450" xml:space="preserve">
<pattern  x="1793" y="5377" width="114" height="20" patternUnits="userSpaceOnUse" id="Nueva_muestra_de_motivo_4" viewBox="0 -20 114 20" overflow="visible">
	<g>
		<polygon fill="none" points="0,0 114,0 114,-20 0,-20 		"/>
		<polygon fill="#FFFFFF" points="114,0 0,0 0,-10 114,-10 		"/>
		<polygon fill="#2FA1BE" points="114,-10 0,-10 0,-20 114,-20 		"/>
	</g>
</pattern>
<g>
	<defs>
		<circle id="SVGID_22_" cx="240" cy="225.001" r="209.989"/>
	</defs>
	<clipPath id="SVGID_2_">
		<use xlink:href="#SVGID_22_"  overflow="visible"/>
	</clipPath>
	<g clip-path="url(#SVGID_2_)">
		<g>
			<path fill="#F0976B" d="M241,133.394c17.674-0.001,32-14.326,32-32.001V-42.606c0-17.674-14.326-32.001-32-32
				c-17.67-0.001-32,14.326-32,31.999v144.001C209,119.066,223.328,133.393,241,133.394z"/>
			<polygon fill="#EC4346" points="239.197,70 243.258,70 241.229,80.452 239.197,90.564 237.164,80.28 235.135,70 			"/>
			<path d="M227.195,114.802"/>
			<path fill="#FEC629" d="M240.999,38.396C258.675,38.394,273,52.72,273,70.394v-113c0-17.674-14.326-32.001-32-32
				c-17.67-0.001-32,14.326-32,31.999V70.394C209,52.72,223.329,38.394,240.999,38.396z"/>
			<path d="M240.288,132c17.673,0,32.001-14,32-32H232.26l-2.03,6.665l-2.026,6.322l-2.028-6.494L224.149,100h-15.862
				C208.288,118,222.616,132,240.288,132z"/>
			<path d="M232.288,141.396c-0.001-4.42,3.582-8.002,8.001-8.003c4.416,0,7.999,3.583,8,8c-0.001,4.419-3.582,8.001-8.002,8
				C235.87,149.394,232.288,145.811,232.288,141.396z"/>
			<path fill="#F0976B" d="M310.31,132.478c-0.001,18.237-6.79,35.649-18.981,48.913l-2.332-2.332l-1.414,1.414l2.374,2.374
				c-1.399,1.429-2.323,2.339-3.432,3.348l5.267,6.031c16.781-15.243,26.351-36.925,26.351-59.58
				c0.001-28.7-15.485-55.419-40.368-69.78l-3.902,6.832C296.287,82.633,310.309,106.629,310.31,132.478z"/>
			<path fill="#F0976B" d="M189.154,192.337l5.404-5.896c-1.107-1.008-2.396-2.473-3.088-3.195l2.773-2.773l-1.415-1.414
				l-2.827,2.827c-12.191-13.264-19.229-30.923-19.227-49.157c-0.001-25.851,13.909-49.959,36.322-62.894l-4.006-6.936
				c-24.882,14.361-40.343,41.104-40.342,69.805C162.75,155.359,172.373,177.093,189.154,192.337z"/>
		</g>
		<path d="M151.59,289.911"/>
		<path fill="#F0976B" d="M126.64,208.917c15.897-8.943,34.79-11.454,52.328-7.326l-0.901,3.221l1.925,0.538l0.918-3.281
			c0.968,0.249,2.786,0.771,4.209,1.242l2.479-7.604c-21.513-7.15-45.2-4.889-64.944,6.219
			c-25.014,14.069-40.759,40.652-41.077,69.379l8.038,0.102C89.899,245.526,104.113,221.588,126.64,208.917z"/>
		<path fill="#F0976B" d="M237.818,285.056l-7.795-1.799c-0.334,1.461-0.854,3.361-1.145,4.317l-3.126-0.874l-0.539,1.926
			l3.067,0.859c-5.853,18.094-17.517,31.896-33.411,40.838c-22.529,12.672-50.356,12.356-72.621-0.838l-4.079,6.887
			c24.719,14.642,55.606,15.008,80.62,0.935C218.536,326.198,232.761,307.155,237.818,285.056z"/>
		<path fill="#F0976B" d="M162.563,269.532c-8.667-15.403-28.176-20.865-43.58-12.201l-125.504,70.6
			c-15.405,8.664-20.868,28.175-12.201,43.582c8.664,15.402,28.175,20.865,43.578,12.199l125.505-70.599
			C165.768,304.446,171.228,284.937,162.563,269.532z"/>
		<polygon fill="#EC4346" points="108.833,299.427 106.842,295.884 116.116,292.999 125.506,290.046 118.166,296.507 
			110.822,302.966 		"/>
		<path d="M166.425,278.53c-0.393-0.697-0.746-1.406-1.081-2.119c-0.475-1.729-1.107-3.434-1.892-5.102
			c-0.333-0.712-0.686-1.414-1.076-2.109c-4.48-7.967-11.864-13.264-20.079-15.335c-2.525,8.14-1.84,17.256,2.667,25.265
			c4.474,7.957,11.837,13.268,20.04,15.359c6.325,1.615,13.149,1.316,19.535-1.156C177.119,290.94,170.548,285.86,166.425,278.53z"
			/>
		<g>
			<path d="M97.562,283.364c0,0-0.258,14.975,6.707,17.266c1.371,0.449,2.352-0.104,2.352-0.104s0.938-0.501,0.857-1.789
				c-0.091-1.471-1.299-3.422-4.997-4.447c-1.263-0.352-2.591-1.084-3.434-3.963C98.545,288.616,97.562,283.364,97.562,283.364z"/>
			<path d="M116.583,317.179c0,0-12.933-7.557-11.27-14.693c0.327-1.409,1.307-1.959,1.307-1.959s0.914-0.543,1.977,0.194
				c1.209,0.845,2.246,2.888,1.205,6.58c-0.358,1.263-0.422,2.778,1.604,4.995C112.606,313.608,116.583,317.179,116.583,317.179z"/>
		</g>
		
			<pattern  id="SVGID_3_" xlink:href="#Nueva_muestra_de_motivo_4" patternTransform="matrix(0.7742 1.3763 -1.3763 0.7742 -21834.1406 7796.1504)">
		</pattern>
		<path fill="url(#SVGID_3_)" d="M79.762,316.108c-8.664-15.401-3.2-34.91,12.203-43.578l-98.485,55.4
			c-15.405,8.664-20.868,28.175-12.201,43.582c8.664,15.402,28.175,20.865,43.578,12.199l98.486-55.402
			C107.938,336.974,88.427,331.513,79.762,316.108z"/>
		<g>
			<path d="M341.448,267.396"/>
			<path fill="#F0976B" d="M285.054,330.947c-15.864-8.999-27.658-23.503-33.174-40.653l3.029-0.836l-0.532-1.928l-3.09,0.854
				c-0.552-1.924-0.883-3.169-1.212-4.631l-7.845,1.607c4.977,22.12,19.108,41.144,38.813,52.326
				c24.958,14.166,55.84,13.885,80.612-0.664l-4.018-6.771C335.326,343.359,307.534,343.708,285.054,330.947z"/>
			<path fill="#F0976B" d="M292.792,196.044l2.385,7.63c1.423-0.466,3.223-0.974,4.191-1.222l1.075,3.9l1.928-0.531l-1.057-3.841
				c17.551-4.058,36.458-1.482,52.318,7.52c22.479,12.757,36.617,36.745,36.805,62.622l8.031-0.066
				c-0.21-28.729-15.834-55.375-40.793-69.539C337.973,191.333,314.33,188.972,292.792,196.044z"/>
			<path fill="#F0976B" d="M319.426,269.324c-8.726,15.37-3.336,34.901,12.036,43.624L456.7,384.021
				c15.372,8.723,34.903,3.334,43.624-12.037c8.721-15.369,3.334-34.903-12.037-43.625l-125.24-71.07
				C347.676,248.565,328.145,253.954,319.426,269.324z"/>
			<polygon fill="#EC4346" points="373.544,299.028 371.537,302.562 364.172,296.045 356.745,289.495 366.147,292.495 
				375.55,295.497 			"/>
			<path fill="#A4CB57" d="M402.049,316.211c-8.725,15.371-28.258,20.763-43.626,12.04l98.277,55.77
				c15.372,8.723,34.903,3.334,43.624-12.037c8.721-15.369,3.334-34.903-12.037-43.625l-98.276-55.771
				C405.379,281.311,410.771,300.843,402.049,316.211z"/>
			<polygon fill="#FEC629" points="305.165,261.487 309.145,254.47 314.121,261.932 319.05,269.366 310.12,268.933 301.188,268.495 
							"/>
			<g>
				<path fill="#FEC629" d="M319.543,268.456c-0.176,0.296-0.358,0.583-0.531,0.885c-0.277,0.492-0.541,0.988-0.791,1.487
					c2.594,0.472,5.158,1.374,7.587,2.749C323.375,272.198,321.279,270.452,319.543,268.456z"/>
				<path fill="#FEC629" d="M325.808,273.577c-2.429-1.375-4.993-2.277-7.587-2.749c-7.39,14.753-2.308,32.782,11.761,41.493
					c1.884-1.69,3.534-3.703,4.856-6.026C341.376,294.769,337.335,280.118,325.808,273.577z"/>
				<path fill="#FEC629" d="M319.543,268.456c1.736,1.996,3.832,3.742,6.265,5.121c11.527,6.541,26.177,2.499,32.718-9.027
					c1.439-2.535,2.364-5.223,2.813-7.941C346.488,249.048,328.252,254.19,319.543,268.456z"/>
			</g>
		</g>
	</g>
</g>
</svg>
