<?xml version="1.0" encoding="utf-8"?>
<!-- Generator: Adobe Illustrator 16.0.0, SVG Export Plug-In . SVG Version: 6.00 Build 0)  -->
<!DOCTYPE svg PUBLIC "-//W3C//DTD SVG 1.1//EN" "http://www.w3.org/Graphics/SVG/1.1/DTD/svg11.dtd">
<svg version="1.1" id="Capa_1" xmlns="http://www.w3.org/2000/svg" xmlns:xlink="http://www.w3.org/1999/xlink" x="0px" y="0px"
	 width="480px" height="450px" viewBox="0 0 480 450" enable-background="new 0 0 480 450" xml:space="preserve">
<g>
	<g>
		<g>
			<defs>
				<circle id="SVGID_1_" cx="239.999" cy="225.002" r="209.989"/>
			</defs>
			<clipPath id="SVGID_2_">
				<use xlink:href="#SVGID_1_"  overflow="visible"/>
			</clipPath>
			<g clip-path="url(#SVGID_2_)">
				<g>
					<path fill="#F0976B" d="M304.069,290.484c-12.497,12.498-12.497,32.758,0,45.256l101.823,101.822
						c12.497,12.498,32.758,12.498,45.255,0c12.495-12.493,12.497-32.757,0.001-45.254L349.323,290.484
						C336.827,277.989,316.565,277.989,304.069,290.484z"/>
					<polygon fill="#EC4346" points="348.895,335.312 346.023,338.183 340.067,329.357 334.354,320.771 343.063,326.605 
						351.767,332.439 					"/>
					<path d="M326.977,293.869"/>
					<path fill="#FEC629" d="M371.242,357.658c-12.497,12.5-32.757,12.499-45.254,0.002l79.903,79.902
						c12.497,12.498,32.758,12.498,45.255,0c12.495-12.493,12.497-32.757,0.001-45.254l-79.904-79.903
						C383.74,324.902,383.739,345.165,371.242,357.658z"/>
					<path d="M304.069,290.486c-12.497,12.496-12.729,32.527,0,45.255l28.304-28.305l-3.277-6.148l-3.038-5.901l6.025,3.157
						l6.025,3.158l11.216-11.217C336.595,277.758,316.565,277.99,304.069,290.486z"/>
					<path d="M304.067,279.17c3.126,3.124,3.126,8.19,0.002,11.315c-3.122,3.123-8.19,3.123-11.313,0
						c-3.124-3.125-3.124-8.19,0.002-11.315C295.879,276.047,300.946,276.048,304.067,279.17z"/>
					<path fill="#F0976B" d="M255.707,340.142c-12.896-12.896-20.407-30.009-21.167-48.007h3.298v-2h-3.357
						c-0.021-2-0.011-3.297,0.061-4.795l-7.99-0.54c-1.086,22.644,7.477,44.743,23.497,60.763
						c20.293,20.295,50.135,28.238,77.886,20.797l-2.073-7.589C300.868,365.473,273.986,358.419,255.707,340.142z"/>
					<path fill="#F0976B" d="M299.051,212.145l0.348,7.991c1.494-0.069,3.442,0.055,4.442,0.076l-0.001,3.922l2.001-0.001v-3.998
						c18,0.759,35.463,8.269,48.355,21.163c18.28,18.278,25.491,45.161,18.79,70.156l7.736,2.072
						c7.439-27.749-0.538-57.592-20.834-77.886C343.868,219.622,321.696,211.059,299.051,212.145z"/>
				</g>
				<path d="M256.616,116.588"/>
				<path fill="#F0976B" d="M331.531,156.217c-4.918,17.565-16.501,32.7-31.821,42.182l-1.641-2.915l-1.742,0.982l1.671,2.969
					c-0.86,0.508-2.514,1.423-3.854,2.098l3.624,7.129c20.268-10.156,35.419-28.504,41.525-50.32
					c7.738-27.636,0.075-57.566-20.014-78.103l-5.757,5.61C331.624,104.351,338.5,131.328,331.531,156.217z"/>
				<path fill="#F0976B" d="M199.077,180.993l6.784-4.239c-0.797-1.269-1.773-2.98-2.244-3.862l2.829-1.592l-0.98-1.743
					l-2.774,1.561c-8.657-16.934-10.167-34.94-5.254-52.501c6.97-24.891,26.872-44.343,51.943-50.758l-1.985-7.754
					c-27.832,7.125-49.93,28.706-57.668,56.346C183.619,138.267,187.027,161.791,199.077,180.993z"/>
				<path fill="#F0976B" d="M263.268,138.757c17.021,4.763,34.678-5.169,39.443-22.188l38.823-138.666
					c4.766-17.018-5.168-34.68-22.189-39.444c-17.018-4.765-34.678,5.17-39.44,22.188L241.079,99.312
					C236.314,116.336,246.247,133.991,263.268,138.757z"/>
				<polygon fill="#EC4346" points="280.121,79.625 284.035,80.723 279.517,89.321 274.965,98.048 275.587,88.29 276.213,78.529 
									"/>
				<path d="M254.175,135.126c0.77,0.215,1.521,0.466,2.262,0.733c1.559,0.887,3.212,1.646,4.946,2.271
					c0.738,0.267,1.485,0.514,2.251,0.73c8.803,2.466,17.77,0.99,25.042-3.355c-3.97-7.541-10.9-13.502-19.751-15.979
					c-8.789-2.463-17.752-1.013-25.03,3.31c-5.615,3.331-10.228,8.366-12.997,14.63
					C237.838,133.913,246.076,132.858,254.175,135.126z"/>
				<g>
					<path d="M299.449,83.014c0,0-10.406-10.771-16.951-7.466c-1.287,0.652-1.59,1.738-1.59,1.738s-0.31,1.016,0.66,1.87
						c1.104,0.976,3.338,1.501,6.677-0.39c1.143-0.643,2.599-1.065,5.229,0.375C295.04,79.995,299.449,83.014,299.449,83.014z"/>
					<path d="M262.089,72.553c0,0,14.489-3.803,18.359,2.419c0.765,1.227,0.46,2.311,0.46,2.311s-0.263,1.03-1.534,1.261
						c-1.453,0.257-3.631-0.454-5.505-3.8c-0.64-1.146-1.667-2.263-4.666-2.398C267.426,72.265,262.089,72.553,262.089,72.553z"/>
				</g>
				<g>
					<path d="M138.287,266.758"/>
					<path fill="#F0976B" d="M133.226,181.944c17.581-4.854,36.177-2.938,52.204,5.289l-1.551,2.733l1.74,0.987l1.581-2.789
						c1.752,0.969,2.867,1.615,4.132,2.418l4.413-6.684c-19.162-12.121-42.606-15.583-64.445-9.555
						c-27.665,7.631-49.304,29.666-56.531,57.469l7.628,1.946C88.902,208.715,108.307,188.817,133.226,181.944z"/>
					<path fill="#F0976B" d="M223.146,282.807l-7.082-3.708c-0.677,1.335-1.59,2.967-2.1,3.827l-3.517-1.999l-0.989,1.74
						l3.464,1.968c-9.542,15.28-24.732,26.827-42.312,31.677c-24.915,6.874-51.875-0.09-70.305-18.256l-5.633,5.726
						c20.463,20.166,50.352,27.959,78.017,20.327C194.53,318.086,212.916,303.037,223.146,282.807z"/>
					<path fill="#F0976B" d="M152.496,249.823c-4.698-17.038-22.319-27.038-39.358-22.336l-138.81,38.3
						c-17.039,4.701-27.039,22.322-22.337,39.357c4.7,17.035,22.323,27.038,39.359,22.336l138.812-38.303
						C147.199,284.479,157.199,266.856,152.496,249.823z"/>
					<polygon fill="#EC4346" points="93.225,267.087 92.145,263.168 101.961,262.569 111.844,261.949 103.075,266.476 
						94.303,271.002 					"/>
					<path fill="#A4CB57" d="M60.919,275.093c-4.7-17.039,5.3-34.663,22.334-39.362l-108.926,30.057
						c-17.039,4.7-27.039,22.321-22.336,39.356c4.7,17.036,22.323,27.038,39.359,22.336l108.927-30.054
						C83.242,302.125,65.618,292.127,60.919,275.093z"/>
					<polygon fill="#FEC629" points="168.122,245.281 170.269,253.056 161.474,251.3 152.732,249.527 159.352,243.52 
						165.978,237.513 					"/>
					<g>
						<path fill="#FEC629" d="M153.027,250.52c-0.084-0.333-0.159-0.665-0.25-1.001c-0.152-0.544-0.316-1.081-0.493-1.611
							c-2.167,1.501-4.619,2.676-7.309,3.421C147.671,250.583,150.388,250.335,153.027,250.52z"/>
						<path fill="#FEC629" d="M144.976,251.328c2.69-0.745,5.141-1.92,7.309-3.421c-5.207-15.657-21.548-24.812-37.656-21.023
							c-0.138,2.528,0.12,5.117,0.828,7.695C118.982,247.352,132.199,254.854,144.976,251.328z"/>
						<path fill="#FEC629" d="M153.027,250.52c-2.638-0.185-5.355,0.063-8.051,0.809c-12.776,3.526-20.277,16.743-16.751,29.519
							c0.774,2.81,2.021,5.364,3.625,7.604C147.698,283.296,156.957,266.766,153.027,250.52z"/>
					</g>
				</g>
				<g>
					<g>
						<g>
							<defs>
								<path id="SVGID_3_" d="M318.366-62.375c-17.071-4.575-34.692,5.835-39.358,23.247l-29.305,109.37
									c4.665-17.414,22.286-27.822,39.358-23.25c17.069,4.574,27.127,22.399,22.46,39.813l29.305-109.37
									C345.493-39.975,335.437-57.801,318.366-62.375z"/>
							</defs>
							<clipPath id="SVGID_4_">
								<use xlink:href="#SVGID_3_"  overflow="visible"/>
							</clipPath>
							
								<rect x="216.019" y="-79.355" transform="matrix(0.9659 0.2588 -0.2588 0.9659 15.5784 -76.0888)" clip-path="url(#SVGID_4_)" fill="#FFFFFF" width="161.501" height="200.953"/>
						</g>
					</g>
					<g>
						<g>
							<defs>
								<path id="SVGID_5_" d="M318.366-62.375c-17.071-4.575-34.692,5.835-39.358,23.247l-29.305,109.37
									c4.665-17.414,22.286-27.822,39.358-23.25c17.069,4.574,27.127,22.399,22.46,39.813l29.305-109.37
									C345.493-39.975,335.437-57.801,318.366-62.375z"/>
							</defs>
							<clipPath id="SVGID_6_">
								<use xlink:href="#SVGID_5_"  overflow="visible"/>
							</clipPath>
							
								<rect x="268.055" y="-16.962" transform="matrix(0.9659 0.2588 -0.2588 0.9659 8.1254 -79.321)" clip-path="url(#SVGID_6_)" fill="#2FA1BE" width="74.501" height="16.32"/>
						</g>
					</g>
					<g>
						<g>
							<defs>
								<path id="SVGID_7_" d="M318.366-62.375c-17.071-4.575-34.692,5.835-39.358,23.247l-29.305,109.37
									c4.665-17.414,22.286-27.822,39.358-23.25c17.069,4.574,27.127,22.399,22.46,39.813l29.305-109.37
									C345.493-39.975,335.437-57.801,318.366-62.375z"/>
							</defs>
							<clipPath id="SVGID_8_">
								<use xlink:href="#SVGID_7_"  overflow="visible"/>
							</clipPath>
							
								<rect x="259.739" y="14.075" transform="matrix(0.9659 0.2588 -0.2588 0.9659 15.8742 -76.1073)" clip-path="url(#SVGID_8_)" fill="#2FA1BE" width="74.5" height="16.321"/>
						</g>
					</g>
					<g>
						<g>
							<defs>
								<path id="SVGID_9_" d="M318.366-62.375c-17.071-4.575-34.692,5.835-39.358,23.247l-29.305,109.37
									c4.665-17.414,22.286-27.822,39.358-23.25c17.069,4.574,27.127,22.399,22.46,39.813l29.305-109.37
									C345.493-39.975,335.437-57.801,318.366-62.375z"/>
							</defs>
							<clipPath id="SVGID_10_">
								<use xlink:href="#SVGID_9_"  overflow="visible"/>
							</clipPath>
							
								<rect x="251.291" y="45.605" transform="matrix(0.9659 0.2588 -0.2588 0.9659 23.7484 -72.8498)" clip-path="url(#SVGID_10_)" fill="#2FA1BE" width="74.499" height="16.322"/>
						</g>
					</g>
				</g>
			</g>
		</g>
	</g>
</g>
</svg>
