<?xml version="1.0" encoding="utf-8"?>
<!-- Generator: Adobe Illustrator 16.0.0, SVG Export Plug-In . SVG Version: 6.00 Build 0)  -->
<!DOCTYPE svg PUBLIC "-//W3C//DTD SVG 1.1//EN" "http://www.w3.org/Graphics/SVG/1.1/DTD/svg11.dtd">
<svg version="1.1" id="Capa_1" xmlns="http://www.w3.org/2000/svg" xmlns:xlink="http://www.w3.org/1999/xlink" x="0px" y="0px"
	 width="480px" height="450px" viewBox="0 0 480 450" enable-background="new 0 0 480 450" xml:space="preserve">
<pattern  x="2562" y="5380" width="114" height="20" patternUnits="userSpaceOnUse" id="Nueva_muestra_de_motivo_4" viewBox="0 -20 114 20" overflow="visible">
	<g>
		<polygon fill="none" points="0,0 114,0 114,-20 0,-20 		"/>
		<polygon fill="#FFFFFF" points="114,0 0,0 0,-10 114,-10 		"/>
		<polygon fill="#2FA1BE" points="114,-10 0,-10 0,-20 114,-20 		"/>
	</g>
</pattern>
<g>
	<defs>
		<circle id="SVGID_19_" cx="240" cy="228" r="209.989"/>
	</defs>
	<clipPath id="SVGID_2_">
		<use xlink:href="#SVGID_19_"  overflow="visible"/>
	</clipPath>
	<g clip-path="url(#SVGID_2_)">
		<g>
			<path fill="#F0976B" d="M305.658,164.107c12.498,12.497,32.758,12.497,45.256,0L452.736,62.284
				c12.498-12.497,12.498-32.758,0-45.255c-12.494-12.495-32.757-12.497-45.254,0L305.658,118.853
				C293.162,131.35,293.163,151.611,305.658,164.107z"/>
			<polygon fill="#EC4346" points="348.148,118.716 351.021,121.588 342.636,127.102 334.271,132.593 339.774,124.216 
				345.276,115.844 			"/>
			<path d="M308.868,141.024"/>
			<path fill="#FEC629" d="M372.832,96.934c12.5,12.497,12.499,32.757,0.002,45.254l79.902-79.903
				c12.498-12.497,12.498-32.758,0-45.255c-12.494-12.495-32.757-12.497-45.254,0l-79.903,79.903
				C340.076,84.436,360.339,84.438,372.832,96.934z"/>
			<path d="M305.079,163.328c12.497,12.497,32.528,12.729,45.255,0l-28.304-28.305l-5.706,2.835l-5.682,2.815l2.825-5.693
				l2.827-5.691l-11.216-11.216C292.352,130.802,292.584,150.832,305.079,163.328z"/>
			<circle cx="299.322" cy="169.086" r="8.001"/>
			<path fill="#F0976B" d="M355.575,212.293C342.678,225.188,326,232.7,308,233.458V230h-2v3.518c-2,0.021-3.73,0.011-5.227-0.06
				l-0.759,7.989c22.645,1.087,44.634-7.478,60.654-23.497c20.294-20.294,28.184-50.137,20.744-77.887l-7.4,2.071
				C380.715,167.132,373.852,194.015,355.575,212.293z"/>
			<path fill="#F0976B" d="M227.143,168.95l7.99-0.427c-0.07-1.496,0.055-3.523,0.076-4.523H240v-2h-4.867
				c0.758-18,8.269-35.383,21.164-48.275c18.278-18.279,45.161-25.45,70.156-18.748l2.071-7.717
				c-27.749-7.438-57.592,0.549-77.885,20.844C234.619,124.123,226.056,146.305,227.143,168.95z"/>
		</g>
		<path d="M131.586,211.384"/>
		<path fill="#F0976B" d="M171.215,136.47c17.564,4.917,32.699,16.502,42.182,31.821l-2.915,1.64l0.98,1.742l2.97-1.671
			c0.509,0.86,1.426,2.515,2.098,3.854l7.13-3.625c-10.155-20.268-28.504-35.418-50.319-41.525
			c-27.637-7.738-57.566-0.075-78.104,20.013l5.612,5.756C119.349,136.377,146.326,129.501,171.215,136.47z"/>
		<path fill="#F0976B" d="M195.992,268.924l-4.24-6.784c-1.269,0.797-2.981,1.772-3.862,2.244l-1.593-2.829l-1.742,0.98l1.561,2.776
			c-16.932,8.656-34.939,10.168-52.502,5.252c-24.891-6.971-44.345-26.87-50.758-51.943l-7.754,1.985
			c7.125,27.832,28.707,49.932,56.346,57.668C153.265,284.381,176.789,280.974,195.992,268.924z"/>
		<path fill="#F0976B" d="M153.755,204.733c4.764-17.02-5.169-34.678-22.188-39.443L-7.1,126.467
			c-17.02-4.767-34.678,5.167-39.444,22.189c-4.765,17.018,5.169,34.677,22.188,39.44l138.666,38.824
			C131.333,231.687,148.989,221.752,153.755,204.733z"/>
		<polygon fill="#EC4346" points="94.623,187.879 95.721,183.966 104.318,188.483 113.047,193.035 103.287,192.413 93.528,191.788 
					"/>
		<path d="M150.123,213.826c0.216-0.771,0.467-1.521,0.734-2.263c0.887-1.559,1.645-3.211,2.27-4.945
			c0.268-0.738,0.515-1.484,0.73-2.252c2.465-8.802,0.989-17.769-3.354-25.041c-7.542,3.969-13.503,10.9-15.979,19.75
			c-2.463,8.79-1.011,17.752,3.311,25.031c3.33,5.614,8.367,10.229,14.631,12.996C148.91,230.164,147.855,221.925,150.123,213.826z"
			/>
		<g>
			<path d="M98.011,168.551c0,0-10.771,10.406-7.466,16.951c0.652,1.287,1.736,1.59,1.736,1.59s1.018,0.31,1.871-0.659
				c0.976-1.104,1.501-3.338-0.389-6.678c-0.645-1.142-1.065-2.599,0.374-5.23C94.993,172.96,98.011,168.551,98.011,168.551z"/>
			<path d="M87.551,205.911c0,0-3.801-14.487,2.421-18.358c1.228-0.765,2.31-0.461,2.31-0.461s1.03,0.262,1.26,1.535
				c0.258,1.452-0.453,3.63-3.801,5.505c-1.146,0.64-2.263,1.666-2.397,4.666C87.264,200.575,87.551,205.911,87.551,205.911z"/>
		</g>
		
			<pattern  id="SVGID_3_" xlink:href="#Nueva_muestra_de_motivo_4" patternTransform="matrix(-0.4257 1.5206 -1.5206 -0.4257 -33665.1641 -6189.6543)">
		</pattern>
		<path fill="url(#SVGID_3_)" d="M62.271,179.118c4.764-17.018,22.422-26.948,39.443-22.186L-7.1,126.467
			c-17.02-4.767-34.678,5.167-39.444,22.189c-4.765,17.018,5.169,34.677,22.188,39.44L84.46,218.562
			C67.441,213.796,57.506,196.138,62.271,179.118z"/>
		<g>
			<path d="M281.756,329.714"/>
			<path fill="#F0976B" d="M196.941,334.774c-4.854-17.581-2.938-36.177,5.289-52.204l2.733,1.551l0.986-1.739l-2.788-1.581
				c0.971-1.751,1.616-2.865,2.418-4.132l-6.684-4.41c-12.123,19.16-15.582,42.604-9.556,64.445
				c7.632,27.665,29.667,49.303,57.472,56.532l1.947-7.629C223.713,379.099,203.814,359.693,196.941,334.774z"/>
			<path fill="#F0976B" d="M297.805,244.854l-3.709,7.082c1.336,0.677,2.968,1.59,3.828,2.1l-1.998,3.519l1.739,0.987l1.968-3.463
				c15.28,9.541,26.828,24.731,31.678,42.312c6.875,24.915-0.09,51.875-18.255,70.306l5.726,5.632
				c20.165-20.463,27.96-50.353,20.327-78.017C333.083,273.471,318.035,255.084,297.805,244.854z"/>
			<path fill="#F0976B" d="M264.82,315.505c-17.038,4.698-27.037,22.32-22.336,39.357l38.303,138.813
				c4.7,17.036,22.321,27.037,39.357,22.335c17.034-4.701,27.037-22.323,22.336-39.359l-38.304-138.812
				C299.476,320.802,281.854,310.802,264.82,315.505z"/>
			<polygon fill="#EC4346" points="282.084,374.776 278.167,375.855 277.566,366.04 276.946,356.156 281.474,364.926 
				285.999,373.697 			"/>
			<path fill="#A4CB57" d="M290.09,407.082c-17.038,4.7-34.662-5.3-39.361-22.335l30.059,108.929
				c4.7,17.036,22.321,27.037,39.357,22.335c17.034-4.701,27.037-22.323,22.336-39.359l-30.056-108.929
				C317.123,384.759,307.124,402.382,290.09,407.082z"/>
			<polygon fill="#FEC629" points="260.278,299.879 268.055,297.731 266.297,306.526 264.525,315.269 258.518,308.647 
				252.512,302.022 			"/>
			<g>
				<path fill="#FEC629" d="M265.518,314.974c-0.334,0.085-0.666,0.159-1.001,0.25c-0.545,0.151-1.082,0.316-1.612,0.492
					c1.502,2.168,2.677,4.619,3.422,7.309C265.581,320.329,265.334,317.613,265.518,314.974z"/>
				<path fill="#FEC629" d="M266.326,323.024c-0.745-2.689-1.92-5.141-3.422-7.309c-15.656,5.207-24.812,21.549-21.023,37.656
					c2.527,0.137,5.118-0.119,7.695-0.827C262.35,349.018,269.852,335.801,266.326,323.024z"/>
				<path fill="#FEC629" d="M265.518,314.974c-0.184,2.64,0.063,5.355,0.809,8.051c3.525,12.776,16.742,20.277,29.519,16.752
					c2.811-0.774,5.364-2.021,7.604-3.626C298.294,320.303,281.763,311.044,265.518,314.974z"/>
			</g>
		</g>
	</g>
</g>
</svg>
