<?xml version="1.0" encoding="utf-8"?>
<!-- Generator: Adobe Illustrator 16.0.0, SVG Export Plug-In . SVG Version: 6.00 Build 0)  -->
<!DOCTYPE svg PUBLIC "-//W3C//DTD SVG 1.1//EN" "http://www.w3.org/Graphics/SVG/1.1/DTD/svg11.dtd">
<svg version="1.1" id="Capa_1" xmlns="http://www.w3.org/2000/svg" xmlns:xlink="http://www.w3.org/1999/xlink" x="0px" y="0px"
	 width="480px" height="450px" viewBox="0 0 480 450" enable-background="new 0 0 480 450" xml:space="preserve">
<g>
	<g>
		<defs>
			<circle id="SVGID_1_" cx="239.999" cy="225.001" r="185.989"/>
		</defs>
		<clipPath id="SVGID_2_">
			<use xlink:href="#SVGID_1_"  overflow="visible"/>
		</clipPath>
		<g clip-path="url(#SVGID_2_)">
			<g>
				<path fill="#F0976B" d="M238.999,316.608c-17.674,0-32,14.326-32,32.001l0,143.999c0,17.673,14.327,32.001,32,32
					c17.67,0,32.001-14.326,32-32l-0.001-144C271,330.937,256.671,316.609,238.999,316.608z"/>
				<polygon fill="#EC4346" points="238.999,380.002 234.938,380.003 236.967,369.551 238.999,359.438 241.032,369.723 
					243.061,380.003 				"/>
				<path d="M252.804,335.2"/>
				<path fill="#FEC629" d="M239,411.606c-17.676,0.001-32.001-14.324-32.001-31.999v113.001c0,17.673,14.327,32.001,32,32
					c17.67,0,32.001-14.326,32-32l0.001-113C270.999,397.282,256.67,411.608,239,411.606z"/>
				<path d="M238.998,316.608c-17.674,0-32.001,14.001-32,32.001l40.028-0.001l2.03-6.665l2.025-6.321l2.027,6.494l2.028,6.493
					l15.861-0.001C270.998,330.609,256.67,316.608,238.998,316.608z"/>
				<path d="M246.999,308.606c0.001,4.42-3.581,8.002-8,8.003c-4.417-0.001-8-3.583-8-8.001s3.582-8,8.002-7.999
					C243.417,300.607,246.999,304.191,246.999,308.606z"/>
				<path fill="#F0976B" d="M169.69,317.524c0.001-18.237,6.789-35.649,18.98-48.913l2.332,2.332l1.414-1.415l-2.374-2.374
					c1.399-1.428,2.323-2.338,3.433-3.347l-5.268-6.032c-16.78,15.244-26.351,36.926-26.351,59.58c0,28.7,15.484,55.42,40.368,69.78
					l3.902-6.831C183.712,367.369,169.69,343.373,169.69,317.524z"/>
				<path fill="#F0976B" d="M290.845,257.666l-5.403,5.896c1.105,1.008,2.396,2.474,3.088,3.195l-2.773,2.772l1.414,1.414
					l2.827-2.827c12.192,13.264,19.23,30.924,19.229,49.157c0,25.851-13.91,49.959-36.323,62.895l4.006,6.936
					c24.882-14.361,40.343-41.104,40.343-69.806C317.248,294.644,307.626,272.909,290.845,257.666z"/>
			</g>
			<path d="M328.409,160.092"/>
			<path fill="#F0976B" d="M353.359,241.085c-15.896,8.943-34.789,11.455-52.328,7.326l0.902-3.221l-1.926-0.538l-0.918,3.281
				c-0.968-0.249-2.786-0.771-4.209-1.243l-2.479,7.605c21.513,7.148,45.199,4.888,64.944-6.22
				c25.014-14.069,40.759-40.652,41.076-69.379l-8.038-0.103C390.1,204.477,375.887,228.414,353.359,241.085z"/>
			<path fill="#F0976B" d="M242.182,164.946l7.795,1.798c0.334-1.46,0.854-3.361,1.145-4.316l3.125,0.874l0.54-1.925l-3.067-0.859
				c5.854-18.094,17.518-31.896,33.41-40.839c22.531-12.673,50.357-12.356,72.621,0.837l4.079-6.887
				c-24.719-14.641-55.604-15.007-80.619-0.935C261.463,123.803,247.239,142.847,242.182,164.946z"/>
			<path fill="#F0976B" d="M317.437,180.469c8.667,15.403,28.177,20.865,43.579,12.202l125.504-70.599
				c15.405-8.665,20.868-28.177,12.202-43.583c-8.664-15.403-28.177-20.865-43.579-12.2l-125.505,70.599
				C314.232,145.557,308.771,165.064,317.437,180.469z"/>
			<polygon fill="#EC4346" points="371.167,150.575 373.156,154.118 363.883,157.002 354.494,159.956 361.833,153.495 
				369.178,147.037 			"/>
			<path d="M313.573,171.473c0.394,0.696,0.746,1.404,1.082,2.118c0.474,1.729,1.107,3.435,1.892,5.103
				c0.334,0.71,0.688,1.414,1.076,2.109c4.48,7.967,11.864,13.265,20.078,15.334c2.526-8.14,1.84-17.256-2.666-25.265
				c-4.474-7.958-11.838-13.269-20.04-15.359c-6.325-1.614-13.148-1.315-19.535,1.157
				C302.879,159.062,309.451,164.143,313.573,171.473z"/>
			<g>
				<path d="M382.439,166.637c0,0,0.256-14.974-6.709-17.265c-1.37-0.448-2.351,0.104-2.351,0.104s-0.939,0.5-0.857,1.791
					c0.091,1.47,1.299,3.422,4.996,4.445c1.263,0.354,2.592,1.085,3.436,3.963C381.453,161.386,382.439,166.637,382.439,166.637z"/>
				<path d="M363.416,132.823c0,0,12.934,7.558,11.271,14.694c-0.328,1.408-1.308,1.959-1.308,1.959s-0.913,0.542-1.976-0.195
					c-1.21-0.846-2.248-2.889-1.206-6.58c0.358-1.263,0.421-2.779-1.604-4.995C367.395,136.393,363.416,132.823,363.416,132.823z"/>
			</g>
			<g>
				<path d="M138.552,182.606"/>
				<path fill="#F0976B" d="M194.946,119.055c15.864,8.999,27.657,23.503,33.173,40.653l-3.029,0.835l0.532,1.929l3.09-0.854
					c0.552,1.924,0.884,3.169,1.211,4.631l7.846-1.607c-4.978-22.121-19.109-41.144-38.813-52.327
					c-24.958-14.166-55.84-13.886-80.612,0.664l4.018,6.771C144.673,106.643,172.465,106.294,194.946,119.055z"/>
				<path fill="#F0976B" d="M187.207,253.958l-2.384-7.63c-1.423,0.466-3.224,0.974-4.192,1.222l-1.074-3.899l-1.929,0.531
					l1.058,3.841c-17.552,4.058-36.459,1.481-52.319-7.521c-22.478-12.757-36.617-36.744-36.804-62.623l-8.032,0.065
					c0.211,28.73,15.835,55.376,40.794,69.541C142.027,258.669,165.669,261.029,187.207,253.958z"/>
				<path fill="#F0976B" d="M160.573,180.678c8.726-15.368,3.336-34.9-12.036-43.625L23.3,65.982
					c-15.372-8.724-34.903-3.336-43.623,12.036c-8.723,15.369-3.335,34.903,12.037,43.625l125.24,71.071
					C132.323,201.437,151.855,196.049,160.573,180.678z"/>
				<polygon fill="#EC4346" points="106.455,150.974 108.462,147.44 115.827,153.957 123.254,160.506 113.853,157.507 
					104.449,154.505 				"/>
				<path fill="#A4CB57" d="M77.95,133.791c8.725-15.37,28.257-20.763,43.626-12.04L23.3,65.982
					c-15.372-8.724-34.903-3.336-43.623,12.036c-8.723,15.369-3.335,34.903,12.037,43.625l98.275,55.771
					C74.62,168.692,69.229,149.159,77.95,133.791z"/>
				<polygon fill="#FEC629" points="174.835,188.517 170.854,195.531 165.878,188.07 160.949,180.635 169.879,181.068 
					178.812,181.506 				"/>
				<g>
					<path fill="#FEC629" d="M160.456,181.546c0.176-0.296,0.359-0.582,0.532-0.885c0.277-0.493,0.541-0.989,0.791-1.487
						c-2.594-0.472-5.158-1.375-7.587-2.749C156.624,177.804,158.72,179.55,160.456,181.546z"/>
					<path fill="#FEC629" d="M154.191,176.425c2.429,1.375,4.993,2.277,7.587,2.749c7.39-14.753,2.308-32.781-11.76-41.493
						c-1.886,1.69-3.535,3.703-4.856,6.026C138.622,155.232,142.664,169.884,154.191,176.425z"/>
					<path fill="#FEC629" d="M160.456,181.546c-1.736-1.996-3.832-3.742-6.265-5.121c-11.527-6.541-26.176-2.498-32.718,9.027
						c-1.438,2.534-2.364,5.222-2.812,7.941C133.512,200.955,151.746,195.812,160.456,181.546z"/>
				</g>
			</g>
			<g>
				<g>
					<g>
						<defs>
							<path id="SVGID_3_" d="M498.667,76.867c-8.837-15.306-28.658-20.406-44.269-11.393l-98.059,56.614
								c15.612-9.015,35.434-3.914,44.269,11.392c8.839,15.305,3.347,35.02-12.268,44.035l98.058-56.615
								C502.009,111.888,507.504,92.171,498.667,76.867z"/>
						</defs>
						<clipPath id="SVGID_4_">
							<use xlink:href="#SVGID_3_"  overflow="visible"/>
						</clipPath>
						
							<rect x="343.605" y="20.16" transform="matrix(0.5 0.866 -0.866 0.5 316.6498 -307.1837)" clip-path="url(#SVGID_4_)" fill="#FFFFFF" width="161.501" height="200.952"/>
					</g>
				</g>
				<g>
					<g>
						<defs>
							<path id="SVGID_5_" d="M498.667,76.867c-8.837-15.306-28.658-20.406-44.269-11.393l-98.059,56.614
								c15.612-9.015,35.434-3.914,44.269,11.392c8.839,15.305,3.347,35.02-12.268,44.035l98.058-56.615
								C502.009,111.888,507.504,92.171,498.667,76.867z"/>
						</defs>
						<clipPath id="SVGID_6_">
							<use xlink:href="#SVGID_5_"  overflow="visible"/>
						</clipPath>
						
							<rect x="414.299" y="97.354" transform="matrix(0.5 0.866 -0.866 0.5 317.1561 -338.2973)" clip-path="url(#SVGID_6_)" fill="#2FA1BE" width="74.501" height="16.32"/>
					</g>
				</g>
				<g>
					<g>
						<defs>
							<path id="SVGID_7_" d="M498.667,76.867c-8.837-15.306-28.658-20.406-44.269-11.393l-98.059,56.614
								c15.612-9.015,35.434-3.914,44.269,11.392c8.839,15.305,3.347,35.02-12.268,44.035l98.058-56.615
								C502.009,111.888,507.504,92.171,498.667,76.867z"/>
						</defs>
						<clipPath id="SVGID_8_">
							<use xlink:href="#SVGID_7_"  overflow="visible"/>
						</clipPath>
						
							<rect x="386.471" y="113.419" transform="matrix(0.5 0.866 -0.866 0.5 317.1461 -306.1622)" clip-path="url(#SVGID_8_)" fill="#2FA1BE" width="74.5" height="16.322"/>
					</g>
				</g>
				<g>
					<g>
						<defs>
							<path id="SVGID_9_" d="M498.667,76.867c-8.837-15.306-28.658-20.406-44.269-11.393l-98.059,56.614
								c15.612-9.015,35.434-3.914,44.269,11.392c8.839,15.305,3.347,35.02-12.268,44.035l98.058-56.615
								C502.009,111.888,507.504,92.171,498.667,76.867z"/>
						</defs>
						<clipPath id="SVGID_10_">
							<use xlink:href="#SVGID_9_"  overflow="visible"/>
						</clipPath>
						
							<rect x="358.203" y="129.74" transform="matrix(0.5 0.866 -0.866 0.5 317.1541 -273.522)" clip-path="url(#SVGID_10_)" fill="#2FA1BE" width="74.501" height="16.322"/>
					</g>
				</g>
			</g>
		</g>
	</g>
</g>
</svg>
