<?xml version="1.0" encoding="utf-8"?>
<!-- Generator: Adobe Illustrator 16.0.0, SVG Export Plug-In . SVG Version: 6.00 Build 0)  -->
<!DOCTYPE svg PUBLIC "-//W3C//DTD SVG 1.1//EN" "http://www.w3.org/Graphics/SVG/1.1/DTD/svg11.dtd">
<svg version="1.1" id="Capa_1" xmlns="http://www.w3.org/2000/svg" xmlns:xlink="http://www.w3.org/1999/xlink" x="0px" y="0px"
	 width="480px" height="450px" viewBox="0 0 480 450" enable-background="new 0 0 480 450" xml:space="preserve">
<g>
	<g>
		<defs>
			<circle id="SVGID_1_" cx="240" cy="225.002" r="209.989"/>
		</defs>
		<clipPath id="SVGID_2_">
			<use xlink:href="#SVGID_1_"  overflow="visible"/>
		</clipPath>
		<g clip-path="url(#SVGID_2_)">
			<g>
				<path fill="#F0976B" d="M305.484,160.933c12.498,12.497,32.757,12.497,45.255,0L452.562,59.109
					c12.497-12.498,12.498-32.758,0-45.255c-12.494-12.495-32.758-12.498-45.255-0.001L305.484,115.678
					C292.988,128.174,292.989,148.436,305.484,160.933z"/>
				<polygon fill="#EC4346" points="350.31,116.106 353.182,118.978 344.356,124.934 335.769,130.647 341.604,121.938 
					347.438,113.234 				"/>
				<path d="M308.867,138.024"/>
				<path fill="#FEC629" d="M372.656,93.758c12.5,12.497,12.499,32.757,0.002,45.254l79.903-79.903
					c12.497-12.498,12.498-32.758,0-45.255c-12.494-12.495-32.758-12.498-45.255-0.001l-79.903,79.904
					C339.901,81.26,360.163,81.262,372.656,93.758z"/>
				<path d="M305.485,160.933c12.497,12.497,32.527,12.729,45.255,0l-28.305-28.304l-6.148,3.277l-5.902,3.038l3.158-6.026
					l3.157-6.025l-11.216-11.215C292.757,128.406,292.989,148.437,305.485,160.933z"/>
				<path d="M294.168,160.934c3.124-3.126,8.19-3.125,11.315-0.001c3.123,3.123,3.124,8.19,0,11.313
					c-3.124,3.125-8.19,3.125-11.314-0.001C291.045,169.122,291.046,164.056,294.168,160.934z"/>
				<path fill="#F0976B" d="M355.14,209.294c-12.896,12.895-30.009,20.406-48.008,21.166v-3.298h-2v3.357
					c-1.999,0.021-3.296,0.011-4.794-0.061l-0.54,7.989c22.644,1.087,44.743-7.478,60.762-23.497
					c20.295-20.293,28.238-50.136,20.798-77.886l-7.59,2.072C380.471,164.133,373.417,191.015,355.14,209.294z"/>
				<path fill="#F0976B" d="M227.143,165.95l7.99-0.348c-0.069-1.495,0.055-3.442,0.076-4.442l3.922,0l0-2h-3.998
					c0.758-18,8.269-35.463,21.164-48.355c18.278-18.28,45.161-25.491,70.156-18.789l2.072-7.737
					c-27.749-7.439-57.592,0.539-77.886,20.834C234.621,121.133,226.057,143.306,227.143,165.95z"/>
			</g>
			<path d="M131.587,208.384"/>
			<path fill="#F0976B" d="M171.216,133.47c17.565,4.918,32.7,16.501,42.182,31.821l-2.916,1.641l0.981,1.742l2.969-1.671
				c0.508,0.86,1.424,2.515,2.098,3.854l7.13-3.624c-10.156-20.268-28.504-35.418-50.32-41.525
				c-27.636-7.739-57.566-0.075-78.104,20.013l5.611,5.756C119.349,133.376,146.326,126.501,171.216,133.47z"/>
			<path fill="#F0976B" d="M195.991,265.924l-4.239-6.784c-1.27,0.797-2.98,1.772-3.862,2.243l-1.592-2.828l-1.743,0.98l1.562,2.775
				c-16.934,8.656-34.94,10.168-52.502,5.253c-24.891-6.971-44.344-26.871-50.759-51.944l-7.754,1.985
				c7.126,27.833,28.707,49.931,56.346,57.668C153.266,281.382,176.789,277.975,195.991,265.924z"/>
			<path fill="#F0976B" d="M153.755,201.733c4.764-17.02-5.169-34.677-22.188-39.443L-7.099,123.467
				c-17.019-4.766-34.679,5.167-39.445,22.189c-4.765,17.018,5.169,34.677,22.188,39.44l138.666,38.825
				C131.334,228.687,148.99,218.753,153.755,201.733z"/>
			<polygon fill="#EC4346" points="94.624,184.879 95.721,180.966 104.32,185.484 113.047,190.036 103.288,189.414 93.528,188.788 
							"/>
			<path d="M150.124,210.826c0.215-0.77,0.466-1.521,0.733-2.262c0.888-1.559,1.646-3.212,2.271-4.946
				c0.268-0.738,0.515-1.485,0.73-2.251c2.466-8.802,0.99-17.769-3.354-25.042c-7.542,3.97-13.503,10.9-15.979,19.75
				c-2.463,8.79-1.012,17.752,3.31,25.031c3.331,5.614,8.367,10.227,14.631,12.996C148.911,227.163,147.857,218.925,150.124,210.826
				z"/>
			<g>
				<path d="M98.012,165.551c0,0-10.771,10.406-7.466,16.951c0.652,1.287,1.737,1.59,1.737,1.59s1.016,0.309,1.871-0.66
					c0.976-1.104,1.501-3.338-0.39-6.677c-0.644-1.143-1.065-2.599,0.375-5.23C94.994,169.96,98.012,165.551,98.012,165.551z"/>
				<path d="M87.552,202.912c0,0-3.802-14.489,2.419-18.359c1.228-0.765,2.31-0.46,2.31-0.46s1.03,0.262,1.261,1.534
					c0.257,1.453-0.455,3.631-3.801,5.505c-1.146,0.64-2.263,1.667-2.398,4.666C87.264,197.575,87.552,202.912,87.552,202.912z"/>
			</g>
			<g>
				<path d="M281.756,326.714"/>
				<path fill="#F0976B" d="M196.943,331.774c-4.854-17.581-2.938-36.177,5.289-52.203l2.733,1.551l0.987-1.74l-2.789-1.581
					c0.97-1.751,1.616-2.865,2.418-4.131l-6.684-4.412c-12.122,19.161-15.582,42.605-9.555,64.445
					c7.631,27.665,29.666,49.304,57.47,56.532l1.947-7.629C223.714,376.1,203.816,356.693,196.943,331.774z"/>
				<path fill="#F0976B" d="M297.806,241.855l-3.709,7.081c1.335,0.677,2.967,1.591,3.827,2.1l-1.998,3.518l1.739,0.988l1.969-3.464
					c15.28,9.542,26.827,24.732,31.677,42.312c6.874,24.915-0.09,51.875-18.256,70.305l5.726,5.633
					c20.166-20.463,27.96-50.353,20.327-78.017C333.084,270.472,318.035,252.084,297.806,241.855z"/>
				<path fill="#F0976B" d="M264.822,312.505c-17.037,4.698-27.037,22.319-22.336,39.358l38.301,138.812
					c4.701,17.038,22.321,27.038,39.357,22.336c17.034-4.7,27.038-22.323,22.336-39.359L304.176,334.84
					C299.477,317.802,281.855,307.802,264.822,312.505z"/>
				<polygon fill="#EC4346" points="282.085,371.775 278.167,372.856 277.568,363.04 276.948,353.157 281.474,361.926 286,370.698 
									"/>
				<path fill="#A4CB57" d="M290.091,404.082c-17.038,4.7-34.663-5.3-39.362-22.334l30.058,108.927
					c4.701,17.038,22.321,27.038,39.357,22.336c17.034-4.7,27.038-22.323,22.336-39.359l-30.055-108.928
					C317.124,381.759,307.125,399.383,290.091,404.082z"/>
				<polygon fill="#FEC629" points="260.28,296.879 268.055,294.732 266.298,303.526 264.526,312.269 258.518,305.648 
					252.511,299.022 				"/>
				<g>
					<path fill="#FEC629" d="M265.518,311.975c-0.333,0.084-0.665,0.158-1.001,0.249c-0.544,0.152-1.081,0.316-1.611,0.493
						c1.501,2.167,2.677,4.618,3.421,7.309C265.582,317.33,265.334,314.612,265.518,311.975z"/>
					<path fill="#FEC629" d="M266.326,320.025c-0.744-2.69-1.92-5.142-3.421-7.309c-15.656,5.206-24.811,21.548-21.023,37.656
						c2.528,0.137,5.117-0.12,7.695-0.828C262.35,346.019,269.853,332.802,266.326,320.025z"/>
					<path fill="#FEC629" d="M265.518,311.975c-0.184,2.638,0.064,5.355,0.809,8.051c3.526,12.776,16.743,20.276,29.519,16.751
						c2.81-0.773,5.365-2.021,7.604-3.625C298.294,317.303,281.765,308.044,265.518,311.975z"/>
				</g>
			</g>
			<g>
				<g>
					<g>
						<defs>
							<path id="SVGID_3_" d="M-47.652,146.842c-4.574,17.071,5.836,34.693,23.247,39.358l109.37,29.306
								c-17.414-4.665-27.823-22.288-23.248-39.358c4.573-17.071,22.397-27.127,39.811-22.461L-7.841,124.381
								C-25.252,119.715-43.078,129.771-47.652,146.842z"/>
						</defs>
						<clipPath id="SVGID_4_">
							<use xlink:href="#SVGID_3_"  overflow="visible"/>
						</clipPath>
						
							<rect x="-44.905" y="67.963" transform="matrix(0.2588 -0.9659 0.9659 0.2588 -136.1324 159.4658)" clip-path="url(#SVGID_4_)" fill="#FFFFFF" width="161.499" height="200.952"/>
					</g>
				</g>
				<g>
					<g>
						<defs>
							<path id="SVGID_5_" d="M-47.652,146.842c-4.574,17.071,5.836,34.693,23.247,39.358l109.37,29.306
								c-17.414-4.665-27.823-22.288-23.248-39.358c4.573-17.071,22.397-27.127,39.811-22.461L-7.841,124.381
								C-25.252,119.715-43.078,129.771-47.652,146.842z"/>
						</defs>
						<clipPath id="SVGID_6_">
							<use xlink:href="#SVGID_5_"  overflow="visible"/>
						</clipPath>
						
							<rect x="-31.329" y="151.744" transform="matrix(0.2588 -0.9659 0.9659 0.2588 -150.0658 124.2355)" clip-path="url(#SVGID_6_)" fill="#2FA1BE" width="74.501" height="16.319"/>
					</g>
				</g>
				<g>
					<g>
						<defs>
							<path id="SVGID_7_" d="M-47.652,146.842c-4.574,17.071,5.836,34.693,23.247,39.358l109.37,29.306
								c-17.414-4.665-27.823-22.288-23.248-39.358c4.573-17.071,22.397-27.127,39.811-22.461L-7.841,124.381
								C-25.252,119.715-43.078,129.771-47.652,146.842z"/>
						</defs>
						<clipPath id="SVGID_8_">
							<use xlink:href="#SVGID_7_"  overflow="visible"/>
						</clipPath>
						
							<rect x="-0.291" y="160.059" transform="matrix(0.2588 -0.9659 0.9659 0.2588 -135.0943 160.381)" clip-path="url(#SVGID_8_)" fill="#2FA1BE" width="74.499" height="16.322"/>
					</g>
				</g>
				<g>
					<g>
						<defs>
							<path id="SVGID_9_" d="M-47.652,146.842c-4.574,17.071,5.836,34.693,23.247,39.358l109.37,29.306
								c-17.414-4.665-27.823-22.288-23.248-39.358c4.573-17.071,22.397-27.127,39.811-22.461L-7.841,124.381
								C-25.252,119.715-43.078,129.771-47.652,146.842z"/>
						</defs>
						<clipPath id="SVGID_10_">
							<use xlink:href="#SVGID_9_"  overflow="visible"/>
						</clipPath>
						
							<rect x="31.239" y="168.508" transform="matrix(0.2588 -0.9659 0.9659 0.2588 -119.8864 197.097)" clip-path="url(#SVGID_10_)" fill="#2FA1BE" width="74.499" height="16.322"/>
					</g>
				</g>
			</g>
		</g>
	</g>
</g>
</svg>
