<?xml version="1.0" encoding="utf-8"?>
<!-- Generator: Adobe Illustrator 16.0.0, SVG Export Plug-In . SVG Version: 6.00 Build 0)  -->
<!DOCTYPE svg PUBLIC "-//W3C//DTD SVG 1.1//EN" "http://www.w3.org/Graphics/SVG/1.1/DTD/svg11.dtd">
<svg version="1.1" id="Capa_1" xmlns="http://www.w3.org/2000/svg" xmlns:xlink="http://www.w3.org/1999/xlink" x="0px" y="0px"
	 width="480px" height="450px" viewBox="0 0 480 450" enable-background="new 0 0 480 450" xml:space="preserve">
<g>
	<g>
		<g>
			<defs>
				<circle id="SVGID_1_" cx="239.999" cy="225.001" r="185.476"/>
			</defs>
			<clipPath id="SVGID_2_">
				<use xlink:href="#SVGID_1_"  overflow="visible"/>
			</clipPath>
			<g clip-path="url(#SVGID_2_)">
				<g>
					<path fill="#F0976B" d="M239,316.608c-17.674,0.001-32,14.326-32,32.001l0,143.999c0,17.674,14.326,32.001,32,32
						c17.669,0.001,32-14.326,32-31.999V348.608C270.999,330.937,256.671,316.609,239,316.608z"/>
					<polygon fill="#EC4346" points="238.999,380.003 234.938,380.002 236.967,369.55 238.999,359.438 241.031,369.723 
						243.061,380.003 					"/>
					<path d="M252.805,335.2"/>
					<path fill="#FEC629" d="M239,411.606c-17.675,0.002-32-14.324-32-31.998l0,113c0,17.674,14.326,32.001,32,32
						c17.669,0.001,32-14.326,32-31.999l-0.001-113.001C270.999,397.282,256.67,411.608,239,411.606z"/>
					<path d="M238.998,316.609c-17.673,0-32,14-32,32h40.028l2.03-6.665l2.024-6.321l2.028,6.493l2.027,6.493h15.862
						C270.998,330.609,256.67,316.609,238.998,316.609z"/>
					<path d="M246.999,308.606c0.001,4.42-3.581,8.002-8,8.003c-4.416,0-8-3.583-8-8c0-4.419,3.583-8.001,8.002-8
						C243.418,300.608,246.999,304.192,246.999,308.606z"/>
					<path fill="#F0976B" d="M169.69,317.524c0-18.236,6.79-35.648,18.979-48.913l2.332,2.332l1.414-1.414l-2.374-2.374
						c1.4-1.429,2.323-2.339,3.434-3.348l-5.268-6.031c-16.779,15.243-26.351,36.925-26.351,59.581
						c-0.001,28.699,15.483,55.418,40.368,69.778l3.9-6.832C183.712,367.37,169.691,343.373,169.69,317.524z"/>
					<path fill="#F0976B" d="M290.847,257.666l-5.405,5.896c1.105,1.008,2.396,2.474,3.088,3.195l-2.773,2.772l1.415,1.414
						l2.827-2.827c12.191,13.265,19.229,30.923,19.229,49.157c0.001,25.851-13.909,49.959-36.322,62.895l4.006,6.936
						c24.882-14.361,40.343-41.104,40.342-69.806C317.25,294.644,307.626,272.91,290.847,257.666z"/>
				</g>
				<path d="M328.409,160.091"/>
				<path fill="#F0976B" d="M353.36,241.085c-15.897,8.943-34.79,11.455-52.328,7.326l0.901-3.221l-1.927-0.538l-0.918,3.281
					c-0.968-0.249-2.783-0.771-4.209-1.242l-2.479,7.604c21.513,7.15,45.2,4.89,64.944-6.218
					c25.014-14.07,40.759-40.653,41.075-69.379l-8.038-0.104C390.101,204.477,375.887,228.415,353.36,241.085z"/>
				<path fill="#F0976B" d="M242.182,164.946l7.795,1.799c0.334-1.461,0.854-3.361,1.145-4.317l3.126,0.874l0.539-1.925
					l-3.065-0.858c5.853-18.095,17.517-31.896,33.409-40.839c22.529-12.672,50.356-12.354,72.621,0.838l4.079-6.887
					c-24.719-14.642-55.604-15.008-80.62-0.935C261.463,123.804,247.239,142.847,242.182,164.946z"/>
				<path fill="#F0976B" d="M317.437,180.47c8.667,15.403,28.177,20.866,43.58,12.201l125.504-70.6
					c15.403-8.664,20.868-28.176,12.201-43.582c-8.664-15.403-28.177-20.865-43.578-12.199l-125.505,70.598
					C314.232,145.557,308.772,165.065,317.437,180.47z"/>
				<polygon fill="#EC4346" points="371.166,150.575 373.157,154.119 363.883,157.003 354.493,159.956 361.833,153.496 
					369.178,147.037 				"/>
				<path d="M313.574,171.473c0.393,0.696,0.746,1.406,1.081,2.118c0.475,1.729,1.107,3.435,1.892,5.103
					c0.334,0.711,0.688,1.414,1.076,2.108c4.48,7.968,11.864,13.265,20.079,15.335c2.525-8.139,1.84-17.255-2.667-25.265
					c-4.474-7.957-11.837-13.269-20.04-15.358c-6.325-1.615-13.147-1.316-19.535,1.155
					C302.88,159.063,309.451,164.144,313.574,171.473z"/>
				<g>
					<path d="M382.438,166.638c0,0,0.258-14.975-6.707-17.266c-1.371-0.449-2.354,0.105-2.354,0.105s-0.938,0.5-0.855,1.789
						c0.091,1.471,1.299,3.422,4.997,4.445c1.263,0.354,2.591,1.084,3.434,3.963C381.454,161.386,382.438,166.638,382.438,166.638z"
						/>
					<path d="M363.416,132.824c0,0,12.935,7.557,11.271,14.692c-0.327,1.409-1.309,1.959-1.309,1.959s-0.914,0.542-1.976-0.193
						c-1.21-0.846-2.247-2.889-1.206-6.58c0.358-1.263,0.422-2.779-1.604-4.995C367.394,136.394,363.416,132.824,363.416,132.824z"
						/>
				</g>
				<g>
					<path d="M138.552,182.606"/>
					<path fill="#F0976B" d="M194.946,119.055c15.864,8.999,27.659,23.503,33.174,40.653l-3.029,0.836l0.532,1.929l3.09-0.854
						c0.554,1.924,0.885,3.169,1.212,4.631l7.847-1.606c-4.979-22.12-19.109-41.146-38.814-52.326
						c-24.958-14.167-55.84-13.887-80.61,0.663l4.018,6.77C144.673,106.643,172.466,106.294,194.946,119.055z"/>
					<path fill="#F0976B" d="M187.208,253.958l-2.386-7.629c-1.422,0.465-3.222,0.974-4.19,1.222l-1.073-3.9l-1.93,0.531
						l1.058,3.841c-17.552,4.059-36.458,1.481-52.318-7.521c-22.478-12.757-36.618-36.745-36.804-62.622l-8.032,0.066
						c0.21,28.729,15.834,55.375,40.793,69.54C142.027,258.67,165.669,261.03,187.208,253.958z"/>
					<path fill="#F0976B" d="M160.573,180.679c8.726-15.37,3.336-34.901-12.036-43.625L23.302,65.983
						c-15.373-8.724-34.903-3.335-43.625,12.035c-8.723,15.369-3.334,34.903,12.037,43.625l125.239,71.07
						C132.323,201.438,151.855,196.048,160.573,180.679z"/>
					<polygon fill="#EC4346" points="106.456,150.975 108.463,147.44 115.827,153.958 123.254,160.508 113.853,157.508 
						104.449,154.505 					"/>
					<path fill="#A4CB57" d="M77.95,133.792c8.725-15.372,28.258-20.763,43.626-12.041L23.301,65.982
						c-15.372-8.725-34.903-3.336-43.624,12.035c-8.723,15.37-3.334,34.903,12.037,43.625l98.274,55.771
						C74.621,168.691,69.229,149.16,77.95,133.792z"/>
					<polygon fill="#FEC629" points="174.834,188.516 170.855,195.532 165.878,188.071 160.95,180.636 169.879,181.069 
						178.812,181.507 					"/>
					<g>
						<path fill="#FEC629" d="M160.456,181.546c0.176-0.295,0.358-0.583,0.531-0.884c0.277-0.493,0.541-0.988,0.791-1.488
							c-2.594-0.471-5.158-1.374-7.587-2.749C156.625,177.804,158.721,179.55,160.456,181.546z"/>
						<path fill="#FEC629" d="M154.192,176.425c2.429,1.375,4.993,2.278,7.587,2.749c7.39-14.753,2.308-32.781-11.761-41.493
							c-1.886,1.69-3.534,3.703-4.856,6.027C138.623,155.233,142.664,169.884,154.192,176.425z"/>
						<path fill="#FEC629" d="M160.456,181.546c-1.734-1.996-3.832-3.742-6.265-5.121c-11.527-6.541-26.177-2.499-32.718,9.027
							c-1.439,2.534-2.364,5.222-2.814,7.941C133.512,200.955,151.748,195.813,160.456,181.546z"/>
					</g>
				</g>
				<g>
					<g>
						<g>
							<defs>
								<path id="SVGID_3_" d="M498.618,77.209c-8.836-15.306-28.657-20.405-44.268-11.393l-98.059,56.615
									c15.612-9.015,35.433-3.915,44.271,11.391c8.836,15.304,3.343,35.021-12.271,44.034l98.058-56.614
									C501.961,112.23,507.455,92.514,498.618,77.209z"/>
							</defs>
							<clipPath id="SVGID_4_">
								<use xlink:href="#SVGID_3_"  overflow="visible"/>
							</clipPath>
							
								<rect x="343.556" y="20.503" transform="matrix(0.5 0.866 -0.866 0.5 316.9232 -306.9706)" clip-path="url(#SVGID_4_)" fill="#FFFFFF" width="161.501" height="200.953"/>
						</g>
					</g>
					<g>
						<g>
							<defs>
								<path id="SVGID_5_" d="M498.618,77.209c-8.836-15.306-28.657-20.405-44.268-11.393l-98.059,56.615
									c15.612-9.015,35.433-3.915,44.271,11.391c8.836,15.304,3.343,35.021-12.271,44.034l98.058-56.614
									C501.961,112.23,507.455,92.514,498.618,77.209z"/>
							</defs>
							<clipPath id="SVGID_6_">
								<use xlink:href="#SVGID_5_"  overflow="visible"/>
							</clipPath>
							
								<rect x="414.251" y="97.696" transform="matrix(0.5 0.866 -0.866 0.5 317.4279 -338.0851)" clip-path="url(#SVGID_6_)" fill="#2FA1BE" width="74.501" height="16.32"/>
						</g>
					</g>
					<g>
						<g>
							<defs>
								<path id="SVGID_7_" d="M498.618,77.209c-8.836-15.306-28.657-20.405-44.268-11.393l-98.059,56.615
									c15.612-9.015,35.433-3.915,44.271,11.391c8.836,15.304,3.343,35.021-12.271,44.034l98.058-56.614
									C501.961,112.23,507.455,92.514,498.618,77.209z"/>
							</defs>
							<clipPath id="SVGID_8_">
								<use xlink:href="#SVGID_7_"  overflow="visible"/>
							</clipPath>
							
								<rect x="386.424" y="113.762" transform="matrix(0.5 0.866 -0.866 0.5 317.4251 -305.9515)" clip-path="url(#SVGID_8_)" fill="#2FA1BE" width="74.5" height="16.321"/>
						</g>
					</g>
					<g>
						<g>
							<defs>
								<path id="SVGID_9_" d="M498.618,77.209c-8.836-15.306-28.657-20.405-44.268-11.393l-98.059,56.615
									c15.612-9.015,35.433-3.915,44.271,11.391c8.836,15.304,3.343,35.021-12.271,44.034l98.058-56.614
									C501.961,112.23,507.455,92.514,498.618,77.209z"/>
							</defs>
							<clipPath id="SVGID_10_">
								<use xlink:href="#SVGID_9_"  overflow="visible"/>
							</clipPath>
							
								<rect x="358.156" y="130.082" transform="matrix(0.5 0.866 -0.866 0.5 317.4268 -273.3098)" clip-path="url(#SVGID_10_)" fill="#2FA1BE" width="74.499" height="16.322"/>
						</g>
					</g>
				</g>
			</g>
		</g>
	</g>
</g>
</svg>
