<?xml version="1.0" encoding="utf-8"?>
<!-- Generator: Adobe Illustrator 16.0.0, SVG Export Plug-In . SVG Version: 6.00 Build 0)  -->
<!DOCTYPE svg PUBLIC "-//W3C//DTD SVG 1.1//EN" "http://www.w3.org/Graphics/SVG/1.1/DTD/svg11.dtd">
<svg version="1.1" id="Capa_1" xmlns="http://www.w3.org/2000/svg" xmlns:xlink="http://www.w3.org/1999/xlink" x="0px" y="0px"
	 width="480px" height="450px" viewBox="0 0 480 450" enable-background="new 0 0 480 450" xml:space="preserve">
<g>
	<g>
		<g>
			<defs>
				<circle id="SVGID_1_" cx="240" cy="225.002" r="209.989"/>
			</defs>
			<clipPath id="SVGID_2_">
				<use xlink:href="#SVGID_1_"  overflow="visible"/>
			</clipPath>
			<g clip-path="url(#SVGID_2_)">
				<g>
					<path fill="#F0976B" d="M331.607,226.002c0.001,17.674,14.326,32,32.001,32h143.999c17.674,0,32.001-14.326,32-32
						c0.001-17.67-14.326-32-31.999-32H363.607C345.935,194.002,331.608,208.33,331.607,226.002z"/>
					<polygon fill="#EC4346" points="395.001,226.002 395.001,230.063 384.549,228.034 374.437,226.002 384.721,223.97 
						395.001,221.94 					"/>
					<path d="M350.199,212.196"/>
					<path fill="#FEC629" d="M426.605,226.001c0.002,17.676-14.324,32.001-31.998,32.001h113c17.674,0,32.001-14.326,32-32
						c0.001-17.67-14.326-32-31.999-32H394.607C412.281,194.002,426.607,208.331,426.605,226.001z"/>
					<path d="M331.608,226.003c0,17.673,14,32.001,32,32v-40.028l-6.665-2.03l-6.321-2.024l6.493-2.028l6.493-2.027v-15.862
						C345.608,194.003,331.608,208.331,331.608,226.003z"/>
					<path d="M323.605,218.002c4.42-0.001,8.002,3.582,8.003,8c0,4.416-3.583,8-8,8c-4.419,0-8.001-3.582-8-8.002
						C315.607,221.584,319.19,218.002,323.605,218.002z"/>
					<path fill="#F0976B" d="M332.523,295.312c-18.236-0.001-35.648-6.79-48.913-18.979l2.332-2.332l-1.414-1.414l-2.374,2.374
						c-1.429-1.399-2.339-2.323-3.348-3.434l-6.031,5.269c15.243,16.779,36.926,26.351,59.58,26.351
						c28.7,0.001,55.419-15.483,69.78-40.368l-6.832-3.9C382.368,281.289,358.372,295.311,332.523,295.312z"/>
					<path fill="#F0976B" d="M272.664,174.155l5.896,5.404c1.008-1.105,2.474-2.396,3.195-3.088l2.772,2.773l1.414-1.415
						l-2.827-2.827c13.265-12.191,30.924-19.229,49.157-19.229c25.852-0.001,49.959,13.909,62.895,36.322l6.936-4.006
						c-14.36-24.882-41.104-40.343-69.805-40.342C309.642,147.752,287.908,157.375,272.664,174.155z"/>
				</g>
				<path d="M175.09,136.592"/>
				<path fill="#F0976B" d="M256.084,111.642c8.942,15.897,11.454,34.79,7.326,52.328l-3.222-0.901l-0.538,1.927l3.281,0.918
					c-0.249,0.968-0.771,2.784-1.242,4.209l7.604,2.479c7.149-21.513,4.889-45.2-6.219-64.944
					c-14.069-25.014-40.652-40.759-69.379-41.075l-0.104,8.038C219.476,74.9,243.413,89.114,256.084,111.642z"/>
				<path fill="#F0976B" d="M179.945,222.819l1.8-7.795c-1.461-0.334-3.361-0.854-4.317-1.145l0.874-3.126l-1.926-0.539
					l-0.858,3.065c-18.095-5.853-31.896-17.517-40.839-33.409c-12.672-22.529-12.354-50.357,0.838-72.621l-6.887-4.079
					c-14.642,24.718-15.008,55.604-0.935,80.62C138.803,203.538,157.846,217.763,179.945,222.819z"/>
				<path fill="#F0976B" d="M195.469,147.564c15.403-8.667,20.865-28.176,12.201-43.58l-70.6-125.504
					c-8.664-15.403-28.177-20.868-43.582-12.201C78.086-25.057,72.623-5.544,81.289,9.857l70.599,125.505
					C160.556,150.77,180.064,156.229,195.469,147.564z"/>
				<polygon fill="#EC4346" points="165.574,93.835 169.117,91.844 172.002,101.118 174.955,110.508 168.494,103.168 
					162.035,95.823 				"/>
				<path d="M186.472,151.427c0.696-0.393,1.405-0.746,2.118-1.081c1.729-0.475,3.435-1.107,5.103-1.892
					c0.711-0.333,1.414-0.688,2.108-1.076c7.968-4.48,13.265-11.864,15.335-20.079c-8.14-2.525-17.256-1.84-25.265,2.667
					c-7.957,4.474-13.269,11.837-15.358,20.04c-1.615,6.325-1.316,13.147,1.155,19.535
					C174.062,162.121,179.142,155.55,186.472,151.427z"/>
				<g>
					<path d="M181.637,82.563c0,0-14.975-0.258-17.266,6.707c-0.449,1.371,0.104,2.354,0.104,2.354s0.5,0.938,1.789,0.855
						c1.471-0.091,3.422-1.299,4.445-4.997c0.354-1.263,1.084-2.591,3.963-3.434C176.385,83.547,181.637,82.563,181.637,82.563z"/>
					<path d="M147.823,101.585c0,0,7.557-12.935,14.692-11.271c1.408,0.327,1.959,1.309,1.959,1.309s0.543,0.914-0.193,1.977
						c-0.846,1.209-2.889,2.246-6.58,1.205c-1.263-0.358-2.778-0.422-4.995,1.604C151.393,97.607,147.823,101.585,147.823,101.585z"
						/>
				</g>
				<g>
					<path d="M197.605,326.449"/>
					<path fill="#F0976B" d="M134.054,270.056c8.999-15.864,23.503-27.658,40.653-33.174l0.836,3.029l1.929-0.532l-0.854-3.09
						c1.924-0.554,3.169-0.885,4.631-1.212l-1.605-7.847c-22.12,4.979-41.146,19.108-52.326,38.813
						c-14.166,24.958-13.887,55.84,0.663,80.61l6.771-4.018C121.642,320.328,121.293,292.536,134.054,270.056z"/>
					<path fill="#F0976B" d="M268.957,277.794l-7.63,2.385c0.466,1.423,0.974,3.223,1.222,4.191l-3.9,1.073l0.531,1.93l3.841-1.059
						c4.059,17.552,1.482,36.458-7.52,52.318c-12.757,22.479-36.745,36.617-62.622,36.805l0.065,8.031
						c28.729-0.21,55.374-15.834,69.539-40.793C273.668,322.975,276.029,299.332,268.957,277.794z"/>
					<path fill="#F0976B" d="M195.677,304.428c-15.369-8.726-34.9-3.336-43.624,12.036L80.982,441.7
						c-8.725,15.372-3.335,34.903,12.035,43.624c15.369,8.723,34.903,3.334,43.625-12.037l71.071-125.238
						C216.437,332.678,211.047,313.146,195.677,304.428z"/>
					<polygon fill="#EC4346" points="165.974,358.546 162.439,356.539 168.956,349.174 175.506,341.747 172.506,351.148 
						169.504,360.552 					"/>
					<path fill="#A4CB57" d="M148.79,387.051c-15.371-8.725-20.763-28.258-12.04-43.626L80.981,441.7
						c-8.725,15.372-3.336,34.903,12.035,43.624c15.369,8.723,34.903,3.334,43.625-12.037l55.772-98.274
						C183.691,390.381,164.158,395.772,148.79,387.051z"/>
					<polygon fill="#FEC629" points="203.515,290.167 210.531,294.146 203.07,299.123 195.635,304.052 196.068,295.122 
						196.506,286.189 					"/>
					<g>
						<path fill="#FEC629" d="M196.545,304.545c-0.296-0.176-0.583-0.358-0.885-0.531c-0.492-0.277-0.988-0.541-1.487-0.791
							c-0.472,2.594-1.374,5.158-2.749,7.587C192.803,308.377,194.549,306.28,196.545,304.545z"/>
						<path fill="#FEC629" d="M191.424,310.81c1.375-2.429,2.277-4.993,2.749-7.587c-14.753-7.39-32.781-2.308-41.493,11.761
							c1.69,1.886,3.703,3.534,6.026,4.856C170.232,326.378,184.883,322.337,191.424,310.81z"/>
						<path fill="#FEC629" d="M196.545,304.545c-1.996,1.734-3.742,3.832-5.121,6.265c-6.541,11.527-2.499,26.177,9.027,32.718
							c2.534,1.439,5.223,2.364,7.94,2.813C215.953,331.489,210.812,313.254,196.545,304.545z"/>
					</g>
				</g>
				<g>
					<g>
						<g>
							<defs>
								<path id="SVGID_3_" d="M92.208-33.618C76.903-24.781,71.803-4.96,80.816,10.65l56.614,98.059
									c-9.015-15.612-3.914-35.433,11.391-44.271c15.305-8.836,35.021-3.343,44.034,12.271L136.24-21.35
									C127.229-36.96,107.513-42.454,92.208-33.618z"/>
							</defs>
							<clipPath id="SVGID_4_">
								<use xlink:href="#SVGID_3_"  overflow="visible"/>
							</clipPath>
							
								<rect x="55.227" y="-59.782" transform="matrix(0.866 -0.5 0.5 0.866 -2.1294 73.4415)" clip-path="url(#SVGID_4_)" fill="#FFFFFF" width="161.501" height="200.953"/>
						</g>
					</g>
					<g>
						<g>
							<defs>
								<path id="SVGID_5_" d="M92.208-33.618C76.903-24.781,71.803-4.96,80.816,10.65l56.614,98.059
									c-9.015-15.612-3.914-35.433,11.391-44.271c15.305-8.836,35.021-3.343,44.034,12.271L136.24-21.35
									C127.229-36.96,107.513-42.454,92.208-33.618z"/>
							</defs>
							<clipPath id="SVGID_6_">
								<use xlink:href="#SVGID_5_"  overflow="visible"/>
							</clipPath>
							
								<rect x="83.604" y="5.34" transform="matrix(0.866 -0.5 0.5 0.866 9.4414 62.2352)" clip-path="url(#SVGID_6_)" fill="#2FA1BE" width="74.501" height="16.32"/>
						</g>
					</g>
					<g>
						<g>
							<defs>
								<path id="SVGID_7_" d="M92.208-33.618C76.903-24.781,71.803-4.96,80.816,10.65l56.614,98.059
									c-9.015-15.612-3.914-35.433,11.391-44.271c15.305-8.836,35.021-3.343,44.034,12.271L136.24-21.35
									C127.229-36.96,107.513-42.454,92.208-33.618z"/>
							</defs>
							<clipPath id="SVGID_8_">
								<use xlink:href="#SVGID_7_"  overflow="visible"/>
							</clipPath>
							
								<rect x="99.671" y="33.167" transform="matrix(0.866 -0.5 0.5 0.866 -2.3196 73.9974)" clip-path="url(#SVGID_8_)" fill="#2FA1BE" width="74.5" height="16.321"/>
						</g>
					</g>
					<g>
						<g>
							<defs>
								<path id="SVGID_9_" d="M92.208-33.618C76.903-24.781,71.803-4.96,80.816,10.65l56.614,98.059
									c-9.015-15.612-3.914-35.433,11.391-44.271c15.305-8.836,35.021-3.343,44.034,12.271L136.24-21.35
									C127.229-36.96,107.513-42.454,92.208-33.618z"/>
							</defs>
							<clipPath id="SVGID_10_">
								<use xlink:href="#SVGID_9_"  overflow="visible"/>
							</clipPath>
							
								<rect x="115.992" y="61.435" transform="matrix(0.866 -0.5 0.5 0.866 -14.2678 85.9433)" clip-path="url(#SVGID_10_)" fill="#2FA1BE" width="74.499" height="16.322"/>
						</g>
					</g>
				</g>
			</g>
		</g>
	</g>
</g>
</svg>
