<?xml version="1.0" encoding="utf-8"?>
<!-- Generator: Adobe Illustrator 16.0.0, SVG Export Plug-In . SVG Version: 6.00 Build 0)  -->
<!DOCTYPE svg PUBLIC "-//W3C//DTD SVG 1.1//EN" "http://www.w3.org/Graphics/SVG/1.1/DTD/svg11.dtd">
<svg version="1.1" id="Capa_1" xmlns="http://www.w3.org/2000/svg" xmlns:xlink="http://www.w3.org/1999/xlink" x="0px" y="0px"
	 width="480px" height="450px" viewBox="0 0 480 450" enable-background="new 0 0 480 450" xml:space="preserve">
<pattern  x="6401" y="5377" width="114" height="20" patternUnits="userSpaceOnUse" id="Nueva_muestra_de_motivo_4" viewBox="0 -20 114 20" overflow="visible">
	<g>
		<polygon fill="none" points="0,0 114,0 114,-20 0,-20 		"/>
		<polygon fill="#FFFFFF" points="114,0 0,0 0,-10 114,-10 		"/>
		<polygon fill="#2FA1BE" points="114,-10 0,-10 0,-20 114,-20 		"/>
	</g>
</pattern>
<g>
	<defs>
		<circle id="SVGID_4_" cx="239.987" cy="224.999" r="145.839"/>
	</defs>
	<clipPath id="SVGID_2_">
		<use xlink:href="#SVGID_4_"  overflow="visible"/>
	</clipPath>
	<g clip-path="url(#SVGID_2_)">
		<g>
			<path fill="#F0976B" d="M239,316.606c-17.674,0.001-32,14.326-32,32.001v143.999c0,17.674,14.326,32.001,32,32
				c17.67,0.001,32-14.326,32-31.999V348.606C271,330.934,256.672,316.607,239,316.606z"/>
			<polygon fill="#EC4346" points="240.79,379 236.729,379 238.759,369.048 240.79,359.187 242.823,369.096 244.853,379 			"/>
			<path d="M252.792,335.198"/>
			<path fill="#FEC629" d="M239.002,411.604C221.325,411.606,207,397.28,207,379.606v113c0,17.674,14.326,32.001,32,32
				c17.67,0.001,32-14.326,32-31.999V379.606C271,397.28,256.671,411.606,239.002,411.604z"/>
			<path d="M239.699,317c-17.673,0-32.001,14-32,32h40.028l2.03-6.165l2.026-6.071l2.028,6.119l2.024,6.117H271.7
				C271.699,331,257.37,317,239.699,317z"/>
			<path d="M247.699,308.604c0.001,4.42-3.582,8.002-8.001,8.003c-4.416,0-7.999-3.583-8-8c0.001-4.419,3.582-8.001,8.002-8
				C244.117,300.606,247.699,304.189,247.699,308.604z"/>
			<path fill="#F0976B" d="M169.678,317.522c0.001-18.237,6.79-35.649,18.981-48.913l2.332,2.332l1.414-1.414l-2.374-2.374
				c1.399-1.429,2.323-2.339,3.432-3.348l-5.267-6.031c-16.781,15.243-26.351,36.925-26.351,59.58
				c-0.001,28.7,15.485,55.419,40.368,69.78l3.902-6.832C183.7,367.367,169.679,343.371,169.678,317.522z"/>
			<path fill="#F0976B" d="M290.833,257.663l-5.404,5.896c1.107,1.008,2.396,2.473,3.088,3.195l-2.773,2.773l1.415,1.414
				l2.827-2.827c12.191,13.264,19.229,30.923,19.227,49.157c0.001,25.851-13.909,49.959-36.322,62.894l4.006,6.936
				c24.882-14.361,40.343-41.104,40.342-69.805C317.237,294.641,307.614,272.907,290.833,257.663z"/>
		</g>
		<path d="M328.397,160.089"/>
		<path fill="#F0976B" d="M353.348,241.083c-15.897,8.943-34.79,11.454-52.328,7.326l0.901-3.221l-1.925-0.538l-0.918,3.281
			c-0.968-0.249-2.786-0.771-4.208-1.242l-2.479,7.604c21.513,7.15,45.2,4.889,64.944-6.219
			c25.014-14.069,40.759-40.652,41.077-69.379l-8.038-0.102C390.087,204.474,375.874,228.412,353.348,241.083z"/>
		<path fill="#F0976B" d="M242.169,164.944l7.795,1.799c0.334-1.461,0.854-3.361,1.145-4.317l3.125,0.874l0.54-1.926l-3.067-0.859
			c5.853-18.094,17.517-31.896,33.411-40.838c22.529-12.672,50.356-12.356,72.62,0.838l4.08-6.887
			c-24.719-14.642-55.606-15.008-80.62-0.935C261.451,123.802,247.227,142.845,242.169,164.944z"/>
		<path fill="#F0976B" d="M317.424,180.468c8.667,15.403,28.176,20.865,43.579,12.201l125.505-70.6
			c15.405-8.664,20.868-28.175,12.201-43.582c-8.664-15.402-28.175-20.865-43.578-12.199l-125.505,70.599
			C314.22,145.554,308.76,165.063,317.424,180.468z"/>
		<polygon fill="#EC4346" points="371.153,150.573 373.146,154.116 363.87,157.001 354.481,159.954 361.821,153.493 
			369.165,147.034 		"/>
		<path d="M313.562,171.47c0.393,0.697,0.746,1.406,1.081,2.119c0.475,1.729,1.107,3.434,1.893,5.102
			c0.332,0.712,0.684,1.414,1.075,2.109c4.48,7.967,11.864,13.264,20.079,15.335c2.525-8.14,1.84-17.256-2.667-25.265
			c-4.474-7.957-11.837-13.268-20.04-15.359c-6.325-1.615-13.149-1.316-19.535,1.156C302.868,159.06,309.439,164.14,313.562,171.47z
			"/>
		<g>
			<path d="M382.438,166.636c0,0,0.258-14.975-6.707-17.266c-1.371-0.449-2.352,0.104-2.352,0.104s-0.938,0.501-0.857,1.789
				c0.091,1.471,1.299,3.422,4.997,4.447c1.262,0.352,2.591,1.084,3.434,3.963C381.455,161.384,382.438,166.636,382.438,166.636z"/>
			<path d="M363.416,132.821c0,0,12.934,7.557,11.271,14.693c-0.327,1.409-1.307,1.959-1.307,1.959s-0.913,0.543-1.977-0.194
				c-1.209-0.845-2.246-2.888-1.206-6.58c0.359-1.263,0.423-2.778-1.604-4.995C367.394,136.392,363.416,132.821,363.416,132.821z"/>
		</g>
		
			<pattern  id="SVGID_3_" xlink:href="#Nueva_muestra_de_motivo_4" patternTransform="matrix(-0.7742 -1.3763 1.3763 -0.7742 -6166.2812 -39248.4102)">
		</pattern>
		<path fill="url(#SVGID_3_)" d="M400.226,133.892c8.664,15.401,3.2,34.91-12.203,43.578l98.485-55.4
			c15.405-8.664,20.868-28.175,12.201-43.582c-8.664-15.402-28.175-20.865-43.578-12.199l-98.486,55.402
			C372.049,113.026,391.561,118.487,400.226,133.892z"/>
		<g>
			<path d="M138.539,182.604"/>
			<path fill="#F0976B" d="M194.933,119.053c15.865,8.999,27.659,23.503,33.175,40.653l-3.029,0.836l0.532,1.928l3.09-0.854
				c0.551,1.924,0.883,3.169,1.212,4.631l7.845-1.607c-4.977-22.12-19.108-41.144-38.813-52.326
				c-24.958-14.166-55.84-13.885-80.612,0.664l4.018,6.771C144.661,106.641,172.454,106.292,194.933,119.053z"/>
			<path fill="#F0976B" d="M187.195,253.956l-2.385-7.63c-1.423,0.466-3.224,0.974-4.19,1.222l-1.076-3.9l-1.928,0.531l1.057,3.841
				c-17.551,4.058-36.458,1.482-52.318-7.52c-22.479-12.757-36.617-36.745-36.805-62.622l-8.031,0.066
				c0.21,28.729,15.834,55.375,40.793,69.539C142.015,258.667,165.657,261.028,187.195,253.956z"/>
			<path fill="#F0976B" d="M160.562,180.676c8.725-15.37,3.336-34.901-12.036-43.624L23.286,65.979
				c-15.371-8.723-34.902-3.334-43.623,12.037c-8.721,15.369-3.334,34.903,12.037,43.625l125.24,71.07
				C132.312,201.435,151.843,196.046,160.562,180.676z"/>
			<polygon fill="#EC4346" points="106.443,150.972 108.45,147.438 115.815,153.955 123.242,160.505 113.84,157.505 
				104.437,154.503 			"/>
			<path fill="#A4CB57" d="M77.938,133.789c8.725-15.371,28.258-20.763,43.626-12.04l-98.278-55.77
				c-15.371-8.723-34.902-3.334-43.623,12.037c-8.721,15.369-3.334,34.903,12.037,43.625l98.276,55.771
				C74.608,168.689,69.216,149.157,77.938,133.789z"/>
			<polygon fill="#FEC629" points="174.822,188.513 170.843,195.53 165.866,188.068 160.937,180.634 169.867,181.067 
				178.799,181.505 			"/>
			<g>
				<path fill="#FEC629" d="M160.444,181.544c0.176-0.296,0.358-0.583,0.531-0.885c0.277-0.492,0.541-0.988,0.791-1.487
					c-2.594-0.472-5.158-1.374-7.587-2.749C156.612,177.802,158.708,179.548,160.444,181.544z"/>
				<path fill="#FEC629" d="M154.18,176.423c2.429,1.375,4.993,2.277,7.587,2.749c7.39-14.753,2.308-32.782-11.761-41.493
					c-1.884,1.69-3.534,3.703-4.856,6.026C138.611,155.231,142.652,169.882,154.18,176.423z"/>
				<path fill="#FEC629" d="M160.444,181.544c-1.736-1.996-3.832-3.742-6.265-5.121c-11.527-6.541-26.177-2.499-32.718,9.027
					c-1.439,2.535-2.364,5.223-2.813,7.941C133.499,200.952,151.735,195.81,160.444,181.544z"/>
			</g>
		</g>
	</g>
</g>
</svg>
