<?xml version="1.0" encoding="utf-8"?>
<!-- Generator: Adobe Illustrator 16.0.0, SVG Export Plug-In . SVG Version: 6.00 Build 0)  -->
<!DOCTYPE svg PUBLIC "-//W3C//DTD SVG 1.1//EN" "http://www.w3.org/Graphics/SVG/1.1/DTD/svg11.dtd">
<svg version="1.1" id="Capa_1" xmlns="http://www.w3.org/2000/svg" xmlns:xlink="http://www.w3.org/1999/xlink" x="0px" y="0px"
	 width="480px" height="450px" viewBox="0 0 480 450" enable-background="new 0 0 480 450" xml:space="preserve">
<g>
	<g>
		<defs>
			<circle id="SVGID_1_" cx="239.999" cy="225.001" r="209.989"/>
		</defs>
		<clipPath id="SVGID_2_">
			<use xlink:href="#SVGID_1_"  overflow="visible"/>
		</clipPath>
		<g clip-path="url(#SVGID_2_)">
			<g>
				<path fill="#F0976B" d="M304.069,290.485c-12.496,12.498-12.497,32.757,0,45.255l101.822,101.823
					c12.498,12.497,32.759,12.498,45.255,0c12.496-12.494,12.498-32.758,0.002-45.255L349.323,290.485
					C336.826,277.989,316.566,277.99,304.069,290.485z"/>
				<polygon fill="#EC4346" points="348.895,335.312 346.023,338.184 340.067,329.357 334.354,320.771 343.063,326.605 
					351.767,332.439 				"/>
				<path d="M326.977,293.869"/>
				<path fill="#FEC629" d="M371.242,357.658c-12.497,12.5-32.757,12.499-45.254,0.002l79.902,79.903
					c12.498,12.497,32.759,12.498,45.255,0c12.496-12.494,12.498-32.758,0.002-45.255l-79.904-79.903
					C383.74,324.902,383.739,345.164,371.242,357.658z"/>
				<path d="M304.068,290.486c-12.495,12.497-12.728,32.527,0,45.255l28.305-28.305l-3.277-6.148l-3.037-5.902l6.025,3.158
					l6.025,3.157l11.215-11.216C336.595,277.759,316.565,277.99,304.068,290.486z"/>
				<path d="M304.068,279.17c3.126,3.124,3.125,8.19,0.001,11.315c-3.123,3.123-8.19,3.123-11.312,0
					c-3.125-3.124-3.125-8.19,0.001-11.314C295.879,276.047,300.945,276.048,304.068,279.17z"/>
				<path fill="#F0976B" d="M255.707,340.142c-12.896-12.896-20.406-30.009-21.167-48.008h3.298v-2h-3.357
					c-0.021-1.999-0.011-3.296,0.06-4.794l-7.989-0.541c-1.087,22.645,7.477,44.744,23.496,60.763
					c20.294,20.295,50.137,28.237,77.887,20.798l-2.072-7.59C300.868,365.473,273.987,358.419,255.707,340.142z"/>
				<path fill="#F0976B" d="M299.051,212.145l0.348,7.99c1.494-0.07,3.442,0.055,4.442,0.076l-0.001,3.921h2v-3.999
					c18.001,0.759,35.464,8.27,48.355,21.164c18.281,18.278,25.492,45.161,18.79,70.156l7.737,2.072
					c7.439-27.749-0.539-57.592-20.834-77.886C343.868,219.623,321.696,211.059,299.051,212.145z"/>
			</g>
			<path d="M256.616,116.588"/>
			<path fill="#F0976B" d="M331.531,156.217c-4.918,17.564-16.501,32.699-31.821,42.182l-1.641-2.915l-1.742,0.981l1.672,2.969
				c-0.861,0.508-2.515,1.425-3.855,2.098l3.625,7.13c20.268-10.157,35.418-28.505,41.525-50.32
				c7.738-27.636,0.075-57.566-20.014-78.104l-5.756,5.611C331.624,104.351,338.5,131.328,331.531,156.217z"/>
			<path fill="#F0976B" d="M199.077,180.993l6.784-4.239c-0.797-1.269-1.772-2.98-2.243-3.862l2.828-1.592l-0.98-1.744l-2.776,1.562
				c-8.656-16.934-10.167-34.941-5.253-52.502c6.971-24.891,26.872-44.344,51.944-50.758l-1.985-7.754
				c-27.832,7.125-49.931,28.707-57.668,56.346C183.619,138.268,187.027,161.791,199.077,180.993z"/>
			<path fill="#F0976B" d="M263.268,138.757c17.021,4.764,34.677-5.169,39.443-22.188l38.823-138.666
				c4.766-17.02-5.167-34.68-22.189-39.445c-17.018-4.765-34.677,5.169-39.44,22.188L241.08,99.312
				C236.315,116.336,246.247,133.991,263.268,138.757z"/>
			<polygon fill="#EC4346" points="280.122,79.626 284.035,80.723 279.517,89.321 274.965,98.049 275.587,88.29 276.213,78.529 			
				"/>
			<path d="M254.175,135.126c0.77,0.214,1.521,0.466,2.262,0.733c1.56,0.888,3.212,1.646,4.946,2.271
				c0.738,0.268,1.485,0.515,2.251,0.729c8.803,2.466,17.77,0.991,25.042-3.354c-3.97-7.542-10.9-13.503-19.751-15.979
				c-8.789-2.463-17.752-1.012-25.031,3.31c-5.614,3.331-10.227,8.367-12.995,14.631
				C237.838,133.913,246.076,132.858,254.175,135.126z"/>
			<g>
				<path d="M299.45,83.014c0,0-10.407-10.771-16.952-7.466c-1.287,0.652-1.59,1.738-1.59,1.738s-0.309,1.016,0.66,1.871
					c1.104,0.975,3.338,1.5,6.677-0.39c1.143-0.643,2.599-1.065,5.23,0.375C295.04,79.996,299.45,83.014,299.45,83.014z"/>
				<path d="M262.089,72.554c0,0,14.488-3.802,18.358,2.419c0.766,1.228,0.461,2.31,0.461,2.31s-0.263,1.03-1.534,1.261
					c-1.453,0.257-3.631-0.455-5.505-3.801c-0.64-1.146-1.667-2.263-4.666-2.398C267.426,72.266,262.089,72.554,262.089,72.554z"/>
			</g>
			<g>
				<path d="M138.287,266.758"/>
				<path fill="#F0976B" d="M133.227,181.944c17.581-4.854,36.176-2.938,52.203,5.29l-1.551,2.733l1.74,0.987l1.582-2.789
					c1.75,0.97,2.865,1.616,4.13,2.417l4.412-6.684c-19.161-12.122-42.605-15.582-64.445-9.555
					c-27.665,7.631-49.304,29.666-56.532,57.47l7.629,1.947C88.902,208.716,108.308,188.817,133.227,181.944z"/>
				<path fill="#F0976B" d="M223.146,282.808l-7.082-3.709c-0.676,1.335-1.591,2.967-2.099,3.827l-3.518-1.999l-0.988,1.74
					l3.464,1.969c-9.542,15.28-24.733,26.827-42.313,31.677c-24.914,6.873-51.874-0.09-70.304-18.256l-5.633,5.726
					c20.463,20.166,50.353,27.959,78.016,20.327C194.529,318.086,212.917,303.037,223.146,282.808z"/>
				<path fill="#F0976B" d="M152.496,249.823c-4.698-17.037-22.319-27.038-39.358-22.336l-138.812,38.301
					c-17.039,4.701-27.039,22.321-22.336,39.357c4.7,17.034,22.323,27.038,39.359,22.335l138.812-38.303
					C147.199,284.479,157.199,266.856,152.496,249.823z"/>
				<polygon fill="#EC4346" points="93.226,267.087 92.144,263.169 101.961,262.569 111.844,261.949 103.075,266.476 
					94.303,271.002 				"/>
				<path fill="#A4CB57" d="M60.919,275.092c-4.701-17.037,5.3-34.662,22.333-39.361l-108.926,30.058
					c-17.039,4.701-27.039,22.321-22.336,39.357c4.7,17.034,22.323,27.038,39.359,22.335l108.928-30.055
					C83.242,302.126,65.618,292.127,60.919,275.092z"/>
				<polygon fill="#FEC629" points="168.122,245.281 170.269,253.057 161.475,251.3 152.733,249.527 159.353,243.519 
					165.979,237.513 				"/>
				<g>
					<path fill="#FEC629" d="M153.026,250.52c-0.083-0.334-0.158-0.665-0.249-1.001c-0.153-0.544-0.317-1.081-0.494-1.611
						c-2.167,1.501-4.618,2.677-7.308,3.42C147.671,250.584,150.388,250.336,153.026,250.52z"/>
					<path fill="#FEC629" d="M144.976,251.327c2.69-0.743,5.142-1.919,7.308-3.42c-5.206-15.656-21.547-24.811-37.656-21.023
						c-0.137,2.528,0.121,5.117,0.829,7.694C118.983,247.352,132.199,254.854,144.976,251.327z"/>
					<path fill="#FEC629" d="M153.026,250.52c-2.638-0.184-5.355,0.064-8.05,0.808c-12.776,3.527-20.277,16.744-16.751,29.52
						c0.773,2.81,2.021,5.365,3.625,7.604C147.698,283.296,156.957,266.767,153.026,250.52z"/>
				</g>
			</g>
			<g>
				<g>
					<g>
						<defs>
							<path id="SVGID_3_" d="M318.159-62.65c-17.071-4.574-34.693,5.836-39.358,23.247l-29.306,109.37
								c4.665-17.415,22.287-27.823,39.358-23.248c17.07,4.573,27.127,22.397,22.461,39.811L340.62-22.839
								C345.285-40.251,335.23-58.077,318.159-62.65z"/>
						</defs>
						<clipPath id="SVGID_4_">
							<use xlink:href="#SVGID_3_"  overflow="visible"/>
						</clipPath>
						
							<rect x="215.812" y="-79.63" transform="matrix(0.9659 0.2588 -0.2588 0.9659 15.5008 -76.0467)" clip-path="url(#SVGID_4_)" fill="#FFFFFF" width="161.5" height="200.952"/>
					</g>
				</g>
				<g>
					<g>
						<defs>
							<path id="SVGID_5_" d="M318.159-62.65c-17.071-4.574-34.693,5.836-39.358,23.247l-29.306,109.37
								c4.665-17.415,22.287-27.823,39.358-23.248c17.07,4.573,27.127,22.397,22.461,39.811L340.62-22.839
								C345.285-40.251,335.23-58.077,318.159-62.65z"/>
						</defs>
						<clipPath id="SVGID_6_">
							<use xlink:href="#SVGID_5_"  overflow="visible"/>
						</clipPath>
						
							<rect x="267.848" y="-17.237" transform="matrix(0.9659 0.2588 -0.2588 0.9659 8.0471 -79.2767)" clip-path="url(#SVGID_6_)" fill="#2FA1BE" width="74.501" height="16.32"/>
					</g>
				</g>
				<g>
					<g>
						<defs>
							<path id="SVGID_7_" d="M318.159-62.65c-17.071-4.574-34.693,5.836-39.358,23.247l-29.306,109.37
								c4.665-17.415,22.287-27.823,39.358-23.248c17.07,4.573,27.127,22.397,22.461,39.811L340.62-22.839
								C345.285-40.251,335.23-58.077,318.159-62.65z"/>
						</defs>
						<clipPath id="SVGID_8_">
							<use xlink:href="#SVGID_7_"  overflow="visible"/>
						</clipPath>
						
							<rect x="259.532" y="13.8" transform="matrix(0.9659 0.2588 -0.2588 0.9659 15.7956 -76.0621)" clip-path="url(#SVGID_8_)" fill="#2FA1BE" width="74.499" height="16.322"/>
					</g>
				</g>
				<g>
					<g>
						<defs>
							<path id="SVGID_9_" d="M318.159-62.65c-17.071-4.574-34.693,5.836-39.358,23.247l-29.306,109.37
								c4.665-17.415,22.287-27.823,39.358-23.248c17.07,4.573,27.127,22.397,22.461,39.811L340.62-22.839
								C345.285-40.251,335.23-58.077,318.159-62.65z"/>
						</defs>
						<clipPath id="SVGID_10_">
							<use xlink:href="#SVGID_9_"  overflow="visible"/>
						</clipPath>
						
							<rect x="251.083" y="45.329" transform="matrix(0.9659 0.2588 -0.2588 0.9659 23.6691 -72.8037)" clip-path="url(#SVGID_10_)" fill="#2FA1BE" width="74.498" height="16.322"/>
					</g>
				</g>
			</g>
		</g>
	</g>
</g>
</svg>
