<?xml version="1.0" encoding="utf-8"?>
<!-- Generator: Adobe Illustrator 16.0.0, SVG Export Plug-In . SVG Version: 6.00 Build 0)  -->
<!DOCTYPE svg PUBLIC "-//W3C//DTD SVG 1.1//EN" "http://www.w3.org/Graphics/SVG/1.1/DTD/svg11.dtd">
<svg version="1.1" id="Capa_1" xmlns="http://www.w3.org/2000/svg" xmlns:xlink="http://www.w3.org/1999/xlink" x="0px" y="0px"
	 width="480px" height="450px" viewBox="0 0 480 450" enable-background="new 0 0 480 450" xml:space="preserve">
<path fill="#F0976B" d="M239.844,316.098c-0.522-0.025-1.047-0.04-1.575-0.04c-0.004,0-0.009,0.001-0.013,0.001
	s-0.009-0.001-0.013-0.001c-0.504,0-1.005,0.015-1.503,0.038c0.502-0.022,1.007-0.037,1.515-0.037
	C238.789,316.059,239.318,316.072,239.844,316.098z"/>
<path fill="#F0976B" d="M270.256,348.058c0-0.022-0.001-0.044-0.002-0.067C270.255,348.014,270.256,348.035,270.256,348.058
	L270.256,348.058z"/>
<path fill="#F0976B" d="M270.256,379.058v-30.999h-15.862l-2.027-6.493l-2.028-6.493l-2.024,6.321l-2.03,6.665h-40.027v30.999
	c0,15.243,10.659,27.987,24.93,31.205c2.921,0.137,5.858,0.214,8.812,0.214c1.552,0,3.099-0.021,4.642-0.059
	C259.252,407.46,270.256,394.545,270.256,379.058z M238.257,379.451h-4.062L236.224,369l2.032-10.112l2.032,10.284l2.029,10.279
	H238.257z"/>
<polygon fill="#EC4346" points="238.257,358.888 236.224,369 234.195,379.451 238.257,379.451 242.318,379.451 240.289,369.172 "/>
<path fill="#FEC629" d="M206.257,379.058v28.348c8.137,1.496,16.459,2.462,24.93,2.857
	C216.916,407.045,206.257,394.301,206.257,379.058z"/>
<path fill="#FEC629" d="M244.641,410.418c8.701-0.214,17.25-1.039,25.615-2.412v-28.948
	C270.256,394.545,259.252,407.46,244.641,410.418z"/>
<path d="M236.741,316.096c-16.97,0.774-30.486,14.48-30.485,31.963h0.001C206.257,330.892,219.771,316.889,236.741,316.096z"/>
<path d="M270.254,347.99c-0.036-17.402-13.464-31.049-30.344-31.891C256.791,316.961,270.219,330.904,270.254,347.99z"/>
<path d="M248.314,341.394l2.024-6.321l2.028,6.493l2.027,6.493h15.862c0-0.023-0.001-0.045-0.002-0.068
	c-0.035-17.086-13.463-31.029-30.344-31.891c-0.002,0-0.004,0-0.007,0c-0.02-0.001-0.039-0.001-0.059-0.002
	c-0.526-0.025-1.056-0.039-1.589-0.039c-0.508,0-1.013,0.015-1.515,0.037c-16.97,0.793-30.484,14.796-30.484,31.963h40.027
	L248.314,341.394z"/>
<path d="M238.269,316.058c4.412-0.008,7.989-3.587,7.987-8.002c0-4.415-3.582-7.998-7.998-7.997c-4.42-0.001-8.002,3.581-8.002,8
	c0,4.412,3.577,7.992,7.987,7.999c0.004,0,0.009,0,0.013,0S238.265,316.058,238.269,316.058z"/>
<polygon points="238.269,316.058 238.257,316.058 238.244,316.058 238.257,316.059 "/>
<path fill="#F0976B" d="M168.947,316.974c0.001-18.237,6.79-35.649,18.979-48.913l2.332,2.332l1.414-1.414l-2.374-2.374
	c1.399-1.429,2.323-2.339,3.434-3.348l-5.269-6.031c-16.779,15.243-26.351,36.925-26.351,59.58
	c-0.001,28.7,15.483,55.419,40.368,69.78l3.9-6.832C182.969,366.818,168.948,342.822,168.947,316.974z"/>
<path fill="#F0976B" d="M290.104,257.115l-5.404,5.896c1.105,1.008,2.395,2.474,3.088,3.194l-2.773,2.773l1.414,1.414l2.828-2.827
	c12.191,13.265,19.229,30.923,19.229,49.157c0,25.852-13.91,49.959-36.323,62.895l4.006,6.936
	c24.882-14.361,40.343-41.104,40.343-69.805C316.506,294.093,306.883,272.359,290.104,257.115z"/>
<path fill="#F0976B" d="M352.617,240.535c-15.898,8.941-34.791,11.453-52.328,7.326l0.9-3.223l-1.926-0.537l-0.918,3.281
	c-0.969-0.25-2.785-0.771-4.209-1.242l-2.479,7.604c21.512,7.15,45.199,4.89,64.943-6.219c25.014-14.068,40.76-40.652,41.076-69.378
	l-8.039-0.104C389.358,203.926,375.145,227.863,352.617,240.535z"/>
<path fill="#F0976B" d="M357.008,119.966l4.08-6.887c-24.719-14.642-55.605-15.008-80.621-0.935
	c-19.746,11.108-33.971,30.151-39.027,52.25l7.795,1.8c0.334-1.461,0.854-3.361,1.145-4.317l3.125,0.874l0.539-1.926l-3.064-0.858
	c5.852-18.095,17.517-31.896,33.408-40.839C306.916,106.457,334.744,106.774,357.008,119.966z"/>
<path fill="#F0976B" d="M313.981,154.905c0.09,0.022,0.182,0.036,0.271,0.059c8.203,2.09,15.566,7.401,20.041,15.358
	c4.457,7.922,5.172,16.926,2.742,24.998c7.598,1.847,15.885,0.937,23.238-3.199l31.547-17.745c3.631-2.926,6.507-6.51,8.557-10.463
	c4.879-9.411,5.059-20.915-0.557-30.642c-5.617-9.726-15.67-15.322-26.258-15.803c-6.073-0.276-12.322,1.126-18.014,4.412
	l15.422-8.903l11.549-6.668c-0.025-0.03-0.052-0.061-0.077-0.091l-53.546,30.12C321.421,140.543,316.297,147.303,313.981,154.905z
	 M381.696,166.087c0,0-0.984-5.252-1.486-6.964c-0.842-2.879-2.17-3.609-3.434-3.963c-3.697-1.023-4.906-2.975-4.996-4.445
	c-0.082-1.289,0.855-1.789,0.855-1.789s0.982-0.554,2.354-0.104C381.953,151.113,381.696,166.087,381.696,166.087z M373.946,146.965
	c-0.328,1.408-1.309,1.959-1.309,1.959s-0.914,0.543-1.977-0.193c-1.209-0.846-2.246-2.889-1.205-6.58
	c0.357-1.263,0.422-2.778-1.604-4.995c-1.201-1.312-5.178-4.883-5.178-4.883S375.608,139.83,373.946,146.965z M361.09,152.945
	l7.346-6.459l1.988,3.539l1.99,3.543l-9.273,2.885l-9.391,2.953L361.09,152.945z"/>
<path fill="#F0976B" d="M313.912,173.041c-0.072-0.155-0.15-0.31-0.227-0.465c0.68,2.509,1.676,4.975,3.008,7.344
	c0.039,0.067,0.08,0.131,0.119,0.198c-0.36-0.651-0.696-1.309-1.008-1.975C315.02,176.475,314.387,174.77,313.912,173.041z"/>
<polygon fill="#EC4346" points="372.414,153.568 370.424,150.025 368.436,146.486 361.09,152.945 353.75,159.406 363.141,156.453 
	"/>
<path d="M313.981,154.905c-6.248-1.539-12.966-1.223-19.264,1.214c7.42,2.394,13.992,7.474,18.115,14.804
	c0.307,0.545,0.586,1.098,0.854,1.653C312.09,166.685,312.258,160.563,313.981,154.905z"/>
<path d="M316.813,180.118c0.023,0.044,0.043,0.09,0.068,0.134c4.48,7.968,11.863,13.265,20.078,15.335
	c0.027-0.088,0.049-0.179,0.076-0.267C328.786,193.315,321.354,188.055,316.813,180.118z"/>
<path d="M334.293,170.322c-4.475-7.957-11.838-13.269-20.041-15.358c-0.09-0.022-0.182-0.036-0.271-0.059
	c-1.723,5.658-1.891,11.78-0.295,17.671c0.076,0.155,0.154,0.31,0.227,0.465c0.475,1.729,1.107,3.435,1.893,5.103
	c0.312,0.666,0.647,1.323,1.008,1.975c4.541,7.938,11.974,13.197,20.223,15.202C339.465,187.248,338.75,178.244,334.293,170.322z"/>
<path d="M372.635,148.926c0,0-0.938,0.5-0.855,1.789c0.09,1.471,1.299,3.422,4.996,4.445c1.264,0.354,2.592,1.084,3.434,3.963
	c0.502,1.712,1.486,6.964,1.486,6.964s0.258-14.975-6.707-17.266C373.617,148.373,372.635,148.926,372.635,148.926z"/>
<path d="M367.852,137.156c2.025,2.217,1.961,3.732,1.604,4.995c-1.041,3.691-0.004,5.734,1.205,6.58
	c1.062,0.736,1.977,0.193,1.977,0.193s0.98-0.551,1.309-1.959c1.662-7.136-11.271-14.692-11.271-14.692
	S366.651,135.843,367.852,137.156z"/>
<path fill="#F0976B" d="M198.215,111.768c-24.958-14.166-55.84-13.887-80.61,0.663l4.018,6.771
	c22.309-13.109,50.101-13.458,72.581-0.697c15.864,8.999,27.658,23.503,33.174,40.653l-3.029,0.836l0.532,1.929l3.09-0.854
	c0.554,1.924,0.885,3.169,1.212,4.631l7.847-1.605C232.05,141.974,217.92,122.949,198.215,111.768z"/>
<path fill="#F0976B" d="M186.465,253.408l-2.385-7.631c-1.423,0.467-3.223,0.975-4.191,1.223l-1.073-3.9l-1.93,0.531l1.059,3.84
	c-17.552,4.059-36.458,1.482-52.318-7.52c-22.479-12.756-36.617-36.745-36.805-62.622l-8.031,0.065
	c0.21,28.729,15.834,55.375,40.793,69.539C141.284,258.119,164.927,260.479,186.465,253.408z"/>
<path fill="#F0976B" d="M89.197,176.833l27.013,15.329c5.474,3.106,11.475,4.415,17.327,4.129c-5.263,0.19-10.632-0.91-15.619-3.449
	c0.449-2.718,1.374-5.406,2.813-7.94c6.541-11.526,21.19-15.568,32.718-9.027c-11.527-6.541-15.568-21.192-9.03-32.718
	c1.282-2.252,2.875-4.206,4.688-5.863c-0.43-0.271-0.866-0.536-1.312-0.79l-27.036-15.343c-12.302-6.94-27.247-4.849-37.186,4.143
	c-3.628,5.681-6.947,11.577-9.951,17.657C71.091,156.056,76.973,169.867,89.197,176.833z M105.713,150.424l2.007-3.535l7.365,6.518
	l7.427,6.55l-9.401-3l-9.403-3.002L105.713,150.424z"/>
<polygon fill="#EC4346" points="122.511,159.957 115.085,153.407 107.719,146.889 105.713,150.424 103.707,153.955 113.11,156.957 
	"/>
<path fill="#A4CB57" d="M89.197,176.833l-24.099-13.676c0,0,0,0,0,0.001l24.148,13.704
	C89.229,176.853,89.214,176.842,89.197,176.833z"/>
<path fill="#A4CB57" d="M120.834,121.201l-24.28-13.778c0,0,0,0-0.001,0.001l24.206,13.737
	C120.784,121.174,120.809,121.187,120.834,121.201z"/>
<path fill="#A4CB57" d="M120.759,121.161l-24.206-13.737c-4.667,5.688-9.005,11.656-12.979,17.88
	C93.512,116.312,108.457,114.221,120.759,121.161z"/>
<path fill="#A4CB57" d="M73.622,142.961c-3.223,6.525-6.073,13.266-8.524,20.197l24.099,13.676
	C76.973,169.867,71.091,156.056,73.622,142.961z"/>
<path fill="#FEC629" d="M160.235,180.127l4.9,7.393l4.977,7.461l3.979-7.016l3.978-7.009l-8.933-0.438l-8.88-0.43
	c-0.004,0.007-0.008,0.015-0.012,0.022C160.242,180.117,160.238,180.122,160.235,180.127z"/>
<path fill="#FEC629" d="M159.831,180.127c-0.117,0.206-0.244,0.403-0.364,0.606c0.079,0.089,0.169,0.172,0.247,0.262
	c0.173-0.29,0.352-0.572,0.521-0.868l-0.028-0.042l0.05,0.003c0.273-0.485,0.533-0.974,0.779-1.465
	c-0.122-0.022-0.243-0.058-0.365-0.082C160.406,179.075,160.128,179.604,159.831,180.127z"/>
<path fill="#FEC629" d="M159.467,180.734c0.12-0.203,0.247-0.4,0.364-0.606c0.297-0.523,0.575-1.053,0.84-1.586
	c-2.469-0.488-4.907-1.356-7.222-2.667C155.771,177.191,157.779,178.85,159.467,180.734z"/>
<path fill="#FEC629" d="M160.235,180.127c0.003-0.006,0.007-0.011,0.01-0.017c0.004-0.008,0.008-0.016,0.012-0.022l-0.05-0.003
	L160.235,180.127z"/>
<path fill="#FEC629" d="M160.671,178.542c0.122,0.024,0.243,0.06,0.365,0.082c7.39-14.753,2.308-32.781-11.761-41.493
	c-0.058,0.052-0.11,0.11-0.168,0.163C162.963,146.042,167.948,163.893,160.671,178.542z"/>
<path fill="#FEC629" d="M144.419,143.157c-6.538,11.525-2.497,26.177,9.03,32.718c2.314,1.311,4.753,2.179,7.222,2.667
	c7.277-14.648,2.292-32.499-11.563-41.248C147.294,138.951,145.701,140.905,144.419,143.157z"/>
<path fill="#FEC629" d="M133.537,196.292c10.406-0.377,20.393-5.82,26.177-15.296c-0.078-0.09-0.168-0.173-0.247-0.262
	C153.788,190.254,143.898,195.785,133.537,196.292z"/>
<path fill="#FEC629" d="M159.467,180.734c-1.688-1.884-3.695-3.543-6.018-4.859c-11.527-6.541-26.177-2.499-32.718,9.027
	c-1.439,2.534-2.364,5.223-2.813,7.94c4.987,2.539,10.356,3.64,15.619,3.449C143.898,195.785,153.788,190.254,159.467,180.734z"/>
<path fill="#FEC629" d="M159.467,180.734c-1.688-1.884-3.695-3.543-6.018-4.859C155.771,177.191,157.778,178.85,159.467,180.734z"/>
<path fill="#FFFFFF" d="M391.821,174.375c-1.326,1.067-2.749,2.051-4.271,2.93l15.42-8.902l-0.13-0.227L391.821,174.375z"/>
<path fill="#FFFFFF" d="M400.377,163.913c-2.05,3.953-4.926,7.537-8.557,10.463l11.019-6.199L400.377,163.913z"/>
<path fill="#FFFFFF" d="M355.549,121.88c5.691-3.286,11.94-4.688,18.014-4.412l-2.592-4.491L355.549,121.88z"/>
<path fill="#2FA1BE" d="M402.969,168.403l11.45-6.611c-0.014-0.036-0.025-0.072-0.038-0.108l-11.542,6.492L402.969,168.403z"/>
<path fill="#2FA1BE" d="M373.563,117.468c10.588,0.48,20.641,6.077,26.258,15.803c5.615,9.727,5.436,21.23,0.557,30.642l2.462,4.264
	l11.542-6.492c-7.394-20.359-18.253-39.052-31.861-55.375l-11.549,6.668L373.563,117.468z"/>
</svg>
