<?xml version="1.0" encoding="utf-8"?>
<!-- Generator: Adobe Illustrator 16.0.0, SVG Export Plug-In . SVG Version: 6.00 Build 0)  -->
<!DOCTYPE svg PUBLIC "-//W3C//DTD SVG 1.1//EN" "http://www.w3.org/Graphics/SVG/1.1/DTD/svg11.dtd">
<svg version="1.1" id="Capa_1" xmlns="http://www.w3.org/2000/svg" xmlns:xlink="http://www.w3.org/1999/xlink" x="0px" y="0px"
	 width="480px" height="450px" viewBox="0 0 480 450" enable-background="new 0 0 480 450" xml:space="preserve">
<pattern  x="4865" y="5377" width="114" height="20" patternUnits="userSpaceOnUse" id="Nueva_muestra_de_motivo_4" viewBox="0 -20 114 20" overflow="visible">
	<g>
		<polygon fill="none" points="0,0 114,0 114,-20 0,-20 		"/>
		<polygon fill="#FFFFFF" points="114,0 0,0 0,-10 114,-10 		"/>
		<polygon fill="#2FA1BE" points="114,-10 0,-10 0,-20 114,-20 		"/>
	</g>
</pattern>
<g>
	<defs>
		<circle id="SVGID_10_" cx="240" cy="224.999" r="209.989"/>
	</defs>
	<clipPath id="SVGID_2_">
		<use xlink:href="#SVGID_10_"  overflow="visible"/>
	</clipPath>
	<g clip-path="url(#SVGID_2_)">
		<g>
			<path fill="#F0976B" d="M239,316.606c-17.674,0-32,14.326-32,32v144c0,17.674,14.326,32,32,32c17.672,0,32-14.326,32-32v-144
				C271,330.933,256.672,316.606,239,316.606z"/>
			<polygon fill="#EC4346" points="240.804,378 236.741,378 238.772,368.546 240.804,358.938 242.835,368.469 244.864,378 			"/>
			<path d="M252.804,335.198"/>
			<path fill="#FEC629" d="M239,411.606c-17.674,0-32-14.326-32-32v113c0,17.674,14.326,32,32,32c17.672,0,32-14.326,32-32v-113
				C271,397.28,256.672,411.606,239,411.606z"/>
			<path d="M239.712,316c-17.674,0-32,14-32,32h40.029l2.029-5.665l2.027-5.82l2.027,5.742l2.025,5.742h15.861
				C271.712,330,257.384,316,239.712,316z"/>
			<circle cx="239.712" cy="308.606" r="8"/>
			<path fill="#F0976B" d="M169.913,317.3c0-18.236,6.941-35.801,19.203-49.133l2.301,2.301l1.414-1.414l-2.344-2.344
				c1.039-1.068,2.102-2.117,3.211-3.125l-5.379-5.922c-16.781,15.244-26.406,36.98-26.406,59.637
				c0,28.699,15.457,55.447,40.34,69.809l4-6.93C183.837,367.243,169.913,343.149,169.913,317.3z"/>
			<path fill="#F0976B" d="M290.847,257.663l-5.379,5.922c1.109,1.008,2.174,2.057,3.213,3.125l-2.346,2.344l1.414,1.414
				l2.301-2.301c12.262,13.332,19.203,30.896,19.203,49.133c0,25.85-13.924,49.943-36.338,62.879l4,6.93
				c24.881-14.361,40.338-41.109,40.338-69.809C317.253,294.644,307.628,272.907,290.847,257.663z"/>
		</g>
		<path d="M328.409,160.089"/>
		<path fill="#F0976B" d="M353.36,241.083c-15.896,8.943-34.791,11.453-52.328,7.328l0.902-3.223l-1.926-0.539l-0.918,3.281
			c-0.969-0.248-2.785-0.77-4.209-1.242l-2.479,7.605c21.512,7.15,45.199,4.889,64.945-6.219
			c25.014-14.07,40.758-40.652,41.076-69.379l-8.039-0.102C390.101,204.474,375.888,228.411,353.36,241.083z"/>
		<path fill="#F0976B" d="M242.181,164.946l7.795,1.797c0.334-1.461,0.855-3.361,1.145-4.318l3.127,0.875l0.539-1.926l-3.066-0.859
			c5.852-18.094,17.516-31.896,33.41-40.838c22.529-12.672,50.357-12.357,72.621,0.838l4.078-6.887
			c-24.717-14.643-55.605-15.006-80.619-0.936C261.464,123.802,247.239,142.845,242.181,164.946z"/>
		<path fill="#F0976B" d="M317.437,180.468c8.666,15.402,28.176,20.865,43.58,12.201l125.504-70.6
			c15.406-8.664,20.867-28.176,12.201-43.58c-8.664-15.404-28.176-20.867-43.578-12.201l-125.506,70.6
			C314.233,145.554,308.772,165.063,317.437,180.468z"/>
		<polygon fill="#EC4346" points="371.167,150.573 373.157,154.116 363.884,157.001 354.493,159.954 361.835,153.493 
			369.177,147.034 		"/>
		<path d="M313.575,171.47c0.393,0.697,0.746,1.406,1.08,2.119c0.477,1.729,1.107,3.434,1.893,5.102
			c0.334,0.711,0.686,1.414,1.076,2.109c4.48,7.967,11.865,13.264,20.078,15.334c2.527-8.139,1.84-17.256-2.666-25.264
			c-4.475-7.957-11.838-13.268-20.039-15.359c-6.326-1.615-13.15-1.316-19.537,1.156C302.88,159.062,309.452,164.14,313.575,171.47z
			"/>
		<g>
			<path d="M382.438,166.636c0,0,0.258-14.975-6.707-17.264c-1.371-0.451-2.352,0.102-2.352,0.102s-0.939,0.5-0.857,1.789
				c0.092,1.471,1.299,3.422,4.996,4.447c1.264,0.352,2.592,1.084,3.436,3.963C381.454,161.384,382.438,166.636,382.438,166.636z"/>
			<path d="M363.417,132.821c0,0,12.932,7.557,11.27,14.693c-0.326,1.408-1.307,1.959-1.307,1.959s-0.914,0.543-1.977-0.195
				c-1.209-0.844-2.246-2.887-1.205-6.58c0.357-1.262,0.422-2.777-1.604-4.994C367.394,136.392,363.417,132.821,363.417,132.821z"/>
		</g>
		
			<pattern  id="SVGID_3_" xlink:href="#Nueva_muestra_de_motivo_4" patternTransform="matrix(-0.7742 -1.3763 1.3763 -0.7742 -2698.5498 -37514.25)">
		</pattern>
		<path fill="url(#SVGID_3_)" d="M400.237,133.892c8.664,15.402,3.201,34.912-12.203,43.578l98.486-55.4
			c15.406-8.664,20.867-28.176,12.201-43.58c-8.664-15.404-28.176-20.867-43.578-12.201l-98.486,55.402
			C372.062,113.026,391.573,118.487,400.237,133.892z"/>
		<g>
			<path d="M138.552,182.603"/>
			<path fill="#F0976B" d="M194.946,119.052c15.863,9,27.658,23.504,33.174,40.654l-3.029,0.836l0.533,1.928l3.088-0.854
				c0.553,1.924,0.885,3.168,1.213,4.631l7.846-1.607c-4.977-22.121-19.109-41.145-38.814-52.326
				c-24.959-14.166-55.84-13.885-80.613,0.664l4.018,6.771C144.675,106.64,172.466,106.292,194.946,119.052z"/>
			<path fill="#F0976B" d="M187.208,253.956l-2.385-7.631c-1.424,0.467-3.223,0.975-4.191,1.223l-1.076-3.9l-1.928,0.531l1.059,3.84
				c-17.553,4.059-36.459,1.482-52.318-7.52c-22.48-12.756-36.619-36.744-36.807-62.621l-8.031,0.066
				c0.211,28.729,15.834,55.375,40.793,69.539C142.028,258.667,165.669,261.028,187.208,253.956z"/>
			<path fill="#F0976B" d="M160.575,180.675c8.725-15.369,3.334-34.9-12.037-43.623L23.298,65.979
				c-15.369-8.723-34.9-3.334-43.623,12.037c-8.721,15.369-3.332,34.902,12.037,43.625l125.24,71.07
				C132.323,201.435,151.854,196.046,160.575,180.675z"/>
			<polygon fill="#EC4346" points="106.456,150.972 108.462,147.438 115.827,153.954 123.255,160.505 113.853,157.505 
				104.45,154.503 			"/>
			<path fill="#A4CB57" d="M77.952,133.788c8.723-15.371,28.256-20.762,43.625-12.039l-98.279-55.77
				c-15.369-8.723-34.9-3.334-43.623,12.037c-8.721,15.369-3.332,34.902,12.037,43.625l98.277,55.771
				C74.62,168.688,69.229,149.157,77.952,133.788z"/>
			<polygon fill="#FEC629" points="174.835,188.513 170.854,195.53 165.88,188.067 160.95,180.634 169.88,181.067 178.812,181.505 
							"/>
			<g>
				<path fill="#FEC629" d="M160.456,181.544c0.178-0.295,0.359-0.584,0.531-0.885c0.279-0.492,0.543-0.988,0.793-1.488
					c-2.596-0.471-5.16-1.373-7.588-2.748C156.626,177.802,158.72,179.548,160.456,181.544z"/>
				<path fill="#FEC629" d="M154.192,176.423c2.428,1.375,4.992,2.277,7.588,2.748c7.389-14.752,2.307-32.781-11.762-41.492
					c-1.883,1.689-3.535,3.703-4.855,6.025C138.624,155.231,142.665,169.882,154.192,176.423z"/>
				<path fill="#FEC629" d="M160.456,181.544c-1.736-1.996-3.83-3.742-6.264-5.121c-11.527-6.541-26.176-2.5-32.719,9.027
					c-1.439,2.535-2.363,5.223-2.812,7.941C133.513,200.952,151.749,195.81,160.456,181.544z"/>
			</g>
		</g>
	</g>
</g>
</svg>
