<?xml version="1.0" encoding="utf-8"?>
<!-- Generator: Adobe Illustrator 16.0.0, SVG Export Plug-In . SVG Version: 6.00 Build 0)  -->
<!DOCTYPE svg PUBLIC "-//W3C//DTD SVG 1.1//EN" "http://www.w3.org/Graphics/SVG/1.1/DTD/svg11.dtd">
<svg version="1.1" id="Capa_1" xmlns="http://www.w3.org/2000/svg" xmlns:xlink="http://www.w3.org/1999/xlink" x="0px" y="0px"
	 width="480px" height="450px" viewBox="0 0 480 450" enable-background="new 0 0 480 450" xml:space="preserve">
<path fill="#F0976B" d="M331.502,224.284c-0.025,0.522-0.039,1.047-0.039,1.575c0,0.004,0,0.009,0,0.013s0,0.009,0,0.013
	c0,0.504,0.014,1.005,0.037,1.503c-0.022-0.502-0.037-1.007-0.037-1.515C331.463,225.34,331.477,224.811,331.502,224.284z"/>
<path fill="#F0976B" d="M363.462,193.872c-0.022,0-0.044,0.001-0.067,0.002C363.418,193.874,363.44,193.872,363.462,193.872
	L363.462,193.872z"/>
<path fill="#F0976B" d="M426.46,225.871c0.002-17.67-14.324-31.999-31.998-31.999h-30.999v15.862l-6.493,2.027l-6.493,2.028
	l6.321,2.024l6.665,2.03v40.027h30.999C412.136,257.872,426.462,243.547,426.46,225.871z M384.405,227.904l-10.112-2.032
	l10.284-2.032l10.279-2.029v4.062v4.062L384.405,227.904z"/>
<polygon fill="#EC4346" points="394.856,221.811 384.576,223.84 374.292,225.872 384.405,227.904 394.856,229.934 394.856,225.872 
	"/>
<path fill="#FEC629" d="M426.46,225.871c0.002,17.676-14.324,32.001-31.998,32.001h52.793c1.697-10.752,2.589-21.771,2.589-33
	c0-10.534-0.785-20.883-2.283-31h-53.099C412.136,193.872,426.462,208.201,426.46,225.871z"/>
<path d="M331.5,227.388c0.774,16.97,14.48,30.486,31.963,30.485v-0.001C346.297,257.872,332.293,244.357,331.5,227.388z"/>
<path d="M363.395,193.874c-17.402,0.036-31.049,13.464-31.891,30.345C332.365,207.337,346.309,193.909,363.395,193.874z"/>
<path d="M356.798,215.814l-6.321-2.024l6.493-2.028l6.493-2.027v-15.862c-0.023,0-0.045,0.001-0.068,0.002
	c-17.086,0.035-31.029,13.463-31.891,30.345c0,0.002,0,0.004,0,0.007c-0.001,0.02-0.001,0.039-0.002,0.059
	c-0.025,0.526-0.039,1.056-0.039,1.589c0,0.508,0.015,1.013,0.037,1.515c0.793,16.97,14.797,30.484,31.963,30.484v-40.027
	L356.798,215.814z"/>
<path d="M331.463,225.859c-0.009-4.412-3.588-7.988-8.003-7.987c-4.415,0-7.998,3.582-7.997,7.998c-0.001,4.42,3.581,8.002,8,8.002
	c4.412,0,7.992-3.577,8-7.987c0-0.004-0.001-0.009-0.001-0.013S331.463,225.863,331.463,225.859z"/>
<polygon points="331.463,225.859 331.462,225.872 331.463,225.885 331.463,225.872 "/>
<path fill="#F0976B" d="M332.378,295.182c-18.237-0.001-35.649-6.79-48.913-18.979l2.332-2.332l-1.414-1.414l-2.374,2.374
	c-1.429-1.399-2.339-2.323-3.348-3.434l-6.031,5.269c15.243,16.779,36.925,26.351,59.58,26.351
	c28.7,0.001,55.419-15.483,69.78-40.368l-6.832-3.9C382.223,281.159,358.227,295.181,332.378,295.182z"/>
<path fill="#F0976B" d="M272.52,174.025l5.896,5.404c1.008-1.105,2.474-2.396,3.194-3.088l2.773,2.773l1.414-1.415l-2.827-2.827
	c13.265-12.191,30.923-19.229,49.157-19.229c25.852-0.001,49.959,13.909,62.895,36.322l6.936-4.006
	c-14.361-24.882-41.104-40.343-69.805-40.342C309.497,147.622,287.764,157.245,272.52,174.025z"/>
<path fill="#F0976B" d="M269.149,172.471c7.15-21.513,4.89-45.2-6.219-64.944c-14.068-25.014-40.652-40.759-69.378-41.075
	l-0.104,8.038c25.883,0.281,49.82,14.495,62.492,37.022c8.942,15.897,11.453,34.79,7.326,52.328l-3.222-0.901l-0.538,1.927
	l3.281,0.918c-0.249,0.968-0.771,2.784-1.242,4.209L269.149,172.471z"/>
<path fill="#F0976B" d="M177.282,213.75l0.874-3.126l-1.926-0.539l-0.858,3.065c-18.095-5.853-31.896-17.517-40.839-33.409
	c-12.672-22.529-12.354-50.356,0.838-72.621l-6.887-4.079c-14.642,24.719-15.008,55.604-0.935,80.62
	c11.108,19.747,30.151,33.972,52.25,39.028l1.8-7.795C180.138,214.561,178.238,214.041,177.282,213.75z"/>
<path fill="#F0976B" d="M179.317,63.751c-9.411-4.879-20.915-5.058-30.642,0.557c-9.726,5.616-15.322,15.669-15.803,26.257
	c-0.276,6.074,1.126,12.323,4.412,18.014l-8.903-15.421l-8.161-14.135l-3.755-6.505l35.277,62.714
	c4.205,7.475,10.965,12.6,18.566,14.915c0.022-0.09,0.036-0.182,0.059-0.271c2.09-8.203,7.401-15.566,15.358-20.04
	c7.922-4.458,16.926-5.172,24.998-2.743c1.847-7.598,0.937-15.885-3.199-23.239L189.78,72.309
	C186.854,68.677,183.27,65.801,179.317,63.751z M162.37,90.184c1.408,0.327,1.959,1.309,1.959,1.309s0.543,0.914-0.193,1.977
	c-0.846,1.209-2.889,2.246-6.58,1.205c-1.263-0.358-2.778-0.422-4.995,1.604c-1.312,1.2-4.883,5.178-4.883,5.178
	S155.234,88.521,162.37,90.184z M171.857,100.988l2.953,9.39l-6.461-7.34l-6.459-7.345l3.539-1.988l3.543-1.991L171.857,100.988z
	 M181.492,82.434c0,0-5.252,0.983-6.964,1.485c-2.879,0.843-3.609,2.171-3.963,3.434c-1.023,3.698-2.975,4.906-4.445,4.997
	c-1.289,0.082-1.789-0.855-1.789-0.855s-0.554-0.982-0.104-2.354C166.517,82.176,181.492,82.434,181.492,82.434z"/>
<path fill="#F0976B" d="M188.445,150.216c-0.155,0.073-0.31,0.151-0.465,0.227c2.509-0.68,4.975-1.675,7.344-3.008
	c0.067-0.038,0.131-0.08,0.198-0.118c-0.651,0.36-1.309,0.696-1.975,1.008C191.88,149.108,190.175,149.741,188.445,150.216z"/>
<path fill="#F0976B" d="M172.156,40.979l-6.981-12.411c-0.051,0.019-0.101,0.038-0.151,0.057l2.462,4.265L172.156,40.979z"/>
<polygon fill="#EC4346" points="161.89,95.693 168.349,103.038 174.81,110.378 171.857,100.988 168.972,91.714 165.429,93.705 "/>
<path d="M170.309,150.147c-1.539,6.249-1.223,12.966,1.214,19.264c2.394-7.42,7.474-13.991,14.804-18.114
	c0.545-0.307,1.098-0.586,1.653-0.854C182.09,152.038,175.968,151.87,170.309,150.147z"/>
<path d="M195.522,147.316c0.044-0.024,0.09-0.044,0.134-0.068c7.968-4.48,13.265-11.864,15.335-20.079
	c-0.088-0.027-0.179-0.049-0.267-0.076C208.719,135.342,203.46,142.775,195.522,147.316z"/>
<path d="M185.726,129.836c-7.957,4.474-13.269,11.837-15.358,20.04c-0.022,0.09-0.036,0.182-0.059,0.271
	c5.658,1.723,11.78,1.891,17.671,0.295c0.155-0.075,0.31-0.153,0.465-0.227c1.729-0.475,3.435-1.107,5.103-1.892
	c0.666-0.312,1.323-0.648,1.975-1.008c7.938-4.541,13.197-11.974,15.202-20.223C202.652,124.664,193.648,125.378,185.726,129.836z"
	/>
<path d="M164.226,89.141c-0.449,1.371,0.104,2.354,0.104,2.354s0.5,0.938,1.789,0.855c1.471-0.091,3.422-1.299,4.445-4.997
	c0.354-1.263,1.084-2.591,3.963-3.434c1.712-0.502,6.964-1.485,6.964-1.485S166.517,82.176,164.226,89.141z"/>
<path d="M152.56,96.277c2.217-2.025,3.732-1.962,4.995-1.604c3.691,1.041,5.734,0.004,6.58-1.205
	c0.736-1.062,0.193-1.977,0.193-1.977s-0.551-0.981-1.959-1.309c-7.136-1.663-14.692,11.271-14.692,11.271
	S151.248,97.478,152.56,96.277z"/>
<path fill="#F0976B" d="M174.562,236.752l0.836,3.029l1.929-0.532l-0.854-3.09c1.924-0.554,3.169-0.885,4.631-1.212l-1.605-7.847
	c-22.12,4.979-41.146,19.108-52.326,38.813c-14.166,24.958-13.887,55.84,0.663,80.61l6.771-4.018
	c-13.109-22.309-13.458-50.101-0.697-72.581C142.908,254.062,157.412,242.268,174.562,236.752z"/>
<path fill="#F0976B" d="M262.339,342.546c11.185-19.701,13.545-43.344,6.474-64.882l-7.631,2.385
	c0.467,1.423,0.975,3.223,1.223,4.191l-3.9,1.073l0.531,1.93l3.841-1.059c4.058,17.552,1.481,36.458-7.521,52.318
	c-12.756,22.479-36.745,36.617-62.622,36.805l0.065,8.031C221.528,383.129,248.174,367.505,262.339,342.546z"/>
<path fill="#F0976B" d="M148.645,386.921c15.352,8.712,34.856,3.341,43.593-11.989l15.329-27.013
	c3.106-5.474,4.415-11.475,4.129-17.327c0.19,5.263-0.91,10.632-3.449,15.619c-2.718-0.449-5.406-1.374-7.94-2.813
	c-11.526-6.541-15.568-21.19-9.027-32.718c-6.541,11.527-21.192,15.568-32.718,9.03c-2.252-1.282-4.206-2.875-5.863-4.688
	c-0.271,0.43-0.536,0.866-0.79,1.312l-15.343,27.036C127.902,358.727,133.3,378.21,148.645,386.921z M162.294,356.409l6.518-7.365
	l6.55-7.427l-3,9.401l-3.002,9.403l-3.53-2.006L162.294,356.409z"/>
<polygon fill="#EC4346" points="172.361,351.019 175.361,341.617 168.811,349.044 162.294,356.409 165.829,358.416 169.359,360.422 
	"/>
<path fill="#A4CB57" d="M192.238,374.932l-26.389,46.501h0.001l26.417-46.55C192.258,374.899,192.247,374.915,192.238,374.932z"/>
<path fill="#A4CB57" d="M136.605,343.295l-26.498,46.694l0.001,0.001l26.457-46.62C136.579,343.345,136.592,343.319,136.605,343.295
	z"/>
<path fill="#A4CB57" d="M148.645,386.921c-15.346-8.711-20.743-28.194-12.08-43.551l-26.457,46.62
	c16.718,13.154,35.487,23.812,55.741,31.442l26.389-46.501C183.502,390.262,163.997,395.633,148.645,386.921z"/>
<path fill="#FEC629" d="M195.532,303.894l7.393-4.9l7.461-4.977l-7.016-3.979l-7.009-3.978l-0.438,8.933l-0.43,8.88
	c0.007,0.004,0.015,0.008,0.022,0.012C195.521,303.887,195.526,303.891,195.532,303.894z"/>
<path fill="#FEC629" d="M195.532,304.298c0.206,0.117,0.403,0.244,0.606,0.364c0.089-0.079,0.172-0.169,0.262-0.247
	c-0.29-0.173-0.572-0.352-0.868-0.521l-0.042,0.028l0.003-0.05c-0.485-0.273-0.974-0.533-1.465-0.779
	c-0.022,0.122-0.058,0.243-0.082,0.365C194.479,303.723,195.009,304.001,195.532,304.298z"/>
<path fill="#FEC629" d="M196.138,304.662c-0.203-0.12-0.4-0.247-0.606-0.364c-0.523-0.297-1.053-0.575-1.586-0.84
	c-0.488,2.469-1.356,4.907-2.667,7.222C192.595,308.357,194.255,306.35,196.138,304.662z"/>
<path fill="#FEC629" d="M195.532,303.894c-0.006-0.003-0.011-0.007-0.017-0.01c-0.008-0.004-0.016-0.008-0.022-0.012l-0.003,0.05
	L195.532,303.894z"/>
<path fill="#FEC629" d="M193.946,303.458c0.024-0.122,0.06-0.243,0.082-0.365c-14.753-7.39-32.781-2.308-41.493,11.761
	c0.052,0.058,0.11,0.11,0.163,0.168C161.447,301.166,179.298,296.181,193.946,303.458z"/>
<path fill="#FEC629" d="M158.561,319.71c11.525,6.538,26.177,2.497,32.718-9.03c1.311-2.314,2.179-4.753,2.667-7.222
	c-14.648-7.277-32.499-2.292-41.248,11.563C154.355,316.835,156.309,318.428,158.561,319.71z"/>
<path fill="#FEC629" d="M211.696,330.592c-0.377-10.406-5.82-20.393-15.296-26.177c-0.09,0.078-0.173,0.168-0.262,0.247
	C205.659,310.341,211.189,320.23,211.696,330.592z"/>
<path fill="#FEC629" d="M196.138,304.662c-1.884,1.688-3.543,3.695-4.859,6.018c-6.541,11.527-2.499,26.177,9.027,32.718
	c2.534,1.439,5.223,2.364,7.94,2.813c2.539-4.987,3.64-10.356,3.449-15.619C211.189,320.23,205.659,310.341,196.138,304.662z"/>
<path fill="#FEC629" d="M196.138,304.662c-1.884,1.688-3.543,3.695-4.859,6.018C192.595,308.357,194.255,306.351,196.138,304.662z"
	/>
<polygon fill="#FFFFFF" points="112.06,64.89 116.466,72.518 112.146,64.84 "/>
<path fill="#FFFFFF" d="M189.78,72.309c1.067,1.326,2.051,2.749,2.93,4.271l-8.902-15.42l-0.227,0.13L189.78,72.309z"/>
<polygon fill="#FFFFFF" points="175.645,47.023 172.156,40.979 175.578,47.062 "/>
<polygon fill="#FFFFFF" points="112.146,64.84 116.466,72.518 120.22,79.023 175.578,47.062 172.156,40.979 167.485,32.89 "/>
<path fill="#FFFFFF" d="M179.317,63.751c3.953,2.05,7.537,4.926,10.463,8.557l-6.199-11.019L179.317,63.751z"/>
<path fill="#FFFFFF" d="M137.285,108.579c-3.286-5.691-4.688-11.94-4.412-18.014l-4.491,2.593L137.285,108.579z"/>
<path fill="#2FA1BE" d="M112.146,64.84l-2.604-4.63c-0.042,0.033-0.083,0.067-0.125,0.1l2.644,4.58L112.146,64.84z"/>
<path fill="#2FA1BE" d="M167.485,32.89l-2.462-4.265c-20.169,7.695-38.848,18.403-55.481,31.585l2.604,4.63L167.485,32.89z"/>
<polygon fill="#2FA1BE" points="183.581,61.29 183.807,61.159 175.645,47.023 175.578,47.062 "/>
<path fill="#2FA1BE" d="M132.873,90.565c0.48-10.588,6.077-20.641,15.803-26.257c9.727-5.615,21.23-5.436,30.642-0.557l4.264-2.462
	l-8.003-14.227L120.22,79.023l8.161,14.135L132.873,90.565z"/>
</svg>
