<?xml version="1.0" encoding="utf-8"?>
<!-- Generator: Adobe Illustrator 16.0.0, SVG Export Plug-In . SVG Version: 6.00 Build 0)  -->
<!DOCTYPE svg PUBLIC "-//W3C//DTD SVG 1.1//EN" "http://www.w3.org/Graphics/SVG/1.1/DTD/svg11.dtd">
<svg version="1.1" id="Capa_1" xmlns="http://www.w3.org/2000/svg" xmlns:xlink="http://www.w3.org/1999/xlink" x="0px" y="0px"
	 width="480px" height="450px" viewBox="0 0 480 450" enable-background="new 0 0 480 450" xml:space="preserve">
<pattern  x="1026" y="5377" width="114" height="20" patternUnits="userSpaceOnUse" id="Nueva_muestra_de_motivo_4" viewBox="0 -20 114 20" overflow="visible">
	<g>
		<polygon fill="none" points="0,0 114,0 114,-20 0,-20 		"/>
		<polygon fill="#FFFFFF" points="114,0 0,0 0,-10 114,-10 		"/>
		<polygon fill="#2FA1BE" points="114,-10 0,-10 0,-20 114,-20 		"/>
	</g>
</pattern>
<g>
	<defs>
		<circle id="SVGID_25_" cx="240" cy="224.574" r="209.989"/>
	</defs>
	<clipPath id="SVGID_2_">
		<use xlink:href="#SVGID_25_"  overflow="visible"/>
	</clipPath>
	<g clip-path="url(#SVGID_2_)">
		<g>
			<path fill="#F0976B" d="M240,108.967c17.674-0.001,32-14.326,32-32.001V-67.033c0-17.674-14.326-32.001-32-32
				c-17.67-0.001-32,14.326-32,31.999V76.967C208,94.64,222.328,108.966,240,108.967z"/>
			<polygon fill="#EC4346" points="239.197,46 243.258,46 241.229,56.239 239.197,66.244 237.164,56.12 235.135,46 			"/>
			<path d="M227.195,90.375"/>
			<path fill="#FEC629" d="M239.999,13.969C257.675,13.967,272,28.293,272,45.967v-113c0-17.674-14.326-32.001-32-32
				c-17.67-0.001-32,14.326-32,31.999V45.967C208,28.293,222.329,13.967,239.999,13.969z"/>
			<path d="M240.288,109c17.673,0,32.001-14,32-32H232.26l-2.03,6.452l-2.026,6.215l-2.028-6.334L224.149,77h-15.862
				C208.288,95,222.616,109,240.288,109z"/>
			<path d="M232.288,116.969c-0.001-4.42,3.582-8.002,8.001-8.003c4.416,0,7.999,3.583,8,8c-0.001,4.419-3.582,8.001-8.002,8
				C235.87,124.967,232.288,121.384,232.288,116.969z"/>
			<polygon fill="#F0976B" points="274,41 274,188 270,188 270,190 274,190 274,197 282,197 282,41 			"/>
			<polygon fill="#F0976B" points="206,188 206,41 198,41 198,197 206,197 206,190 210,190 210,188 			"/>
		</g>
		<path d="M109.59,310.484"/>
		<path fill="#F0976B" d="M120.563,290.105c-8.667-15.403-28.176-20.865-43.58-12.201l-125.504,70.6
			c-15.405,8.664-20.868,28.175-12.201,43.582c8.664,15.402,28.175,20.865,43.578,12.199l125.505-70.599
			C123.768,325.02,129.228,305.51,120.563,290.105z"/>
		<polygon fill="#EC4346" points="66.833,320 64.842,316.457 74.116,313.572 83.506,310.619 76.166,317.08 68.822,323.539 		"/>
		<path d="M124.425,299.104c-0.393-0.697-0.746-1.406-1.081-2.119c-0.475-1.729-1.107-3.434-1.892-5.102
			c-0.333-0.712-0.686-1.414-1.076-2.109c-4.48-7.967-11.864-13.264-20.079-15.335c-2.525,8.14-1.84,17.256,2.667,25.265
			c4.474,7.957,11.837,13.268,20.04,15.359c6.325,1.615,13.149,1.316,19.535-1.156C135.119,311.514,128.548,306.434,124.425,299.104
			z"/>
		<g>
			<path d="M55.562,304.364c0,0-0.258,14.975,6.707,17.266c1.371,0.449,2.352-0.104,2.352-0.104s0.938-0.501,0.857-1.789
				c-0.091-1.471-1.299-3.422-4.997-4.447c-1.263-0.352-2.591-1.084-3.434-3.963C56.545,309.616,55.562,304.364,55.562,304.364z"/>
			<path d="M74.583,338.179c0,0-12.933-7.557-11.27-14.693c0.327-1.409,1.307-1.959,1.307-1.959s0.914-0.543,1.977,0.194
				c1.209,0.845,2.246,2.888,1.205,6.58c-0.358,1.263-0.422,2.778,1.604,4.995C70.606,334.608,74.583,338.179,74.583,338.179z"/>
		</g>
		
			<pattern  id="SVGID_3_" xlink:href="#Nueva_muestra_de_motivo_4" patternTransform="matrix(0.7742 1.3763 -1.3763 0.7742 -21519.6953 6882.9121)">
		</pattern>
		<path fill="url(#SVGID_3_)" d="M37.762,336.682c-8.664-15.401-3.2-34.91,12.203-43.578l-98.485,55.4
			c-15.405,8.664-20.868,28.175-12.201,43.582c8.664,15.402,28.175,20.865,43.578,12.199l98.486-55.402
			C65.938,357.547,46.427,352.086,37.762,336.682z"/>
		<g>
			<path d="M381.448,288.97"/>
			<path fill="#F0976B" d="M359.426,290.897c-8.726,15.37-3.336,34.901,12.036,43.624L496.7,405.594
				c15.372,8.723,34.903,3.334,43.624-12.037c8.721-15.369,3.334-34.903-12.037-43.625l-125.24-71.07
				C387.676,270.139,368.145,275.527,359.426,290.897z"/>
			<polygon fill="#EC4346" points="413.544,320.602 411.537,324.135 404.172,317.618 396.745,311.068 406.147,314.068 
				415.55,317.07 			"/>
			<path fill="#A4CB57" d="M442.049,337.784c-8.725,15.371-28.258,20.763-43.626,12.04l98.277,55.77
				c15.372,8.723,34.903,3.334,43.624-12.037c8.721-15.369,3.334-34.903-12.037-43.625l-98.276-55.771
				C445.379,302.884,450.771,322.416,442.049,337.784z"/>
			<polygon fill="#FEC629" points="345.165,283.061 349.145,276.043 354.121,283.505 359.05,290.939 350.12,290.506 
				341.188,290.068 			"/>
			<g>
				<path fill="#FEC629" d="M359.543,290.029c-0.176,0.296-0.358,0.583-0.531,0.885c-0.277,0.492-0.541,0.988-0.791,1.487
					c2.594,0.472,5.158,1.374,7.587,2.749C363.375,293.771,361.279,292.025,359.543,290.029z"/>
				<path fill="#FEC629" d="M365.808,295.15c-2.429-1.375-4.993-2.277-7.587-2.749c-7.39,14.753-2.308,32.782,11.761,41.493
					c1.884-1.69,3.534-3.703,4.856-6.026C381.376,316.342,377.335,301.691,365.808,295.15z"/>
				<path fill="#FEC629" d="M359.543,290.029c1.736,1.996,3.832,3.742,6.265,5.121c11.527,6.541,26.177,2.499,32.718-9.027
					c1.439-2.535,2.364-5.223,2.813-7.941C386.488,270.621,368.252,275.764,359.543,290.029z"/>
			</g>
			<polygon fill="#F0976B" points="398.058,352.483 269.876,280.525 271.833,277.038 270.089,276.059 268.132,279.547 
				262.026,276.119 258.108,283.097 394.142,359.462 			"/>
			<polygon fill="#F0976B" points="303.163,220.229 431.345,292.19 435.262,285.213 299.229,208.849 295.313,215.824 
				301.419,219.252 299.46,222.739 301.202,223.719 			"/>
		</g>
		<polygon fill="#F0976B" points="46.628,291.712 174.571,219.33 176.541,222.81 178.282,221.826 176.312,218.345 182.406,214.897 
			178.467,207.933 42.687,284.748 		"/>
		<polygon fill="#F0976B" points="208.91,279.034 80.964,351.414 84.904,358.378 220.683,281.563 216.743,274.601 210.649,278.047 
			208.681,274.565 206.94,275.549 		"/>
	</g>
</g>
</svg>
