<?xml version="1.0" encoding="utf-8"?>
<!-- Generator: Adobe Illustrator 16.0.0, SVG Export Plug-In . SVG Version: 6.00 Build 0)  -->
<!DOCTYPE svg PUBLIC "-//W3C//DTD SVG 1.1//EN" "http://www.w3.org/Graphics/SVG/1.1/DTD/svg11.dtd">
<svg version="1.1" id="Capa_1" xmlns="http://www.w3.org/2000/svg" xmlns:xlink="http://www.w3.org/1999/xlink" x="0px" y="0px"
	 width="480px" height="450px" viewBox="0 0 480 450" enable-background="new 0 0 480 450" xml:space="preserve">
<path fill="#F0976B" d="M305.574,289.41c-0.387,0.35-0.769,0.711-1.142,1.085c-0.003,0.003-0.006,0.007-0.009,0.009
	c-0.003,0.004-0.007,0.006-0.01,0.01c-0.356,0.355-0.7,0.721-1.035,1.089c0.339-0.371,0.685-0.738,1.044-1.098
	C304.8,290.128,305.185,289.764,305.574,289.41z"/>
<path fill="#F0976B" d="M349.678,290.504c-0.016-0.016-0.032-0.031-0.049-0.047C349.646,290.473,349.662,290.488,349.678,290.504
	L349.678,290.504z"/>
<path fill="#F0976B" d="M371.598,357.677c12.496-12.493,12.498-32.756,0.001-45.253l-21.92-21.92l-11.217,11.217l-6.024-3.158
	l-6.026-3.157l3.039,5.901l3.277,6.149l-28.304,28.303l21.92,21.92C338.841,370.176,359.101,370.177,371.598,357.677z
	 M340.422,329.376l-5.714-8.587l8.709,5.835l8.704,5.834l-2.872,2.872l-2.871,2.872L340.422,329.376z"/>
<polygon fill="#EC4346" points="352.121,332.458 343.417,326.624 334.708,320.789 340.422,329.376 346.378,338.202 349.249,335.33 
	"/>
<path fill="#FEC629" d="M371.598,357.677c-12.497,12.5-32.757,12.499-45.254,0.002l37.33,37.33
	c8.803-6.402,17.226-13.563,25.165-21.504c7.448-7.448,14.211-15.321,20.306-23.534l-37.546-37.547
	C384.096,324.921,384.094,345.184,371.598,357.677z"/>
<path d="M303.379,291.603c-11.452,12.547-11.318,31.796,1.044,44.157l0.001-0.001C292.285,323.621,291.94,304.162,303.379,291.603z"
	/>
<path d="M349.629,290.457c-12.331-12.279-31.476-12.435-44.007-1.092C318.167,278.036,337.523,278.4,349.629,290.457z"/>
<path d="M329.45,301.307l-3.039-5.901l6.026,3.157l6.024,3.158l11.217-11.217c-0.017-0.016-0.033-0.031-0.05-0.047
	c-12.106-12.057-31.462-12.421-44.007-1.092c-0.002,0-0.003,0.002-0.006,0.004c-0.014,0.014-0.027,0.027-0.042,0.041
	c-0.39,0.354-0.774,0.718-1.151,1.095c-0.359,0.359-0.705,0.727-1.044,1.098c-11.439,12.56-11.094,32.019,1.045,44.156
	l28.304-28.303L329.45,301.307z"/>
<path d="M304.433,290.495c3.113-3.126,3.112-8.185-0.011-11.307c-3.122-3.122-8.188-3.122-11.311,0.001
	c-3.126,3.125-3.126,8.19-0.001,11.314c3.12,3.12,8.181,3.122,11.304,0.01c0.003-0.004,0.006-0.008,0.009-0.01
	C304.426,290.501,304.43,290.498,304.433,290.495z"/>
<polygon points="304.433,290.495 304.423,290.504 304.414,290.514 304.424,290.504 "/>
<path fill="#F0976B" d="M256.062,340.161c-12.895-12.896-20.406-30.01-21.167-48.008h3.298v-2h-3.357
	c-0.021-1.999-0.011-3.296,0.061-4.795l-7.99-0.539c-1.086,22.644,7.478,44.742,23.497,60.762
	c20.293,20.295,50.136,28.239,77.887,20.798l-2.073-7.59C301.223,365.491,274.34,358.438,256.062,340.161z"/>
<path fill="#F0976B" d="M299.406,212.164l0.348,7.991c1.494-0.069,3.442,0.055,4.442,0.075v3.922l2-0.001v-3.998
	c18,0.758,35.464,8.269,48.356,21.163c18.28,18.278,25.491,45.161,18.789,70.156l7.737,2.072
	c7.439-27.749-0.538-57.591-20.834-77.886C344.223,219.641,322.05,211.077,299.406,212.164z"/>
<path fill="#F0976B" d="M298.122,208.681c20.267-10.156,35.418-28.504,41.524-50.32c7.739-27.636,0.075-57.566-20.014-78.103
	l-5.757,5.611c18.104,18.501,24.979,45.478,18.01,70.367c-4.918,17.565-16.502,32.7-31.821,42.182l-1.641-2.915l-1.743,0.982
	l1.671,2.969c-0.86,0.508-2.514,1.423-3.854,2.098L298.122,208.681z"/>
<path fill="#F0976B" d="M203.973,172.91l2.829-1.592l-0.98-1.743l-2.775,1.561c-8.656-16.934-10.167-34.94-5.253-52.501
	c6.97-24.891,26.872-44.343,51.944-50.758l-1.986-7.754c-27.832,7.125-49.93,28.706-57.667,56.346
	c-6.108,21.818-2.701,45.342,9.349,64.543l6.785-4.239C205.42,175.503,204.443,173.792,203.973,172.91z"/>
<path fill="#F0976B" d="M311.477,68.284c-3.204-10.104-11.212-18.366-22.061-21.273c-10.849-2.906-21.914,0.245-29.74,7.392
	c-4.49,4.1-7.918,9.51-9.618,15.857l4.608-17.2l4.225-15.766l1.944-7.255l-19.401,69.291c-2.312,8.259-1.155,16.663,2.582,23.675
	c0.08-0.047,0.154-0.103,0.234-0.15c7.277-4.323,16.24-5.773,25.03-3.311c8.754,2.449,15.625,8.312,19.615,15.737
	c6.679-4.067,11.895-10.571,14.17-18.695l9.759-34.854C313.323,77.097,312.823,72.529,311.477,68.284z M280.803,74.991
	c0.765,1.227,0.46,2.311,0.46,2.311s-0.262,1.03-1.534,1.261c-1.453,0.257-3.631-0.454-5.505-3.801
	c-0.64-1.146-1.666-2.263-4.666-2.398c-1.776-0.08-7.114,0.208-7.114,0.208S276.934,68.77,280.803,74.991z M279.871,89.34
	l-4.551,8.728l0.621-9.759l0.627-9.761l3.908,1.097l3.913,1.097L279.871,89.34z M299.805,83.032c0,0-4.409-3.018-5.975-3.874
	c-2.632-1.44-4.088-1.018-5.23-0.375c-3.339,1.892-5.572,1.366-6.677,0.39c-0.97-0.854-0.66-1.87-0.66-1.87s0.304-1.086,1.591-1.738
	C289.399,72.261,299.805,83.032,299.805,83.032z"/>
<path fill="#F0976B" d="M256.792,135.878c-0.161-0.058-0.326-0.112-0.489-0.168c2.255,1.293,4.702,2.333,7.32,3.066
	c0.074,0.021,0.148,0.036,0.223,0.057c-0.715-0.207-1.417-0.434-2.108-0.684C260.004,137.524,258.35,136.766,256.792,135.878z"/>
<path fill="#F0976B" d="M322.516,47.118l3.84-13.713c-0.05-0.022-0.099-0.044-0.147-0.066l-1.275,4.756L322.516,47.118z"/>
<polygon fill="#EC4346" points="276.569,78.548 275.942,88.309 275.321,98.067 279.871,89.34 284.39,80.742 280.477,79.645 "/>
<path d="M244.016,123.006c-5.506,3.331-10.033,8.304-12.763,14.48c6.939-3.554,15.179-4.609,23.276-2.341
	c0.603,0.168,1.191,0.362,1.773,0.565C251.01,132.673,246.799,128.225,244.016,123.006z"/>
<path d="M263.846,138.833c0.049,0.014,0.096,0.032,0.144,0.046c8.802,2.466,17.769,0.99,25.041-3.354
	c-0.042-0.082-0.092-0.161-0.135-0.242C281.646,139.697,272.67,141.234,263.846,138.833z"/>
<path d="M269.281,119.545c-8.79-2.463-17.753-1.012-25.03,3.311c-0.08,0.048-0.154,0.103-0.234,0.15
	c2.783,5.219,6.994,9.667,12.287,12.704c0.163,0.057,0.328,0.11,0.489,0.168c1.558,0.887,3.212,1.646,4.945,2.271
	c0.691,0.25,1.394,0.477,2.108,0.684c8.824,2.401,17.8,0.865,25.05-3.55C284.906,127.856,278.034,121.994,269.281,119.545z"/>
<path d="M282.854,75.566c-1.287,0.652-1.591,1.738-1.591,1.738s-0.31,1.017,0.66,1.87c1.104,0.976,3.338,1.501,6.677-0.39
	c1.143-0.643,2.599-1.065,5.23,0.375c1.565,0.855,5.975,3.874,5.975,3.874S289.399,72.261,282.854,75.566z"/>
<path d="M269.558,72.364c3,0.135,4.026,1.252,4.666,2.398c1.874,3.347,4.052,4.058,5.505,3.801c1.272-0.23,1.534-1.261,1.534-1.261
	s0.305-1.083-0.46-2.311c-3.869-6.222-18.359-2.419-18.359-2.419S267.781,72.284,269.558,72.364z"/>
<path fill="#F0976B" d="M185.785,187.252l-1.551,2.733l1.74,0.988l1.581-2.789c1.752,0.969,2.867,1.615,4.132,2.417l4.413-6.684
	c-19.162-12.121-42.606-15.583-64.445-9.555c-27.665,7.631-49.304,29.665-56.531,57.469l7.628,1.947
	c6.505-25.045,25.911-44.943,50.83-51.816C151.162,177.108,169.758,179.025,185.785,187.252z"/>
<path fill="#F0976B" d="M173.045,324.127c21.839-6.022,40.226-21.07,50.456-41.301l-7.082-3.709c-0.677,1.336-1.59,2.967-2.1,3.828
	l-3.516-2l-0.989,1.74l3.465,1.968c-9.542,15.28-24.732,26.828-42.312,31.678c-24.915,6.874-51.875-0.091-70.305-18.256
	l-5.633,5.725C115.491,323.966,145.38,331.76,173.045,324.127z"/>
<path fill="#F0976B" d="M61.274,275.111c4.695,17.016,22.285,27.01,39.302,22.347l29.94-8.261
	c6.067-1.674,11.236-4.992,15.172-9.333c-3.586,3.856-8.161,6.874-13.483,8.605c-1.604-2.239-2.851-4.794-3.625-7.604
	c-3.525-12.775,3.975-25.992,16.751-29.518c-12.776,3.525-25.994-3.977-29.521-16.75c-0.686-2.499-0.941-5.007-0.831-7.461
	c-0.496,0.111-0.992,0.232-1.487,0.369l-29.966,8.269C66.542,240.508,56.582,258.101,61.274,275.111z M92.499,263.188l9.817-0.6
	l9.883-0.62l-8.769,4.526l-8.772,4.526l-1.078-3.915L92.499,263.188z"/>
<polygon fill="#EC4346" points="103.43,266.494 112.199,261.968 102.316,262.588 92.499,263.188 93.58,267.105 94.658,271.021 "/>
<path fill="#A4CB57" d="M100.576,297.458L49.035,311.68l0,0.001l51.595-14.236C100.613,297.449,100.594,297.453,100.576,297.458z"/>
<path fill="#A4CB57" d="M83.608,235.75l-51.755,14.28v0.001l51.673-14.257C83.554,235.766,83.581,235.757,83.608,235.75z"/>
<path fill="#A4CB57" d="M61.274,275.111c-4.691-17.011,5.269-34.604,22.253-39.337l-51.673,14.257
	c2.52,21.123,8.255,41.932,17.182,61.648l51.541-14.222C83.558,302.121,65.969,292.127,61.274,275.111z"/>
<path fill="#FEC629" d="M153.136,249.557l8.692,1.762l8.795,1.757l-2.147-7.774l-2.144-7.77l-6.626,6.007l-6.583,5.976
	c0.002,0.008,0.005,0.016,0.007,0.023C153.134,249.543,153.135,249.55,153.136,249.557z"/>
<path fill="#FEC629" d="M152.851,249.842c0.062,0.229,0.112,0.458,0.171,0.687c0.119,0.007,0.241,0.002,0.359,0.011
	c-0.083-0.328-0.156-0.654-0.245-0.982l-0.049-0.01l0.037-0.033c-0.15-0.537-0.312-1.066-0.485-1.588
	c-0.102,0.07-0.212,0.132-0.316,0.201C152.513,248.691,152.691,249.262,152.851,249.842z"/>
<path fill="#FEC629" d="M153.022,250.528c-0.059-0.229-0.109-0.458-0.171-0.687c-0.16-0.58-0.338-1.15-0.528-1.715
	c-2.091,1.4-4.429,2.51-6.992,3.221C147.904,250.637,150.497,250.39,153.022,250.528z"/>
<path fill="#FEC629" d="M153.136,249.557c-0.002-0.007-0.002-0.014-0.005-0.02c-0.002-0.008-0.005-0.016-0.007-0.023l-0.037,0.033
	L153.136,249.557z"/>
<path fill="#FEC629" d="M152.323,248.127c0.104-0.069,0.214-0.131,0.316-0.201c-5.207-15.656-21.548-24.811-37.656-21.023
	c-0.004,0.077,0,0.156-0.003,0.234C130.964,223.526,147.111,232.623,152.323,248.127z"/>
<path fill="#FEC629" d="M115.81,234.598c3.527,12.773,16.744,20.275,29.521,16.75c2.563-0.711,4.901-1.82,6.992-3.221
	c-5.212-15.504-21.359-24.601-37.343-20.99C114.869,229.591,115.125,232.099,115.81,234.598z"/>
<path fill="#FEC629" d="M145.688,279.864c7.092-7.625,10.304-18.535,7.694-29.325c-0.119-0.009-0.241-0.004-0.359-0.011
	C155.739,261.275,152.656,272.18,145.688,279.864z"/>
<path fill="#FEC629" d="M153.022,250.528c-2.526-0.138-5.119,0.108-7.691,0.819c-12.776,3.525-20.277,16.742-16.751,29.518
	c0.774,2.811,2.021,5.365,3.625,7.604c5.322-1.731,9.897-4.749,13.483-8.605C152.656,272.18,155.739,261.275,153.022,250.528z"/>
<path fill="#FEC629" d="M153.022,250.528c-2.525-0.139-5.119,0.108-7.691,0.819C147.904,250.637,150.496,250.391,153.022,250.528z"
	/>
<polygon fill="#FFFFFF" points="263.115,21.531 260.835,30.041 263.21,21.557 "/>
<path fill="#FFFFFF" d="M312.824,81.733c-0.183,1.692-0.493,3.394-0.948,5.091l4.609-17.198l-0.253-0.068L312.824,81.733z"/>
<polygon fill="#FFFFFF" points="320.709,53.859 322.516,47.118 320.634,53.839 "/>
<polygon fill="#FFFFFF" points="263.21,21.557 260.835,30.041 258.891,37.295 320.634,53.839 322.516,47.118 324.933,38.095 "/>
<path fill="#FFFFFF" d="M311.477,68.284c1.346,4.245,1.847,8.812,1.348,13.449l3.408-12.175L311.477,68.284z"/>
<path fill="#FFFFFF" d="M250.058,70.261c1.7-6.348,5.128-11.758,9.618-15.857l-5.01-1.342L250.058,70.261z"/>
<path fill="#2FA1BE" d="M263.21,21.557l1.433-5.116c-0.053-0.006-0.105-0.011-0.159-0.018l-1.369,5.107L263.21,21.557z"/>
<path fill="#2FA1BE" d="M324.933,38.095l1.275-4.756c-19.703-8.82-40.482-14.457-61.565-16.897l-1.433,5.116L324.933,38.095z"/>
<polygon fill="#2FA1BE" points="316.233,69.558 316.486,69.626 320.709,53.859 320.634,53.839 "/>
<path fill="#2FA1BE" d="M259.676,54.403c7.826-7.147,18.892-10.298,29.74-7.392c10.849,2.907,18.856,11.168,22.061,21.273
	l4.756,1.274l4.401-15.719l-61.743-16.544l-4.225,15.766L259.676,54.403z"/>
</svg>
