<?xml version="1.0" encoding="utf-8"?>
<!-- Generator: Adobe Illustrator 16.0.0, SVG Export Plug-In . SVG Version: 6.00 Build 0)  -->
<!DOCTYPE svg PUBLIC "-//W3C//DTD SVG 1.1//EN" "http://www.w3.org/Graphics/SVG/1.1/DTD/svg11.dtd">
<svg version="1.1" id="Capa_1" xmlns="http://www.w3.org/2000/svg" xmlns:xlink="http://www.w3.org/1999/xlink" x="0px" y="0px"
	 width="480px" height="450px" viewBox="0 0 480 450" enable-background="new 0 0 480 450" xml:space="preserve">
<pattern  x="5633" y="5377" width="114" height="20" patternUnits="userSpaceOnUse" id="Nueva_muestra_de_motivo_4" viewBox="0 -20 114 20" overflow="visible">
	<g>
		<polygon fill="none" points="0,0 114,0 114,-20 0,-20 		"/>
		<polygon fill="#FFFFFF" points="114,0 0,0 0,-10 114,-10 		"/>
		<polygon fill="#2FA1BE" points="114,-10 0,-10 0,-20 114,-20 		"/>
	</g>
</pattern>
<g>
	<defs>
		<circle id="SVGID_1_" cx="239.604" cy="225" r="178.171"/>
	</defs>
	<clipPath id="SVGID_2_">
		<use xlink:href="#SVGID_1_"  overflow="visible"/>
	</clipPath>
	<g clip-path="url(#SVGID_2_)">
		<g>
			<path fill="#F0976B" d="M239,316.605c-17.674,0.001-32,14.325-32,32.001v143.998c0,17.675,14.327,32.002,32.001,32.002
				c17.669,0,31.999-14.327,31.999-32V348.605C271,330.933,256.672,316.606,239,316.605z"/>
			<polygon fill="#EC4346" points="240.405,379 236.345,379 238.374,369.046 240.405,359.187 242.439,369.094 244.468,379 			"/>
			<path d="M252.409,335.197"/>
			<path fill="#FEC629" d="M239.001,411.604C221.325,411.605,207,397.28,207,379.605v112.999c0,17.675,14.327,32.002,32.001,32.002
				c17.669,0,31.999-14.327,31.999-32V379.605C271,397.279,256.671,411.605,239.001,411.604z"/>
			<path d="M239.314,317c-17.672,0-32.001,14-31.999,32h40.028l2.03-6.167l2.026-6.071l2.028,6.12l2.025,6.118h15.862
				C271.315,331,256.987,317,239.314,317z"/>
			<circle cx="239.315" cy="308.605" r="8"/>
			<path fill="#F0976B" d="M169.314,317.501c0.001-18.238,6.811-35.67,19.003-48.934l1.748,1.748l1.414-1.414l-1.791-1.791
				c1.4-1.428,2.303-2.317,3.411-3.326l-5.277-6.021c-16.78,15.244-26.354,36.93-26.354,59.585
				c-0.001,28.7,15.482,55.421,40.365,69.783l3.911-6.841C183.327,367.354,169.315,343.35,169.314,317.501z"/>
			<path fill="#F0976B" d="M290.449,257.662l-5.696,5.603c1.107,1.009,2.104,2.183,2.797,2.904l-2.732,2.732l1.414,1.414
				l2.785-2.785c12.193,13.264,19.521,31.214,19.52,49.449c0,25.85-13.764,50.104-36.178,63.038l4.08,7.01
				c24.881-14.362,40.379-41.069,40.379-69.77C316.816,294.603,307.23,272.907,290.449,257.662z"/>
		</g>
		<path d="M328.013,160.088"/>
		<path fill="#F0976B" d="M352.964,241.083c-15.898,8.942-34.79,11.453-52.328,7.325l0.9-3.221l-1.924-0.538l-0.918,3.281
			c-0.969-0.25-2.786-0.771-4.209-1.242l-2.479,7.604c21.512,7.15,45.2,4.888,64.944-6.219
			c25.013-14.069,40.758-40.652,41.077-69.379l-8.039-0.102C389.704,204.473,375.49,228.411,352.964,241.083z"/>
		<path fill="#F0976B" d="M241.785,164.943l7.794,1.799c0.335-1.461,0.855-3.361,1.146-4.317l3.126,0.873l0.539-1.925l-3.067-0.859
			c5.853-18.095,17.517-31.896,33.411-40.839c22.529-12.671,50.356-12.355,72.621,0.839l4.078-6.887
			c-24.719-14.642-55.605-15.008-80.619-0.935C261.067,123.801,246.843,142.844,241.785,164.943z"/>
		<path fill="#F0976B" d="M317.04,180.467c8.667,15.403,28.176,20.865,43.58,12.2l125.504-70.6
			c15.405-8.664,20.867-28.174,12.201-43.581c-8.664-15.402-28.176-20.865-43.578-12.198l-125.506,70.598
			C313.835,145.553,308.376,165.062,317.04,180.467z"/>
		<polygon fill="#EC4346" points="370.771,150.572 372.761,154.115 363.487,157 354.098,159.953 361.437,153.492 368.78,147.033 		
			"/>
		<path d="M313.179,171.469c0.393,0.696,0.745,1.406,1.08,2.119c0.475,1.729,1.107,3.434,1.893,5.103
			c0.333,0.711,0.686,1.413,1.075,2.108c4.481,7.967,11.865,13.264,20.079,15.335c2.526-8.14,1.841-17.256-2.666-25.266
			c-4.475-7.957-11.837-13.267-20.04-15.359c-6.325-1.614-13.149-1.315-19.535,1.158
			C302.483,159.059,309.056,164.139,313.179,171.469z"/>
		<g>
			<path d="M382.438,166.634c0,0,0.258-14.974-6.707-17.265c-1.371-0.449-2.353,0.104-2.353,0.104s-0.938,0.501-0.856,1.789
				c0.09,1.471,1.299,3.422,4.996,4.447c1.264,0.352,2.592,1.084,3.435,3.963C381.454,161.383,382.438,166.634,382.438,166.634z"/>
			<path d="M363.417,132.82c0,0,12.932,7.557,11.27,14.693c-0.328,1.409-1.308,1.959-1.308,1.959s-0.913,0.544-1.976-0.194
				c-1.209-0.846-2.246-2.888-1.205-6.58c0.358-1.264,0.422-2.778-1.604-4.995C367.393,136.391,363.417,132.82,363.417,132.82z"/>
		</g>
		
			<pattern  id="SVGID_3_" xlink:href="#Nueva_muestra_de_motivo_4" patternTransform="matrix(-0.7742 -1.3763 1.3763 -0.7742 -4350.2266 -38427.7812)">
		</pattern>
		<path fill="url(#SVGID_3_)" d="M399.841,133.891c8.664,15.401,3.201,34.91-12.203,43.578l98.486-55.401
			c15.405-8.664,20.867-28.174,12.201-43.581c-8.664-15.402-28.176-20.865-43.578-12.198l-98.486,55.4
			C371.665,113.025,391.177,118.486,399.841,133.891z"/>
		<g>
			<path d="M138.155,182.603"/>
			<path fill="#F0976B" d="M194.55,119.052c15.863,8.998,27.658,23.503,33.174,40.653l-3.029,0.836l0.532,1.927l3.089-0.854
				c0.553,1.926,0.884,3.17,1.213,4.632l7.845-1.608c-4.977-22.119-19.108-41.143-38.813-52.325
				c-24.959-14.167-55.84-13.885-80.612,0.665l4.018,6.771C144.277,106.64,172.069,106.291,194.55,119.052z"/>
			<path fill="#F0976B" d="M186.812,253.955l-2.385-7.63c-1.424,0.467-3.223,0.973-4.193,1.222l-1.074-3.9l-1.927,0.53l1.056,3.842
				c-17.55,4.057-36.457,1.482-52.318-7.52c-22.479-12.757-36.617-36.745-36.805-62.623l-8.031,0.067
				c0.211,28.728,15.834,55.374,40.794,69.539C141.631,258.666,165.272,261.026,186.812,253.955z"/>
			<path fill="#F0976B" d="M160.177,180.675c8.727-15.37,3.337-34.9-12.035-43.624L22.901,65.978
				c-15.37-8.722-34.902-3.333-43.623,12.039c-8.72,15.368-3.334,34.902,12.038,43.625l125.239,71.068
				C131.928,201.433,151.459,196.044,160.177,180.675z"/>
			<polygon fill="#EC4346" points="106.06,150.972 108.065,147.437 115.432,153.954 122.858,160.504 113.456,157.504 
				104.054,154.502 			"/>
			<path fill="#A4CB57" d="M77.555,133.788c8.725-15.371,28.258-20.764,43.626-12.039L22.901,65.978
				c-15.37-8.722-34.902-3.333-43.623,12.039c-8.72,15.368-3.334,34.902,12.038,43.625l98.276,55.771
				C74.225,168.688,68.833,149.156,77.555,133.788z"/>
			<polygon fill="#FEC629" points="174.438,188.512 170.459,195.53 165.481,188.067 160.554,180.633 169.483,181.066 
				178.415,181.504 			"/>
			<g>
				<path fill="#FEC629" d="M160.06,181.543c0.177-0.296,0.359-0.583,0.532-0.886c0.277-0.491,0.54-0.987,0.79-1.486
					c-2.594-0.473-5.158-1.374-7.586-2.749C156.229,177.801,158.324,179.548,160.06,181.543z"/>
				<path fill="#FEC629" d="M153.796,176.422c2.428,1.375,4.992,2.276,7.586,2.749c7.39-14.753,2.309-32.782-11.76-41.493
					c-1.884,1.69-3.534,3.702-4.856,6.026C138.228,155.23,142.269,169.881,153.796,176.422z"/>
				<path fill="#FEC629" d="M160.06,181.543c-1.735-1.995-3.831-3.742-6.264-5.121c-11.527-6.541-26.178-2.499-32.718,9.026
					c-1.439,2.536-2.364,5.224-2.813,7.942C133.115,200.951,151.352,195.809,160.06,181.543z"/>
			</g>
		</g>
	</g>
</g>
</svg>
