<?xml version="1.0" encoding="utf-8"?>
<!-- Generator: Adobe Illustrator 16.0.0, SVG Export Plug-In . SVG Version: 6.00 Build 0)  -->
<!DOCTYPE svg PUBLIC "-//W3C//DTD SVG 1.1//EN" "http://www.w3.org/Graphics/SVG/1.1/DTD/svg11.dtd">
<svg version="1.1" id="Capa_1" xmlns="http://www.w3.org/2000/svg" xmlns:xlink="http://www.w3.org/1999/xlink" x="0px" y="0px"
	 width="480px" height="450px" viewBox="0 0 480 450" enable-background="new 0 0 480 450" xml:space="preserve">
<path fill="#F0976B" d="M239.412,133.354c0.522,0.026,1.047,0.04,1.575,0.04c0.004,0,0.009,0,0.013,0s0.009,0,0.013,0
	c0.504,0,1.005-0.015,1.503-0.038c-0.502,0.023-1.007,0.038-1.515,0.038C240.468,133.393,239.939,133.379,239.412,133.354z"/>
<path fill="#F0976B" d="M209,101.394c0,0.022,0.001,0.044,0.002,0.067C209.002,101.438,209,101.416,209,101.394L209,101.394z"/>
<path fill="#F0976B" d="M240.999,38.396C223.329,38.394,209,52.72,209,70.394v30.999h15.862l2.027,6.493l2.028,6.494l2.024-6.322
	l2.03-6.665H273V70.394C273,52.72,258.675,38.394,240.999,38.396z M243.032,80.452L241,90.564l-2.032-10.284L236.939,70H241h4.062
	L243.032,80.452z"/>
<polygon fill="#EC4346" points="236.939,70 238.968,80.28 241,90.564 243.032,80.452 245.062,70 241,70 "/>
<path fill="#FEC629" d="M240.999,38.396C258.675,38.394,273,52.72,273,70.394V17.601c-10.752-1.697-21.771-2.589-33-2.589
	c-10.534,0-20.883,0.785-31,2.283v53.099C209,52.72,223.329,38.394,240.999,38.396z"/>
<path d="M242.516,133.355c16.97-0.774,30.486-14.48,30.485-31.962H273C273,118.56,259.486,132.563,242.516,133.355z"/>
<path d="M209.002,101.461c0.036,17.402,13.464,31.05,30.345,31.891C222.466,132.491,209.037,118.548,209.002,101.461z"/>
<path d="M230.943,108.058l-2.024,6.322l-2.028-6.494l-2.027-6.493H209c0,0.023,0.001,0.045,0.002,0.068
	c0.035,17.087,13.463,31.03,30.345,31.891c0.002,0,0.004,0,0.007,0.001c0.02,0,0.039,0,0.059,0.001
	c0.526,0.025,1.056,0.04,1.589,0.04c0.508,0,1.013-0.015,1.515-0.038C259.486,132.563,273,118.56,273,101.393h-40.027
	L230.943,108.058z"/>
<path d="M240.988,133.394c-4.412,0.008-7.988,3.587-7.987,8.002c0,4.415,3.582,7.998,7.998,7.997c4.42,0.001,8.002-3.581,8.002-8
	c0-4.413-3.577-7.992-7.987-8c-0.004,0-0.009,0-0.013,0S240.991,133.394,240.988,133.394z"/>
<polygon points="240.988,133.394 241,133.394 241.013,133.394 241,133.393 "/>
<path fill="#F0976B" d="M310.31,132.478c-0.001,18.237-6.79,35.649-18.979,48.913l-2.332-2.332l-1.414,1.414l2.374,2.374
	c-1.399,1.429-2.323,2.339-3.434,3.348l5.269,6.031c16.779-15.243,26.351-36.925,26.351-59.58
	c0.001-28.7-15.483-55.419-40.368-69.78l-3.9,6.832C296.287,82.633,310.309,106.629,310.31,132.478z"/>
<path fill="#F0976B" d="M189.154,192.337l5.404-5.896c-1.105-1.008-2.396-2.473-3.088-3.195l2.773-2.773l-1.415-1.414l-2.827,2.827
	c-12.191-13.264-19.229-30.923-19.229-49.157c-0.001-25.851,13.909-49.959,36.322-62.894l-4.006-6.936
	c-24.882,14.361-40.343,41.104-40.342,69.805C162.75,155.359,172.373,177.093,189.154,192.337z"/>
<path fill="#F0976B" d="M187.599,195.707c-21.513-7.15-45.2-4.889-64.944,6.219c-25.014,14.069-40.759,40.652-41.075,69.379
	l8.038,0.104c0.281-25.883,14.495-49.82,37.022-62.491c15.897-8.943,34.79-11.454,52.328-7.326l-0.901,3.221l1.927,0.538
	l0.918-3.281c0.968,0.249,2.784,0.771,4.209,1.242L187.599,195.707z"/>
<path fill="#F0976B" d="M228.878,287.574l-3.126-0.874l-0.539,1.926l3.065,0.858c-5.853,18.095-17.517,31.896-33.409,40.839
	c-22.529,12.672-50.356,12.354-72.621-0.838l-4.079,6.887c24.719,14.642,55.604,15.008,80.62,0.935
	c19.747-11.108,33.972-30.151,39.028-52.25l-7.795-1.8C229.689,284.718,229.169,286.618,228.878,287.574z"/>
<path fill="#F0976B" d="M78.88,285.539c-4.879,9.411-5.058,20.915,0.557,30.642c5.616,9.726,15.669,15.322,26.257,15.803
	c6.074,0.276,12.323-1.126,18.014-4.412l-15.421,8.903l-14.135,8.161l-6.505,3.755l62.714-35.277
	c7.475-4.205,12.6-10.965,14.915-18.566c-0.09-0.022-0.182-0.036-0.271-0.059c-8.203-2.09-15.566-7.401-20.04-15.358
	c-4.458-7.922-5.172-16.926-2.743-24.998c-7.598-1.847-15.885-0.937-23.239,3.199l-31.546,17.745
	C83.805,278.002,80.929,281.586,78.88,285.539z M105.312,302.486c0.327-1.408,1.309-1.959,1.309-1.959s0.914-0.543,1.977,0.193
	c1.209,0.846,2.246,2.889,1.205,6.58c-0.358,1.263-0.422,2.778,1.604,4.995c1.2,1.312,5.178,4.883,5.178,4.883
	S103.649,309.622,105.312,302.486z M116.116,292.999l9.39-2.953l-7.34,6.461l-7.345,6.459l-1.988-3.539l-1.991-3.543
	L116.116,292.999z M97.562,283.364c0,0,0.983,5.252,1.485,6.964c0.843,2.879,2.171,3.609,3.434,3.963
	c3.698,1.023,4.906,2.975,4.997,4.445c0.082,1.289-0.855,1.789-0.855,1.789s-0.982,0.554-2.354,0.104
	C97.304,298.339,97.562,283.364,97.562,283.364z"/>
<path fill="#F0976B" d="M165.344,276.411c0.073,0.155,0.151,0.31,0.227,0.465c-0.68-2.509-1.675-4.975-3.008-7.344
	c-0.038-0.067-0.08-0.131-0.118-0.198c0.36,0.651,0.696,1.309,1.008,1.975C164.237,272.977,164.869,274.682,165.344,276.411z"/>
<path fill="#F0976B" d="M56.107,292.7l-12.411,6.981c0.019,0.051,0.038,0.101,0.057,0.151l4.265-2.462L56.107,292.7z"/>
<polygon fill="#EC4346" points="110.822,302.966 118.166,296.507 125.506,290.046 116.116,292.999 106.842,295.884 108.833,299.427 
	"/>
<path d="M165.276,294.547c6.249,1.539,12.966,1.223,19.264-1.214c-7.42-2.394-13.991-7.474-18.114-14.804
	c-0.307-0.545-0.586-1.098-0.854-1.653C167.166,282.767,166.998,288.889,165.276,294.547z"/>
<path d="M162.445,269.334c-0.024-0.044-0.044-0.09-0.068-0.134c-4.48-7.968-11.864-13.265-20.079-15.335
	c-0.027,0.088-0.049,0.179-0.076,0.267C150.47,256.137,157.904,261.396,162.445,269.334z"/>
<path d="M144.964,279.13c4.474,7.957,11.837,13.269,20.04,15.358c0.09,0.022,0.182,0.036,0.271,0.059
	c1.723-5.658,1.891-11.78,0.295-17.671c-0.075-0.155-0.153-0.31-0.227-0.465c-0.475-1.729-1.107-3.435-1.892-5.103
	c-0.312-0.666-0.648-1.323-1.008-1.975c-4.541-7.938-11.974-13.197-20.223-15.202C139.792,262.204,140.506,271.208,144.964,279.13z"
	/>
<path d="M104.269,300.63c1.371,0.449,2.354-0.104,2.354-0.104s0.938-0.5,0.855-1.789c-0.091-1.471-1.299-3.422-4.997-4.445
	c-1.263-0.354-2.591-1.084-3.434-3.963c-0.502-1.712-1.485-6.964-1.485-6.964S97.304,298.339,104.269,300.63z"/>
<path d="M111.406,312.296c-2.025-2.217-1.962-3.732-1.604-4.995c1.041-3.691,0.004-5.734-1.205-6.58
	c-1.062-0.736-1.977-0.193-1.977-0.193s-0.981,0.551-1.309,1.959c-1.663,7.136,11.271,14.692,11.271,14.692
	S112.606,313.608,111.406,312.296z"/>
<path fill="#F0976B" d="M251.88,290.294l3.029-0.836l-0.532-1.929l-3.09,0.854c-0.554-1.924-0.885-3.169-1.212-4.631l-7.847,1.605
	c4.979,22.12,19.108,41.146,38.813,52.326c24.958,14.166,55.84,13.887,80.61-0.663l-4.018-6.771
	c-22.309,13.109-50.101,13.458-72.581,0.697C269.19,321.948,257.396,307.444,251.88,290.294z"/>
<path fill="#F0976B" d="M357.674,202.517c-19.701-11.184-43.344-13.545-64.882-6.473l2.385,7.63
	c1.423-0.466,3.223-0.974,4.191-1.222l1.073,3.9l1.93-0.531l-1.059-3.841c17.552-4.058,36.458-1.482,52.318,7.52
	c22.479,12.757,36.617,36.745,36.805,62.622l8.031-0.065C398.257,243.328,382.633,216.682,357.674,202.517z"/>
<path fill="#F0976B" d="M402.049,316.211c8.712-15.352,3.341-34.856-11.989-43.593l-27.013-15.329
	c-5.474-3.106-11.475-4.415-17.327-4.129c5.263-0.19,10.632,0.91,15.619,3.449c-0.449,2.718-1.374,5.406-2.813,7.94
	c-6.541,11.526-21.19,15.568-32.718,9.027c11.527,6.541,15.568,21.192,9.03,32.718c-1.282,2.252-2.875,4.206-4.688,5.863
	c0.43,0.271,0.866,0.536,1.312,0.79l27.036,15.343C373.855,336.954,393.338,331.557,402.049,316.211z M371.537,302.562l-7.365-6.518
	l-7.427-6.55l9.401,3l9.403,3.002l-2.006,3.53L371.537,302.562z"/>
<polygon fill="#EC4346" points="366.147,292.495 356.745,289.495 364.172,296.045 371.537,302.562 373.544,299.027 375.55,295.497 
	"/>
<path fill="#A4CB57" d="M390.06,272.618l46.501,26.389v-0.001l-46.55-26.417C390.028,272.599,390.043,272.609,390.06,272.618z"/>
<path fill="#A4CB57" d="M358.423,328.251l46.694,26.498l0.001-0.001l-46.62-26.457C358.473,328.277,358.448,328.265,358.423,328.251
	z"/>
<path fill="#A4CB57" d="M402.049,316.211c-8.711,15.346-28.194,20.743-43.551,12.08l46.62,26.457
	c13.154-16.718,23.812-35.487,31.442-55.741l-46.501-26.389C405.39,281.354,410.761,300.859,402.049,316.211z"/>
<path fill="#FEC629" d="M319.022,269.324l-4.9-7.393l-4.977-7.461l-3.979,7.016l-3.978,7.009l8.933,0.438l8.88,0.43
	c0.004-0.007,0.008-0.015,0.012-0.022C319.015,269.335,319.019,269.33,319.022,269.324z"/>
<path fill="#FEC629" d="M319.426,269.324c0.117-0.206,0.244-0.403,0.364-0.606c-0.079-0.089-0.169-0.172-0.247-0.262
	c-0.173,0.29-0.352,0.572-0.521,0.868l0.028,0.042l-0.05-0.003c-0.273,0.485-0.533,0.974-0.779,1.465
	c0.122,0.022,0.243,0.058,0.365,0.082C318.851,270.377,319.129,269.848,319.426,269.324z"/>
<path fill="#FEC629" d="M319.79,268.718c-0.12,0.203-0.247,0.4-0.364,0.606c-0.297,0.523-0.575,1.053-0.84,1.586
	c2.469,0.488,4.907,1.356,7.222,2.667C323.486,272.261,321.478,270.602,319.79,268.718z"/>
<path fill="#FEC629" d="M319.022,269.324c-0.003,0.006-0.007,0.011-0.01,0.017c-0.004,0.008-0.008,0.016-0.012,0.022l0.05,0.003
	L319.022,269.324z"/>
<path fill="#FEC629" d="M318.586,270.91c-0.122-0.024-0.243-0.06-0.365-0.082c-7.39,14.753-2.308,32.781,11.761,41.493
	c0.058-0.052,0.11-0.11,0.168-0.163C316.294,303.409,311.309,285.559,318.586,270.91z"/>
<path fill="#FEC629" d="M334.838,306.295c6.538-11.525,2.497-26.177-9.03-32.718c-2.314-1.311-4.753-2.179-7.222-2.667
	c-7.277,14.648-2.292,32.499,11.563,41.248C331.963,310.501,333.556,308.547,334.838,306.295z"/>
<path fill="#FEC629" d="M345.72,253.16c-10.406,0.377-20.393,5.82-26.177,15.296c0.078,0.09,0.168,0.173,0.247,0.262
	C325.469,259.197,335.359,253.667,345.72,253.16z"/>
<path fill="#FEC629" d="M319.79,268.718c1.688,1.884,3.695,3.543,6.018,4.859c11.527,6.541,26.177,2.499,32.718-9.027
	c1.439-2.534,2.364-5.223,2.813-7.94c-4.987-2.539-10.356-3.64-15.619-3.449C335.359,253.667,325.469,259.197,319.79,268.718z"/>
<path fill="#FEC629" d="M319.79,268.718c1.688,1.884,3.695,3.543,6.018,4.859C323.486,272.261,321.479,270.602,319.79,268.718z"/>
<polygon fill="#FFFFFF" points="80.018,352.796 87.646,348.391 79.969,352.71 "/>
<path fill="#FFFFFF" d="M87.437,275.076c1.326-1.067,2.749-2.051,4.271-2.93l-15.42,8.902l0.13,0.227L87.437,275.076z"/>
<polygon fill="#FFFFFF" points="62.152,289.211 56.107,292.7 62.191,289.278 "/>
<polygon fill="#FFFFFF" points="79.969,352.71 87.646,348.391 94.152,344.636 62.191,289.278 56.107,292.7 48.018,297.371 "/>
<path fill="#FFFFFF" d="M78.88,285.539c2.05-3.953,4.926-7.537,8.557-10.463l-11.019,6.199L78.88,285.539z"/>
<path fill="#FFFFFF" d="M123.707,327.571c-5.691,3.286-11.94,4.688-18.014,4.412l2.593,4.491L123.707,327.571z"/>
<path fill="#2FA1BE" d="M79.969,352.71l-4.63,2.604c0.033,0.042,0.067,0.083,0.1,0.125l4.58-2.644L79.969,352.71z"/>
<path fill="#2FA1BE" d="M48.018,297.371l-4.265,2.462c7.695,20.169,18.403,38.848,31.585,55.481l4.63-2.604L48.018,297.371z"/>
<polygon fill="#2FA1BE" points="76.418,281.275 76.287,281.049 62.152,289.211 62.191,289.278 "/>
<path fill="#2FA1BE" d="M105.694,331.983c-10.588-0.48-20.641-6.077-26.257-15.803c-5.615-9.727-5.436-21.23-0.557-30.642
	l-2.462-4.264l-14.227,8.003l31.961,55.357l14.135-8.161L105.694,331.983z"/>
</svg>
