<?xml version="1.0" encoding="utf-8"?>
<!-- Generator: Adobe Illustrator 16.0.0, SVG Export Plug-In . SVG Version: 6.00 Build 0)  -->
<!DOCTYPE svg PUBLIC "-//W3C//DTD SVG 1.1//EN" "http://www.w3.org/Graphics/SVG/1.1/DTD/svg11.dtd">
<svg version="1.1" id="Capa_1" xmlns="http://www.w3.org/2000/svg" xmlns:xlink="http://www.w3.org/1999/xlink" x="0px" y="0px"
	 width="480px" height="450px" viewBox="0 0 480 450" enable-background="new 0 0 480 450" xml:space="preserve">
<g>
	<g>
		<defs>
			<circle id="SVGID_1_" cx="240" cy="225.001" r="209.989"/>
		</defs>
		<clipPath id="SVGID_2_">
			<use xlink:href="#SVGID_1_"  overflow="visible"/>
		</clipPath>
		<g clip-path="url(#SVGID_2_)">
			<g>
				<path fill="#F0976B" d="M241,133.394c17.674-0.001,32-14.326,32-32.001V-42.606c0-17.674-14.326-32.001-32-32
					c-17.67-0.001-32,14.326-32,31.999v144.001C209,119.066,223.328,133.393,241,133.394z"/>
				<polygon fill="#EC4346" points="241,70 245.062,70 243.032,80.452 241,90.564 238.968,80.28 236.939,70 				"/>
				<path d="M227.195,114.802"/>
				<path fill="#FEC629" d="M240.999,38.396C258.675,38.394,273,52.72,273,70.394v-113c0-17.674-14.326-32.001-32-32
					c-17.67-0.001-32,14.326-32,31.999V70.394C209,52.72,223.329,38.394,240.999,38.396z"/>
				<path d="M241.001,133.393c17.673,0,32.001-14,32-32h-40.028l-2.03,6.665l-2.025,6.322l-2.028-6.494l-2.027-6.493H209
					C209.001,119.393,223.329,133.393,241.001,133.393z"/>
				<path d="M233,141.396c-0.001-4.42,3.582-8.002,8-8.003c4.416,0,8,3.583,8,8c0,4.419-3.582,8.001-8.002,8
					C236.582,149.394,233,145.811,233,141.396z"/>
				<path fill="#F0976B" d="M310.31,132.478c-0.001,18.237-6.79,35.649-18.98,48.913l-2.332-2.332l-1.414,1.414l2.374,2.374
					c-1.399,1.429-2.323,2.339-3.433,3.348l5.268,6.031c16.78-15.243,26.351-36.925,26.351-59.58
					c0.001-28.7-15.484-55.419-40.368-69.78l-3.901,6.832C296.287,82.633,310.309,106.629,310.31,132.478z"/>
				<path fill="#F0976B" d="M189.154,192.337l5.404-5.896c-1.106-1.008-2.396-2.473-3.088-3.195l2.773-2.773l-1.415-1.414
					l-2.827,2.827c-12.191-13.264-19.229-30.923-19.228-49.157c-0.001-25.851,13.909-49.959,36.322-62.894l-4.006-6.936
					c-24.882,14.361-40.343,41.104-40.342,69.805C162.75,155.359,172.373,177.093,189.154,192.337z"/>
			</g>
			<path d="M151.59,289.911"/>
			<path fill="#F0976B" d="M126.64,208.917c15.897-8.943,34.79-11.454,52.328-7.326l-0.901,3.221l1.926,0.538l0.918-3.281
				c0.968,0.249,2.785,0.771,4.209,1.242l2.479-7.604c-21.513-7.15-45.2-4.889-64.944,6.219
				c-25.014,14.069-40.759,40.652-41.076,69.379l8.038,0.103C89.899,245.525,104.113,221.588,126.64,208.917z"/>
			<path fill="#F0976B" d="M237.818,285.057l-7.795-1.8c-0.334,1.461-0.854,3.361-1.145,4.317l-3.126-0.874l-0.539,1.926
				l3.066,0.858c-5.853,18.095-17.517,31.896-33.41,40.839c-22.529,12.672-50.356,12.355-72.621-0.838l-4.079,6.887
				c24.719,14.642,55.605,15.008,80.62,0.935C218.536,326.198,232.761,307.155,237.818,285.057z"/>
			<path fill="#F0976B" d="M162.563,269.532c-8.667-15.403-28.176-20.865-43.58-12.201l-125.504,70.6
				c-15.404,8.664-20.868,28.176-12.201,43.582c8.664,15.402,28.176,20.865,43.578,12.199l125.505-70.599
				C165.768,304.445,171.228,284.938,162.563,269.532z"/>
			<polygon fill="#EC4346" points="108.833,299.427 106.842,295.884 116.116,292.999 125.506,290.046 118.166,296.507 
				110.822,302.966 			"/>
			<path d="M166.425,278.529c-0.393-0.696-0.746-1.405-1.081-2.118c-0.475-1.729-1.107-3.435-1.892-5.103
				c-0.333-0.711-0.687-1.414-1.076-2.108c-4.48-7.968-11.864-13.265-20.079-15.335c-2.525,8.14-1.84,17.256,2.667,25.265
				c4.474,7.957,11.837,13.269,20.04,15.359c6.325,1.614,13.148,1.315,19.535-1.156
				C177.119,290.939,170.548,285.859,166.425,278.529z"/>
			<g>
				<path d="M97.562,283.364c0,0-0.258,14.975,6.707,17.266c1.371,0.449,2.353-0.104,2.353-0.104s0.938-0.5,0.856-1.789
					c-0.091-1.471-1.299-3.422-4.997-4.446c-1.263-0.353-2.591-1.084-3.434-3.963C98.545,288.616,97.562,283.364,97.562,283.364z"/>
				<path d="M116.583,317.179c0,0-12.934-7.557-11.271-14.692c0.327-1.409,1.308-1.959,1.308-1.959s0.914-0.543,1.977,0.193
					c1.209,0.846,2.246,2.889,1.205,6.58c-0.358,1.263-0.422,2.778,1.604,4.995C112.606,313.608,116.583,317.179,116.583,317.179z"
					/>
			</g>
			<g>
				<path d="M341.448,267.396"/>
				<path fill="#F0976B" d="M285.054,330.947c-15.864-8.999-27.658-23.503-33.174-40.653l3.029-0.836l-0.532-1.929l-3.09,0.854
					c-0.553-1.924-0.884-3.169-1.212-4.631l-7.846,1.606c4.978,22.12,19.108,41.145,38.813,52.326
					c24.958,14.166,55.84,13.886,80.611-0.663l-4.018-6.771C335.326,343.359,307.534,343.708,285.054,330.947z"/>
				<path fill="#F0976B" d="M292.792,196.044l2.385,7.63c1.423-0.466,3.223-0.974,4.191-1.222l1.074,3.9l1.929-0.531l-1.058-3.841
					c17.552-4.058,36.458-1.482,52.318,7.52c22.479,12.757,36.617,36.745,36.805,62.622l8.031-0.065
					c-0.21-28.729-15.834-55.375-40.793-69.54C337.973,191.333,314.33,188.972,292.792,196.044z"/>
				<path fill="#F0976B" d="M319.426,269.324c-8.726,15.369-3.336,34.9,12.036,43.624l125.237,71.072
					c15.372,8.724,34.903,3.335,43.624-12.036c8.722-15.369,3.334-34.903-12.037-43.625l-125.239-71.07
					C347.676,248.564,328.145,253.954,319.426,269.324z"/>
				<polygon fill="#EC4346" points="373.544,299.027 371.537,302.562 364.172,296.045 356.745,289.495 366.147,292.495 
					375.55,295.497 				"/>
				<path fill="#A4CB57" d="M402.049,316.211c-8.725,15.371-28.258,20.763-43.626,12.04l98.276,55.77
					c15.372,8.724,34.903,3.335,43.624-12.036c8.722-15.369,3.334-34.903-12.037-43.625l-98.275-55.771
					C405.379,281.311,410.771,300.843,402.049,316.211z"/>
				<polygon fill="#FEC629" points="305.165,261.486 309.145,254.471 314.121,261.932 319.05,269.366 310.12,268.934 
					301.188,268.495 				"/>
				<g>
					<path fill="#FEC629" d="M319.543,268.456c-0.176,0.296-0.358,0.583-0.531,0.885c-0.277,0.492-0.541,0.988-0.791,1.487
						c2.594,0.472,5.158,1.374,7.587,2.749C323.375,272.198,321.279,270.452,319.543,268.456z"/>
					<path fill="#FEC629" d="M325.808,273.577c-2.429-1.375-4.993-2.277-7.587-2.749c-7.39,14.753-2.308,32.781,11.761,41.493
						c1.885-1.69,3.534-3.703,4.856-6.026C341.376,294.77,337.335,280.118,325.808,273.577z"/>
					<path fill="#FEC629" d="M319.543,268.456c1.735,1.996,3.832,3.742,6.265,5.121c11.527,6.541,26.177,2.499,32.718-9.027
						c1.439-2.534,2.364-5.223,2.813-7.94C346.488,249.048,328.252,254.189,319.543,268.456z"/>
				</g>
			</g>
			<g>
				<g>
					<g>
						<defs>
							<path id="SVGID_3_" d="M-18.668,373.135c8.836,15.306,28.658,20.405,44.269,11.393l98.059-56.614
								c-15.612,9.015-35.434,3.914-44.27-11.392c-8.837-15.305-3.345-35.02,12.269-44.033l-98.058,56.613
								C-22.01,338.114-27.504,357.83-18.668,373.135z"/>
						</defs>
						<clipPath id="SVGID_4_">
							<use xlink:href="#SVGID_3_"  overflow="visible"/>
						</clipPath>
						
							<rect x="-25.105" y="228.889" transform="matrix(-0.5 -0.866 0.866 -0.5 -201.7731 542.2359)" clip-path="url(#SVGID_4_)" fill="#FFFFFF" width="161.5" height="200.952"/>
					</g>
				</g>
				<g>
					<g>
						<defs>
							<path id="SVGID_5_" d="M-18.668,373.135c8.836,15.306,28.658,20.405,44.269,11.393l98.059-56.614
								c-15.612,9.015-35.434,3.914-44.27-11.392c-8.837-15.305-3.345-35.02,12.269-44.033l-98.058,56.613
								C-22.01,338.114-27.504,357.83-18.668,373.135z"/>
						</defs>
						<clipPath id="SVGID_6_">
							<use xlink:href="#SVGID_5_"  overflow="visible"/>
						</clipPath>
						
							<rect x="-8.8" y="336.329" transform="matrix(-0.5 -0.866 0.866 -0.5 -255.6619 541.3704)" clip-path="url(#SVGID_6_)" fill="#2FA1BE" width="74.501" height="16.32"/>
					</g>
				</g>
				<g>
					<g>
						<defs>
							<path id="SVGID_7_" d="M-18.668,373.135c8.836,15.306,28.658,20.405,44.269,11.393l98.059-56.614
								c-15.612,9.015-35.434,3.914-44.27-11.392c-8.837-15.305-3.345-35.02,12.269-44.033l-98.058,56.613
								C-22.01,338.114-27.504,357.83-18.668,373.135z"/>
						</defs>
						<clipPath id="SVGID_8_">
							<use xlink:href="#SVGID_7_"  overflow="visible"/>
						</clipPath>
						
							<rect x="19.028" y="320.261" transform="matrix(-0.5 -0.866 0.866 -0.5 -200.0048 541.3712)" clip-path="url(#SVGID_8_)" fill="#2FA1BE" width="74.5" height="16.322"/>
					</g>
				</g>
				<g>
					<g>
						<defs>
							<path id="SVGID_9_" d="M-18.668,373.135c8.836,15.306,28.658,20.405,44.269,11.393l98.059-56.614
								c-15.612,9.015-35.434,3.914-44.27-11.392c-8.837-15.305-3.345-35.02,12.269-44.033l-98.058,56.613
								C-22.01,338.114-27.504,357.83-18.668,373.135z"/>
						</defs>
						<clipPath id="SVGID_10_">
							<use xlink:href="#SVGID_9_"  overflow="visible"/>
						</clipPath>
						
							<rect x="47.297" y="303.941" transform="matrix(-0.5 -0.866 0.866 -0.5 -143.47 541.3698)" clip-path="url(#SVGID_10_)" fill="#2FA1BE" width="74.499" height="16.322"/>
					</g>
				</g>
			</g>
		</g>
	</g>
</g>
</svg>
