<?xml version="1.0" encoding="utf-8"?>
<!-- Generator: Adobe Illustrator 16.0.0, SVG Export Plug-In . SVG Version: 6.00 Build 0)  -->
<!DOCTYPE svg PUBLIC "-//W3C//DTD SVG 1.1//EN" "http://www.w3.org/Graphics/SVG/1.1/DTD/svg11.dtd">
<svg version="1.1" id="Capa_1" xmlns="http://www.w3.org/2000/svg" xmlns:xlink="http://www.w3.org/1999/xlink" x="0px" y="0px"
	 width="480px" height="450px" viewBox="0 0 480 450" enable-background="new 0 0 480 450" xml:space="preserve">
<g>
	<g>
		<defs>
			<circle id="SVGID_1_" cx="240" cy="225.001" r="209.989"/>
		</defs>
		<clipPath id="SVGID_2_">
			<use xlink:href="#SVGID_1_"  overflow="visible"/>
		</clipPath>
		<g clip-path="url(#SVGID_2_)">
			<g>
				<path fill="#F0976B" d="M331.608,226.002c0.001,17.674,14.325,31.999,32,32h143.999c17.674,0,32.001-14.326,32-32
					c0.001-17.67-14.326-32-31.999-32.001l-144,0.001C345.935,194.002,331.609,208.33,331.608,226.002z"/>
				<polygon fill="#EC4346" points="395.001,226.002 395.001,230.063 384.549,228.034 374.438,226.002 384.721,223.969 
					395.001,221.94 				"/>
				<path d="M350.198,212.196"/>
				<path fill="#FEC629" d="M426.605,226.001c0.002,17.676-14.324,32.001-31.998,32.001h113c17.674,0,32.001-14.326,32-32
					c0.001-17.67-14.326-32-31.999-32.001l-113.001,0C412.281,194.001,426.607,208.331,426.605,226.001z"/>
				<path d="M331.608,226.003c0.001,17.673,14,32,32,32v-40.029l-6.665-2.03l-6.321-2.026l6.494-2.027l6.492-2.028v-15.861
					C345.608,194.003,331.608,208.331,331.608,226.003z"/>
				<path d="M323.606,218.001c4.419-0.001,8.001,3.582,8.002,8c0,4.416-3.583,8-8,7.999c-4.418,0.001-8.001-3.582-7.999-8.001
					C315.607,221.583,319.19,218.001,323.606,218.001z"/>
				<path fill="#F0976B" d="M332.523,295.311c-18.236,0-35.648-6.79-48.913-18.979l2.332-2.332l-1.414-1.414l-2.374,2.374
					c-1.429-1.399-2.339-2.323-3.348-3.433l-6.031,5.267c15.243,16.78,36.926,26.352,59.58,26.351
					c28.7,0.001,55.419-15.484,69.78-40.367l-6.832-3.901C382.368,281.289,358.372,295.31,332.523,295.311z"/>
				<path fill="#F0976B" d="M272.664,174.155l5.896,5.404c1.008-1.106,2.474-2.395,3.195-3.088l2.772,2.773l1.414-1.415
					l-2.827-2.827c13.265-12.192,30.924-19.229,49.157-19.228c25.852-0.001,49.959,13.909,62.895,36.322l6.937-4.006
					c-14.361-24.882-41.104-40.342-69.806-40.341C309.643,147.751,287.908,157.375,272.664,174.155z"/>
			</g>
			<path d="M175.09,136.591"/>
			<path fill="#F0976B" d="M256.084,111.641c8.942,15.898,11.454,34.79,7.326,52.328l-3.222-0.901l-0.538,1.926l3.281,0.918
				c-0.249,0.968-0.771,2.785-1.242,4.209l7.604,2.479c7.149-21.513,4.889-45.201-6.219-64.945
				c-14.069-25.014-40.653-40.759-69.379-41.076l-0.103,8.038C219.475,74.9,243.413,89.114,256.084,111.641z"/>
			<path fill="#F0976B" d="M179.944,222.819l1.8-7.794c-1.461-0.334-3.361-0.854-4.317-1.145l0.874-3.125l-1.926-0.54l-0.858,3.067
				c-18.095-5.853-31.896-17.517-40.839-33.41c-12.671-22.53-12.355-50.357,0.838-72.622l-6.886-4.079
				c-14.642,24.719-15.008,55.605-0.935,80.621C138.802,203.538,157.845,217.762,179.944,222.819z"/>
			<path fill="#F0976B" d="M195.469,147.564c15.403-8.667,20.865-28.175,12.201-43.58L137.071-21.52
				c-8.665-15.405-28.176-20.869-43.582-12.202C78.086-25.057,72.623-5.545,81.289,9.857l70.599,125.505
				C160.556,150.769,180.064,156.229,195.469,147.564z"/>
			<polygon fill="#EC4346" points="165.574,93.834 169.117,91.843 172.002,101.118 174.955,110.508 168.494,103.167 162.035,95.823 
							"/>
			<path d="M186.471,151.426c0.696-0.393,1.406-0.746,2.118-1.081c1.73-0.475,3.435-1.107,5.103-1.892
				c0.711-0.333,1.414-0.687,2.108-1.076c7.968-4.48,13.265-11.864,15.335-20.079c-8.14-2.526-17.255-1.84-25.265,2.667
				c-7.957,4.474-13.268,11.837-15.359,20.04c-1.614,6.325-1.315,13.148,1.157,19.535
				C174.062,162.121,179.141,155.549,186.471,151.426z"/>
			<g>
				<path d="M181.637,82.563c0,0-14.975-0.258-17.266,6.707c-0.449,1.371,0.104,2.353,0.104,2.353s0.5,0.937,1.79,0.856
					c1.47-0.091,3.421-1.299,4.446-4.997c0.353-1.263,1.084-2.591,3.963-3.434C176.385,83.547,181.637,82.563,181.637,82.563z"/>
				<path d="M147.823,101.585c0,0,7.556-12.934,14.692-11.271c1.409,0.327,1.959,1.308,1.959,1.308s0.543,0.914-0.193,1.976
					c-0.846,1.209-2.889,2.246-6.58,1.205c-1.263-0.358-2.778-0.421-4.995,1.604C151.393,97.607,147.823,101.585,147.823,101.585z"
					/>
			</g>
			<g>
				<path d="M197.604,326.449"/>
				<path fill="#F0976B" d="M134.054,270.055c8.999-15.864,23.503-27.658,40.653-33.173l0.836,3.029l1.929-0.532l-0.854-3.091
					c1.924-0.552,3.168-0.883,4.63-1.211l-1.606-7.846c-22.12,4.978-41.145,19.108-52.326,38.813
					c-14.167,24.958-13.886,55.84,0.663,80.611l6.771-4.018C121.641,320.328,121.293,292.535,134.054,270.055z"/>
				<path fill="#F0976B" d="M268.957,277.794l-7.63,2.385c0.466,1.422,0.973,3.223,1.222,4.19l-3.9,1.074l0.531,1.929l3.842-1.057
					c4.058,17.552,1.48,36.458-7.521,52.318c-12.757,22.478-36.744,36.617-62.621,36.804l0.065,8.031
					c28.729-0.21,55.375-15.834,69.539-40.792C273.668,322.975,276.029,299.331,268.957,277.794z"/>
				<path fill="#F0976B" d="M195.677,304.427c-15.369-8.725-34.9-3.336-43.625,12.037L80.981,441.701
					c-8.724,15.372-3.335,34.902,12.036,43.624c15.368,8.722,34.904,3.334,43.625-12.038l71.07-125.239
					C216.437,332.678,211.047,313.146,195.677,304.427z"/>
				<polygon fill="#EC4346" points="165.974,358.545 162.439,356.539 168.956,349.174 175.506,341.747 172.506,351.148 
					169.504,360.552 				"/>
				<path fill="#A4CB57" d="M148.79,387.05c-15.371-8.724-20.763-28.258-12.041-43.625l-55.769,98.276
					c-8.724,15.372-3.335,34.902,12.036,43.624c15.368,8.722,34.904,3.334,43.625-12.038l55.771-98.275
					C183.691,390.381,164.158,395.772,148.79,387.05z"/>
				<polygon fill="#FEC629" points="203.514,290.166 210.531,294.146 203.07,299.122 195.635,304.051 196.068,295.121 
					196.506,286.188 				"/>
				<g>
					<path fill="#FEC629" d="M196.544,304.545c-0.295-0.177-0.582-0.358-0.884-0.532c-0.492-0.276-0.988-0.54-1.488-0.79
						c-0.471,2.593-1.373,5.158-2.749,7.586C192.803,308.377,194.55,306.28,196.544,304.545z"/>
					<path fill="#FEC629" d="M191.423,310.809c1.376-2.428,2.278-4.993,2.749-7.586c-14.751-7.39-32.78-2.308-41.493,11.761
						c1.691,1.885,3.704,3.533,6.027,4.855C170.232,326.377,184.883,322.337,191.423,310.809z"/>
					<path fill="#FEC629" d="M196.544,304.545c-1.995,1.735-3.741,3.832-5.121,6.264c-6.541,11.528-2.498,26.178,9.028,32.718
						c2.534,1.44,5.223,2.365,7.94,2.814C215.953,331.488,210.812,313.254,196.544,304.545z"/>
				</g>
			</g>
			<g>
				<g>
					<g>
						<defs>
							<path id="SVGID_3_" d="M91.866-33.667C76.561-24.83,71.461-5.008,80.474,10.602l56.614,98.059
								c-9.015-15.612-3.915-35.434,11.392-44.269c15.305-8.837,35.02-3.345,44.033,12.268L135.9-21.398
								C126.886-37.009,107.171-42.503,91.866-33.667z"/>
						</defs>
						<clipPath id="SVGID_4_">
							<use xlink:href="#SVGID_3_"  overflow="visible"/>
						</clipPath>
						
							<rect x="54.886" y="-59.83" transform="matrix(0.866 -0.5 0.5 0.866 -2.1513 73.2626)" clip-path="url(#SVGID_4_)" fill="#FFFFFF" width="161.5" height="200.952"/>
					</g>
				</g>
				<g>
					<g>
						<defs>
							<path id="SVGID_5_" d="M91.866-33.667C76.561-24.83,71.461-5.008,80.474,10.602l56.614,98.059
								c-9.015-15.612-3.915-35.434,11.392-44.269c15.305-8.837,35.02-3.345,44.033,12.268L135.9-21.398
								C126.886-37.009,107.171-42.503,91.866-33.667z"/>
						</defs>
						<clipPath id="SVGID_6_">
							<use xlink:href="#SVGID_5_"  overflow="visible"/>
						</clipPath>
						
							<rect x="83.262" y="5.291" transform="matrix(0.866 -0.5 0.5 0.866 9.4198 62.0579)" clip-path="url(#SVGID_6_)" fill="#2FA1BE" width="74.501" height="16.32"/>
					</g>
				</g>
				<g>
					<g>
						<defs>
							<path id="SVGID_7_" d="M91.866-33.667C76.561-24.83,71.461-5.008,80.474,10.602l56.614,98.059
								c-9.015-15.612-3.915-35.434,11.392-44.269c15.305-8.837,35.02-3.345,44.033,12.268L135.9-21.398
								C126.886-37.009,107.171-42.503,91.866-33.667z"/>
						</defs>
						<clipPath id="SVGID_8_">
							<use xlink:href="#SVGID_7_"  overflow="visible"/>
						</clipPath>
						
							<rect x="99.329" y="33.118" transform="matrix(0.866 -0.5 0.5 0.866 -2.3411 73.8206)" clip-path="url(#SVGID_8_)" fill="#2FA1BE" width="74.499" height="16.322"/>
					</g>
				</g>
				<g>
					<g>
						<defs>
							<path id="SVGID_9_" d="M91.866-33.667C76.561-24.83,71.461-5.008,80.474,10.602l56.614,98.059
								c-9.015-15.612-3.915-35.434,11.392-44.269c15.305-8.837,35.02-3.345,44.033,12.268L135.9-21.398
								C126.886-37.009,107.171-42.503,91.866-33.667z"/>
						</defs>
						<clipPath id="SVGID_10_">
							<use xlink:href="#SVGID_9_"  overflow="visible"/>
						</clipPath>
						
							<rect x="115.65" y="61.387" transform="matrix(0.866 -0.5 0.5 0.866 -14.2894 85.7664)" clip-path="url(#SVGID_10_)" fill="#2FA1BE" width="74.499" height="16.322"/>
					</g>
				</g>
			</g>
		</g>
	</g>
</g>
</svg>
