<?xml version="1.0" encoding="utf-8"?>
<!-- Generator: Adobe Illustrator 16.0.0, SVG Export Plug-In . SVG Version: 6.00 Build 0)  -->
<!DOCTYPE svg PUBLIC "-//W3C//DTD SVG 1.1//EN" "http://www.w3.org/Graphics/SVG/1.1/DTD/svg11.dtd">
<svg version="1.1" id="Capa_1" xmlns="http://www.w3.org/2000/svg" xmlns:xlink="http://www.w3.org/1999/xlink" x="0px" y="0px"
	 width="480px" height="450px" viewBox="0 0 480 450" enable-background="new 0 0 480 450" xml:space="preserve">
<pattern  x="3329" y="5377" width="114" height="20" patternUnits="userSpaceOnUse" id="Nueva_muestra_de_motivo_4" viewBox="0 -20 114 20" overflow="visible">
	<g>
		<polygon fill="none" points="0,0 114,0 114,-20 0,-20 		"/>
		<polygon fill="#FFFFFF" points="114,0 0,0 0,-10 114,-10 		"/>
		<polygon fill="#2FA1BE" points="114,-10 0,-10 0,-20 114,-20 		"/>
	</g>
</pattern>
<g>
	<defs>
		<circle id="SVGID_16_" cx="239.999" cy="225" r="209.989"/>
	</defs>
	<clipPath id="SVGID_2_">
		<use xlink:href="#SVGID_16_"  overflow="visible"/>
	</clipPath>
	<g clip-path="url(#SVGID_2_)">
		<g>
			<path fill="#F0976B" d="M331.606,226c0,17.674,14.326,32,32,32h144c17.674,0,32-14.326,32-32c0-17.671-14.326-32-32-32h-144
				C345.933,194,331.606,208.328,331.606,226z"/>
			<polygon fill="#EC4346" points="394,224.196 394,228.259 384.046,226.229 374.186,224.196 384.095,222.165 394,220.136 			"/>
			<path d="M350.198,212.196"/>
			<path fill="#FEC629" d="M426.604,226c0.002,17.675-14.324,32-31.998,32h113c17.674,0,32-14.326,32-32c0-17.671-14.326-32-32-32
				h-113C412.28,194,426.606,208.329,426.604,226z"/>
			<path d="M332,225.288c0,17.674,14,32.001,32,32V217.26l-6.165-2.03l-6.071-2.026l6.118-2.028l6.118-2.025v-15.861
				C346,193.289,332,207.616,332,225.288z"/>
			<circle cx="323.605" cy="225.289" r="8"/>
			<path fill="#F0976B" d="M332.356,295.144c-18.238-0.001-35.816-6.956-49.08-19.148l2.58-2.58l-1.414-1.414l-2.623,2.622
				c-1.428-1.399-2.172-2.156-3.18-3.265l-5.949,5.35c15.244,16.781,36.967,26.393,59.623,26.393
				c28.699,0,55.439-15.464,69.801-40.347l-6.904-3.976C382.274,281.193,358.204,295.143,332.356,295.144z"/>
			<path fill="#F0976B" d="M272.663,174.154l5.922,5.378c1.008-1.108,2.154-2.077,3.223-3.115l2.439,2.441l1.609-1.61l-2.494-2.494
				c13.264-12.192,30.799-19.104,49.035-19.104c25.85-0.001,49.895,13.973,62.83,36.386l6.904-3.976
				c-14.361-24.881-41.121-40.326-69.82-40.325C309.655,147.734,287.907,157.373,272.663,174.154z"/>
		</g>
		<path d="M175.089,136.591"/>
		<path fill="#F0976B" d="M256.083,111.641c8.943,15.896,11.453,34.79,7.326,52.327l-3.221-0.901l-0.539,1.925l3.281,0.918
			c-0.248,0.969-0.77,2.786-1.242,4.209l7.605,2.479c7.15-21.512,4.889-45.199-6.219-64.944
			c-14.07-25.014-40.652-40.759-69.379-41.076l-0.102,8.038C219.474,74.899,243.411,89.113,256.083,111.641z"/>
		<path fill="#F0976B" d="M179.944,222.819l1.799-7.795c-1.461-0.334-3.361-0.855-4.318-1.145l0.875-3.127l-1.926-0.538
			l-0.859,3.066c-18.094-5.853-31.896-17.517-40.838-33.411c-12.672-22.529-12.357-50.356,0.838-72.62l-6.887-4.079
			c-14.643,24.718-15.008,55.605-0.936,80.619C138.802,203.536,157.845,217.761,179.944,222.819z"/>
		<path fill="#F0976B" d="M195.468,147.563c15.402-8.666,20.865-28.176,12.201-43.579l-70.6-125.505
			c-8.664-15.405-28.176-20.867-43.582-12.201C78.085-25.058,72.622-5.546,81.288,9.856l70.6,125.505
			C160.554,150.768,180.063,156.228,195.468,147.563z"/>
		<polygon fill="#EC4346" points="165.573,93.833 169.116,91.843 172.001,101.116 174.954,110.507 168.493,103.166 162.034,95.823 
					"/>
		<path d="M186.47,151.425c0.697-0.392,1.406-0.745,2.119-1.08c1.729-0.476,3.434-1.107,5.102-1.893
			c0.711-0.333,1.414-0.686,2.109-1.075c7.967-4.481,13.264-11.865,15.334-20.079c-8.139-2.526-17.256-1.84-25.264,2.666
			c-7.957,4.475-13.268,11.838-15.359,20.04c-1.615,6.325-1.316,13.149,1.156,19.536C174.06,162.12,179.14,155.549,186.47,151.425z"
			/>
		<g>
			<path d="M181.636,82.562c0,0-14.975-0.258-17.266,6.707c-0.449,1.371,0.104,2.353,0.104,2.353s0.5,0.938,1.789,0.856
				c1.471-0.091,3.422-1.299,4.447-4.996c0.352-1.264,1.084-2.592,3.963-3.435C176.384,83.546,181.636,82.562,181.636,82.562z"/>
			<path d="M147.821,101.583c0,0,7.557-12.932,14.693-11.27c1.408,0.327,1.959,1.308,1.959,1.308s0.543,0.913-0.195,1.976
				c-0.844,1.21-2.887,2.247-6.58,1.205c-1.262-0.357-2.777-0.422-4.994,1.604C151.392,97.607,147.821,101.583,147.821,101.583z"/>
		</g>
		
			<pattern  id="SVGID_3_" xlink:href="#Nueva_muestra_de_motivo_4" patternTransform="matrix(-1.3763 0.7742 -0.7742 -1.3763 -33342.0625 -24269.0742)">
		</pattern>
		<path fill="url(#SVGID_3_)" d="M148.892,64.763c15.402-8.665,34.91-3.201,43.578,12.203l-55.4-98.486
			c-8.664-15.405-28.176-20.867-43.582-12.201C78.085-25.058,72.622-5.546,81.288,9.856l55.402,98.486
			C128.026,92.939,133.487,73.427,148.892,64.763z"/>
		<g>
			<path d="M197.603,326.448"/>
			<path fill="#F0976B" d="M134.052,270.054c9-15.863,23.504-27.657,40.654-33.174l0.836,3.029l1.928-0.532l-0.854-3.089
				c1.924-0.553,3.168-0.884,4.631-1.213l-1.607-7.845c-22.121,4.977-41.145,19.108-52.326,38.813
				c-14.166,24.959-13.885,55.84,0.664,80.613l6.771-4.018C121.64,320.326,121.292,292.534,134.052,270.054z"/>
			<path fill="#F0976B" d="M268.956,277.792l-7.631,2.385c0.467,1.424,0.975,3.224,1.223,4.192l-3.9,1.075l0.531,1.928l3.84-1.058
				c4.059,17.552,1.482,36.458-7.52,52.318c-12.756,22.479-36.744,36.618-62.621,36.806l0.066,8.031
				c28.729-0.211,55.375-15.834,69.539-40.793C273.667,322.973,276.028,299.331,268.956,277.792z"/>
			<path fill="#F0976B" d="M195.675,304.426c-15.369-8.726-34.9-3.335-43.623,12.036l-71.072,125.24
				c-8.723,15.37-3.334,34.901,12.037,43.623c15.369,8.721,34.902,3.333,43.625-12.037l71.07-125.24
				C216.435,332.677,211.046,313.146,195.675,304.426z"/>
			<polygon fill="#EC4346" points="165.972,358.545 162.438,356.538 168.954,349.173 175.505,341.745 172.505,351.147 
				169.503,360.55 			"/>
			<path fill="#A4CB57" d="M148.788,387.049c-15.371-8.724-20.762-28.257-12.039-43.626l-55.77,98.279
				c-8.723,15.37-3.334,34.901,12.037,43.623c15.369,8.721,34.902,3.333,43.625-12.037l55.771-98.277
				C183.688,390.38,164.157,395.771,148.788,387.049z"/>
			<polygon fill="#FEC629" points="203.513,290.165 210.53,294.146 203.067,299.121 195.634,304.051 196.067,295.12 
				196.505,286.188 			"/>
			<g>
				<path fill="#FEC629" d="M196.544,304.544c-0.297-0.177-0.584-0.359-0.885-0.531c-0.492-0.278-0.988-0.542-1.488-0.793
					c-0.471,2.596-1.373,5.159-2.748,7.588C192.802,308.375,194.548,306.28,196.544,304.544z"/>
				<path fill="#FEC629" d="M191.423,310.808c1.375-2.429,2.277-4.992,2.748-7.588c-14.752-7.388-32.781-2.307-41.492,11.762
					c1.689,1.884,3.703,3.535,6.025,4.856C170.231,326.376,184.882,322.335,191.423,310.808z"/>
				<path fill="#FEC629" d="M196.544,304.544c-1.996,1.736-3.742,3.831-5.121,6.264c-6.541,11.527-2.5,26.177,9.027,32.719
					c2.535,1.439,5.223,2.363,7.941,2.813C215.952,331.488,210.81,313.252,196.544,304.544z"/>
			</g>
		</g>
	</g>
</g>
</svg>
