<?xml version="1.0" encoding="utf-8"?>
<!-- Generator: Adobe Illustrator 16.0.0, SVG Export Plug-In . SVG Version: 6.00 Build 0)  -->
<!DOCTYPE svg PUBLIC "-//W3C//DTD SVG 1.1//EN" "http://www.w3.org/Graphics/SVG/1.1/DTD/svg11.dtd">
<svg version="1.1" id="Capa_1" xmlns="http://www.w3.org/2000/svg" xmlns:xlink="http://www.w3.org/1999/xlink" x="0px" y="0px"
	 width="480px" height="450px" viewBox="0 0 480 450" enable-background="new 0 0 480 450" xml:space="preserve">
<pattern  x="258" y="5377" width="114" height="20" patternUnits="userSpaceOnUse" id="Nueva_muestra_de_motivo_4" viewBox="0 -20 114 20" overflow="visible">
	<g>
		<polygon fill="none" points="0,0 114,0 114,-20 0,-20 		"/>
		<polygon fill="#FFFFFF" points="114,0 0,0 0,-10 114,-10 		"/>
		<polygon fill="#2FA1BE" points="114,-10 0,-10 0,-20 114,-20 		"/>
	</g>
</pattern>
<g>
	<defs>
		<path id="SVGID_28_" d="M30.011,225.001c0-115.973,94.017-209.99,209.987-209.99c115.975,0,209.99,94.016,209.991,209.99
			c-0.001,115.973-94.017,209.989-209.991,209.988C124.027,434.989,30.011,340.973,30.011,225.001z"/>
	</defs>
	<clipPath id="SVGID_2_">
		<use xlink:href="#SVGID_28_"  overflow="visible"/>
	</clipPath>
	<g clip-path="url(#SVGID_2_)">
		<g>
			<path fill="#F0976B" d="M241,78.394c17.674-0.001,32-14.326,32-32.001V-97.606c0-17.674-14.326-32.001-32-32
				c-17.67-0.001-32,14.326-32,31.999V46.394C209,64.066,223.328,78.393,241,78.394z"/>
			<polygon fill="#EC4346" points="239.197,16 243.258,16 241.229,25.953 239.197,35.814 237.164,25.905 235.135,16 			"/>
			<path d="M227.195,59.802"/>
			<path fill="#FEC629" d="M240.999-16.604C258.675-16.606,273-2.28,273,15.394v-113c0-17.674-14.326-32.001-32-32
				c-17.67-0.001-32,14.326-32,31.999V15.394C209-2.28,223.329-16.606,240.999-16.604z"/>
			<path d="M240.288,79c17.673,0,32.001-14,32-32H232.26l-2.031,6.166l-2.025,6.071l-2.028-6.119L224.148,47h-15.861
				C208.288,65,222.616,79,240.288,79z"/>
			<path d="M232.288,86.396c-0.001-4.42,3.582-8.002,8.001-8.003c4.416,0,7.999,3.583,8,8c-0.001,4.419-3.582,8.001-8.002,8
				C235.87,94.394,232.288,90.811,232.288,86.396z"/>
			<polygon fill="#F0976B" points="275,11 275,158 271,158 271,160 275,160 275,167 283,167 283,11 			"/>
			<polygon fill="#F0976B" points="207,158 207,11 199,11 199,167 207,167 207,160 211,160 211,158 			"/>
		</g>
		<path d="M79.59,329.911"/>
		<path fill="#F0976B" d="M90.563,309.532c-8.667-15.403-28.176-20.865-43.581-12.201l-125.503,70.6
			c-15.405,8.664-20.868,28.175-12.201,43.582c8.664,15.402,28.175,20.865,43.578,12.199l125.505-70.599
			C93.768,344.446,99.228,324.937,90.563,309.532z"/>
		<polygon fill="#EC4346" points="36.832,339.427 34.842,335.884 44.116,332.999 53.506,330.046 46.166,336.507 38.822,342.966 		
			"/>
		<path d="M94.425,318.53c-0.393-0.697-0.746-1.406-1.081-2.119c-0.475-1.729-1.107-3.434-1.892-5.102
			c-0.333-0.712-0.687-1.414-1.076-2.109c-4.48-7.967-11.864-13.264-20.079-15.335c-2.525,8.14-1.84,17.256,2.667,25.265
			c4.474,7.957,11.837,13.268,20.04,15.359c6.325,1.615,13.149,1.316,19.535-1.156C105.119,330.94,98.548,325.86,94.425,318.53z"/>
		<g>
			<path d="M25.562,323.364c0,0-0.258,14.975,6.707,17.266c1.371,0.449,2.352-0.104,2.352-0.104s0.938-0.501,0.857-1.789
				c-0.091-1.471-1.299-3.422-4.997-4.447c-1.263-0.352-2.591-1.084-3.434-3.963C26.545,328.616,25.562,323.364,25.562,323.364z"/>
			<path d="M44.582,357.179c0,0-12.932-7.557-11.27-14.693c0.328-1.409,1.308-1.959,1.308-1.959s0.914-0.543,1.976,0.194
				c1.21,0.845,2.247,2.888,1.206,6.58c-0.358,1.263-0.422,2.778,1.604,4.995C40.606,353.608,44.582,357.179,44.582,357.179z"/>
		</g>
		
			<pattern  id="SVGID_3_" xlink:href="#Nueva_muestra_de_motivo_4" patternTransform="matrix(0.7742 1.3763 -1.3763 0.7742 -21131.2852 6139.5312)">
		</pattern>
		<path fill="url(#SVGID_3_)" d="M7.762,356.108c-8.664-15.401-3.2-34.91,12.203-43.578l-98.485,55.4
			c-15.405,8.664-20.868,28.175-12.201,43.582c8.664,15.402,28.175,20.865,43.578,12.199l98.486-55.402
			C35.938,376.974,16.427,371.513,7.762,356.108z"/>
		<g>
			<path d="M411.448,306.396"/>
			<path fill="#F0976B" d="M389.426,308.324c-8.727,15.37-3.336,34.901,12.036,43.624l125.239,71.072
				c15.371,8.723,34.902,3.334,43.623-12.037c8.721-15.369,3.334-34.903-12.037-43.625l-125.24-71.07
				C417.676,287.565,398.145,292.954,389.426,308.324z"/>
			<polygon fill="#EC4346" points="443.544,338.028 441.537,341.562 434.172,335.045 426.745,328.495 436.147,331.495 
				445.549,334.497 			"/>
			<path fill="#A4CB57" d="M472.049,355.211c-8.725,15.371-28.258,20.763-43.626,12.04l98.278,55.77
				c15.371,8.723,34.902,3.334,43.623-12.037c8.721-15.369,3.334-34.903-12.037-43.625l-98.276-55.771
				C475.379,320.311,480.771,339.843,472.049,355.211z"/>
			<polygon fill="#FEC629" points="375.165,300.487 379.145,293.47 384.121,300.932 389.049,308.366 380.12,307.933 
				371.188,307.495 			"/>
			<g>
				<path fill="#FEC629" d="M389.543,307.456c-0.176,0.296-0.358,0.583-0.531,0.885c-0.277,0.492-0.541,0.988-0.791,1.487
					c2.594,0.472,5.158,1.374,7.587,2.749C393.375,311.198,391.279,309.452,389.543,307.456z"/>
				<path fill="#FEC629" d="M395.808,312.577c-2.429-1.375-4.993-2.277-7.587-2.749c-7.391,14.753-2.308,32.782,11.76,41.493
					c1.885-1.69,3.535-3.703,4.857-6.026C411.376,333.769,407.335,319.118,395.808,312.577z"/>
				<path fill="#FEC629" d="M389.543,307.456c1.736,1.996,3.832,3.742,6.265,5.121c11.527,6.541,26.177,2.499,32.718-9.027
					c1.439-2.535,2.364-5.223,2.813-7.941C416.488,288.048,398.252,293.19,389.543,307.456z"/>
			</g>
			<polygon fill="#F0976B" points="428.058,369.91 299.876,297.952 301.832,294.465 300.089,293.485 298.132,296.974 
				292.026,293.546 288.108,300.523 424.142,376.889 			"/>
			<polygon fill="#F0976B" points="333.162,237.656 461.345,309.617 465.262,302.64 329.229,226.275 325.312,233.251 
				331.419,236.679 329.46,240.166 331.202,241.146 			"/>
		</g>
		<polygon fill="#F0976B" points="16.628,311.139 144.571,238.757 146.541,242.236 148.281,241.253 146.312,237.771 
			152.406,234.324 148.467,227.359 12.687,304.175 		"/>
		<polygon fill="#F0976B" points="178.91,298.461 50.964,370.841 54.904,377.805 190.683,300.99 186.743,294.027 180.648,297.474 
			178.68,293.992 176.94,294.976 		"/>
	</g>
</g>
</svg>
