<?xml version="1.0" encoding="utf-8"?>
<!-- Generator: Adobe Illustrator 16.0.0, SVG Export Plug-In . SVG Version: 6.00 Build 0)  -->
<!DOCTYPE svg PUBLIC "-//W3C//DTD SVG 1.1//EN" "http://www.w3.org/Graphics/SVG/1.1/DTD/svg11.dtd">
<svg version="1.1" id="Capa_1" xmlns="http://www.w3.org/2000/svg" xmlns:xlink="http://www.w3.org/1999/xlink" x="0px" y="0px"
	 width="480px" height="450px" viewBox="0 0 480 450" enable-background="new 0 0 480 450" xml:space="preserve">
<pattern  x="7169" y="5377" width="114" height="20" patternUnits="userSpaceOnUse" id="Nueva_muestra_de_motivo_4" viewBox="0 -20 114 20" overflow="visible">
	<g>
		<polygon fill="none" points="0,0 114,0 114,-20 0,-20 		"/>
		<polygon fill="#FFFFFF" points="114,0 0,0 0,-10 114,-10 		"/>
		<polygon fill="#2FA1BE" points="114,-10 0,-10 0,-20 114,-20 		"/>
	</g>
</pattern>
<g>
	<defs>
		<circle id="SVGID_7_" cx="239.987" cy="225" r="73.461"/>
	</defs>
	<clipPath id="SVGID_2_">
		<use xlink:href="#SVGID_7_"  overflow="visible"/>
	</clipPath>
	<g clip-path="url(#SVGID_2_)">
		<g>
			<path fill="#F0976B" d="M240,316.606c-17.674,0.002-32,14.326-32,32.002v144c0,17.672,14.326,32,32,31.998
				c17.67,0.002,32-14.324,32-31.998V348.606C272,330.935,257.671,316.608,240,316.606z"/>
			<polygon fill="#EC4346" points="240.791,379 236.73,379 238.76,369.046 240.791,359.188 242.824,369.095 244.853,379 			"/>
			<path d="M252.793,335.2"/>
			<path fill="#FEC629" d="M240.004,411.604C222.326,411.61,208,397.28,208,379.606v113.002c0,17.672,14.326,32,32,31.998
				c17.67,0.002,32-14.324,32-31.998v-113C272,397.28,257.67,411.608,240.004,411.604z"/>
			<path d="M239.702,317c-17.675,0-32.003,14-32,32h40.026l2.03-6.165l2.027-6.07l2.026,6.118L255.84,349h15.862
				C271.699,331,257.372,317,239.702,317z"/>
			<path d="M247.702,308.604c0,4.42-3.582,8.002-8,8.004c-4.419,0-8.002-3.584-8.003-8c0.001-4.42,3.582-8,8.003-8
				C244.118,300.606,247.699,304.19,247.702,308.604z"/>
			<path fill="#F0976B" d="M169.499,317.7c0.003-18.236,6.615-35.471,18.808-48.734l2.684,2.684l1.413-1.414l-2.724-2.725
				c1.398-1.432,2.499-2.52,3.606-3.525l-5.175-6.121c-16.784,15.244-26.309,36.881-26.309,59.537
				c-0.003,28.699,15.506,55.395,40.39,69.756l3.824-6.754C183.603,367.47,169.502,343.55,169.499,317.7z"/>
			<path fill="#F0976B" d="M290.834,257.663l-5.228,6.074c1.106,1.006,2.571,2.646,3.264,3.369l-3.128,3.129l1.414,1.414
				l3.181-3.182c12.193,13.264,19.054,30.746,19.051,48.979c0.003,25.854-13.996,49.873-36.41,62.807l3.961,6.893
				c24.883-14.361,40.321-41.127,40.321-69.826C317.26,294.663,307.615,272.909,290.834,257.663z"/>
		</g>
		<path d="M328.398,160.089"/>
		<path fill="#F0976B" d="M353.349,241.083c-15.898,8.945-34.79,11.455-52.328,7.326l0.9-3.219l-1.924-0.539l-0.917,3.281
			c-0.968-0.25-2.787-0.771-4.21-1.242l-2.479,7.604c21.513,7.152,45.201,4.889,64.944-6.219
			c25.016-14.068,40.76-40.652,41.079-69.379l-8.039-0.102C390.087,204.474,375.875,228.413,353.349,241.083z"/>
		<path fill="#F0976B" d="M242.17,164.944l7.796,1.801c0.333-1.463,0.854-3.363,1.144-4.318l3.126,0.873l0.539-1.926l-3.067-0.857
			c5.853-18.096,17.516-31.896,33.41-40.84c22.531-12.67,50.357-12.355,72.623,0.84l4.077-6.887
			c-24.718-14.641-55.604-15.01-80.619-0.936C261.452,123.802,247.227,142.845,242.17,164.944z"/>
		<path fill="#F0976B" d="M317.424,180.468c8.667,15.406,28.177,20.867,43.581,12.201l125.503-70.6
			c15.406-8.664,20.869-28.174,12.201-43.58c-8.662-15.404-28.173-20.867-43.577-12.199l-125.505,70.598
			C314.22,145.554,308.762,165.063,317.424,180.468z"/>
		<polygon fill="#EC4346" points="371.156,150.575 373.148,154.116 363.87,157.003 354.482,159.956 361.822,153.495 
			369.166,147.034 		"/>
		<path d="M313.564,171.47c0.392,0.697,0.746,1.406,1.08,2.119c0.476,1.73,1.106,3.434,1.892,5.104
			c0.334,0.711,0.684,1.412,1.077,2.107c4.479,7.967,11.863,13.266,20.078,15.336c2.524-8.141,1.841-17.256-2.669-25.266
			c-4.472-7.957-11.836-13.266-20.038-15.359c-6.323-1.615-13.15-1.316-19.535,1.156C302.87,159.06,309.44,164.14,313.564,171.47z"
			/>
		<g>
			<path d="M382.441,166.638c0,0,0.257-14.977-6.708-17.268c-1.371-0.449-2.35,0.104-2.35,0.104s-0.94,0.502-0.859,1.789
				c0.09,1.471,1.298,3.422,4.997,4.447c1.263,0.352,2.592,1.084,3.434,3.965C381.457,161.384,382.441,166.638,382.441,166.638z"/>
			<path d="M363.418,132.823c0,0,12.932,7.555,11.27,14.693c-0.326,1.408-1.305,1.957-1.305,1.957s-0.916,0.543-1.979-0.191
				c-1.208-0.848-2.245-2.891-1.206-6.582c0.359-1.262,0.423-2.779-1.602-4.994C367.395,136.392,363.418,132.823,363.418,132.823z"
				/>
		</g>
		
			<pattern  id="SVGID_3_" xlink:href="#Nueva_muestra_de_motivo_4" patternTransform="matrix(-0.7742 -1.3763 1.3763 -0.7742 -7569.8228 -40301.2969)">
		</pattern>
		<path fill="url(#SVGID_3_)" d="M400.227,133.892c8.664,15.402,3.2,34.91-12.203,43.578l98.484-55.4
			c15.406-8.664,20.869-28.174,12.201-43.58c-8.662-15.404-28.173-20.867-43.577-12.199l-98.485,55.402
			C372.05,113.026,391.562,118.487,400.227,133.892z"/>
		<g>
			<path d="M138.54,182.604"/>
			<path fill="#F0976B" d="M194.933,119.052c15.866,9.002,27.66,23.504,33.177,40.654l-3.031,0.838l0.533,1.926l3.091-0.854
				c0.549,1.924,0.881,3.17,1.211,4.631l7.845-1.607c-4.977-22.119-19.108-41.141-38.814-52.326
				c-24.958-14.164-55.839-13.885-80.611,0.666l4.017,6.77C144.662,106.642,172.454,106.292,194.933,119.052z"/>
			<path fill="#F0976B" d="M187.197,253.958l-2.385-7.631c-1.424,0.465-3.224,0.973-4.192,1.221l-1.075-3.9l-1.928,0.531
				l1.058,3.842c-17.552,4.057-36.459,1.482-52.319-7.52c-22.479-12.758-36.618-36.746-36.804-62.623l-8.031,0.068
				c0.208,28.727,15.832,55.373,40.792,69.537C142.016,258.667,165.658,261.028,187.197,253.958z"/>
			<path fill="#F0976B" d="M160.563,180.677c8.726-15.371,3.335-34.9-12.036-43.625L23.286,65.981
				c-15.37-8.723-34.902-3.334-43.622,12.035c-8.721,15.371-3.334,34.906,12.037,43.627l125.241,71.068
				C132.312,201.435,151.844,196.048,160.563,180.677z"/>
			<polygon fill="#EC4346" points="106.445,150.972 108.451,147.44 115.816,153.956 123.243,160.507 113.842,157.505 
				104.437,154.503 			"/>
			<path fill="#A4CB57" d="M77.939,133.79c8.724-15.371,28.258-20.764,43.626-12.041L23.286,65.981
				c-15.37-8.723-34.902-3.334-43.622,12.035c-8.721,15.371-3.334,34.906,12.037,43.627l98.275,55.771
				C74.609,168.69,69.218,149.159,77.939,133.79z"/>
			<polygon fill="#FEC629" points="174.822,188.515 170.844,195.532 165.867,188.069 160.938,180.634 169.87,181.067 178.8,181.505 
							"/>
			<g>
				<path fill="#FEC629" d="M160.445,181.544c0.175-0.295,0.358-0.582,0.531-0.885c0.276-0.492,0.54-0.988,0.791-1.484
					c-2.594-0.473-5.158-1.377-7.586-2.752C156.613,177.802,158.709,179.548,160.445,181.544z"/>
				<path fill="#FEC629" d="M154.182,176.423c2.428,1.375,4.992,2.279,7.586,2.752c7.391-14.756,2.307-32.783-11.76-41.496
					c-1.885,1.691-3.535,3.703-4.858,6.027C138.612,155.233,142.652,169.882,154.182,176.423z"/>
				<path fill="#FEC629" d="M160.445,181.544c-1.736-1.996-3.832-3.742-6.264-5.121c-11.529-6.541-26.177-2.498-32.719,9.027
					c-1.439,2.537-2.363,5.223-2.813,7.943C133.499,200.952,151.736,195.812,160.445,181.544z"/>
			</g>
		</g>
	</g>
</g>
</svg>
