<?xml version="1.0" encoding="utf-8"?>
<!-- Generator: Adobe Illustrator 16.0.0, SVG Export Plug-In . SVG Version: 6.00 Build 0)  -->
<!DOCTYPE svg PUBLIC "-//W3C//DTD SVG 1.1//EN" "http://www.w3.org/Graphics/SVG/1.1/DTD/svg11.dtd">
<svg version="1.1" xmlns="http://www.w3.org/2000/svg" xmlns:xlink="http://www.w3.org/1999/xlink" x="0px" y="0px" width="20px"
	 height="20px" viewBox="0 0 20 20" enable-background="new 0 0 20 20" xml:space="preserve">
<g id="Capa_1">
	<g>
		<g id="post-instagram">
			<path fill="#45B6F4" d="M17.172,1H2.797C1.809,1,1,1.809,1,2.797v14.375c0,0.988,0.809,1.797,1.797,1.797h14.375
				c0.988,0,1.797-0.809,1.797-1.797V2.797C18.969,1.809,18.16,1,17.172,1z M9.984,6.391c1.977,0,3.594,1.617,3.594,3.594
				s-1.617,3.594-3.594,3.594s-3.594-1.617-3.594-3.594S8.008,6.391,9.984,6.391z M3.246,17.172c-0.27,0-0.449-0.18-0.449-0.449
				V9.086h1.887c-0.09,0.27-0.09,0.629-0.09,0.898c0,2.965,2.426,5.391,5.391,5.391s5.391-2.426,5.391-5.391
				c0-0.27,0-0.629-0.09-0.898h1.887v7.637c0,0.27-0.18,0.449-0.449,0.449H3.246z M17.172,5.043c0,0.269-0.18,0.449-0.449,0.449
				h-1.797c-0.271,0-0.449-0.18-0.449-0.449V3.246c0-0.27,0.179-0.449,0.449-0.449h1.797c0.27,0,0.449,0.18,0.449,0.449V5.043z"/>
		</g>
	</g>
</g>
<g id="Capa_5" display="none">
</g>
<g id="Capa_2" display="none">
	<g display="inline">
		<path fill="#45B6F4" d="M17.18,10.074c-0.183-0.792-0.829-1.375-1.607-1.462c-1.844-0.206-3.712-0.207-5.569-0.206
			c-1.859-0.001-3.726,0-5.57,0.206c-0.779,0.087-1.425,0.67-1.607,1.462C2.566,11.2,2.563,12.43,2.563,13.59s0,2.39,0.26,3.516
			c0.182,0.791,0.828,1.374,1.607,1.461c1.844,0.207,3.71,0.207,5.569,0.207c1.858,0.001,3.726,0,5.57-0.207
			c0.777-0.087,1.425-0.67,1.608-1.461c0.257-1.126,0.259-2.355,0.259-3.516S17.439,11.2,17.18,10.074z M6.806,10.947H5.729v5.72h-1
			v-5.72H3.673V10.01h3.133V10.947z M9.522,16.667h-0.9v-0.541c-0.357,0.409-0.696,0.609-1.027,0.609
			c-0.29,0-0.489-0.117-0.579-0.369c-0.049-0.149-0.079-0.387-0.079-0.736v-3.923h0.898v3.651c0,0.211,0,0.32,0.008,0.35
			c0.021,0.14,0.09,0.211,0.21,0.211c0.18,0,0.368-0.139,0.568-0.421v-3.791h0.9V16.667L9.522,16.667z M12.938,15.179
			c0,0.458-0.032,0.788-0.092,0.998c-0.12,0.37-0.36,0.559-0.718,0.559c-0.321,0-0.63-0.178-0.93-0.549v0.481H10.3V10.01h0.898
			v2.174c0.29-0.357,0.599-0.538,0.93-0.538c0.357,0,0.598,0.188,0.718,0.56c0.061,0.2,0.092,0.528,0.092,0.997V15.179z
			 M16.329,14.352H14.53v0.879c0,0.459,0.15,0.688,0.46,0.688c0.221,0,0.351-0.12,0.401-0.361c0.008-0.049,0.021-0.248,0.021-0.608
			h0.917v0.131c0,0.29-0.012,0.489-0.02,0.58c-0.031,0.197-0.102,0.378-0.21,0.538c-0.25,0.36-0.618,0.537-1.088,0.537
			s-0.827-0.168-1.087-0.508c-0.191-0.248-0.29-0.639-0.29-1.167v-1.737c0-0.529,0.088-0.918,0.279-1.169
			c0.259-0.338,0.616-0.509,1.076-0.509c0.45,0,0.809,0.171,1.061,0.509c0.188,0.251,0.278,0.64,0.278,1.169V14.352L16.329,14.352z"
			/>
		<path fill="#45B6F4" d="M14.982,12.455c-0.302,0-0.452,0.229-0.452,0.688v0.459h0.899v-0.459
			C15.43,12.685,15.279,12.455,14.982,12.455z"/>
		<path fill="#45B6F4" d="M11.646,12.455c-0.148,0-0.299,0.07-0.448,0.219v3.023c0.149,0.15,0.3,0.222,0.448,0.222
			c0.259,0,0.392-0.222,0.392-0.67v-2.116C12.038,12.685,11.905,12.455,11.646,12.455z"/>
		<path fill="#45B6F4" d="M12.148,7.949c0.331,0,0.676-0.201,1.038-0.616V7.88h0.908V2.867h-0.908v3.832
			c-0.201,0.284-0.393,0.425-0.574,0.425c-0.122,0-0.192-0.072-0.213-0.212c-0.011-0.03-0.011-0.141-0.011-0.354V2.867h-0.905v3.964
			c0,0.354,0.029,0.593,0.079,0.745C11.654,7.831,11.855,7.949,12.148,7.949z"/>
		<path fill="#45B6F4" d="M5.825,5.156V7.88h1.007V5.156l1.212-4.003H7.025L6.338,3.795L5.623,1.153H4.562
			c0.213,0.624,0.434,1.25,0.646,1.875C5.532,3.966,5.734,4.673,5.825,5.156z"/>
		<path fill="#45B6F4" d="M9.394,7.949c0.455,0,0.809-0.171,1.06-0.513c0.19-0.251,0.282-0.646,0.282-1.178V4.501
			c0-0.535-0.091-0.927-0.282-1.181c-0.25-0.343-0.604-0.514-1.06-0.514c-0.453,0-0.807,0.171-1.058,0.514
			C8.144,3.575,8.052,3.966,8.052,4.501v1.756c0,0.532,0.092,0.927,0.285,1.178C8.587,7.778,8.941,7.949,9.394,7.949z M8.96,4.319
			c0-0.463,0.141-0.695,0.434-0.695s0.434,0.231,0.434,0.695v2.109c0,0.464-0.141,0.696-0.434,0.696S8.96,6.893,8.96,6.428V4.319z"
			/>
	</g>
</g>
<g id="Capa_3" display="none">
	<g display="inline">
		<g>
			<path id="Facebook" fill="#45B6F4" d="M8.201,4.46c0,0.45,0,2.459,0,2.459H6.398v3.006h1.802v8.938h3.701V9.926h2.483
				c0,0,0.232-1.441,0.346-3.018c-0.323,0-2.814,0-2.814,0s0-1.749,0-2.056c0-0.308,0.403-0.721,0.801-0.721
				c0.398,0,1.238,0,2.018,0c0-0.409,0-1.824,0-3.131c-1.039,0-2.221,0-2.742,0C8.108,1,8.201,4.01,8.201,4.46z"/>
		</g>
		<g>
		</g>
		<g>
		</g>
		<g>
		</g>
		<g>
		</g>
		<g>
		</g>
		<g>
		</g>
		<g>
		</g>
		<g>
		</g>
		<g>
		</g>
		<g>
		</g>
		<g>
		</g>
		<g>
		</g>
		<g>
		</g>
		<g>
		</g>
		<g>
		</g>
	</g>
</g>
<g id="Capa_4" display="none">
	<g display="inline">
		<g>
			<path fill="#45B6F4" d="M18.973,4.435c-0.662,0.293-1.371,0.491-2.115,0.58c0.762-0.456,1.344-1.177,1.619-2.037
				c-0.711,0.422-1.5,0.729-2.338,0.894c-0.672-0.716-1.629-1.163-2.688-1.163c-2.033,0-3.681,1.648-3.681,3.681
				c0,0.289,0.033,0.57,0.096,0.839C6.806,7.076,4.093,5.61,2.277,3.383C1.96,3.926,1.779,4.559,1.779,5.234
				c0,1.277,0.649,2.403,1.638,3.064C2.813,8.278,2.246,8.113,1.75,7.837c0,0.015,0,0.031,0,0.046c0,1.785,1.269,3.271,2.953,3.611
				c-0.309,0.082-0.634,0.127-0.969,0.127c-0.238,0-0.468-0.021-0.693-0.064c0.468,1.461,1.828,2.525,3.439,2.557
				c-1.26,0.986-2.848,1.574-4.572,1.574c-0.297,0-0.591-0.016-0.878-0.051c1.629,1.045,3.564,1.654,5.643,1.654
				c6.772,0,10.475-5.609,10.475-10.474c0-0.159-0.004-0.318-0.012-0.477C17.855,5.822,18.479,5.173,18.973,4.435z"/>
		</g>
		<g>
		</g>
		<g>
		</g>
		<g>
		</g>
		<g>
		</g>
		<g>
		</g>
		<g>
		</g>
		<g>
		</g>
		<g>
		</g>
		<g>
		</g>
		<g>
		</g>
		<g>
		</g>
		<g>
		</g>
		<g>
		</g>
		<g>
		</g>
		<g>
		</g>
	</g>
</g>
</svg>
